<svg id="Layer_1" data-name="Layer 1" xmlns="http://www.w3.org/2000/svg" viewBox="0 0 434 282">
  <title>assets_icon_5</title>
  <g id="Group_1398" data-name="Group 1398">
    <g id="Group_1396" data-name="Group 1396">
      <path id="Path_3685" data-name="Path 3685" d="M360,45.24l9,8.46-9.17,8.58" style="fill: none;stroke: #072d22;stroke-miterlimit: 10;stroke-width: 2px"/>
      <path id="Path_3686" data-name="Path 3686" d="M350.79,45.24l9,8.46-9.17,8.58" style="fill: none;stroke: #072d22;stroke-miterlimit: 10;stroke-width: 2px"/>
    </g>
    <g id="Group_1397" data-name="Group 1397">
      <path id="Path_3687" data-name="Path 3687" d="M134.23,11.46l9-8.46,9.17,8.59" style="fill: none;stroke: #072d22;stroke-miterlimit: 10;stroke-width: 2px"/>
      <path id="Path_3688" data-name="Path 3688" d="M134.23,20l9-8.45,9.17,8.58" style="fill: none;stroke: #072d22;stroke-miterlimit: 10;stroke-width: 2px"/>
    </g>
  </g>
  <g id="Group_1400" data-name="Group 1400">
    <path id="Path_3541" data-name="Path 3541" d="M44.54,243.83a1.41,1.41,0,1,0,.73,2.72l4.28-1.15a1.41,1.41,0,1,0-.66-2.74l-.07,0Z" style="fill: #4b4b4b"/>
    <path id="Path_3542" data-name="Path 3542" d="M53.51,247.78a1.41,1.41,0,0,0-1.92.51l-2.22,3.84a1.43,1.43,0,0,0,.52,1.93,1.41,1.41,0,0,0,1.93-.52h0L54,249.7A1.4,1.4,0,0,0,53.51,247.78Z" style="fill: #4b4b4b"/>
    <path id="Path_3543" data-name="Path 3543" d="M57,250.45l1.15,4.28a1.41,1.41,0,0,0,2.72-.73l-1.15-4.28a1.41,1.41,0,1,0-2.72.73Z" style="fill: #4b4b4b"/>
    <path id="Path_3544" data-name="Path 3544" d="M44.78,235a1.4,1.4,0,0,0,.52,1.92l3.83,2.22a1.41,1.41,0,0,0,1.45-2.43l0,0L46.7,234.5a1.4,1.4,0,0,0-1.92.52Z" style="fill: #4b4b4b"/>
    <path id="Path_3545" data-name="Path 3545" d="M55.32,234.92a1.38,1.38,0,0,0,.14-1.07l-1.15-4.27a1.41,1.41,0,1,0-2.72.73l1.15,4.28a1.4,1.4,0,0,0,1.72,1h0A1.37,1.37,0,0,0,55.32,234.92Z" style="fill: #4b4b4b"/>
    <path id="Path_3546" data-name="Path 3546" d="M63.34,239a1.41,1.41,0,0,0,.66,2.74l.07,0,4.28-1.15a1.41,1.41,0,0,0-.73-2.72Z" style="fill: #4b4b4b"/>
    <path id="Path_3547" data-name="Path 3547" d="M61.07,230.81l-2.21,3.84a1.41,1.41,0,1,0,2.44,1.41l2.21-3.84a1.41,1.41,0,0,0-2.44-1.41Z" style="fill: #4b4b4b"/>
    <path id="Path_3548" data-name="Path 3548" d="M61.83,245.72a1.4,1.4,0,0,0,.52,1.92l3.83,2.22a1.41,1.41,0,1,0,1.41-2.45l-3.84-2.21A1.4,1.4,0,0,0,61.83,245.72Z" style="fill: #4b4b4b"/>
  </g>
  <g id="Group_1401" data-name="Group 1401">
    <path id="Path_3541-2" data-name="Path 3541-2" d="M22.54,41.83a1.41,1.41,0,1,0,.73,2.72l4.28-1.15a1.41,1.41,0,1,0-.66-2.74l-.07,0Z" style="fill: #4b4b4b"/>
    <path id="Path_3542-2" data-name="Path 3542-2" d="M31.51,45.78a1.41,1.41,0,0,0-1.92.51l-2.22,3.84a1.43,1.43,0,0,0,.52,1.93,1.41,1.41,0,0,0,1.93-.52h0L32,47.7A1.4,1.4,0,0,0,31.51,45.78Z" style="fill: #4b4b4b"/>
    <path id="Path_3543-2" data-name="Path 3543-2" d="M35,48.45l1.15,4.28A1.41,1.41,0,0,0,38.87,52l-1.15-4.28a1.41,1.41,0,1,0-2.72.73Z" style="fill: #4b4b4b"/>
    <path id="Path_3544-2" data-name="Path 3544-2" d="M22.78,33a1.4,1.4,0,0,0,.52,1.92l3.83,2.22a1.41,1.41,0,1,0,1.45-2.43l0,0L24.7,32.5a1.4,1.4,0,0,0-1.92.52Z" style="fill: #4b4b4b"/>
    <path id="Path_3545-2" data-name="Path 3545-2" d="M33.32,32.92a1.38,1.38,0,0,0,.14-1.07l-1.15-4.27a1.41,1.41,0,1,0-2.72.73l1.15,4.28a1.4,1.4,0,0,0,1.72,1h0A1.37,1.37,0,0,0,33.32,32.92Z" style="fill: #4b4b4b"/>
    <path id="Path_3546-2" data-name="Path 3546-2" d="M41.34,37A1.41,1.41,0,0,0,42,39.69l.07,0,4.28-1.15a1.41,1.41,0,0,0-.73-2.72Z" style="fill: #4b4b4b"/>
    <path id="Path_3547-2" data-name="Path 3547-2" d="M39.07,28.81l-2.21,3.84a1.41,1.41,0,1,0,2.44,1.41l2.21-3.84a1.41,1.41,0,0,0-2.44-1.41Z" style="fill: #4b4b4b"/>
    <path id="Path_3548-2" data-name="Path 3548-2" d="M39.83,43.72a1.4,1.4,0,0,0,.52,1.92l3.83,2.22a1.41,1.41,0,1,0,1.41-2.45L41.75,43.2A1.4,1.4,0,0,0,39.83,43.72Z" style="fill: #4b4b4b"/>
  </g>
  <g id="Ellipse_12" data-name="Ellipse 12">
    <circle cx="360" cy="269.72" r="12" style="fill: none"/>
    <circle cx="360" cy="269.72" r="11" style="fill: none;stroke: #707070;stroke-width: 2px"/>
  </g>
  <rect width="434" height="282" style="fill: none"/>
</svg>
