<svg id="Layer_1" data-name="Layer 1" xmlns="http://www.w3.org/2000/svg" viewBox="0 0 445 282">
  <title>assets_icon_4</title>
  <g id="Group_1363" data-name="Group 1363">
    <path id="Path_3568" data-name="Path 3568" d="M310,243l8.22-7.35a6.32,6.32,0,0,1,8.11-.25l3.3,2.6a8.13,8.13,0,0,0,10.45-.33l3.14-2.79a6.29,6.29,0,0,1,8.1-.25l8.66,6.82" style="fill: none;stroke: #4b4b4b;stroke-miterlimit: 10;stroke-width: 2px"/>
    <path id="Path_3569" data-name="Path 3569" d="M46.29,64.51l-4-10.27a6.3,6.3,0,0,1,2.58-7.68l3.59-2.19a8.14,8.14,0,0,0,3.34-9.91l-1.54-3.91a6.31,6.31,0,0,1,2.58-7.69l9.41-5.75" style="fill: none;stroke: #4b4b4b;stroke-miterlimit: 10;stroke-width: 2px"/>
  </g>
  <g id="Group_1367" data-name="Group 1367">
    <g id="Group_1364" data-name="Group 1364">
      <path id="Path_3570" data-name="Path 3570" d="M436.07,149.93h0a1.52,1.52,0,0,1-1.75-1.25h0l-2.57-15.9A1.51,1.51,0,0,1,433,131h0a1.52,1.52,0,0,1,1.74,1.26h0l2.58,15.9a1.5,1.5,0,0,1-1.25,1.73Z" style="fill: #4b4b4b"/>
      <path id="Path_3571" data-name="Path 3571" d="M425.09,142h0a1.52,1.52,0,0,1,1.25-1.74l15.9-2.58A1.52,1.52,0,0,1,444,139h0a1.53,1.53,0,0,1-1.26,1.74h0l-15.89,2.58a1.52,1.52,0,0,1-1.74-1.26Z" style="fill: #4b4b4b"/>
    </g>
    <g id="Group_1365" data-name="Group 1365">
      <path id="Path_3572" data-name="Path 3572" d="M8.43,209.65h0A1.52,1.52,0,0,1,7.08,208h0l1.7-16a1.52,1.52,0,0,1,1.67-1.35h0a1.51,1.51,0,0,1,1.35,1.67l-1.7,16a1.51,1.51,0,0,1-1.66,1.35Z" style="fill: #4b4b4b"/>
      <path id="Path_3573" data-name="Path 3573" d="M-.07,199.12h0a1.51,1.51,0,0,1,1.66-1.35l16,1.7A1.52,1.52,0,0,1,19,201.14h0a1.52,1.52,0,0,1-1.67,1.35h0l-16-1.7A1.51,1.51,0,0,1-.07,199.12Z" style="fill: #4b4b4b"/>
    </g>
    <g id="Group_1366" data-name="Group 1366">
      <path id="Path_3574" data-name="Path 3574" d="M316,21.2h0a1.51,1.51,0,0,1-1.35-1.67h0l1.7-16a1.51,1.51,0,0,1,1.66-1.35h0a1.52,1.52,0,0,1,1.35,1.67h0l-1.7,16A1.52,1.52,0,0,1,316,21.2Z" style="fill: #4b4b4b"/>
      <path id="Path_3575" data-name="Path 3575" d="M307.53,10.68h0a1.52,1.52,0,0,1,1.67-1.35h0l16,1.7a1.5,1.5,0,0,1,1.34,1.66h0A1.5,1.5,0,0,1,324.9,14h0l-16-1.7A1.51,1.51,0,0,1,307.53,10.68Z" style="fill: #4b4b4b"/>
    </g>
  </g>
  <rect width="445" height="282" style="fill: none"/>
</svg>
