<svg id="Layer_1" data-name="Layer 1" xmlns="http://www.w3.org/2000/svg" viewBox="0 0 380 284">
  <title>assets_icon_1</title>
  <path id="Path_3605" data-name="Path 3605" d="M78.06,250.49,56.15,263.61A3.75,3.75,0,0,1,51,262.32h0L44.24,251a3.76,3.76,0,0,1,1.3-5.15,3.6,3.6,0,0,1,1.69-.52l28.66-1.85a3.76,3.76,0,0,1,2.17,7Z" style="fill: none;stroke: #4b4b4b;stroke-miterlimit: 10;stroke-width: 2px"/>
  <path id="Path_3606" data-name="Path 3606" d="M366.53,125.48l-22.77-11.57a3.76,3.76,0,0,1-1.65-5l6-11.72a3.76,3.76,0,0,1,6.39-.5l16.81,23.29a3.75,3.75,0,0,1-4.74,5.55Z" style="fill: none;stroke: #4b4b4b;stroke-miterlimit: 10;stroke-width: 2px"/>
  <path id="Path_3607" data-name="Path 3607" d="M301.55,51.43l16-19.91a3.75,3.75,0,0,1,5.28-.57l10.24,8.23a3.74,3.74,0,0,1,.57,5.28,3.67,3.67,0,0,1-1.39,1.08L306,57.21a3.75,3.75,0,0,1-4.45-5.78Z" style="fill: none;stroke: #4b4b4b;stroke-miterlimit: 10;stroke-width: 2px"/>
  <path id="Path_3608" data-name="Path 3608" d="M34.54,79.11,19.33,58.59a3.76,3.76,0,0,0-5.25-.78L3.53,65.64A3.74,3.74,0,0,0,4.1,72L29.87,84.71a3.75,3.75,0,0,0,4.67-5.6Z" style="fill: none;stroke: #4b4b4b;stroke-miterlimit: 10;stroke-width: 2px"/>
  <g id="Group_1374" data-name="Group 1374">
    <g id="Group_1352" data-name="Group 1352">
      <path id="Path_3533" data-name="Path 3533" d="M318.5,185.59a1.41,1.41,0,0,0,.73,2.72l4.28-1.15a1.41,1.41,0,0,0-.66-2.74l-.07,0Z" style="fill: #4b4b4b"/>
      <path id="Path_3534" data-name="Path 3534" d="M327.47,189.54a1.41,1.41,0,0,0-1.92.51h0l-2.22,3.84a1.41,1.41,0,0,0,2.45,1.41l2.21-3.84a1.41,1.41,0,0,0-.51-1.92Z" style="fill: #4b4b4b"/>
      <path id="Path_3535" data-name="Path 3535" d="M331,192.21l1.15,4.28a1.41,1.41,0,1,0,2.74-.66s0-.05,0-.08l-1.15-4.28a1.41,1.41,0,0,0-2.74.66A.24.24,0,0,0,331,192.21Z" style="fill: #4b4b4b"/>
      <path id="Path_3536" data-name="Path 3536" d="M318.74,176.78a1.41,1.41,0,0,0,.51,1.92l3.84,2.22a1.41,1.41,0,0,0,1.45-2.43l0,0-3.84-2.21A1.4,1.4,0,0,0,318.74,176.78Z" style="fill: #4b4b4b"/>
      <path id="Path_3537" data-name="Path 3537" d="M329.28,176.68a1.38,1.38,0,0,0,.14-1.07l-1.15-4.27a1.41,1.41,0,1,0-2.72.73l1.15,4.28a1.41,1.41,0,0,0,2.58.33Z" style="fill: #4b4b4b"/>
      <path id="Path_3538" data-name="Path 3538" d="M337.3,180.71a1.41,1.41,0,0,0-1,1.73h0a1.41,1.41,0,0,0,1.72,1h0l4.28-1.15a1.41,1.41,0,1,0-.66-2.74l-.07,0Z" style="fill: #4b4b4b"/>
      <path id="Path_3539" data-name="Path 3539" d="M335,172.58l-2.22,3.84a1.41,1.41,0,0,0,2.45,1.4l2.21-3.83a1.41,1.41,0,1,0-2.42-1.45Z" style="fill: #4b4b4b"/>
      <path id="Path_3540" data-name="Path 3540" d="M335.79,187.47a1.41,1.41,0,0,0,.52,1.93l3.83,2.21a1.41,1.41,0,0,0,1.41-2.44L337.71,187A1.41,1.41,0,0,0,335.79,187.47Z" style="fill: #4b4b4b"/>
    </g>
    <g id="Group_1353" data-name="Group 1353">
      <path id="Path_3541" data-name="Path 3541" d="M224.55,59.23a1.41,1.41,0,1,0,.73,2.72l4.28-1.14a1.41,1.41,0,0,0-.66-2.75l-.08,0Z" style="fill: #4b4b4b"/>
      <path id="Path_3542" data-name="Path 3542" d="M233.52,63.18a1.41,1.41,0,0,0-1.93.52l-2.21,3.83a1.41,1.41,0,0,0,2.45,1.41h0L234,65.11A1.42,1.42,0,0,0,233.52,63.18Z" style="fill: #4b4b4b"/>
      <path id="Path_3543" data-name="Path 3543" d="M237,65.85l1.15,4.28a1.41,1.41,0,0,0,2.73-.73l-1.15-4.28a1.41,1.41,0,0,0-2.73.73Z" style="fill: #4b4b4b"/>
      <path id="Path_3544" data-name="Path 3544" d="M224.78,50.42a1.43,1.43,0,0,0,.52,1.93l3.84,2.21a1.41,1.41,0,1,0,1.44-2.42l0,0-3.84-2.22a1.42,1.42,0,0,0-1.93.52Z" style="fill: #4b4b4b"/>
      <path id="Path_3545" data-name="Path 3545" d="M235.32,50.33a1.44,1.44,0,0,0,.15-1.07L234.32,45a1.41,1.41,0,0,0-2.73.73L232.74,50a1.41,1.41,0,0,0,1.73,1h0A1.36,1.36,0,0,0,235.32,50.33Z" style="fill: #4b4b4b"/>
      <path id="Path_3546" data-name="Path 3546" d="M243.34,54.35A1.41,1.41,0,0,0,244,57.1l.08,0,4.27-1.15a1.41,1.41,0,1,0-.73-2.72Z" style="fill: #4b4b4b"/>
      <path id="Path_3547" data-name="Path 3547" d="M241.07,46.22l-2.21,3.83a1.41,1.41,0,0,0,2.45,1.41l2.21-3.83a1.41,1.41,0,1,0-2.45-1.41Z" style="fill: #4b4b4b"/>
      <path id="Path_3548" data-name="Path 3548" d="M241.83,61.12a1.42,1.42,0,0,0,.52,1.92l3.84,2.22a1.41,1.41,0,0,0,1.41-2.44l-3.84-2.22A1.43,1.43,0,0,0,241.83,61.12Z" style="fill: #4b4b4b"/>
    </g>
  </g>
  <rect width="380" height="284" style="fill: none"/>
</svg>
