<svg id="Layer_1" data-name="Layer 1" xmlns="http://www.w3.org/2000/svg" viewBox="0 0 396 280">
  <title>assets_icon_3</title>
  <g id="Group_1383" data-name="Group 1383">
    <path id="Path_3642" data-name="Path 3642" d="M50.38,247.26a1.31,1.31,0,1,1-.68,2.52h0l-4-1.06a1.31,1.31,0,0,1,.68-2.53Z" style="fill: #28212d"/>
    <path id="Path_3643" data-name="Path 3643" d="M42.06,250.92a1.3,1.3,0,0,1,1.78.48h0l2,3.55a1.31,1.31,0,0,1-2.26,1.31l-2.05-3.56A1.3,1.3,0,0,1,42.06,250.92Z" style="fill: #28212d"/>
    <path id="Path_3644" data-name="Path 3644" d="M38.83,253.39l-1.07,4a1.3,1.3,0,0,1-1.58.95,1.31,1.31,0,0,1-1-1.58l0-.05,1.06-4a1.31,1.31,0,0,1,2.53.68Z" style="fill: #28212d"/>
    <path id="Path_3645" data-name="Path 3645" d="M50.16,239.09a1.31,1.31,0,0,1-.48,1.78h0l-3.56,2.06a1.31,1.31,0,0,1-1.31-2.27l3.56-2a1.31,1.31,0,0,1,1.79.48Z" style="fill: #28212d"/>
    <path id="Path_3646" data-name="Path 3646" d="M40.38,239a1.32,1.32,0,0,1-.13-1l1.07-4a1.31,1.31,0,0,1,2.52.68l-1.06,4a1.31,1.31,0,0,1-1.6.93,1.28,1.28,0,0,1-.8-.62Z" style="fill: #28212d"/>
    <path id="Path_3647" data-name="Path 3647" d="M33,242.74a1.31,1.31,0,1,1-.68,2.52h0l-4-1.06a1.31,1.31,0,0,1,.68-2.53h0Z" style="fill: #28212d"/>
    <path id="Path_3648" data-name="Path 3648" d="M35.05,235.19l2.05,3.56a1.3,1.3,0,0,1-2.26,1.3l-2.05-3.56a1.3,1.3,0,0,1,2.26-1.3Z" style="fill: #28212d"/>
    <path id="Path_3649" data-name="Path 3649" d="M34.35,249a1.31,1.31,0,0,1-.48,1.78h0l-3.56,2.05A1.31,1.31,0,1,1,29,250.58l3.56-2.05a1.31,1.31,0,0,1,1.79.48Z" style="fill: #28212d"/>
  </g>
  <g id="Group_1384" data-name="Group 1384">
    <path id="Path_3642-2" data-name="Path 3642-2" d="M331.38,51.26a1.31,1.31,0,0,1-.68,2.52h0l-4-1.06a1.31,1.31,0,0,1,.68-2.53Z" style="fill: #4b4b4b"/>
    <path id="Path_3643-2" data-name="Path 3643-2" d="M323.06,54.92a1.3,1.3,0,0,1,1.78.48h0L326.89,59a1.31,1.31,0,0,1-2.26,1.31l-2.05-3.56A1.3,1.3,0,0,1,323.06,54.92Z" style="fill: #4b4b4b"/>
    <path id="Path_3644-2" data-name="Path 3644-2" d="M319.83,57.39l-1.07,4a1.3,1.3,0,0,1-1.58,1,1.31,1.31,0,0,1-1-1.58l0,0,1.06-4a1.31,1.31,0,0,1,2.53.68Z" style="fill: #4b4b4b"/>
    <path id="Path_3645-2" data-name="Path 3645-2" d="M331.16,43.09a1.31,1.31,0,0,1-.48,1.78h0l-3.56,2.06a1.31,1.31,0,1,1-1.31-2.27l3.56-2a1.31,1.31,0,0,1,1.79.48Z" style="fill: #4b4b4b"/>
    <path id="Path_3646-2" data-name="Path 3646-2" d="M321.38,43a1.32,1.32,0,0,1-.13-1l1.07-4a1.31,1.31,0,0,1,2.52.68l-1.06,4a1.31,1.31,0,0,1-1.6.93,1.28,1.28,0,0,1-.8-.62Z" style="fill: #4b4b4b"/>
    <path id="Path_3647-2" data-name="Path 3647-2" d="M314,46.74a1.31,1.31,0,1,1-.68,2.52h0l-4-1.06a1.31,1.31,0,1,1,.67-2.53h0Z" style="fill: #4b4b4b"/>
    <path id="Path_3648-2" data-name="Path 3648-2" d="M316.05,39.19l2.05,3.56a1.3,1.3,0,0,1-2.26,1.3l-2-3.56a1.3,1.3,0,1,1,2.26-1.3Z" style="fill: #4b4b4b"/>
    <path id="Path_3649-2" data-name="Path 3649-2" d="M315.35,53a1.31,1.31,0,0,1-.48,1.78h0l-3.56,2.05A1.31,1.31,0,1,1,310,54.58l3.56-2a1.31,1.31,0,0,1,1.79.48Z" style="fill: #4b4b4b"/>
  </g>
  <path id="Path_3652" data-name="Path 3652" d="M326.77,182l2.43,10.16a6,6,0,0,1-3.44,6.87l-3.65,1.59a7.69,7.69,0,0,0-4.44,8.86l.92,3.88a6,6,0,0,1-3.43,6.87l-9.6,4.15" style="fill: none;stroke: #4b4b4b;stroke-miterlimit: 10;stroke-width: 2px"/>
  <path id="Path_3653" data-name="Path 3653" d="M39,37l1.74-10.31a6,6,0,0,1,5.84-5l4,0a7.71,7.71,0,0,0,7.55-6.43l.66-3.92a6,6,0,0,1,5.85-5l10.45-.08" style="fill: none;stroke: #4b4b4b;stroke-miterlimit: 10;stroke-width: 2px"/>
  <g id="Ellipse_10" data-name="Ellipse 10">
    <circle cx="379.88" cy="121.87" r="12" style="fill: none"/>
    <circle cx="379.88" cy="121.87" r="11" style="fill: none;stroke: #4b4b4b;stroke-width: 2px"/>
  </g>
  <rect width="396" height="280" style="fill: none"/>
</svg>
