<svg id="Layer_1" data-name="Layer 1" xmlns="http://www.w3.org/2000/svg" viewBox="0 0 351 282">
  <title>assets_icon_2</title>
  <g id="Ellipse_8" data-name="Ellipse 8">
    <circle cx="333.75" cy="235.5" r="12" style="fill: none"/>
    <circle cx="333.75" cy="235.5" r="11" style="fill: none;stroke: #707070;stroke-width: 2px"/>
  </g>
  <path id="Path_3654" data-name="Path 3654" d="M238.59,225.87l21,14.58a3.75,3.75,0,0,1,.94,5.22L253,256.48a3.75,3.75,0,0,1-6.4-.38l-13.49-25.38a3.76,3.76,0,0,1,5.46-4.85Z" style="fill: none;stroke: #4b4b4b;stroke-miterlimit: 10;stroke-width: 2px"/>
  <g id="Ellipse_7" data-name="Ellipse 7">
    <circle cx="21.75" cy="12.5" r="12" style="fill: none"/>
    <circle cx="21.75" cy="12.5" r="11" style="fill: none;stroke: #707070;stroke-width: 2px"/>
  </g>
  <g id="Group_1375" data-name="Group 1375">
    <path id="Path_3574" data-name="Path 3574" d="M254.5,54.47h0a1.44,1.44,0,0,1-.18-2h0l9.82-11.68a1.44,1.44,0,0,1,2-.18h0a1.43,1.43,0,0,1,.18,2h0l-9.83,11.68a1.43,1.43,0,0,1-2,.18Z" style="fill: #4b4b4b"/>
    <path id="Path_3575" data-name="Path 3575" d="M253.39,41.69h0a1.44,1.44,0,0,1,2-.18h0l11.68,9.83a1.43,1.43,0,0,1,.18,2h0a1.44,1.44,0,0,1-2,.18h0l-11.68-9.82A1.44,1.44,0,0,1,253.39,41.69Z" style="fill: #4b4b4b"/>
  </g>
  <g id="Group_1376" data-name="Group 1376">
    <path id="Path_3574-2" data-name="Path 3574-2" d="M64.5,222.47h0a1.44,1.44,0,0,1-.18-2h0l9.82-11.68a1.44,1.44,0,0,1,2-.18h0a1.43,1.43,0,0,1,.18,2h0l-9.83,11.68a1.43,1.43,0,0,1-2,.18Z" style="fill: #4b4b4b"/>
    <path id="Path_3575-2" data-name="Path 3575-2" d="M63.39,209.69h0a1.44,1.44,0,0,1,2-.18h0l11.68,9.83a1.43,1.43,0,0,1,.18,2h0a1.44,1.44,0,0,1-2,.18h0l-11.68-9.82A1.44,1.44,0,0,1,63.39,209.69Z" style="fill: #4b4b4b"/>
  </g>
  <rect width="351" height="282" style="fill: none"/>
</svg>
