<svg id="Layer_1" data-name="Layer 1" xmlns="http://www.w3.org/2000/svg" viewBox="0 0 1965.96 1124.43">
  <title>bg</title>
  <g id="Group_212" data-name="Group 212">
    <g id="huellas">
      <g id="Group_131" data-name="Group 131">
        <path id="Path_288" data-name="Path 288" d="M701.66,557.46a32.61,32.61,0,0,1,4.45-12.33c12.38-19.87,38.4-19.39,51.94-1.45a33.38,33.38,0,0,1,6.76,16.58c.61,6.22-1,12.93-4.88,17.08s-10,5.14-14.27,1.64a19.39,19.39,0,0,1-4.55-5.52c-1.15-2.15-2.31-4.38-4.7-5.37a7.5,7.5,0,0,0-3.25-.51,9,9,0,0,0-7.95,5c-1.31,2.55-2.68,5.43-5.46,6.63a9.23,9.23,0,0,1-6,.27C703.46,576.8,700.29,567.07,701.66,557.46Z" style="fill: #f2f2f2"/>
        <g id="Group_130" data-name="Group 130">
          <g id="Group_129" data-name="Group 129">
            <path id="Path_289" data-name="Path 289" d="M716,506.62c-8.72,3.24-10.54,16-1.24,19.78a10.52,10.52,0,0,0,13.34-14.5C726,507.74,720.55,504.94,716,506.62Z" style="fill: #f2f2f2"/>
            <path id="Path_290" data-name="Path 290" d="M743.74,506.62c-8.71,3.24-10.54,16-1.24,19.78a10.52,10.52,0,0,0,13.34-14.5C753.73,507.74,748.28,504.94,743.74,506.62Z" style="fill: #f2f2f2"/>
          </g>
          <path id="Path_291" data-name="Path 291" d="M766.71,524.59c-7.3,1.61-9.46,11.36-4.06,16.39a10.38,10.38,0,0,0,14.6-1.14C783.35,532.07,775.55,522.63,766.71,524.59Z" style="fill: #f2f2f2"/>
          <path id="Path_292" data-name="Path 292" d="M694,524.59c-7.3,1.61-9.46,11.36-4.06,16.39a10.36,10.36,0,0,0,14.59-1.14C710.59,532.07,702.78,522.63,694,524.59Z" style="fill: #f2f2f2"/>
        </g>
      </g>
      <g id="Group_134" data-name="Group 134">
        <path id="Path_293" data-name="Path 293" d="M35.1,469.34a32.43,32.43,0,0,1,1-13.07c6.57-22.47,31.76-29,49.63-15.37a33.25,33.25,0,0,1,11,14.15c2.27,5.83,2.5,12.73-.1,17.76s-8.25,7.64-13.3,5.42a19.46,19.46,0,0,1-5.86-4.09c-1.69-1.76-3.4-3.6-6-3.92a7.56,7.56,0,0,0-3.27.39,9,9,0,0,0-6.32,6.93c-.58,2.8-1.12,5.95-3.48,7.86a9.18,9.18,0,0,1-5.67,1.85C42,487.49,36.35,479,35.1,469.34Z" style="fill: #f2f2f2"/>
        <g id="Group_133" data-name="Group 133">
          <g id="Group_132" data-name="Group 132">
            <path id="Path_294" data-name="Path 294" d="M35.24,416.52c-7.52,5.46-5.84,18.25,4.13,19.38a10.52,10.52,0,0,0,9-17.56C45.17,414.9,39.16,413.67,35.24,416.52Z" style="fill: #f2f2f2"/>
            <path id="Path_295" data-name="Path 295" d="M61.94,409.06c-7.52,5.46-5.84,18.25,4.13,19.38a10.52,10.52,0,0,0,9-17.56C71.87,407.44,65.86,406.22,61.94,409.06Z" style="fill: #f2f2f2"/>
          </g>
          <path id="Path_296" data-name="Path 296" d="M88.9,420.18c-6.59,3.52-6.05,13.49.5,16.87a10.36,10.36,0,0,0,13.75-5C106.94,422.91,96.89,415.92,88.9,420.18Z" style="fill: #f2f2f2"/>
          <path id="Path_297" data-name="Path 297" d="M18.82,439.76c-6.59,3.52-6.06,13.49.5,16.87a10.36,10.36,0,0,0,13.75-5C36.86,442.48,26.8,435.5,18.82,439.76Z" style="fill: #f2f2f2"/>
        </g>
      </g>
      <g id="Group_137" data-name="Group 137">
        <path id="Path_298" data-name="Path 298" d="M229.69,693.05a32.39,32.39,0,0,1,7.6-10.68c17.26-15.81,42.2-8.34,50.41,12.58a33.25,33.25,0,0,1,2,17.78c-1.08,6.16-4.45,12.19-9.29,15.14s-11,2.26-14.18-2.26a19.22,19.22,0,0,1-2.9-6.54c-.53-2.38-1.05-4.84-3.08-6.44a7.51,7.51,0,0,0-3-1.36,9,9,0,0,0-9,2.65c-2,2.1-4.05,4.51-7,4.92a9.18,9.18,0,0,1-5.82-1.36C226.21,712.16,225.77,701.93,229.69,693.05Z" style="fill: #f2f2f2"/>
        <g id="Group_136" data-name="Group 136">
          <g id="Group_135" data-name="Group 135">
            <path id="Path_299" data-name="Path 299" d="M257.19,648c-9.27.77-14.46,12.58-6.52,18.71a10.52,10.52,0,0,0,16.75-10.38C266.51,651.71,262,647.55,257.19,648Z" style="fill: #f2f2f2"/>
            <path id="Path_300" data-name="Path 300" d="M283.89,655.41c-9.27.77-14.46,12.58-6.52,18.71a10.52,10.52,0,0,0,16.75-10.38C293.21,659.17,288.71,655,283.89,655.41Z" style="fill: #f2f2f2"/>
          </g>
          <path id="Path_301" data-name="Path 301" d="M301.18,678.89c-7.46-.41-12.17,8.4-8.32,14.69a10.36,10.36,0,0,0,14.36,2.83C315.19,690.57,310.21,679.39,301.18,678.89Z" style="fill: #f2f2f2"/>
          <path id="Path_302" data-name="Path 302" d="M231.1,659.31c-7.46-.41-12.17,8.4-8.32,14.69a10.35,10.35,0,0,0,14.35,2.83C245.11,671,240.13,659.81,231.1,659.31Z" style="fill: #f2f2f2"/>
        </g>
      </g>
      <g id="Group_140" data-name="Group 140">
        <path id="Path_303" data-name="Path 303" d="M1547.9,492.81a32.4,32.4,0,0,1,4.46-12.33c12.37-19.87,38.39-19.39,51.94-1.45a33.37,33.37,0,0,1,6.75,16.58c.62,6.22-1,12.93-4.88,17.07s-10,5.15-14.27,1.65a19.53,19.53,0,0,1-4.55-5.52c-1.15-2.15-2.31-4.38-4.69-5.38a7.57,7.57,0,0,0-3.26-.5,9,9,0,0,0-8,5c-1.31,2.55-2.68,5.43-5.46,6.63a9.16,9.16,0,0,1-6,.26C1549.7,512.15,1546.52,502.42,1547.9,492.81Z" style="fill: #f2f2f2"/>
        <g id="Group_139" data-name="Group 139">
          <g id="Group_138" data-name="Group 138">
            <path id="Path_304" data-name="Path 304" d="M1562.26,442c-8.72,3.23-10.54,16-1.24,19.78a10.52,10.52,0,0,0,13.34-14.5C1572.25,443.09,1566.79,440.29,1562.26,442Z" style="fill: #f2f2f2"/>
            <path id="Path_305" data-name="Path 305" d="M1590,442c-8.72,3.23-10.54,16-1.24,19.78a10.52,10.52,0,0,0,13.34-14.5C1600,443.09,1594.52,440.29,1590,442Z" style="fill: #f2f2f2"/>
          </g>
          <path id="Path_306" data-name="Path 306" d="M1613,459.94c-7.3,1.61-9.46,11.36-4.06,16.38a10.35,10.35,0,0,0,14.59-1.13C1629.59,467.42,1621.79,458,1613,459.94Z" style="fill: #f2f2f2"/>
          <path id="Path_307" data-name="Path 307" d="M1540.19,459.94c-7.3,1.61-9.46,11.36-4.06,16.38a10.36,10.36,0,0,0,14.59-1.13C1556.82,467.42,1549,458,1540.19,459.94Z" style="fill: #f2f2f2"/>
        </g>
      </g>
      <g id="Group_143" data-name="Group 143">
        <path id="Path_308" data-name="Path 308" d="M1028.84,448.32a32.32,32.32,0,0,1,8.82-9.7c19-13.64,42.88-3.27,48.56,18.48a33.37,33.37,0,0,1-.09,17.9c-1.8,6-5.87,11.57-11,13.93s-11.22.93-13.82-3.93a19.37,19.37,0,0,1-2.1-6.84c-.24-2.43-.46-4.93-2.28-6.76a7.72,7.72,0,0,0-2.82-1.71,9.06,9.06,0,0,0-9.25,1.56c-2.18,1.86-4.55,4-7.57,4.05a9.16,9.16,0,0,1-5.62-2C1023.12,466.88,1023.9,456.67,1028.84,448.32Z" style="fill: #f2f2f2"/>
        <g id="Group_142" data-name="Group 142">
          <g id="Group_141" data-name="Group 141">
            <path id="Path_309" data-name="Path 309" d="M1061.51,406.8c-9.29-.33-15.85,10.78-8.7,17.81a10.52,10.52,0,0,0,17.86-8.31C1070.32,411.65,1066.34,407,1061.51,406.8Z" style="fill: #f2f2f2"/>
            <path id="Path_310" data-name="Path 310" d="M1087.14,417.39c-9.3-.34-15.86,10.77-8.7,17.81a10.52,10.52,0,0,0,17.86-8.32C1096,422.23,1092,417.56,1087.14,417.39Z" style="fill: #f2f2f2"/>
          </g>
          <path id="Path_311" data-name="Path 311" d="M1101.51,442.76c-7.36-1.29-13.08,6.89-10,13.6a10.35,10.35,0,0,0,13.92,4.52C1114,456,1110.42,444.33,1101.51,442.76Z" style="fill: #f2f2f2"/>
          <path id="Path_312" data-name="Path 312" d="M1034.25,415c-7.35-1.3-13.08,6.89-10,13.6a10.35,10.35,0,0,0,13.92,4.52C1046.78,428.25,1043.16,416.56,1034.25,415Z" style="fill: #f2f2f2"/>
        </g>
      </g>
      <g id="Group_146" data-name="Group 146">
        <path id="Path_313" data-name="Path 313" d="M1304.93,713a32.45,32.45,0,0,1-.61-13.09c3.83-23.09,28-32.61,47.43-21.21a33.23,33.23,0,0,1,12.58,12.73c3,5.51,4,12.34,2,17.64s-7.27,8.59-12.55,7a19.42,19.42,0,0,1-6.32-3.35c-1.88-1.55-3.81-3.17-6.39-3.18a7.73,7.73,0,0,0-3.2.78,9,9,0,0,0-5.44,7.64c-.24,2.85-.4,6-2.51,8.22a9.19,9.19,0,0,1-5.41,2.52C1314,730.21,1307.33,722.43,1304.93,713Z" style="fill: #f2f2f2"/>
        <g id="Group_145" data-name="Group 145">
          <g id="Group_144" data-name="Group 144">
            <path id="Path_314" data-name="Path 314" d="M1298.73,660.56c-6.81,6.33-3.61,18.82,6.43,18.75a10.52,10.52,0,0,0,6.77-18.5C1308.39,657.77,1302.28,657.27,1298.73,660.56Z" style="fill: #f2f2f2"/>
            <path id="Path_315" data-name="Path 315" d="M1324.35,650c-6.82,6.33-3.61,18.83,6.42,18.75a10.52,10.52,0,0,0,6.77-18.5C1334,647.16,1327.89,646.66,1324.35,650Z" style="fill: #f2f2f2"/>
          </g>
          <path id="Path_316" data-name="Path 316" d="M1352.45,657.76c-6.13,4.28-4.4,14.12,2.51,16.69a10.36,10.36,0,0,0,13-6.63C1370.68,658.31,1359.86,652.57,1352.45,657.76Z" style="fill: #f2f2f2"/>
          <path id="Path_317" data-name="Path 317" d="M1285.22,685.61c-6.13,4.28-4.4,14.12,2.52,16.69a10.35,10.35,0,0,0,13-6.63C1303.45,686.15,1292.63,680.42,1285.22,685.61Z" style="fill: #f2f2f2"/>
        </g>
      </g>
      <g id="Group_149" data-name="Group 149">
        <path id="Path_318" data-name="Path 318" d="M679.69,270.72a32.34,32.34,0,0,1,.16-13.11c5.16-22.83,29.89-30.93,48.58-18.43a33.28,33.28,0,0,1,11.82,13.43c2.63,5.68,3.29,12.55,1,17.73s-7.77,8.15-12.94,6.24a19.57,19.57,0,0,1-6.12-3.71c-1.79-1.65-3.62-3.38-6.2-3.54a7.67,7.67,0,0,0-3.24.59,9,9,0,0,0-5.87,7.31c-.4,2.84-.75,6-3,8.06a9.21,9.21,0,0,1-5.55,2.21C687.75,288.39,681.55,280.24,679.69,270.72Z" style="fill: #f2f2f2"/>
        <g id="Group_148" data-name="Group 148">
          <g id="Group_147" data-name="Group 147">
            <path id="Path_319" data-name="Path 319" d="M676.55,218c-7.17,5.92-4.7,18.58,5.33,19.09A10.52,10.52,0,0,0,689.71,219C686.35,215.76,680.28,214.9,676.55,218Z" style="fill: #f2f2f2"/>
            <path id="Path_320" data-name="Path 320" d="M702.73,208.87c-7.17,5.92-4.69,18.59,5.33,19.09a10.52,10.52,0,0,0,7.84-18.08C712.54,206.65,706.46,205.79,702.73,208.87Z" style="fill: #f2f2f2"/>
          </g>
          <path id="Path_321" data-name="Path 321" d="M730.33,218.29c-6.36,3.93-5.2,13.85,1.55,16.82a10.37,10.37,0,0,0,13.41-5.87C748.51,219.89,738,213.55,730.33,218.29Z" style="fill: #f2f2f2"/>
          <path id="Path_322" data-name="Path 322" d="M661.6,242.2c-6.36,3.92-5.2,13.84,1.55,16.81a10.36,10.36,0,0,0,13.41-5.86C679.78,243.8,669.31,237.46,661.6,242.2Z" style="fill: #f2f2f2"/>
        </g>
      </g>
      <g id="Group_152" data-name="Group 152">
        <path id="Path_323" data-name="Path 323" d="M27.44,71.83a32.4,32.4,0,0,1,9.84-8.65C57.7,51.74,80.27,64.7,83.48,87a33.32,33.32,0,0,1-2.07,17.77c-2.47,5.76-7.13,10.85-12.5,12.61s-11.26-.31-13.3-5.44a19.21,19.21,0,0,1-1.33-7c0-2.44.09-5-1.52-7a7.44,7.44,0,0,0-2.61-2,9,9,0,0,0-9.36.52c-2.37,1.6-5,3.46-8,3.18a9.25,9.25,0,0,1-5.35-2.65C19.68,89.65,21.6,79.59,27.44,71.83Z" style="fill: #f2f2f2"/>
        <g id="Group_151" data-name="Group 151">
          <g id="Group_150" data-name="Group 150">
            <path id="Path_324" data-name="Path 324" d="M64.53,34.22c-9.2-1.37-17,9-10.63,16.74a10.53,10.53,0,0,0,18.69-6.28C72.74,40,69.31,34.94,64.53,34.22Z" style="fill: #f2f2f2"/>
            <path id="Path_325" data-name="Path 325" d="M88.81,47.59c-9.2-1.37-17,8.94-10.62,16.73a10.52,10.52,0,0,0,18.68-6.27C97,53.39,93.6,48.3,88.81,47.59Z" style="fill: #f2f2f2"/>
          </g>
          <path id="Path_326" data-name="Path 326" d="M100.28,74.41c-7.17-2.1-13.77,5.39-11.46,12.4a10.36,10.36,0,0,0,13.33,6C111.25,89,109,77,100.28,74.41Z" style="fill: #f2f2f2"/>
          <path id="Path_327" data-name="Path 327" d="M36.53,39.32c-7.17-2.1-13.77,5.39-11.46,12.4a10.36,10.36,0,0,0,13.33,6C47.5,53.9,45.21,41.87,36.53,39.32Z" style="fill: #f2f2f2"/>
        </g>
      </g>
      <g id="Group_155" data-name="Group 155">
        <path id="Path_328" data-name="Path 328" d="M229.62,320a32.73,32.73,0,0,1,7.74-10.58c17.47-15.58,42.3-7.81,50.26,13.22a33.37,33.37,0,0,1,1.81,17.8c-1.15,6.15-4.61,12.13-9.48,15S268.9,357.55,265.8,353a19.36,19.36,0,0,1-2.82-6.57c-.5-2.39-1-4.86-3-6.48a7.57,7.57,0,0,0-3-1.4,9,9,0,0,0-9,2.53c-2,2.08-4.1,4.46-7.11,4.83a9.21,9.21,0,0,1-5.8-1.42C225.91,339,225.6,328.8,229.62,320Z" style="fill: #f2f2f2"/>
        <g id="Group_154" data-name="Group 154">
          <g id="Group_153" data-name="Group 153">
            <path id="Path_329" data-name="Path 329" d="M257.7,275.22c-9.28.66-14.62,12.4-6.75,18.64a10.52,10.52,0,0,0,16.87-10.17C267,279.11,262.52,274.88,257.7,275.22Z" style="fill: #f2f2f2"/>
            <path id="Path_330" data-name="Path 330" d="M284.3,283c-9.27.65-14.61,12.4-6.75,18.63a10.52,10.52,0,0,0,16.88-10.17C293.58,286.9,289.13,282.68,284.3,283Z" style="fill: #f2f2f2"/>
          </g>
          <path id="Path_331" data-name="Path 331" d="M301.3,306.72c-7.46-.5-12.28,8.24-8.51,14.58a10.37,10.37,0,0,0,14.32,3C315.16,318.58,310.32,307.33,301.3,306.72Z" style="fill: #f2f2f2"/>
          <path id="Path_332" data-name="Path 332" d="M231.47,286.26c-7.46-.5-12.28,8.24-8.51,14.58a10.35,10.35,0,0,0,14.32,3C245.33,298.11,240.49,286.87,231.47,286.26Z" style="fill: #f2f2f2"/>
        </g>
      </g>
      <g id="Group_158" data-name="Group 158">
        <path id="Path_333" data-name="Path 333" d="M515.41,46.1a32.23,32.23,0,0,1,7.74-10.58c17.46-15.59,42.3-7.81,50.25,13.22a33.27,33.27,0,0,1,1.82,17.8c-1.16,6.14-4.61,12.12-9.48,15s-11,2.13-14.16-2.43a19.31,19.31,0,0,1-2.81-6.58c-.5-2.39-1-4.85-3-6.48a7.5,7.5,0,0,0-3-1.4,9.05,9.05,0,0,0-9,2.54c-2,2.07-4.1,4.45-7.1,4.83a9.2,9.2,0,0,1-5.8-1.43C511.7,65.17,511.39,54.93,515.41,46.1Z" style="fill: #f2f2f2"/>
        <g id="Group_157" data-name="Group 157">
          <g id="Group_156" data-name="Group 156">
            <path id="Path_334" data-name="Path 334" d="M543.48,1.35c-9.27.65-14.61,12.4-6.75,18.63a10.8,10.8,0,0,0,12,.77,10.81,10.81,0,0,0,4.91-10.93C552.76,5.23,548.31,1,543.48,1.35Z" style="fill: #f2f2f2"/>
            <path id="Path_335" data-name="Path 335" d="M570.08,9.15c-9.27.65-14.61,12.4-6.75,18.63a10.82,10.82,0,0,0,12,.77,10.82,10.82,0,0,0,4.91-10.94C579.36,13,574.91,8.81,570.08,9.15Z" style="fill: #f2f2f2"/>
          </g>
          <path id="Path_336" data-name="Path 336" d="M587.08,32.85c-7.45-.5-12.27,8.24-8.5,14.58a10.35,10.35,0,0,0,14.32,3C601,44.7,596.11,33.45,587.08,32.85Z" style="fill: #f2f2f2"/>
          <path id="Path_337" data-name="Path 337" d="M517.25,12.38c-7.46-.5-12.28,8.25-8.51,14.58a10.36,10.36,0,0,0,14.33,3C531.11,24.24,526.28,13,517.25,12.38Z" style="fill: #f2f2f2"/>
        </g>
      </g>
      <g id="Group_161" data-name="Group 161">
        <path id="Path_338" data-name="Path 338" d="M1560.4,100.48a32.42,32.42,0,0,1-1-13.07c3.09-23.2,27-33.49,46.73-22.72a33.35,33.35,0,0,1,13,12.32c3.13,5.42,4.4,12.2,2.6,17.57s-7,8.81-12.33,7.37a19.41,19.41,0,0,1-6.42-3.15c-1.93-1.48-3.91-3-6.49-3a7.72,7.72,0,0,0-3.18.88,9,9,0,0,0-5.19,7.81c-.14,2.86-.21,6-2.24,8.29a9.18,9.18,0,0,1-5.33,2.7C1570,117.36,1563.11,109.79,1560.4,100.48Z" style="fill: #f2f2f2"/>
        <g id="Group_160" data-name="Group 160">
          <g id="Group_159" data-name="Group 159">
            <path id="Path_339" data-name="Path 339" d="M1552.53,48.24c-6.61,6.54-3,18.93,7,18.53a10.52,10.52,0,0,0,6.17-18.71C1562.1,45.14,1556,44.84,1552.53,48.24Z" style="fill: #f2f2f2"/>
            <path id="Path_340" data-name="Path 340" d="M1577.8,36.82c-6.61,6.54-3,18.93,7,18.53A10.52,10.52,0,0,0,1591,36.64C1587.36,33.72,1581.23,33.41,1577.8,36.82Z" style="fill: #f2f2f2"/>
          </g>
          <path id="Path_341" data-name="Path 341" d="M1606.13,43.72c-6,4.47-3.94,14.25,3,16.6a10.36,10.36,0,0,0,12.83-7C1624.37,43.68,1613.37,38.3,1606.13,43.72Z" style="fill: #f2f2f2"/>
          <path id="Path_342" data-name="Path 342" d="M1539.83,73.7c-6,4.48-3.94,14.26,3.05,16.61a10.36,10.36,0,0,0,12.83-7C1558.07,73.66,1547.07,68.29,1539.83,73.7Z" style="fill: #f2f2f2"/>
        </g>
      </g>
      <g id="Group_164" data-name="Group 164">
        <path id="Path_343" data-name="Path 343" d="M1883.65,318a32.37,32.37,0,0,1,10.26-8.15c21-10.41,42.86,3.66,45,26a33.4,33.4,0,0,1-2.95,17.65c-2.75,5.62-7.66,10.47-13.12,12s-11.22-.88-13-6.1a19.55,19.55,0,0,1-1-7.08c.16-2.44.34-4.94-1.17-7.05a7.49,7.49,0,0,0-2.5-2.14,9,9,0,0,0-9.37.06c-2.45,1.48-5.14,3.21-8.13,2.78a9.2,9.2,0,0,1-5.22-2.91C1875,335.38,1877.43,325.42,1883.65,318Z" style="fill: #f2f2f2"/>
        <g id="Group_163" data-name="Group 163">
          <g id="Group_162" data-name="Group 162">
            <path id="Path_344" data-name="Path 344" d="M1922.56,282.25c-9.11-1.83-17.37,8.08-11.44,16.18a10.52,10.52,0,0,0,19-5.34C1930.48,288.45,1927.31,283.2,1922.56,282.25Z" style="fill: #f2f2f2"/>
            <path id="Path_345" data-name="Path 345" d="M1946.16,296.8c-9.12-1.82-17.38,8.09-11.45,16.19a10.52,10.52,0,0,0,19-5.34C1954.07,303,1950.9,297.75,1946.16,296.8Z" style="fill: #f2f2f2"/>
          </g>
          <path id="Path_346" data-name="Path 346" d="M1956.27,324.16c-7-2.46-14,4.7-12.06,11.81a10.36,10.36,0,0,0,13,6.7C1966.5,339.26,1964.81,327.14,1956.27,324.16Z" style="fill: #f2f2f2"/>
          <path id="Path_347" data-name="Path 347" d="M1894.35,285.94c-7.06-2.45-14,4.7-12.07,11.82a10.37,10.37,0,0,0,13,6.7C1904.58,301.05,1902.89,288.92,1894.35,285.94Z" style="fill: #f2f2f2"/>
        </g>
      </g>
      <g id="Group_167" data-name="Group 167">
        <path id="Path_348" data-name="Path 348" d="M1030.62,88.74a32.38,32.38,0,0,1,4.45-12.33C1047.45,56.54,1073.47,57,1087,75a33.39,33.39,0,0,1,6.76,16.57c.61,6.23-1,12.94-4.88,17.08s-10,5.15-14.27,1.64a19.32,19.32,0,0,1-4.55-5.51c-1.15-2.15-2.31-4.38-4.69-5.38a7.73,7.73,0,0,0-3.26-.51,9.06,9.06,0,0,0-7.95,5c-1.31,2.54-2.68,5.43-5.46,6.63a9.16,9.16,0,0,1-6,.26C1032.42,108.08,1029.25,98.34,1030.62,88.74Z" style="fill: #f2f2f2"/>
        <g id="Group_166" data-name="Group 166">
          <g id="Group_165" data-name="Group 165">
            <path id="Path_349" data-name="Path 349" d="M1045,37.9c-8.72,3.23-10.54,16-1.24,19.78a10.52,10.52,0,0,0,13.34-14.51C1055,39,1049.51,36.21,1045,37.9Z" style="fill: #f2f2f2"/>
            <path id="Path_350" data-name="Path 350" d="M1072.7,37.9c-8.72,3.23-10.54,16-1.24,19.78a10.52,10.52,0,0,0,13.34-14.51C1082.69,39,1077.24,36.21,1072.7,37.9Z" style="fill: #f2f2f2"/>
          </g>
          <path id="Path_351" data-name="Path 351" d="M1095.68,55.86c-7.3,1.62-9.47,11.36-4.07,16.39a10.36,10.36,0,0,0,14.59-1.13C1112.32,63.34,1104.51,53.91,1095.68,55.86Z" style="fill: #f2f2f2"/>
          <path id="Path_352" data-name="Path 352" d="M1022.91,55.86c-7.3,1.62-9.47,11.36-4.07,16.39a10.38,10.38,0,0,0,14.6-1.13C1039.55,63.34,1031.74,53.91,1022.91,55.86Z" style="fill: #f2f2f2"/>
        </g>
      </g>
      <g id="Group_170" data-name="Group 170">
        <path id="Path_353" data-name="Path 353" d="M1298.8,329.38a32.4,32.4,0,0,1,4.45-12.32c12.37-19.87,38.39-19.4,51.94-1.45a33.34,33.34,0,0,1,6.75,16.57c.62,6.23-1,12.94-4.87,17.08s-10,5.15-14.27,1.64a19.43,19.43,0,0,1-4.56-5.52c-1.15-2.15-2.31-4.37-4.69-5.37a7.55,7.55,0,0,0-3.26-.51,9,9,0,0,0-7.94,5c-1.31,2.54-2.69,5.42-5.47,6.63a9.16,9.16,0,0,1-6,.26C1300.6,348.73,1297.42,339,1298.8,329.38Z" style="fill: #f2f2f2"/>
        <g id="Group_169" data-name="Group 169">
          <g id="Group_168" data-name="Group 168">
            <path id="Path_354" data-name="Path 354" d="M1313.16,278.54c-8.72,3.24-10.54,16-1.25,19.78a10.52,10.52,0,0,0,13.35-14.5C1323.15,279.66,1317.69,276.86,1313.16,278.54Z" style="fill: #f2f2f2"/>
            <path id="Path_355" data-name="Path 355" d="M1340.88,278.54c-8.72,3.24-10.54,16-1.24,19.78a10.52,10.52,0,0,0,13.34-14.5C1350.87,279.66,1345.41,276.86,1340.88,278.54Z" style="fill: #f2f2f2"/>
          </g>
          <path id="Path_356" data-name="Path 356" d="M1363.85,296.51c-7.3,1.61-9.46,11.36-4.06,16.39a10.36,10.36,0,0,0,14.59-1.14C1380.49,304,1372.68,294.56,1363.85,296.51Z" style="fill: #f2f2f2"/>
          <path id="Path_357" data-name="Path 357" d="M1291.08,296.51c-7.3,1.61-9.46,11.36-4.06,16.39a10.36,10.36,0,0,0,14.59-1.14C1307.72,304,1299.92,294.56,1291.08,296.51Z" style="fill: #f2f2f2"/>
        </g>
      </g>
      <g id="Group_173" data-name="Group 173">
        <path id="Path_358" data-name="Path 358" d="M597.29,870.36a32.68,32.68,0,0,1,2.8-12.8c9.67-21.32,35.52-24.26,51.3-8.24a33.25,33.25,0,0,1,8.87,15.54c1.43,6.09.69,13-2.6,17.57s-9.24,6.42-13.93,3.5a19.29,19.29,0,0,1-5.24-4.87c-1.42-2-2.86-4-5.35-4.71a7.66,7.66,0,0,0-3.3-.08,9,9,0,0,0-7.22,6c-1,2.7-2,5.74-4.55,7.29a9.19,9.19,0,0,1-5.88,1.05C601.62,889.3,597.19,880.06,597.29,870.36Z" style="fill: #f2f2f2"/>
        <g id="Group_172" data-name="Group 172">
          <g id="Group_171" data-name="Group 171">
            <path id="Path_359" data-name="Path 359" d="M604.86,818.08c-8.22,4.35-8.35,17.25,1.36,19.77a10.52,10.52,0,0,0,11.33-16.13C614.91,817.88,609.14,815.82,604.86,818.08Z" style="fill: #f2f2f2"/>
            <path id="Path_360" data-name="Path 360" d="M632.34,814.44c-8.21,4.35-8.35,17.25,1.37,19.77A10.51,10.51,0,0,0,645,818.09C642.4,814.24,636.62,812.18,632.34,814.44Z" style="fill: #f2f2f2"/>
          </g>
          <path id="Path_361" data-name="Path 361" d="M657.48,829.24c-7,2.56-7.9,12.5-1.88,16.78a10.35,10.35,0,0,0,14.31-3C675,834.48,666,826.15,657.48,829.24Z" style="fill: #f2f2f2"/>
          <path id="Path_362" data-name="Path 362" d="M585.34,838.78c-7,2.56-7.9,12.5-1.88,16.78a10.36,10.36,0,0,0,14.31-3C602.81,844,593.84,835.69,585.34,838.78Z" style="fill: #f2f2f2"/>
        </g>
      </g>
      <g id="Group_176" data-name="Group 176">
        <path id="Path_363" data-name="Path 363" d="M672.37,1102a32.47,32.47,0,0,1,2.8-12.8c9.67-21.32,35.52-24.26,51.3-8.25a33.29,33.29,0,0,1,8.87,15.55c1.43,6.09.69,13-2.59,17.57s-9.25,6.41-13.94,3.5a19.45,19.45,0,0,1-5.23-4.88c-1.42-2-2.86-4-5.36-4.71a7.61,7.61,0,0,0-3.29-.08,9,9,0,0,0-7.23,6c-1,2.7-2,5.73-4.55,7.29a9.21,9.21,0,0,1-5.87,1C676.69,1121,672.27,1111.73,672.37,1102Z" style="fill: #f2f2f2"/>
        <g id="Group_175" data-name="Group 175">
          <g id="Group_174" data-name="Group 174">
            <path id="Path_364" data-name="Path 364" d="M679.94,1049.75c-8.22,4.35-8.35,17.25,1.36,19.77a10.52,10.52,0,0,0,11.33-16.13C690,1049.55,684.21,1047.48,679.94,1049.75Z" style="fill: #f2f2f2"/>
            <path id="Path_365" data-name="Path 365" d="M707.43,1046.11c-8.22,4.36-8.35,17.26,1.36,19.78a10.52,10.52,0,0,0,11.32-16.13C717.48,1045.91,711.7,1043.85,707.43,1046.11Z" style="fill: #f2f2f2"/>
          </g>
          <path id="Path_366" data-name="Path 366" d="M732.55,1060.91c-7,2.56-7.89,12.5-1.87,16.78a10.36,10.36,0,0,0,14.31-3C750,1066.15,741.05,1057.82,732.55,1060.91Z" style="fill: #f2f2f2"/>
          <path id="Path_367" data-name="Path 367" d="M660.41,1070.45c-7,2.56-7.89,12.5-1.87,16.78a10.36,10.36,0,0,0,14.31-3C677.89,1075.69,668.92,1067.36,660.41,1070.45Z" style="fill: #f2f2f2"/>
        </g>
      </g>
      <g id="Group_179" data-name="Group 179">
        <path id="Path_368" data-name="Path 368" d="M36.05,840.41a32.67,32.67,0,0,1,.41-13.1C42.07,804.59,67,797,85.4,809.83A33.36,33.36,0,0,1,97,823.49c2.52,5.73,3,12.62.66,17.75s-7.92,8-13,6a19.17,19.17,0,0,1-6-3.84c-1.76-1.68-3.55-3.44-6.13-3.65a7.51,7.51,0,0,0-3.25.52,9.06,9.06,0,0,0-6,7.2c-.46,2.82-.87,6-3.13,8a9.24,9.24,0,0,1-5.59,2.1C43.76,858.25,37.72,850,36.05,840.41Z" style="fill: #f2f2f2"/>
        <g id="Group_178" data-name="Group 178">
          <g id="Group_177" data-name="Group 177">
            <path id="Path_369" data-name="Path 369" d="M33.94,787.63c-7.29,5.78-5.06,18.49,5,19.19a10.52,10.52,0,0,0,8.19-17.92C43.79,785.59,37.73,784.62,33.94,787.63Z" style="fill: #f2f2f2"/>
            <path id="Path_370" data-name="Path 370" d="M60.3,779c-7.29,5.78-5.06,18.49,5,19.19a10.52,10.52,0,0,0,8.19-17.92C70.14,777,64.09,776,60.3,779Z" style="fill: #f2f2f2"/>
          </g>
          <path id="Path_371" data-name="Path 371" d="M87.71,789c-6.44,3.8-5.48,13.74,1.22,16.84a10.36,10.36,0,0,0,13.52-5.6C105.85,790.94,95.5,784.39,87.71,789Z" style="fill: #f2f2f2"/>
          <path id="Path_372" data-name="Path 372" d="M18.53,811.55c-6.44,3.8-5.48,13.74,1.22,16.84a10.36,10.36,0,0,0,13.52-5.6C36.67,813.51,26.32,807,18.53,811.55Z" style="fill: #f2f2f2"/>
        </g>
      </g>
      <g id="Group_182" data-name="Group 182">
        <path id="Path_373" data-name="Path 373" d="M229.36,1059.31a32.43,32.43,0,0,1,8.71-9.8c18.86-13.86,42.85-3.76,48.76,17.93a33.18,33.18,0,0,1,.12,17.9c-1.73,6-5.74,11.63-10.86,14.05s-11.2,1.06-13.86-3.77a19.55,19.55,0,0,1-2.18-6.81c-.27-2.43-.52-4.93-2.36-6.74a7.65,7.65,0,0,0-2.84-1.68,9.07,9.07,0,0,0-9.23,1.67c-2.16,1.88-4.5,4-7.53,4.13a9.16,9.16,0,0,1-5.63-2C223.85,1077.94,224.51,1067.72,229.36,1059.31Z" style="fill: #f2f2f2"/>
        <g id="Group_181" data-name="Group 181">
          <g id="Group_180" data-name="Group 180">
            <path id="Path_374" data-name="Path 374" d="M261.56,1017.43c-9.3-.23-15.73,11-8.5,17.91a10.52,10.52,0,0,0,17.77-8.52C270.42,1022.18,266.39,1017.55,261.56,1017.43Z" style="fill: #f2f2f2"/>
            <path id="Path_375" data-name="Path 375" d="M287.3,1027.72c-9.3-.23-15.73,11-8.49,17.9a10.52,10.52,0,0,0,17.77-8.51C296.16,1032.46,292.14,1027.84,287.3,1027.72Z" style="fill: #f2f2f2"/>
          </g>
          <path id="Path_376" data-name="Path 376" d="M302,1052.93c-7.38-1.21-13,7-9.85,13.71a10.37,10.37,0,0,0,14,4.36C314.64,1066.05,310.89,1054.39,302,1052.93Z" style="fill: #f2f2f2"/>
          <path id="Path_377" data-name="Path 377" d="M234.39,1025.92c-7.37-1.21-13,7-9.85,13.71a10.36,10.36,0,0,0,14,4.36C247.07,1039,243.32,1027.39,234.39,1025.92Z" style="fill: #f2f2f2"/>
        </g>
      </g>
      <g id="Group_185" data-name="Group 185">
        <path id="Path_378" data-name="Path 378" d="M1886.05,981.73a32.47,32.47,0,0,1-.24-13.1c4.48-23,29-31.81,48-19.88A33.35,33.35,0,0,1,1946,961.83c2.8,5.6,3.66,12.44,1.54,17.69s-7.52,8.38-12.75,6.62a19.31,19.31,0,0,1-6.22-3.53c-1.84-1.6-3.72-3.26-6.3-3.34a7.6,7.6,0,0,0-3.22.68,9,9,0,0,0-5.65,7.48c-.32,2.85-.58,6-2.74,8.15a9.18,9.18,0,0,1-5.48,2.37C1894.63,999.16,1888.19,991.2,1886.05,981.73Z" style="fill: #f2f2f2"/>
        <g id="Group_184" data-name="Group 184">
          <g id="Group_183" data-name="Group 183">
            <path id="Path_379" data-name="Path 379" d="M1881.33,929.12c-7,6.13-4.14,18.71,5.9,18.92a10.52,10.52,0,0,0,7.29-18.31C1891.07,926.6,1885,925.93,1881.33,929.12Z" style="fill: #f2f2f2"/>
            <path id="Path_380" data-name="Path 380" d="M1907.23,919.23c-7,6.13-4.14,18.71,5.9,18.92a10.52,10.52,0,0,0,7.29-18.31C1917,916.71,1910.87,916,1907.23,919.23Z" style="fill: #f2f2f2"/>
          </g>
          <path id="Path_381" data-name="Path 381" d="M1935.1,927.82c-6.24,4.11-4.79,14,2.05,16.76a10.37,10.37,0,0,0,13.23-6.27C1953.31,928.87,1942.66,922.84,1935.1,927.82Z" style="fill: #f2f2f2"/>
          <path id="Path_382" data-name="Path 382" d="M1867.12,953.77c-6.24,4.11-4.79,14,2.05,16.76a10.36,10.36,0,0,0,13.23-6.26C1885.33,954.83,1874.68,948.8,1867.12,953.77Z" style="fill: #f2f2f2"/>
        </g>
      </g>
      <g id="Group_188" data-name="Group 188">
        <path id="Path_383" data-name="Path 383" d="M1481.81,884.75a32.47,32.47,0,0,1-.24-13.1c4.48-23,29-31.81,48-19.88a33.43,33.43,0,0,1,12.22,13.08c2.8,5.6,3.66,12.45,1.53,17.69s-7.51,8.38-12.74,6.63a19.39,19.39,0,0,1-6.22-3.53c-1.84-1.6-3.72-3.27-6.3-3.35a7.6,7.6,0,0,0-3.22.68,9.07,9.07,0,0,0-5.66,7.49c-.31,2.84-.57,6-2.73,8.14A9.18,9.18,0,0,1,1501,901C1490.39,902.18,1484,894.22,1481.81,884.75Z" style="fill: #f2f2f2"/>
        <g id="Group_187" data-name="Group 187">
          <g id="Group_186" data-name="Group 186">
            <path id="Path_384" data-name="Path 384" d="M1477.09,832.14c-7,6.13-4.14,18.71,5.9,18.92a10.52,10.52,0,0,0,7.29-18.31C1486.82,829.62,1480.73,829,1477.09,832.14Z" style="fill: #f2f2f2"/>
            <path id="Path_385" data-name="Path 385" d="M1503,822.25c-7,6.13-4.14,18.71,5.9,18.92a10.52,10.52,0,0,0,7.29-18.31C1512.72,819.73,1506.63,819.06,1503,822.25Z" style="fill: #f2f2f2"/>
          </g>
          <path id="Path_386" data-name="Path 386" d="M1530.86,830.84c-6.24,4.1-4.79,14,2.05,16.76a10.37,10.37,0,0,0,13.23-6.26C1549.07,831.89,1538.42,825.86,1530.86,830.84Z" style="fill: #f2f2f2"/>
          <path id="Path_387" data-name="Path 387" d="M1462.88,856.79c-6.24,4.11-4.79,14,2,16.76a10.34,10.34,0,0,0,13.22-6.26C1481.09,857.85,1470.44,851.82,1462.88,856.79Z" style="fill: #f2f2f2"/>
        </g>
      </g>
      <g id="Group_191" data-name="Group 191">
        <path id="Path_388" data-name="Path 388" d="M1567.09,1064.14a32.36,32.36,0,0,1,10.68-7.59c21.5-9.28,42.6,6,43.5,28.41a33.29,33.29,0,0,1-3.9,17.47c-3,5.47-8.2,10-13.74,11.25s-11.15-1.47-12.66-6.78a19.5,19.5,0,0,1-.6-7.13c.28-2.42.6-4.91-.79-7.09a7.48,7.48,0,0,0-2.38-2.27,9,9,0,0,0-9.37-.45c-2.53,1.35-5.3,2.93-8.27,2.34a9.16,9.16,0,0,1-5-3.19C1557.55,1081.06,1560.48,1071.25,1567.09,1064.14Z" style="fill: #f2f2f2"/>
        <g id="Group_190" data-name="Group 190">
          <g id="Group_189" data-name="Group 189">
            <path id="Path_389" data-name="Path 389" d="M1607.86,1030.55c-9-2.31-17.78,7.15-12.29,15.55a10.53,10.53,0,0,0,19.23-4.32C1615.44,1037.16,1612.55,1031.75,1607.86,1030.55Z" style="fill: #f2f2f2"/>
            <path id="Path_390" data-name="Path 390" d="M1630.64,1046.35c-9-2.31-17.78,7.15-12.29,15.55a10.52,10.52,0,0,0,19.23-4.32C1638.22,1053,1635.33,1047.55,1630.64,1046.35Z" style="fill: #f2f2f2"/>
          </g>
          <path id="Path_391" data-name="Path 391" d="M1639.28,1074.21c-6.92-2.83-14.25,3.94-12.68,11.15a10.37,10.37,0,0,0,12.64,7.39C1648.69,1089.84,1647.65,1077.64,1639.28,1074.21Z" style="fill: #f2f2f2"/>
          <path id="Path_392" data-name="Path 392" d="M1579.49,1032.73c-6.92-2.83-14.25,3.94-12.68,11.15a10.37,10.37,0,0,0,12.64,7.39C1588.9,1048.36,1587.86,1036.16,1579.49,1032.73Z" style="fill: #f2f2f2"/>
        </g>
      </g>
      <g id="Group_194" data-name="Group 194">
        <path id="Path_393" data-name="Path 393" d="M1029.07,824.55a32.4,32.4,0,0,1,6.9-11.15c16.2-16.9,41.56-11.07,51.12,9.28a33.35,33.35,0,0,1,3.2,17.61c-.68,6.22-3.66,12.45-8.29,15.71s-10.86,3-14.3-1.34a19.2,19.2,0,0,1-3.32-6.33c-.68-2.34-1.36-4.76-3.49-6.23a7.56,7.56,0,0,0-3.08-1.17,9.07,9.07,0,0,0-8.8,3.23c-1.8,2.23-3.74,4.76-6.71,5.37a9.2,9.2,0,0,1-5.89-1C1026.85,843.85,1025.75,833.67,1029.07,824.55Z" style="fill: #f2f2f2"/>
        <g id="Group_193" data-name="Group 193">
          <g id="Group_192" data-name="Group 192">
            <path id="Path_394" data-name="Path 394" d="M1053.59,777.76c-9.2,1.37-13.61,13.5-5.28,19.1a10.52,10.52,0,0,0,16-11.44C1063.14,780.91,1058.38,777.05,1053.59,777.76Z" style="fill: #f2f2f2"/>
            <path id="Path_395" data-name="Path 395" d="M1080.72,783.47c-9.2,1.37-13.61,13.5-5.28,19.1a10.52,10.52,0,0,0,16-11.44C1090.27,786.63,1085.51,782.76,1080.72,783.47Z" style="fill: #f2f2f2"/>
          </g>
          <path id="Path_396" data-name="Path 396" d="M1099.5,805.78c-7.47.08-11.6,9.17-7.35,15.2a10.35,10.35,0,0,0,14.51,1.9C1114.24,816.53,1108.55,805.69,1099.5,805.78Z" style="fill: #f2f2f2"/>
          <path id="Path_397" data-name="Path 397" d="M1028.3,790.79c-7.47.08-11.6,9.17-7.35,15.2a10.35,10.35,0,0,0,14.51,1.9C1043,801.54,1037.34,790.7,1028.3,790.79Z" style="fill: #f2f2f2"/>
        </g>
      </g>
      <g id="Group_197" data-name="Group 197">
        <path id="Path_398" data-name="Path 398" d="M1222.89,1089.54a32.45,32.45,0,0,1-5.8-11.76c-5.76-22.69,12.62-41.12,34.94-38.45a33.37,33.37,0,0,1,16.63,6.61c4.92,3.87,8.62,9.7,8.94,15.35s-3.23,10.78-8.7,11.43a19.47,19.47,0,0,1-7.13-.54c-2.35-.66-4.76-1.37-7.13-.34a7.45,7.45,0,0,0-2.62,2,9,9,0,0,0-1.92,9.18c.92,2.7,2.05,5.7,1,8.53a9.18,9.18,0,0,1-3.95,4.48C1238.09,1101.64,1228.86,1097.18,1222.89,1089.54Z" style="fill: #f2f2f2"/>
        <g id="Group_196" data-name="Group 196">
          <g id="Group_195" data-name="Group 195">
            <path id="Path_399" data-name="Path 399" d="M1196.18,1044c-3.71,8.52,4.24,18.69,13.4,14.6a10.52,10.52,0,0,0-1.21-19.67C1203.91,1037.53,1198.11,1039.52,1196.18,1044Z" style="fill: #f2f2f2"/>
            <path id="Path_400" data-name="Path 400" d="M1215.39,1024c-3.71,8.52,4.24,18.69,13.4,14.6a10.52,10.52,0,0,0-1.22-19.67C1223.12,1017.54,1217.32,1019.53,1215.39,1024Z" style="fill: #f2f2f2"/>
          </g>
          <path id="Path_401" data-name="Path 401" d="M1244.26,1019.85c-3.89,6.38,1.64,14.7,9,14.28a10.36,10.36,0,0,0,9.3-11.3C1261.19,1013,1249,1012.13,1244.26,1019.85Z" style="fill: #f2f2f2"/>
          <path id="Path_402" data-name="Path 402" d="M1193.84,1072.32c-3.89,6.38,1.64,14.7,9,14.28a10.36,10.36,0,0,0,9.3-11.3C1210.77,1065.5,1198.56,1064.6,1193.84,1072.32Z" style="fill: #f2f2f2"/>
        </g>
      </g>
    </g>
    <g id="huesos">
      <g id="hueso">
        <path id="Path_403" data-name="Path 403" d="M493.68,444.53c-4.91,4.28-6.61,11-4.64,18a12,12,0,0,0,13.75,9.13c9.64-.12,14-9,18.9-16.7,3.66-6.34,9.32-10.84,15.81-14.06,8.37-4.17,16.88-8,25.45-11.76,3.76-1.67,7.61-3.15,11.3-4.89,7-3.27,14.39-6.33,22.2-6.18,8.16.15,15.82,6.57,23.51,1.38,11.19-7.55,5.4-24.12-7.11-24.45" style="fill: #f2f2f2"/>
        <path id="Path_404" data-name="Path 404" d="M609.87,397.79a17.72,17.72,0,0,0,5.56-9.4c1-10.16-6-16.71-15-18.26-10.16-1-13.5,10.15-18.39,17.86-2.71,4.27-6.66,9-11.33,11L561.83,403l-25.29,11.23-16.28,7.23a31.35,31.35,0,0,1-6.78,2.5c-5.83,1.12-11.11.06-16.68-1.58-4.84-1.43-9.73-2.22-14.11.93-11,8-4.44,24.61,8.42,24.16" style="fill: #f2f2f2"/>
      </g>
      <path id="Path_405" data-name="Path 405" d="M1185.09,232.15l-4,2.22-5.17.82-5.38-.83-3.84-3-2.71-3.62-1.13-4,.27-4.61,2-4.65,4.6-4.22,6.4-3.29,5-3.32,3.62-3.87,3.49-5.2,3-5.9,16.38-39,2.6-7.57,1.22-7.67-.58-8-1.5-7.7-.66-5.53.67-6.52,3.76-6.13,4.39-3.84,6.85-1.22,6.31,3.48,4.5,4.07,2.25,4.19.77,3.06,3.82-2.7,4.5-1.2,5,.67,5.7,3.16,3.8,6-.65,8.72-6.3,5.93-6.77,3.67-6,4.37-4.3,5.4-3.68,8.54-18.49,43.46-3.1,8.79.11,7.82,1.86,8.81,1.63,7.8-.48,6.56-4.46,5.64L1205,244.2l-6.2.6-5-1.05L1189,240l-2.89-4.76Z" style="fill: #f2f2f2"/>
      <g id="hueso-2">
        <path id="Path_406" data-name="Path 406" d="M1730,172.55c-6.5.39-12,4.71-14.65,11.4a12,12,0,0,0,5.32,15.63c7.71,5.78,16.59,1.43,25.17-1.7,6.77-2.79,14-2.9,21.11-1.5,9.18,1.82,18.23,4,27.34,6.23,4,1,8,2.14,11.94,3,7.49,1.65,15.25,3.77,21.35,8.65,6.37,5.1,8.52,14.86,17.79,15.45,13.47.84,19-15.82,9.28-23.7" style="fill: #f2f2f2"/>
        <path id="Path_407" data-name="Path 407" d="M1850.6,206.43a17.7,17.7,0,0,0,10.14-4.05c7-7.42,5.42-16.93-.76-23.64-7.41-7-16.89-.2-25.47,2.92-4.75,1.73-10.74,3-15.7,1.83l-9.41-2.29-26.89-6.54-17.3-4.21a30.14,30.14,0,0,1-6.89-2.16c-5.31-2.67-8.85-6.73-12.26-11.43-3-4.09-6.35-7.7-11.74-7.87-13.6-.43-18.54,16.79-8.08,24.28" style="fill: #f2f2f2"/>
      </g>
      <path id="Path_408" data-name="Path 408" d="M613.32,394.69l4.42,1.09,4.34,2.93,3.37,4.27.76,4.82-.49,4.5L623.85,416l-3.35,3.18-4.62,2.06-6.25-.06-6.92-2-6-1-5.29.36-6.1,1.43-6.19,2.3-38.59,17.35-7.06,3.77-6.12,4.77-5,6.23L518.24,461l-3.3,4.5L510,469.84l-6.93,1.92-5.83-.18-5.84-3.78L489.17,461l-.51-6.05,1.21-4.6,1.52-2.76-4.64-.63-4.1-2.2-3.23-3.92-2-6.2,1.35-7,6.42-5.93,8.65,0,7.45,1.94,7.41.93,6.82-1,8.52-3.74,43.16-19.16,8.26-4.31,5.25-5.79,4.66-7.72,4.13-6.81,4.83-4.47,7.1-1.08,5.59,1.95,4.94,3.79,2.95,4.19.92,6-1.14,5.45Z" style="fill: #f2f2f2"/>
      <g id="Group_198" data-name="Group 198">
        <g id="hueso-3">
          <path id="Path_409" data-name="Path 409" d="M493.69,190.42c-4.9,4.27-6.6,11-4.64,18a12,12,0,0,0,13.75,9.13c9.64-.12,14-9,18.9-16.7,3.67-6.34,9.32-10.84,15.81-14.06,8.38-4.17,16.89-8,25.46-11.76,3.76-1.67,7.6-3.15,11.3-4.89,6.94-3.27,14.38-6.33,22.19-6.18,8.16.15,15.82,6.57,23.52,1.38,11.19-7.55,5.4-24.12-7.11-24.45" style="fill: #f2f2f2"/>
          <path id="Path_410" data-name="Path 410" d="M609.89,143.67a17.7,17.7,0,0,0,5.55-9.4c1-10.15-6-16.71-15-18.26-10.15-1-13.5,10.15-18.39,17.87-2.7,4.26-6.66,9-11.32,11l-8.86,3.94-25.29,11.22-16.28,7.23a30.26,30.26,0,0,1-6.77,2.5c-5.83,1.12-11.11.07-16.69-1.57-4.84-1.43-9.73-2.23-14.1.93-11,7.95-4.44,24.61,8.41,24.16" style="fill: #f2f2f2"/>
        </g>
        <path id="Path_411" data-name="Path 411" d="M613.25,140.57l4.42,1.09,4.34,2.93,3.37,4.27.76,4.82-.49,4.5-1.87,3.67L620.43,165l-4.62,2.06-6.25-.06-6.92-2-5.95-1-5.29.35-6.1,1.43-6.19,2.3-38.59,17.35-7.06,3.77L527.34,194l-5,6.23-4.15,6.65-3.3,4.5-4.93,4.32L503,217.64l-5.83-.18-5.84-3.78-2.24-6.85-.51-6.05,1.21-4.6,1.52-2.76-4.64-.63-4.1-2.2-3.23-3.92-2-6.2,1.35-7,6.42-5.93,8.65,0,7.45,1.94,7.41.93,6.82-1L524,165.6l43.16-19.16,8.26-4.31,5.25-5.79,4.66-7.72,4.13-6.81,4.83-4.47,7.1-1.08,5.59,1.95,4.94,3.79,3,4.19.92,6-1.14,5.45Z" style="fill: #f2f2f2"/>
      </g>
      <g id="Group_199" data-name="Group 199">
        <g id="hueso-4">
          <path id="Path_412" data-name="Path 412" d="M167.3,133.4c-5.8-3-12.71-2-18.41,2.4A12,12,0,0,0,145.55,152c3.72,8.9,13.58,9.65,22.55,11.3,7.25,1,13.54,4.6,19,9.42,7,6.22,13.68,12.7,20.41,19.23,2.95,2.87,5.76,5.88,8.75,8.66,5.63,5.23,11.24,11,14,18.29,2.9,7.63-.19,17.13,7.49,22.33,11.19,7.56,24.4-4,20-15.72" style="fill: #f2f2f2"/>
          <path id="Path_413" data-name="Path 413" d="M254,223.75a17.69,17.69,0,0,0,10.8,1.65c9.81-2.83,13.26-11.84,11.33-20.76-2.83-9.81-14.45-8.74-23.43-10.4-5-.92-10.8-2.84-14.46-6.39l-7-6.75-19.86-19.27-12.78-12.41a30,30,0,0,1-4.84-5.35c-3.22-5-4.21-10.28-4.77-16.07-.48-5-1.57-9.86-6.13-12.73-11.5-7.27-24.49,5.06-19.27,16.82" style="fill: #f2f2f2"/>
        </g>
        <path id="Path_414" data-name="Path 414" d="M258.16,225.72l.64,4.5-1.1,5.12L255,240.07l-4.18,2.5-4.36,1.22-4.1-.36-4.2-1.92L234.52,238l-2.28-5.81-.76-7.15-1.29-5.9-2.3-4.77-3.6-5.13-4.45-4.88L189.34,175l-6.13-5.14L176.5,166l-7.65-2.34-7.72-1.37-5.4-1.37-5.84-3-4.36-5.72-2-5.47,1.33-6.83,5.51-4.64,5.42-2.73,4.73-.59,3.13.38-1.15-4.54.51-4.63,2.43-4.45,5-4.18,7-1.36,7.9,3.74,3.26,8,1,7.63,1.9,7.22,3.49,6,6.64,6.51,33.88,32.89,7.08,6.06,7.34,2.71,8.9,1.43,7.86,1.3,5.95,2.81,3.66,6.18.27,5.92-1.67,6-2.79,4.3-5.21,3.08-5.48,1Z" style="fill: #f2f2f2"/>
      </g>
      <g id="Group_200" data-name="Group 200">
        <g id="hueso-5">
          <path id="Path_415" data-name="Path 415" d="M163.71,507.84c-5.8-3-12.71-2-18.41,2.4A12,12,0,0,0,142,526.4c3.71,8.9,13.57,9.65,22.55,11.31,7.25,1,13.54,4.6,19,9.42,7,6.22,13.68,12.7,20.41,19.23,2.95,2.86,5.76,5.88,8.75,8.66,5.62,5.22,11.24,11,14,18.28,2.9,7.64-.2,17.13,7.49,22.33,11.18,7.57,24.39-4,20-15.71" style="fill: #f2f2f2"/>
          <path id="Path_416" data-name="Path 416" d="M250.44,598.2a17.76,17.76,0,0,0,10.8,1.64c9.81-2.83,13.25-11.83,11.33-20.76-2.83-9.8-14.45-8.74-23.43-10.4-5-.92-10.8-2.83-14.46-6.39l-7-6.75-19.85-19.27-12.78-12.4a30.74,30.74,0,0,1-4.84-5.35c-3.22-5-4.21-10.29-4.77-16.07-.48-5-1.57-9.86-6.13-12.74-11.5-7.26-24.49,5.07-19.27,16.83" style="fill: #f2f2f2"/>
        </g>
        <path id="Path_417" data-name="Path 417" d="M254.57,600.16l.64,4.5-1.1,5.12-2.71,4.73-4.18,2.5-4.36,1.22-4.1-.36-4.2-1.92-3.63-3.53-2.28-5.81-.77-7.15-1.29-5.9-2.3-4.77-3.6-5.13-4.44-4.88-30.5-29.33-6.13-5.14-6.71-3.9-7.66-2.34-7.71-1.37-5.4-1.37-5.85-3-4.36-5.72-2-5.47,1.32-6.83,5.52-4.64,5.42-2.73,4.72-.59,3.13.38-1.14-4.54.5-4.63,2.44-4.45,5-4.18,7-1.36,7.9,3.74,3.26,8,1,7.63,1.9,7.22,3.49,6,6.65,6.51,33.88,32.89,7.08,6.06,7.34,2.71,8.9,1.43,7.86,1.3,5.95,2.81,3.66,6.18L273,586l-1.67,6-2.79,4.31-5.21,3.08-5.48,1Z" style="fill: #f2f2f2"/>
      </g>
      <g id="Group_201" data-name="Group 201">
        <g id="hueso-6">
          <path id="Path_418" data-name="Path 418" d="M616.94,704.6c5.13-4,7.21-10.65,5.64-17.68A12,12,0,0,0,609.36,677c-9.63-.42-14.5,8.19-19.81,15.62-4,6.12-9.91,10.3-16.57,13.15-8.6,3.69-17.31,7-26.08,10.32-3.84,1.45-7.77,2.72-11.55,4.25-7.12,2.87-14.72,5.51-22.51,4.92-8.14-.61-15.42-7.45-23.4-2.7-11.6,6.91-6.74,23.78,5.73,24.81" style="fill: #f2f2f2"/>
          <path id="Path_419" data-name="Path 419" d="M498.3,744.76a17.73,17.73,0,0,0-6.07,9.08c-1.6,10.08,5.09,17,14,19.07,10.08,1.6,14.05-9.38,19.36-16.8,2.95-4.11,7.16-8.57,11.93-10.38l9.06-3.43,25.88-9.79,16.66-6.3a30.76,30.76,0,0,1,6.9-2.11c5.88-.8,11.1.55,16.57,2.51,4.75,1.7,9.59,2.76,14.13-.14,11.46-7.33,5.82-24.33-7.05-24.6" style="fill: #f2f2f2"/>
        </g>
        <path id="Path_420" data-name="Path 420" d="M494.77,747.67l-4.34-1.34-4.18-3.17-3.12-4.45-.49-4.85.74-4.47,2.08-3.56,3.52-3,4.73-1.79,6.23.4,6.8,2.35,5.89,1.34,5.3-.06,6.16-1.09,6.31-1.94,39.5-15.17,7.26-3.36,6.38-4.43,5.37-5.94,4.51-6.4,3.54-4.31,5.17-4,7-1.52,5.81.51,5.62,4.1,1.85,7,.17,6.07-1.47,4.52-1.67,2.68,4.6.89,4,2.42,3,4.09,1.65,6.3L631,722.36l-6.75,5.57-8.63-.45-7.33-2.35-7.35-1.34-6.87.63-8.71,3.25-44.17,16.71-8.49,3.84-5.57,5.49L522,761.16l-4.51,6.57-5.07,4.2-7.15.68-5.47-2.27-4.72-4.06-2.71-4.35-.58-6,1.44-5.38Z" style="fill: #f2f2f2"/>
      </g>
      <g id="Group_202" data-name="Group 202">
        <g id="hueso-7">
          <path id="Path_421" data-name="Path 421" d="M157.4,880.89c-6.08-2.33-12.85-.65-18.05,4.34a12,12,0,0,0-1.61,16.43c4.64,8.45,14.52,8.15,23.62,8.84,7.32.26,13.95,3.14,19.84,7.36,7.62,5.44,15,11.17,22.34,16.95,3.24,2.54,6.35,5.24,9.62,7.69,6.15,4.6,12.34,9.72,15.88,16.69,3.7,7.28,1.63,17,9.82,21.41,11.92,6.34,23.83-6.56,18.25-17.75" style="fill: #f2f2f2"/>
          <path id="Path_422" data-name="Path 422" d="M253.23,961.53a17.7,17.7,0,0,0,10.91.49c9.45-3.85,11.92-13.17,9.06-21.84-3.86-9.45-15.3-7.16-24.4-7.85-5-.39-11-1.68-15.06-4.82l-7.63-6-21.79-17-14-11a30.82,30.82,0,0,1-5.39-4.81c-3.73-4.62-5.27-9.78-6.44-15.47-1-5-2.6-9.64-7.44-12-12.2-6-23.82,7.64-17.38,18.78" style="fill: #f2f2f2"/>
        </g>
        <path id="Path_423" data-name="Path 423" d="M257.54,963l1.11,4.41-.54,5.21-2.19,5-3.9,2.93-4.2,1.68-4.11.07-4.38-1.46-4-3.12-2.89-5.54-1.52-7L229,959.45l-2.8-4.5-4.12-4.72-4.94-4.38-33.44-25.92-6.64-4.47L170,912.3l-7.86-1.51-7.82-.55-5.51-.79-6.13-2.33-4.94-5.22-2.58-5.23.6-6.94,5-5.19,5.1-3.29,4.63-1.09,3.16.05-1.62-4.4v-4.65l1.94-4.69,4.53-4.68,6.82-2.1,8.25,2.89,4.1,7.61,1.79,7.49,2.65,7,4.1,5.55,7.3,5.76,37.18,29.11,7.69,5.28,7.58,1.91,9,.49,8,.45,6.21,2.16,4.29,5.76.9,5.85-1,6.15L271,957.71l-4.85,3.61-5.34,1.55Z" style="fill: #f2f2f2"/>
      </g>
      <g id="Group_203" data-name="Group 203">
        <g id="hueso-8">
          <path id="Path_424" data-name="Path 424" d="M841.14,584c-3.68-5.37-10.2-7.84-17.32-6.69a12,12,0,0,0-10.65,12.61c-1,9.59,7.31,15,14.41,20.7,5.87,4.37,9.69,10.51,12.15,17.32,3.17,8.8,5.95,17.69,8.74,26.65,1.23,3.92,2.25,7.92,3.56,11.79,2.44,7.27,4.62,15,3.57,22.75-1.09,8.1-8.35,15-4.08,23.2,6.21,12,23.34,8.15,25.1-4.24" style="fill: #f2f2f2"/>
          <path id="Path_425" data-name="Path 425" d="M874.18,704.81a17.68,17.68,0,0,0,8.7,6.6c10,2.2,17.3-4.07,19.87-12.83,2.2-10-8.53-14.58-15.62-20.33-3.93-3.18-8.14-7.65-9.65-12.51q-1.44-4.63-2.89-9.26l-8.23-26.41q-2.65-8.51-5.3-17a29.74,29.74,0,0,1-1.7-7c-.45-5.92,1.21-11,3.49-16.39,2-4.65,3.33-9.41.7-14.12-6.64-11.87-23.94-7.25-25,5.57" style="fill: #f2f2f2"/>
        </g>
        <path id="Path_426" data-name="Path 426" d="M876.87,708.51l-1.6,4.26-3.41,4-4.63,2.86-4.87.2-4.42-1-3.42-2.28-2.78-3.69-1.5-4.83.77-6.2,2.75-6.65,1.69-5.8.25-5.29-.71-6.22-1.57-6.41-12.79-40.34-2.93-7.44-4-6.63-5.61-5.71-6.13-4.89-4.08-3.79-3.72-5.4-1.1-7.1.85-5.77,4.43-5.37,7.06-1.43,6.07.19,4.43,1.73,2.57,1.83,1.16-4.53,2.66-3.83,4.26-2.75,6.39-1.28,6.8,2.14,5.16,7.07-1,8.59-2.78,7.18-1.78,7.25.22,6.9,2.73,8.89L876.35,662l3.33,8.71,5.15,5.88,7.13,5.51,6.29,4.9,3.89,5.31.25,7.18-2.59,5.32-4.33,4.47L891,711.74l-6.05.22-5.27-1.75Z" style="fill: #f2f2f2"/>
      </g>
      <g id="Group_204" data-name="Group 204">
        <g id="hueso-9">
          <path id="Path_427" data-name="Path 427" d="M815.42,904.57c-3.68-5.37-10.21-7.84-17.32-6.69a12,12,0,0,0-10.66,12.61c-1,9.59,7.32,15,14.41,20.7,5.87,4.37,9.69,10.51,12.15,17.32,3.17,8.8,6,17.69,8.74,26.65,1.23,3.92,2.26,7.92,3.56,11.79,2.44,7.27,4.62,15,3.58,22.75-1.1,8.09-8.36,15-4.09,23.2,6.21,12,23.34,8.15,25.1-4.23" style="fill: #f2f2f2"/>
          <path id="Path_428" data-name="Path 428" d="M848.45,1025.37a17.73,17.73,0,0,0,8.7,6.6c10,2.2,17.3-4.06,19.87-12.82,2.2-10-8.53-14.59-15.62-20.33-3.93-3.18-8.13-7.65-9.65-12.52l-2.89-9.25q-4.11-13.21-8.23-26.42-2.65-8.49-5.3-17a30.67,30.67,0,0,1-1.7-7c-.44-5.93,1.21-11,3.49-16.4,2-4.64,3.33-9.41.7-14.11-6.63-11.87-23.94-7.25-25,5.57" style="fill: #f2f2f2"/>
        </g>
        <path id="Path_429" data-name="Path 429" d="M851.14,1029.07l-1.6,4.26-3.41,4-4.63,2.85-4.87.2-4.42-1-3.42-2.28-2.77-3.7-1.51-4.82.78-6.2,2.74-6.65,1.69-5.8.25-5.29-.71-6.22L827.69,992,814.9,951.65,812,944.2l-4-6.63-5.61-5.71L796.2,927l-4.09-3.79-3.71-5.4-1.1-7.1.85-5.77,4.43-5.37,7.06-1.44,6.07.19,4.43,1.74,2.57,1.83,1.16-4.54,2.66-3.82,4.26-2.75,6.39-1.28,6.8,2.14,5.15,7.07-1,8.59-2.79,7.18-1.78,7.25.23,6.9,2.73,8.89,14,45.08,3.33,8.71,5.15,5.88,7.13,5.51,6.29,4.89,3.88,5.31.26,7.18-2.59,5.33-4.33,4.47-4.51,2.45-6,.22-5.28-1.76Z" style="fill: #f2f2f2"/>
      </g>
      <g id="Group_205" data-name="Group 205">
        <g id="hueso-10">
          <path id="Path_430" data-name="Path 430" d="M1199.47,875.79c-6-2.4-12.84-.81-18.1,4.11a12,12,0,0,0-1.82,16.41c4.53,8.51,14.42,8.33,23.51,9.14,7.32.36,13.91,3.32,19.75,7.6,7.54,5.54,14.8,11.37,22.12,17.24,3.2,2.58,6.28,5.32,9.52,7.8,6.09,4.68,12.21,9.88,15.66,16.9,3.6,7.32,1.41,17.07,9.55,21.53,11.84,6.49,23.91-6.26,18.47-17.52" style="fill: #f2f2f2"/>
          <path id="Path_431" data-name="Path 431" d="M1294.26,957.64a17.75,17.75,0,0,0,10.9.63c9.5-3.73,12.09-13,9.34-21.73-3.73-9.5-15.21-7.35-24.3-8.16-5-.45-11-1.81-15-5l-7.55-6.07L1246.09,900l-13.89-11.16a30,30,0,0,1-5.32-4.87c-3.67-4.67-5.16-9.85-6.25-15.56-1-5-2.48-9.66-7.29-12.11-12.13-6.15-23.91,7.34-17.62,18.56" style="fill: #f2f2f2"/>
        </g>
        <path id="Path_432" data-name="Path 432" d="M1298.56,959.21l1,4.43-.61,5.2-2.25,4.95-3.94,2.88-4.22,1.63h-4.12l-4.36-1.51-3.94-3.17-2.81-5.58-1.43-7-1.84-5.76-2.74-4.54-4.06-4.76-4.88-4.45-33.11-26.34-6.58-4.55-7-3.26-7.84-1.61-7.81-.64-5.51-.86-6.09-2.41-4.88-5.29-2.51-5.26.69-6.92,5-5.13,5.15-3.23,4.64-1,3.16.09-1.57-4.41.07-4.66,2-4.66,4.59-4.63,6.84-2,8.22,3,4,7.66,1.7,7.51,2.57,7,4,5.6,7.22,5.85,36.81,29.58,7.62,5.37,7.55,2,9,.6,8,.55,6.19,2.24,4.22,5.82.82,5.86-1.1,6.13-2.37,4.55-4.9,3.55-5.36,1.48Z" style="fill: #f2f2f2"/>
      </g>
      <g id="Group_206" data-name="Group 206">
        <g id="hueso-11">
          <path id="Path_433" data-name="Path 433" d="M1746.69,864.67c-3.19-5.68-9.46-8.73-16.65-8.22A12,12,0,0,0,1718.29,868c-1.85,9.46,5.94,15.56,12.49,21.92,5.45,4.88,8.7,11.34,10.53,18.35,2.37,9.05,4.33,18.16,6.31,27.33.86,4,1.53,8.09,2.47,12.06,1.78,7.46,3.26,15.37,1.52,23-1.82,8-9.67,14.15-6.16,22.74,5.1,12.5,22.5,10.21,25.38-2" style="fill: #f2f2f2"/>
          <path id="Path_434" data-name="Path 434" d="M1768.69,988a17.77,17.77,0,0,0,8.07,7.36c9.73,3.08,17.6-2.49,20.94-11,3.09-9.72-7.17-15.29-13.72-21.65-3.63-3.52-7.41-8.35-8.48-13.34l-2-9.47-5.82-27-3.75-17.41a30.81,30.81,0,0,1-1.06-7.15c.1-5.94,2.2-10.89,5-16,2.39-4.45,4.16-9.07,2-14-5.54-12.42-23.19-9.38-25.37,3.3" style="fill: #f2f2f2"/>
        </g>
        <path id="Path_435" data-name="Path 435" d="M1771,991.89l-2,4.1-3.76,3.65-4.87,2.43-4.87-.24-4.3-1.4-3.21-2.58-2.43-3.93-1.06-4.94,1.33-6.1,3.33-6.38,2.2-5.62.73-5.25-.15-6.26-1-6.53-9.1-41.32-2.25-7.68-3.42-7-5.07-6.19-5.66-5.42-3.73-4.15-3.21-5.71-.46-7.17,1.37-5.67,4.89-4.95,7.16-.8,6,.74,4.26,2.13,2.39,2.05,1.57-4.41,3-3.57,4.5-2.35,6.47-.7,6.59,2.74,4.49,7.5-1.73,8.47-3.41,6.9-2.43,7.06-.4,6.9,1.92,9.1,9.93,46.16,2.53,9,4.6,6.32,6.6,6.13,5.82,5.44,3.39,5.64-.39,7.18-3,5.07-4.72,4.06-4.71,2-6-.33-5.1-2.23Z" style="fill: #f2f2f2"/>
      </g>
      <g id="Group_207" data-name="Group 207">
        <g id="hueso-12">
          <path id="Path_436" data-name="Path 436" d="M1869.8,583.57c-4-5.09-10.74-7.09-17.75-5.43a12,12,0,0,0-9.73,13.34c-.3,9.63,8.37,14.4,15.86,19.62,6.17,3.94,10.42,9.78,13.35,16.41,3.79,8.55,7.2,17.22,10.63,26,1.5,3.83,2.81,7.74,4.39,11.5,3,7.09,5.69,14.65,5.2,22.45-.51,8.15-7.26,15.51-2.41,23.43,7.05,11.51,23.86,6.45,24.73-6" style="fill: #f2f2f2"/>
          <path id="Path_437" data-name="Path 437" d="M1911.39,701.71a17.72,17.72,0,0,0,9.15,6c10.1,1.48,17-5.29,18.9-14.21,1.48-10.1-9.54-13.94-17-19.16-4.15-2.89-8.66-7-10.52-11.8l-3.54-9-10.1-25.76q-3.26-8.29-6.5-16.58a29.83,29.83,0,0,1-2.2-6.88c-.87-5.88.42-11.1,2.3-16.6,1.64-4.78,2.65-9.63-.31-14.13-7.46-11.37-24.4-5.52-24.51,7.34" style="fill: #f2f2f2"/>
        </g>
        <path id="Path_438" data-name="Path 438" d="M1914.34,705.2l-1.28,4.37-3.12,4.21-4.42,3.18-4.84.54-4.48-.69-3.58-2-3-3.48-1.84-4.71.33-6.23,2.26-6.83,1.27-5.91-.13-5.3-1.15-6.15-2-6.28-15.64-39.32-3.45-7.22-4.5-6.32-6-5.3-6.46-4.44-4.35-3.48-4.09-5.12-1.61-7,.44-5.82,4-5.66,6.94-1.94,6.07-.25,4.54,1.42,2.69,1.64.84-4.61,2.37-4,4.06-3.05,6.28-1.74,6.94,1.65L1893,576l-.34,8.64-2.26,7.36-1.25,7.36.71,6.87,3.36,8.67,17.24,44,3.94,8.44,5.56,5.5,7.5,5,6.62,4.43,4.26,5,.77,7.14-2.2,5.5-4,4.77-4.32,2.77-6,.65-5.39-1.37Z" style="fill: #f2f2f2"/>
      </g>
      <g id="Group_208" data-name="Group 208">
        <g id="hueso-13">
          <path id="Path_439" data-name="Path 439" d="M1203.11,504c-6.13-2.19-12.86-.36-17.95,4.75a12,12,0,0,0-1.23,16.46c4.83,8.34,14.7,7.82,23.82,8.31,7.32.09,14,2.82,20,6.9,7.73,5.26,15.2,10.83,22.71,16.44,3.3,2.46,6.47,5.09,9.8,7.46,6.25,4.46,12.56,9.45,16.25,16.33,3.86,7.2,2,17,10.3,21.19,12.06,6.06,23.68-7.1,17.84-18.17" style="fill: #f2f2f2"/>
          <path id="Path_440" data-name="Path 440" d="M1300.74,582.41a17.79,17.79,0,0,0,10.92.24c9.36-4.07,11.62-13.44,8.57-22-4.07-9.36-15.46-6.8-24.58-7.3-5.05-.27-11.07-1.42-15.16-4.47l-7.76-5.8-22.17-16.56-14.27-10.66a30.28,30.28,0,0,1-5.49-4.68c-3.84-4.54-5.5-9.66-6.8-15.32-1.12-4.92-2.82-9.58-7.71-11.85-12.34-5.72-23.64,8.18-17,19.17" style="fill: #f2f2f2"/>
        </g>
        <path id="Path_441" data-name="Path 441" d="M1305.09,583.82l1.21,4.39-.43,5.22-2.07,5-3.83,3-4.17,1.77-4.11.17-4.41-1.37-4-3-3-5.47-1.68-7-2-5.69-2.9-4.43-4.22-4.62-5-4.27-34-25.16-6.75-4.31-7.15-3-7.9-1.34-7.83-.36-5.53-.67-6.18-2.19-5.06-5.11-2.7-5.17.44-6.94,4.87-5.31,5-3.41,4.61-1.2,3.15,0-1.72-4.35-.09-4.66,1.83-4.73,4.43-4.78,6.76-2.26,8.32,2.7,4.27,7.52,2,7.44,2.81,6.92,4.23,5.46,7.43,5.6,37.83,28.25,7.8,5.1,7.62,1.75,9,.28,8,.27,6.26,2,4.42,5.66,1,5.83-.89,6.17-2.21,4.63-4.76,3.72-5.31,1.67Z" style="fill: #f2f2f2"/>
      </g>
      <g id="Group_209" data-name="Group 209">
        <g id="hueso-14">
          <path id="Path_442" data-name="Path 442" d="M1726.25,326.48c4.74-4.46,6.19-11.28,4-18.14a12,12,0,0,0-14.09-8.6c-9.63.49-13.66,9.52-18.25,17.41-3.42,6.48-8.9,11.19-15.27,14.66-8.21,4.48-16.57,8.59-25,12.72-3.69,1.81-7.48,3.44-11.11,5.32-6.81,3.53-14.13,6.87-21.94,7-8.16.15-16-6-23.55-.49-10.9,8-4.47,24.31,8,24.16" style="fill: #f2f2f2"/>
          <path id="Path_443" data-name="Path 443" d="M1611.92,377.62a17.73,17.73,0,0,0-5.19,9.6c-.65,10.19,6.66,16.48,15.71,17.68,10.19.64,13.1-10.66,17.7-18.55,2.55-4.37,6.32-9.21,10.9-11.45l8.7-4.27,24.84-12.18,16-7.84a30.45,30.45,0,0,1,6.68-2.76c5.78-1.34,11.1-.49,16.73.94,4.89,1.25,9.81,1.85,14.06-1.46,10.72-8.38,3.5-24.77-9.33-23.83" style="fill: #f2f2f2"/>
        </g>
        <path id="Path_444" data-name="Path 444" d="M1608.68,380.84l-4.45-.92-4.45-2.76-3.54-4.14-.94-4.78.32-4.52,1.73-3.74,3.22-3.3,4.55-2.22,6.24-.19,7,1.7,6,.78,5.27-.56,6-1.66,6.1-2.53,37.9-18.81,6.92-4,5.93-5,4.78-6.42,3.9-6.8,3.12-4.62,4.76-4.5,6.86-2.18,5.83,0,6,3.55,2.5,6.76.74,6-1,4.64-1.41,2.82,4.65.45,4.19,2,3.38,3.8,2.24,6.11-1.08,7.05L1735.7,349l-8.64.36-7.52-1.65-7.44-.64-6.78,1.27-8.37,4.06-42.4,20.79-8.1,4.62-5,6-4.35,7.89-3.87,7-4.65,4.66-7.06,1.35-5.66-1.74-5.08-3.6-3.11-4.08-1.14-5.94.93-5.49Z" style="fill: #f2f2f2"/>
      </g>
      <g id="Group_210" data-name="Group 210">
        <g id="hueso-15">
          <path id="Path_445" data-name="Path 445" d="M1238.54,115c.67-6.47-2.7-12.58-8.87-16.31a12,12,0,0,0-16.28,2.71c-7,6.67-4.11,16.14-2.42,25.11,1.65,7.14.59,14.29-2,21.07-3.28,8.76-6.92,17.34-10.58,26-1.61,3.78-3.41,7.5-4.93,11.29-2.84,7.12-6.19,14.44-12,19.66-6.07,5.46-16,6-18.12,15-3,13.16,12.52,21.31,21.88,13" style="fill: #f2f2f2"/>
          <path id="Path_446" data-name="Path 446" d="M1185.53,228.51a17.75,17.75,0,0,0,2.35,10.66c6.18,8.13,15.82,8.1,23.45,3.09,8.13-6.18,2.94-16.64,1.25-25.61-.93-5-1.25-11.09.75-15.79l3.79-8.92q5.4-12.74,10.82-25.47l7-16.39a31.21,31.21,0,0,1,3.25-6.45c3.5-4.8,8.07-7.63,13.27-10.23,4.51-2.26,8.63-5,9.67-10.31,2.63-13.34-13.55-21-22.64-11.91" style="fill: #f2f2f2"/>
        </g>
        <path id="Path_447" data-name="Path 447" d="M1185.19,233.07l-4,2.21-5.17.83-5.38-.83-3.84-3-2.71-3.62-1.14-4,.28-4.6,2-4.66,4.6-4.22,6.4-3.29,5-3.33,3.62-3.87,3.48-5.2,3-5.9,16.36-39,2.59-7.58,1.21-7.66-.58-8-1.5-7.69-.66-5.53.66-6.52,3.76-6.13,4.38-3.85,6.85-1.22,6.31,3.47,4.5,4.07,2.26,4.2.77,3,3.82-2.7,4.5-1.2,5,.67,5.7,3.15,3.8,6-.64,8.72-6.29,5.93-6.77,3.67-6.05,4.38-4.3,5.4-3.67,8.55-18.47,43.45-3.1,8.8.12,7.81,1.87,8.82,1.62,7.8-.47,6.56-4.45,5.64-5.42,2.39-6.2.6-5-1-4.75-3.75-2.88-4.75Z" style="fill: #f2f2f2"/>
      </g>
      <path id="Path_448" data-name="Path 448" d="M872.31,336.43l-1.58,4.26-3.4,4-4.63,2.87-4.87.2-4.42-1L850,344.47l-2.78-3.69L845.69,336l.76-6.2,2.73-6.65,1.68-5.8.24-5.3-.72-6.21-1.58-6.41-12.86-40.31-3-7.45L829,245l-5.62-5.7-6.14-4.88-4.1-3.78-3.72-5.39-1.12-7.1.84-5.77,4.42-5.37,7.06-1.46,6.07.18,4.43,1.73,2.57,1.83,1.16-4.54,2.65-3.83,4.25-2.76,6.39-1.29L854.9,199l5.16,7.06-.94,8.59-2.77,7.18-1.77,7.26.24,6.9,2.75,8.88,14.13,45.06,3.35,8.7,5.16,5.87,7.14,5.5,6.3,4.88,3.9,5.3.27,7.18-2.58,5.33-4.33,4.48-4.5,2.46-6,.23-5.28-1.75Z" style="fill: #f2f2f2"/>
      <g id="Group_211" data-name="Group 211">
        <g id="hueso-16">
          <path id="Path_449" data-name="Path 449" d="M837.21,212.68c-3.7-5.36-10.23-7.81-17.34-6.64a12,12,0,0,0-10.63,12.63c-1,9.59,7.36,14.94,14.47,20.67,5.88,4.36,9.71,10.49,12.19,17.3,3.19,8.8,6,17.68,8.81,26.62,1.23,3.92,2.27,7.92,3.58,11.78,2.46,7.27,4.66,15,3.63,22.75-1.07,8.1-8.31,15-4,23.21,6.24,12,23.36,8.08,25.1-4.3" style="fill: #f2f2f2"/>
          <path id="Path_450" data-name="Path 450" d="M870.53,333.41a17.74,17.74,0,0,0,8.72,6.58c10,2.18,17.28-4.11,19.84-12.87,2.17-10-8.56-14.56-15.67-20.29-3.94-3.17-8.15-7.63-9.68-12.5l-2.91-9.24-8.3-26.4-5.34-17a30.19,30.19,0,0,1-1.72-7c-.46-5.92,1.19-11.05,3.45-16.4,2-4.65,3.31-9.42.67-14.12-6.66-11.86-24-7.2-25,5.63" style="fill: #f2f2f2"/>
        </g>
        <path id="Path_451" data-name="Path 451" d="M873.23,337.1l-1.58,4.26-3.4,4-4.63,2.87-4.87.2-4.41-1-3.44-2.27-2.78-3.68-1.51-4.83.76-6.2,2.72-6.65,1.68-5.81.24-5.29-.73-6.22-1.58-6.4-12.89-40.3-2.95-7.45-4.05-6.62-5.62-5.7-6.14-4.87-4.1-3.78L810.22,226l-1.11-7.1.83-5.77,4.42-5.38,7-1.45,6.07.18,4.44,1.72,2.57,1.82,1.15-4.53,2.65-3.84,4.26-2.76,6.38-1.29,6.81,2.12,5.17,7.06-.94,8.59-2.76,7.19-1.76,7.25.23,6.9,2.76,8.89,14.16,45,3.35,8.7,5.16,5.88,7.15,5.49,6.3,4.88,3.9,5.3.27,7.18-2.57,5.33-4.33,4.48-4.5,2.46-6,.23L876,338.79Z" style="fill: #f2f2f2"/>
      </g>
      <path id="Path_452" data-name="Path 452" d="M1855.16,206l2.83,3.56,1.65,5,.07,5.44-2.34,4.28-3.14,3.26-3.72,1.77-4.59.47-4.91-1.2-4.91-3.85-4.29-5.78-4.1-4.43-4.41-3-5.7-2.59-6.3-1.95-41.16-9.8-7.9-1.33-7.76,0-7.78,1.87-7.35,2.73-5.35,1.56-6.54.4-6.66-2.71-4.5-3.7-2.32-6.56,2.4-6.79,3.29-5.1,3.76-2.91,2.9-1.26-3.29-3.33-1.92-4.25-.16-5.07,2.19-6.13,5.34-4.73,8.71-.78,6.88,5.24,4.72,6.09,5.3,5.25,6,3.37,9,2.23L1815,182.53l9.17,1.63,7.7-1.38,8.4-3.27,7.43-2.88,6.55-.6,6.29,3.48,3.23,5,1.6,6-.21,5.12-2.93,5.3-4.22,3.62Z" style="fill: #f2f2f2"/>
      <path id="Path_453" data-name="Path 453" d="M1641.08,684.72l4.41,1.1,4.35,2.92,3.37,4.28.76,4.81-.49,4.5-1.87,3.67-3.35,3.18-4.62,2.05-6.24-.06-6.93-2-6-1-5.29.36-6.1,1.42-6.19,2.3-38.59,17.36-7.06,3.76-6.12,4.77-5,6.24-4.15,6.65-3.3,4.5-4.93,4.31-6.93,1.91-5.83-.18-5.84-3.78-2.24-6.84-.51-6.06,1.21-4.6,1.52-2.76-4.64-.63-4.1-2.2-3.23-3.92-2-6.2,1.35-7,6.42-5.93,8.65,0,7.45,1.93,7.41.93,6.82-1,8.52-3.74L1595,690.6l8.26-4.31,5.26-5.8,4.65-7.71,4.13-6.82,4.83-4.47,7.1-1.08,5.59,2,4.94,3.79,3,4.2.91,6-1.13,5.45Z" style="fill: #f2f2f2"/>
      <g id="hueso-17">
        <path id="Path_454" data-name="Path 454" d="M1521.45,734.57c-4.91,4.27-6.61,11-4.65,18a12,12,0,0,0,13.76,9.14c9.64-.13,14-9,18.9-16.7,3.66-6.34,9.32-10.84,15.8-14.07,8.38-4.17,16.89-7.95,25.46-11.76,3.76-1.67,7.61-3.15,11.3-4.89,6.94-3.27,14.38-6.33,22.19-6.18,8.17.16,15.82,6.57,23.52,1.38,11.19-7.55,5.4-24.12-7.11-24.44" style="fill: #f2f2f2"/>
        <path id="Path_455" data-name="Path 455" d="M1637.64,687.82a17.72,17.72,0,0,0,5.56-9.4c1-10.15-6-16.71-15-18.26-10.15-1-13.5,10.15-18.39,17.87-2.7,4.26-6.65,9-11.32,11l-8.86,3.94-25.28,11.22L1548,711.44a30.34,30.34,0,0,1-6.78,2.5c-5.83,1.12-11.11.07-16.68-1.58-4.84-1.42-9.74-2.22-14.11.94-11,8-4.44,24.61,8.42,24.16" style="fill: #f2f2f2"/>
      </g>
    </g>
    <g id="circulos">
      <path id="Path_456" data-name="Path 456" d="M777.49,989.1c-8.67,3.22-10.48,15.93-1.23,19.68a10.47,10.47,0,0,0,13.27-14.43C787.43,990.21,782,987.43,777.49,989.1Z" style="fill: #f2f2f2"/>
      <path id="Path_457" data-name="Path 457" d="M77.67,661.81c-14.53,5.39-17.57,26.68-2.07,33a17.53,17.53,0,0,0,22.23-24.17C94.32,663.68,85.22,659,77.67,661.81Z" style="fill: #f2f2f2"/>
      <path id="Path_458" data-name="Path 458" d="M366.44,431c-14.53,5.4-17.57,26.68-2.07,33a17.53,17.53,0,0,0,22.23-24.17C383.09,432.9,374,428.23,366.44,431Z" style="fill: #f2f2f2"/>
      <path id="Path_459" data-name="Path 459" d="M606.22,588.18c-14.53,5.39-17.57,26.68-2.07,33A17.54,17.54,0,0,0,626.38,597C622.87,590,613.77,585.38,606.22,588.18Z" style="fill: #f2f2f2"/>
      <path id="Path_460" data-name="Path 460" d="M270.87,501.52c-8.68,3.22-10.49,15.92-1.24,19.67a10.46,10.46,0,0,0,13.27-14.42C280.8,502.63,275.37,499.84,270.87,501.52Z" style="fill: #f2f2f2"/>
      <path id="Path_461" data-name="Path 461" d="M524.12,629c-8.68,3.22-10.49,15.93-1.24,19.68a10.46,10.46,0,0,0,13.27-14.43C534.05,630.14,528.63,627.35,524.12,629Z" style="fill: #f2f2f2"/>
      <path id="Path_462" data-name="Path 462" d="M812.85,672.13c-8.67,3.22-10.49,15.92-1.24,19.67a10.46,10.46,0,0,0,13.27-14.42C822.79,673.24,817.36,670.45,812.85,672.13Z" style="fill: #f2f2f2"/>
      <path id="Path_463" data-name="Path 463" d="M485.38,550.29c-6.08,2.25-7.35,11.17-.86,13.8a7.34,7.34,0,0,0,9.3-10.12C492.35,551.06,488.55,549.11,485.38,550.29Z" style="fill: #f2f2f2"/>
      <path id="Path_464" data-name="Path 464" d="M895.6,411.29c-14.52,5.39-17.56,26.67-2.06,33a17.53,17.53,0,0,0,22.23-24.17C912.26,413.15,903.16,408.48,895.6,411.29Z" style="fill: #f2f2f2"/>
      <path id="Path_465" data-name="Path 465" d="M849.38,458.42c-8.67,3.21-10.48,15.92-1.23,19.67a10.47,10.47,0,0,0,13.27-14.43C859.32,459.53,853.89,456.74,849.38,458.42Z" style="fill: #f2f2f2"/>
      <path id="Path_466" data-name="Path 466" d="M789.13,424.57c-6.08,2.26-7.35,11.17-.86,13.8a7.34,7.34,0,0,0,9.31-10.12C796.1,425.35,792.3,423.4,789.13,424.57Z" style="fill: #f2f2f2"/>
      <path id="Path_467" data-name="Path 467" d="M933.94,609.55c-6.08,2.25-7.35,11.17-.86,13.8a7.35,7.35,0,0,0,9.31-10.12C940.92,610.33,937.11,608.37,933.94,609.55Z" style="fill: #f2f2f2"/>
      <path id="Path_468" data-name="Path 468" d="M69.72,541c-8.67,3.22-10.48,15.92-1.23,19.67a10.46,10.46,0,0,0,13.27-14.42C79.66,542.14,74.24,539.36,69.72,541Z" style="fill: #f2f2f2"/>
      <path id="Path_469" data-name="Path 469" d="M5,526c-6.08,2.26-7.36,11.17-.87,13.8A7.54,7.54,0,0,0,12.33,538a7.54,7.54,0,0,0,1.14-8.29C12,526.82,8.19,524.87,5,526Z" style="fill: #f2f2f2"/>
      <path id="Path_470" data-name="Path 470" d="M132.54,711c-6.09,2.26-7.36,11.18-.87,13.8A7.34,7.34,0,0,0,141,714.69C139.51,711.8,135.7,709.84,132.54,711Z" style="fill: #f2f2f2"/>
      <path id="Path_471" data-name="Path 471" d="M1089.32,661.81c-14.53,5.39-17.57,26.68-2.07,33a17.53,17.53,0,0,0,22.23-24.17C1106,663.68,1096.87,659,1089.32,661.81Z" style="fill: #f2f2f2"/>
      <path id="Path_472" data-name="Path 472" d="M1357.44,431c-14.52,5.4-17.56,26.68-2.06,33a17.53,17.53,0,0,0,22.23-24.17C1374.09,432.9,1365,428.23,1357.44,431Z" style="fill: #f2f2f2"/>
      <path id="Path_473" data-name="Path 473" d="M1735.24,556.75c-14.53,5.39-17.57,26.68-2.07,33a17.53,17.53,0,0,0,22.23-24.17C1751.89,558.62,1742.8,554,1735.24,556.75Z" style="fill: #f2f2f2"/>
      <path id="Path_474" data-name="Path 474" d="M1342,501.52c-8.67,3.22-10.48,15.92-1.23,19.67A10.46,10.46,0,0,0,1354,506.77C1351.93,502.63,1346.5,499.84,1342,501.52Z" style="fill: #f2f2f2"/>
      <path id="Path_475" data-name="Path 475" d="M1672.52,597.6c-8.67,3.21-10.48,15.92-1.23,19.67a10.46,10.46,0,0,0,13.27-14.42C1682.46,598.71,1677,595.92,1672.52,597.6Z" style="fill: #f2f2f2"/>
      <path id="Path_476" data-name="Path 476" d="M1832.36,672.13c-8.68,3.22-10.49,15.92-1.24,19.67a10.46,10.46,0,0,0,13.27-14.42C1842.29,673.24,1836.87,670.45,1832.36,672.13Z" style="fill: #f2f2f2"/>
      <path id="Path_477" data-name="Path 477" d="M1506.13,582.61c-6.08,2.26-7.36,11.17-.87,13.8a7.34,7.34,0,0,0,9.31-10.12C1513.11,583.39,1509.29,581.44,1506.13,582.61Z" style="fill: #f2f2f2"/>
      <path id="Path_478" data-name="Path 478" d="M1895.07,411.29c-14.53,5.39-17.56,26.67-2.06,33a17.53,17.53,0,0,0,22.23-24.17C1911.73,413.15,1902.63,408.48,1895.07,411.29Z" style="fill: #f2f2f2"/>
      <path id="Path_479" data-name="Path 479" d="M1860.19,458.42c-8.67,3.21-10.48,15.92-1.23,19.67a10.46,10.46,0,0,0,13.27-14.43C1870.13,459.53,1864.7,456.74,1860.19,458.42Z" style="fill: #f2f2f2"/>
      <path id="Path_480" data-name="Path 480" d="M1814.35,424.57c-6.08,2.26-7.35,11.17-.86,13.8a7.34,7.34,0,0,0,9.3-10.12C1821.33,425.35,1817.52,423.4,1814.35,424.57Z" style="fill: #f2f2f2"/>
      <path id="Path_481" data-name="Path 481" d="M1924.8,609.55c-6.08,2.25-7.35,11.17-.86,13.8a7.34,7.34,0,0,0,9.3-10.12C1931.77,610.33,1928,608.37,1924.8,609.55Z" style="fill: #f2f2f2"/>
      <path id="Path_482" data-name="Path 482" d="M1078,541c-8.67,3.22-10.48,15.92-1.23,19.67A10.46,10.46,0,0,0,1090,546.28C1088,542.14,1082.52,539.36,1078,541Z" style="fill: #f2f2f2"/>
      <path id="Path_483" data-name="Path 483" d="M992.81,526c-6.08,2.26-7.35,11.17-.86,13.8a7.34,7.34,0,0,0,9.3-10.12C999.78,526.82,996,524.87,992.81,526Z" style="fill: #f2f2f2"/>
      <path id="Path_484" data-name="Path 484" d="M1160,711c-6.08,2.26-7.35,11.18-.86,13.8a7.34,7.34,0,0,0,9.31-10.12C1167,711.8,1163.16,709.84,1160,711Z" style="fill: #f2f2f2"/>
      <path id="Path_485" data-name="Path 485" d="M77.67,289.17c-14.53,5.39-17.57,26.68-2.07,33A17.53,17.53,0,0,0,97.83,298C94.32,291,85.22,286.36,77.67,289.17Z" style="fill: #f2f2f2"/>
      <path id="Path_486" data-name="Path 486" d="M366.44,58.39c-14.53,5.4-17.57,26.68-2.07,33A17.53,17.53,0,0,0,386.6,67.19C383.09,60.26,374,55.59,366.44,58.39Z" style="fill: #f2f2f2"/>
      <path id="Path_487" data-name="Path 487" d="M579.05,291.86c-14.53,5.39-17.56,26.68-2.07,33a17.53,17.53,0,0,0,22.23-24.17C595.7,293.72,586.61,289.05,579.05,291.86Z" style="fill: #f2f2f2"/>
      <path id="Path_488" data-name="Path 488" d="M270.87,128.87c-8.68,3.22-10.49,15.92-1.24,19.67a10.46,10.46,0,0,0,13.27-14.42C280.8,130,275.37,127.2,270.87,128.87Z" style="fill: #f2f2f2"/>
      <path id="Path_489" data-name="Path 489" d="M497,332.7c-8.67,3.22-10.48,15.93-1.23,19.68A10.47,10.47,0,0,0,509.05,338C507,333.82,501.52,331,497,332.7Z" style="fill: #f2f2f2"/>
      <path id="Path_490" data-name="Path 490" d="M812.85,299.48c-8.67,3.22-10.49,15.92-1.24,19.67a10.46,10.46,0,0,0,13.27-14.42C822.79,300.59,817.36,297.81,812.85,299.48Z" style="fill: #f2f2f2"/>
      <path id="Path_491" data-name="Path 491" d="M439.47,241.39c-6.09,2.26-7.36,11.17-.87,13.8a7.34,7.34,0,0,0,9.31-10.12C446.44,242.17,442.63,240.22,439.47,241.39Z" style="fill: #f2f2f2"/>
      <path id="Path_492" data-name="Path 492" d="M693.77,12.42c-6.08,2.25-7.36,11.17-.86,13.8a7.53,7.53,0,0,0,8.16-1.84,7.52,7.52,0,0,0,1.14-8.28C700.74,13.2,696.93,11.24,693.77,12.42Z" style="fill: #f2f2f2"/>
      <path id="Path_493" data-name="Path 493" d="M895.6,38.64c-14.52,5.39-17.56,26.68-2.06,33a17.53,17.53,0,0,0,22.23-24.18C912.26,40.5,903.16,35.84,895.6,38.64Z" style="fill: #f2f2f2"/>
      <path id="Path_494" data-name="Path 494" d="M849.38,85.77c-8.67,3.22-10.48,15.92-1.23,19.68A10.47,10.47,0,0,0,861.42,91C859.32,86.88,853.89,84.1,849.38,85.77Z" style="fill: #f2f2f2"/>
      <path id="Path_495" data-name="Path 495" d="M789.13,51.92c-6.08,2.26-7.35,11.17-.86,13.8a7.34,7.34,0,0,0,9.31-10.12C796.1,52.71,792.3,50.75,789.13,51.92Z" style="fill: #f2f2f2"/>
      <path id="Path_496" data-name="Path 496" d="M933.94,236.9c-6.08,2.26-7.35,11.17-.86,13.8a7.34,7.34,0,0,0,9.31-10.12C940.92,237.68,937.11,235.73,933.94,236.9Z" style="fill: #f2f2f2"/>
      <path id="Path_497" data-name="Path 497" d="M69.72,168.38c-8.67,3.22-10.48,15.92-1.23,19.68a10.47,10.47,0,0,0,13.27-14.43C79.66,169.49,74.24,166.71,69.72,168.38Z" style="fill: #f2f2f2"/>
      <path id="Path_498" data-name="Path 498" d="M5,153.39c-6.08,2.26-7.36,11.17-.87,13.8a7.52,7.52,0,0,0,8.17-1.83,7.54,7.54,0,0,0,1.14-8.29C12,154.17,8.19,152.22,5,153.39Z" style="fill: #f2f2f2"/>
      <path id="Path_499" data-name="Path 499" d="M132.54,338.37c-6.09,2.25-7.36,11.17-.87,13.8A7.35,7.35,0,0,0,141,342.05C139.51,339.15,135.7,337.19,132.54,338.37Z" style="fill: #f2f2f2"/>
      <path id="Path_500" data-name="Path 500" d="M1089.32,289.17c-14.53,5.39-17.57,26.68-2.07,33A17.53,17.53,0,0,0,1109.48,298C1106,291,1096.87,286.36,1089.32,289.17Z" style="fill: #f2f2f2"/>
      <path id="Path_501" data-name="Path 501" d="M1357.44,58.39c-14.52,5.4-17.56,26.68-2.06,33a17.53,17.53,0,0,0,22.23-24.17C1374.09,60.26,1365,55.59,1357.44,58.39Z" style="fill: #f2f2f2"/>
      <path id="Path_502" data-name="Path 502" d="M1675.08,215.53c-14.53,5.4-17.57,26.68-2.07,33a17.53,17.53,0,0,0,22.23-24.17C1691.73,217.4,1682.63,212.73,1675.08,215.53Z" style="fill: #f2f2f2"/>
      <path id="Path_503" data-name="Path 503" d="M1428,162.09c-8.67,3.22-10.48,15.93-1.23,19.68a10.46,10.46,0,0,0,13.27-14.43C1438,163.21,1432.53,160.42,1428,162.09Z" style="fill: #f2f2f2"/>
      <path id="Path_504" data-name="Path 504" d="M1512.88,256.38c-8.68,3.22-10.49,15.92-1.24,19.68a10.47,10.47,0,0,0,13.27-14.43C1522.81,257.49,1517.39,254.7,1512.88,256.38Z" style="fill: #f2f2f2"/>
      <path id="Path_505" data-name="Path 505" d="M1832.36,299.48c-8.68,3.22-10.49,15.92-1.24,19.67a10.46,10.46,0,0,0,13.27-14.42C1842.29,300.59,1836.87,297.81,1832.36,299.48Z" style="fill: #f2f2f2"/>
      <path id="Path_506" data-name="Path 506" d="M1427.25,241.39c-6.09,2.26-7.36,11.17-.87,13.8a7.34,7.34,0,0,0,9.31-10.12C1434.22,242.17,1430.41,240.22,1427.25,241.39Z" style="fill: #f2f2f2"/>
      <path id="Path_507" data-name="Path 507" d="M1895.07,38.64c-14.53,5.39-17.56,26.68-2.06,33a17.53,17.53,0,0,0,22.23-24.18C1911.73,40.5,1902.63,35.84,1895.07,38.64Z" style="fill: #f2f2f2"/>
      <path id="Path_508" data-name="Path 508" d="M1860.19,85.77c-8.67,3.22-10.48,15.92-1.23,19.68A10.47,10.47,0,0,0,1872.23,91C1870.13,86.88,1864.7,84.1,1860.19,85.77Z" style="fill: #f2f2f2"/>
      <path id="Path_509" data-name="Path 509" d="M1814.35,51.92c-6.08,2.26-7.35,11.17-.86,13.8a7.34,7.34,0,0,0,9.31-10.12C1821.33,52.71,1817.52,50.75,1814.35,51.92Z" style="fill: #f2f2f2"/>
      <path id="Path_510" data-name="Path 510" d="M1924.8,236.9c-6.08,2.26-7.35,11.17-.86,13.8a7.34,7.34,0,0,0,9.3-10.12C1931.77,237.68,1928,235.73,1924.8,236.9Z" style="fill: #f2f2f2"/>
      <path id="Path_511" data-name="Path 511" d="M1078,168.38c-8.67,3.22-10.48,15.92-1.23,19.68A10.46,10.46,0,0,0,1090,173.63C1088,169.49,1082.52,166.71,1078,168.38Z" style="fill: #f2f2f2"/>
      <path id="Path_512" data-name="Path 512" d="M992.81,153.39c-6.08,2.26-7.35,11.17-.86,13.8a7.34,7.34,0,0,0,9.3-10.12C999.78,154.17,996,152.22,992.81,153.39Z" style="fill: #f2f2f2"/>
      <path id="Path_513" data-name="Path 513" d="M1160,338.37c-6.08,2.25-7.35,11.17-.86,13.8a7.35,7.35,0,0,0,9.31-10.12C1167,339.15,1163.16,337.19,1160,338.37Z" style="fill: #f2f2f2"/>
      <path id="Path_514" data-name="Path 514" d="M77.67,1031.76c-14.53,5.39-17.57,26.68-2.07,33a17.53,17.53,0,0,0,22.23-24.17C94.32,1033.63,85.22,1029,77.67,1031.76Z" style="fill: #f2f2f2"/>
      <path id="Path_515" data-name="Path 515" d="M366.44,801c-14.53,5.4-17.57,26.68-2.07,33a17.53,17.53,0,0,0,22.23-24.17C383.09,802.86,374,798.19,366.44,801Z" style="fill: #f2f2f2"/>
      <path id="Path_516" data-name="Path 516" d="M582.59,979.68c-14.53,5.39-17.56,26.68-2.06,33a17.53,17.53,0,0,0,22.23-24.17C599.24,981.55,590.15,976.88,582.59,979.68Z" style="fill: #f2f2f2"/>
      <path id="Path_517" data-name="Path 517" d="M270.87,871.47c-8.68,3.22-10.49,15.92-1.24,19.68a10.47,10.47,0,0,0,13.27-14.43C280.8,872.58,275.37,869.79,270.87,871.47Z" style="fill: #f2f2f2"/>
      <path id="Path_518" data-name="Path 518" d="M500.55,1020.53c-8.68,3.22-10.49,15.92-1.24,19.67a10.46,10.46,0,0,0,13.27-14.42C510.48,1021.64,505.06,1018.85,500.55,1020.53Z" style="fill: #f2f2f2"/>
      <path id="Path_519" data-name="Path 519" d="M485.38,908.56c-6.08,2.26-7.35,11.17-.86,13.8a7.34,7.34,0,0,0,9.3-10.12C492.35,909.34,488.55,907.39,485.38,908.56Z" style="fill: #f2f2f2"/>
      <path id="Path_520" data-name="Path 520" d="M895.6,781.24c-14.52,5.39-17.56,26.68-2.06,33A17.53,17.53,0,0,0,915.77,790C912.26,783.1,903.16,778.43,895.6,781.24Z" style="fill: #f2f2f2"/>
      <path id="Path_521" data-name="Path 521" d="M849.38,828.37c-8.67,3.22-10.48,15.92-1.23,19.67a10.46,10.46,0,0,0,13.27-14.42C859.32,829.48,853.89,826.69,849.38,828.37Z" style="fill: #f2f2f2"/>
      <path id="Path_522" data-name="Path 522" d="M789.13,794.52c-6.08,2.26-7.35,11.17-.86,13.8a7.34,7.34,0,0,0,9.31-10.12C796.1,795.3,792.3,793.35,789.13,794.52Z" style="fill: #f2f2f2"/>
      <path id="Path_523" data-name="Path 523" d="M933.94,954.36c-6.08,2.26-7.35,11.17-.86,13.8A7.35,7.35,0,0,0,942.39,958C940.92,955.14,937.11,953.18,933.94,954.36Z" style="fill: #f2f2f2"/>
      <path id="Path_524" data-name="Path 524" d="M69.72,911c-8.67,3.22-10.48,15.92-1.23,19.68a10.47,10.47,0,0,0,13.27-14.43C79.66,912.09,74.24,909.3,69.72,911Z" style="fill: #f2f2f2"/>
      <path id="Path_525" data-name="Path 525" d="M5,896c-6.08,2.26-7.36,11.17-.87,13.8A7.54,7.54,0,0,0,12.33,908a7.54,7.54,0,0,0,1.14-8.29C12,896.77,8.19,894.82,5,896Z" style="fill: #f2f2f2"/>
      <path id="Path_526" data-name="Path 526" d="M132.54,1081c-6.09,2.25-7.36,11.17-.87,13.8a7.35,7.35,0,0,0,9.31-10.13C139.51,1081.75,135.7,1079.79,132.54,1081Z" style="fill: #f2f2f2"/>
      <path id="Path_527" data-name="Path 527" d="M1072.78,986c-14.53,5.39-17.57,26.68-2.07,33A17.53,17.53,0,0,0,1093,994.76C1089.43,987.83,1080.34,983.16,1072.78,986Z" style="fill: #f2f2f2"/>
      <path id="Path_528" data-name="Path 528" d="M1357.44,801c-14.52,5.4-17.56,26.68-2.06,33a17.53,17.53,0,0,0,22.23-24.17C1374.09,802.86,1365,798.19,1357.44,801Z" style="fill: #f2f2f2"/>
      <path id="Path_529" data-name="Path 529" d="M1544.07,949.15c-14.53,5.4-17.57,26.68-2.07,33A17.53,17.53,0,0,0,1564.23,958C1560.72,951,1551.63,946.35,1544.07,949.15Z" style="fill: #f2f2f2"/>
      <path id="Path_530" data-name="Path 530" d="M1342,871.47c-8.67,3.22-10.48,15.92-1.23,19.68A10.47,10.47,0,0,0,1354,876.72C1351.93,872.58,1346.5,869.79,1342,871.47Z" style="fill: #f2f2f2"/>
      <path id="Path_531" data-name="Path 531" d="M1426.85,981.92c-8.68,3.22-10.49,15.92-1.24,19.67a10.46,10.46,0,0,0,13.27-14.42C1436.78,983,1431.36,980.24,1426.85,981.92Z" style="fill: #f2f2f2"/>
      <path id="Path_532" data-name="Path 532" d="M1832.36,1042.08c-8.68,3.22-10.49,15.92-1.24,19.68a10.47,10.47,0,0,0,13.27-14.43C1842.29,1043.19,1836.87,1040.4,1832.36,1042.08Z" style="fill: #f2f2f2"/>
      <path id="Path_533" data-name="Path 533" d="M1389.57,1062.11c-6.08,2.26-7.35,11.17-.86,13.8a7.34,7.34,0,0,0,9.31-10.12C1396.54,1062.89,1392.74,1060.94,1389.57,1062.11Z" style="fill: #f2f2f2"/>
      <path id="Path_534" data-name="Path 534" d="M1895.07,781.24c-14.53,5.39-17.56,26.68-2.06,33A17.53,17.53,0,0,0,1915.24,790C1911.73,783.1,1902.63,778.43,1895.07,781.24Z" style="fill: #f2f2f2"/>
      <path id="Path_535" data-name="Path 535" d="M1860.19,828.37c-8.67,3.22-10.48,15.92-1.23,19.67a10.46,10.46,0,0,0,13.27-14.42C1870.13,829.48,1864.7,826.69,1860.19,828.37Z" style="fill: #f2f2f2"/>
      <path id="Path_536" data-name="Path 536" d="M1814.35,794.52c-6.08,2.26-7.35,11.17-.86,13.8a7.34,7.34,0,0,0,9.31-10.12C1821.33,795.3,1817.52,793.35,1814.35,794.52Z" style="fill: #f2f2f2"/>
      <path id="Path_537" data-name="Path 537" d="M1934.68,1071.09c-6.09,2.26-7.36,11.17-.87,13.8a7.34,7.34,0,0,0,9.31-10.12C1941.65,1071.87,1937.84,1069.92,1934.68,1071.09Z" style="fill: #f2f2f2"/>
      <path id="Path_538" data-name="Path 538" d="M1078,911c-8.67,3.22-10.48,15.92-1.23,19.68A10.46,10.46,0,0,0,1090,916.23C1088,912.09,1082.52,909.3,1078,911Z" style="fill: #f2f2f2"/>
      <path id="Path_539" data-name="Path 539" d="M902.42,1083.38c-8.67,3.22-10.49,15.93-1.24,19.68a10.46,10.46,0,0,0,13.27-14.43C912.35,1084.5,906.92,1081.71,902.42,1083.38Z" style="fill: #f2f2f2"/>
      <path id="Path_540" data-name="Path 540" d="M992.81,896c-6.08,2.26-7.35,11.17-.86,13.8a7.34,7.34,0,0,0,9.3-10.12C999.78,896.77,996,894.82,992.81,896Z" style="fill: #f2f2f2"/>
      <path id="Path_541" data-name="Path 541" d="M1114.08,1081c-6.09,2.25-7.36,11.17-.87,13.8a7.35,7.35,0,0,0,9.31-10.13C1121.05,1081.75,1117.24,1079.79,1114.08,1081Z" style="fill: #f2f2f2"/>
    </g>
  </g>
  <rect x="24.17" y="22.89" width="1922.04" height="1078.47" style="fill: none"/>
</svg>
