<svg id="Layer_1" data-name="Layer 1" xmlns="http://www.w3.org/2000/svg" viewBox="0 0 219.76 65.11">
  <title>btn_google</title>
  <g id="Group_1320" data-name="Group 1320">
    <g id="Group_1319" data-name="Group 1319">
      <g id="Group_1317" data-name="Group 1317">
        <rect id="Rectangle_14" data-name="Rectangle 14" x="0.72" y="0.39" width="219" height="64" rx="8" style="fill: #191919"/>
        <g id="Group_1314" data-name="Group 1314">
          <g id="Group_1313" data-name="Group 1313">
            <path id="Path_3426" data-name="Path 3426" d="M211.62,1.3a6.84,6.84,0,0,1,6.83,6.84V57a6.83,6.83,0,0,1-6.83,6.84H8.14A6.84,6.84,0,0,1,1.3,57V8.14A6.85,6.85,0,0,1,8.14,1.3H211.62m0-1.3H8.14A8.16,8.16,0,0,0,0,8.14V57a8.16,8.16,0,0,0,8.14,8.14H211.62A8.17,8.17,0,0,0,219.76,57V8.14A8.17,8.17,0,0,0,211.62,0Z" style="fill: #cecece"/>
          </g>
        </g>
        <path id="Path_3427" data-name="Path 3427" d="M110.91,35.41a6.92,6.92,0,1,0,7,6.92,6.81,6.81,0,0,0-6.72-6.92Zm0,11.12a4.21,4.21,0,1,1,3.9-4.5c0,.1,0,.2,0,.3A4,4,0,0,1,111,46.52ZM95.75,35.41a6.92,6.92,0,1,0,7,6.92A6.81,6.81,0,0,0,96,35.41Zm0,11.12a4.21,4.21,0,1,1,3.9-4.5c0,.1,0,.2,0,.3a4,4,0,0,1-3.81,4.19Zm-18-9v2.93h7a6.16,6.16,0,0,1-1.6,3.7,7.19,7.19,0,0,1-5.43,2.15,7.82,7.82,0,0,1,0-15.63,7.53,7.53,0,0,1,5.3,2.1l2.07-2.07a10.21,10.21,0,0,0-7.37-3,10.75,10.75,0,0,0-.51,21.5h.51a9.83,9.83,0,0,0,7.5-3,9.67,9.67,0,0,0,2.54-6.87,9.36,9.36,0,0,0-.15-1.83Zm73.76,2.28a6.43,6.43,0,0,0-5.93-4.4A6.58,6.58,0,0,0,139,42c0,.1,0,.2,0,.3a6.77,6.77,0,0,0,6.62,6.92h.25a6.88,6.88,0,0,0,5.77-3.07l-2.36-1.57a3.93,3.93,0,0,1-3.41,1.91,3.52,3.52,0,0,1-3.36-2.1l9.26-3.82ZM142,42.12a3.8,3.8,0,0,1,3.55-4h.06a2.67,2.67,0,0,1,2.57,1.47Zm-7.53,6.71h3V28.48h-3Zm-5-11.88h-.11a4.79,4.79,0,0,0-3.65-1.54,6.93,6.93,0,0,0,0,13.84,4.69,4.69,0,0,0,3.65-1.57h.11v1c0,2.65-1.42,4.07-3.7,4.07a3.82,3.82,0,0,1-3.49-2.47l-2.65,1.1a6.58,6.58,0,0,0,6.14,4.09c3.56,0,6.58-2.1,6.58-7.21V35.83h-2.89ZM126,46.53a4,4,0,0,1-3.86-4.09v-.08A4,4,0,0,1,126,38.14H126c2.07,0,3.7,1.78,3.7,4.22a3.87,3.87,0,0,1-3.56,4.16H126Zm39.68-18h-7.28V48.83h3V41.12h4.24a6.33,6.33,0,1,0,.71-12.64c-.23,0-.47,0-.71,0Zm.08,9.81h-4.32v-7h4.32a3.49,3.49,0,1,1,.12,7Zm18.78-2.92a5.69,5.69,0,0,0-5.42,3.12l2.7,1.12a2.87,2.87,0,0,1,2.77-1.49c1.57,0,3.17.94,3.2,2.62V41a6.77,6.77,0,0,0-3.17-.79c-2.91,0-5.87,1.6-5.87,4.58,0,2.73,2.39,4.48,5.06,4.48a4.27,4.27,0,0,0,3.87-2h.1V48.8h2.94V41C190.75,37.39,188.05,35.37,184.58,35.37Zm-.37,11.15c-1,0-2.39-.5-2.39-1.73,0-1.57,1.73-2.17,3.22-2.17a5.41,5.41,0,0,1,2.78.68A3.67,3.67,0,0,1,184.21,46.52Zm17.22-10.7L198,44.64h-.1l-3.62-8.82H191l5.42,12.33L193.29,55h3.16l8.35-19.19Zm-27.35,13h3V28.48h-3Z" style="fill: #fff"/>
        <g id="Group_1316" data-name="Group 1316">
          <path id="Path_3428" data-name="Path 3428" d="M17,12.27a3.23,3.23,0,0,0-.76,2.29v36A3.22,3.22,0,0,0,17,52.84l.12.12L37.27,32.79v-.47L17.11,12.15Z" style="fill: none;stroke: #fff"/>
          <path id="Path_3429" data-name="Path 3429" d="M44,39.52l-6.72-6.73v-.47L44,25.59l.15.09,8,4.53c2.28,1.29,2.28,3.4,0,4.7l-8,4.52Z" style="fill: none;stroke: #fff"/>
          <path id="Path_3430" data-name="Path 3430" d="M44.15,39.43l-6.87-6.87L17,52.84c.75.8,2,.9,3.38.1L44.15,39.43" style="fill: none;stroke: #fff"/>
          <path id="Path_3431" data-name="Path 3431" d="M44.15,25.68,20.37,12.17c-1.4-.79-2.63-.69-3.38.1L37.28,32.56Z" style="fill: none;stroke: #fff"/>
          <g id="Group_1315" data-name="Group 1315">
            <path id="Path_3432" data-name="Path 3432" d="M44,39.28,20.37,52.71c-1.32.75-2.5.7-3.26,0h0l-.12.12h0l.12.12h0c.76.68,1.94.73,3.26,0L44.15,39.43Z" style="opacity: 0.20000000298023224;isolation: isolate"/>
            <path id="Path_3433" data-name="Path 3433" d="M17,52.61a3.25,3.25,0,0,1-.76-2.29v.24A3.21,3.21,0,0,0,17,52.84l.12-.12Z" style="opacity: 0.11999999731779099;isolation: isolate"/>
          </g>
          <path id="Path_3434" data-name="Path 3434" d="M52.11,34.67,44,39.28l.15.15,8-4.52a2.87,2.87,0,0,0,1.71-2.35h0A3,3,0,0,1,52.11,34.67Z" style="opacity: 0.11999999731779099;isolation: isolate"/>
          <path id="Path_3435" data-name="Path 3435" d="M20.37,12.41l31.74,18a3,3,0,0,1,1.71,2.12h0a2.87,2.87,0,0,0-1.71-2.36l-31.74-18c-2.28-1.29-4.14-.22-4.14,2.39v.23C16.23,12.19,18.09,11.12,20.37,12.41Z" style="fill: #fff;opacity: 0.25;isolation: isolate"/>
        </g>
      </g>
      <g id="Group_1318" data-name="Group 1318">
        <path id="Path_3436" data-name="Path 3436" d="M67.2,21.16V11.4h3a4.81,4.81,0,0,1,3.6,1.35,4.74,4.74,0,0,1,1.35,3.53,4.8,4.8,0,0,1-1.35,3.53,4.85,4.85,0,0,1-3.6,1.35ZM68.45,20h1.73a3.67,3.67,0,0,0,2.68-1,3.59,3.59,0,0,0,1-2.71,3.38,3.38,0,0,0-3.08-3.68,2.91,2.91,0,0,0-.59,0H68.45Z" style="fill: #fff;stroke: #fff;stroke-miterlimit: 10;stroke-width: 0.20000000298023224px"/>
        <path id="Path_3437" data-name="Path 3437" d="M76.9,21.16V11.4h1.25v9.76Z" style="fill: #fff;stroke: #fff;stroke-miterlimit: 10;stroke-width: 0.20000000298023224px"/>
        <path id="Path_3438" data-name="Path 3438" d="M83.14,21.38a3.66,3.66,0,0,1-2.08-.7,3.2,3.2,0,0,1-1.33-1.95l1.15-.46a2.6,2.6,0,0,0,.84,1.36,2.14,2.14,0,0,0,1.42.55,2.32,2.32,0,0,0,1.4-.43,1.37,1.37,0,0,0,.58-1.17,1.48,1.48,0,0,0-.58-1.26,5.94,5.94,0,0,0-1.83-.83,4.83,4.83,0,0,1-2-1,2.26,2.26,0,0,1-.67-1.66A2.43,2.43,0,0,1,80.91,12a3,3,0,0,1,2.16-.77,3.05,3.05,0,0,1,2,.62,2.8,2.8,0,0,1,1,1.36L85,13.63a1.75,1.75,0,0,0-.61-.86,2.13,2.13,0,0,0-2.48,0,1.23,1.23,0,0,0-.51,1,1.12,1.12,0,0,0,.47.92,4.68,4.68,0,0,0,1.38.68,8.8,8.8,0,0,1,1.21.45,4.86,4.86,0,0,1,1,.58,2.34,2.34,0,0,1,.75.9,2.83,2.83,0,0,1,.25,1.25,2.62,2.62,0,0,1-.29,1.26,2.39,2.39,0,0,1-.78.89,3.7,3.7,0,0,1-1,.5A4.05,4.05,0,0,1,83.14,21.38Z" style="fill: #fff;stroke: #fff;stroke-miterlimit: 10;stroke-width: 0.20000000298023224px"/>
        <path id="Path_3439" data-name="Path 3439" d="M89.46,21.16H88.21V11.4h3.32a3,3,0,0,1,2.15.82,2.83,2.83,0,0,1,.15,4c0,.05-.1.1-.15.15a3.1,3.1,0,0,1-2.15.83H89.46Zm0-5.15h2.1a1.63,1.63,0,0,0,1.27-.54,1.68,1.68,0,0,0,0-2.34,1.59,1.59,0,0,0-1.27-.53h-2.1Z" style="fill: #fff;stroke: #fff;stroke-miterlimit: 10;stroke-width: 0.20000000298023224px"/>
        <path id="Path_3440" data-name="Path 3440" d="M104.16,19.9a5.09,5.09,0,0,1-7.17,0,5,5,0,0,1-1.43-3.62,5,5,0,0,1,8.58-3.62h0a5.27,5.27,0,0,1,0,7.24Zm-6.24-.82a3.74,3.74,0,0,0,6.39-2.8,3.74,3.74,0,1,0-7.47,0,3.8,3.8,0,0,0,1.08,2.8Z" style="fill: #fff;stroke: #fff;stroke-miterlimit: 10;stroke-width: 0.20000000298023224px"/>
        <path id="Path_3441" data-name="Path 3441" d="M107.36,21.16V11.4h1.52l4.75,7.6h.06l-.06-1.89V11.4h1.26v9.76h-1.31l-5-8h0l0,1.88v6.08Z" style="fill: #fff;stroke: #fff;stroke-miterlimit: 10;stroke-width: 0.20000000298023224px"/>
        <path id="Path_3442" data-name="Path 3442" d="M117.12,21.16V11.4h1.26v9.76Z" style="fill: #fff;stroke: #fff;stroke-miterlimit: 10;stroke-width: 0.20000000298023224px"/>
        <path id="Path_3443" data-name="Path 3443" d="M120.61,21.16V11.4h3.54a2.8,2.8,0,0,1,2,.75,2.43,2.43,0,0,1,.84,1.9,2.14,2.14,0,0,1-.36,1.23,2.27,2.27,0,0,1-1,.8v.05a2.53,2.53,0,0,1,1.19.85,2.25,2.25,0,0,1,.46,1.39,2.57,2.57,0,0,1-.88,2,3,3,0,0,1-2.08.79Zm1.26-5.58h2.28a1.5,1.5,0,0,0,1.15-2.52,1.39,1.39,0,0,0-1.1-.46h-2.33Zm0,4.38h2.52a1.51,1.51,0,0,0,1.18-.5,1.67,1.67,0,0,0,.45-1.1,1.65,1.65,0,0,0-1.68-1.6h-2.47Z" style="fill: #fff;stroke: #fff;stroke-miterlimit: 10;stroke-width: 0.20000000298023224px"/>
        <path id="Path_3444" data-name="Path 3444" d="M129,21.16V11.4h1.25V20h4.23v1.2Z" style="fill: #fff;stroke: #fff;stroke-miterlimit: 10;stroke-width: 0.20000000298023224px"/>
        <path id="Path_3445" data-name="Path 3445" d="M141.76,12.6h-4.45v3.1h4v1.17h-4V20h4.45v1.2h-5.7V11.4h5.7Z" style="fill: #fff;stroke: #fff;stroke-miterlimit: 10;stroke-width: 0.20000000298023224px"/>
        <path id="Path_3446" data-name="Path 3446" d="M152.7,12.6h-4.45v3.1h4v1.17h-4V20h4.45v1.2H147V11.4h5.7Z" style="fill: #fff;stroke: #fff;stroke-miterlimit: 10;stroke-width: 0.20000000298023224px"/>
        <path id="Path_3447" data-name="Path 3447" d="M154.66,21.16V11.4h1.53l4.74,7.6H161l-.06-1.89V11.4h1.26v9.76h-1.31l-5-8h0l0,1.88v6.08Z" style="fill: #fff;stroke: #fff;stroke-miterlimit: 10;stroke-width: 0.20000000298023224px"/>
      </g>
    </g>
  </g>
</svg>
