<svg id="Layer_1" data-name="Layer 1" xmlns="http://www.w3.org/2000/svg" viewBox="0 0 195.16 65.24">
  <title>btn_ios</title>
  <g id="Group_1371" data-name="Group 1371">
    <g id="Group_1369" data-name="Group 1369">
      <path id="Path_3579" data-name="Path 3579" d="M179.63,0H13.76l-1.5,0A22.31,22.31,0,0,0,9,.31a11.29,11.29,0,0,0-3.1,1A10.25,10.25,0,0,0,3.26,3.26,10,10,0,0,0,1.34,5.9,10.65,10.65,0,0,0,.32,9,21,21,0,0,0,0,12.27c0,.5,0,1,0,1.5v37.7c0,.51,0,1,0,1.5a21.15,21.15,0,0,0,.3,3.27,10.65,10.65,0,0,0,1,3.1A9.78,9.78,0,0,0,3.26,62,10.25,10.25,0,0,0,5.9,63.9a11,11,0,0,0,3.1,1,22.32,22.32,0,0,0,3.27.29l1.5,0H181.4l1.5,0a22.31,22.31,0,0,0,3.26-.29,11,11,0,0,0,3.11-1A10,10,0,0,0,191.91,62a10.58,10.58,0,0,0,1.92-2.63,10.4,10.4,0,0,0,1-3.11,19.86,19.86,0,0,0,.3-3.26c0-.51,0-1,0-1.5s0-1.19,0-1.79V15.55c0-.6,0-1.19,0-1.78s0-1,0-1.5a19.86,19.86,0,0,0-.3-3.26,10.25,10.25,0,0,0-1-3.1,10.54,10.54,0,0,0-4.56-4.57,11.37,11.37,0,0,0-3.11-1A22.31,22.31,0,0,0,182.9,0l-1.5,0Z" style="fill: #cecece"/>
      <path id="Path_3580" data-name="Path 3580" d="M13.77,63.81l-1.47,0a20.81,20.81,0,0,1-3.05-.26,9.54,9.54,0,0,1-2.7-.9A8.79,8.79,0,0,1,4.27,61,9.07,9.07,0,0,1,2.61,58.7,9.52,9.52,0,0,1,1.72,56a19.66,19.66,0,0,1-.27-3.06c0-.35,0-1.49,0-1.49V13.77s0-1.12,0-1.46a19.53,19.53,0,0,1,.27-3.05A9.56,9.56,0,0,1,2.6,6.55a9.12,9.12,0,0,1,4-3.95,9.52,9.52,0,0,1,2.7-.89,20.94,20.94,0,0,1,3.06-.26l1.47,0H181.39l1.49,0a19.28,19.28,0,0,1,3,.27,9.75,9.75,0,0,1,2.72.89,9,9,0,0,1,4.81,6.63,21.26,21.26,0,0,1,.29,3.08v1.45c0,.61,0,1.2,0,1.78V49.69c0,.59,0,1.17,0,1.75s0,1,0,1.52a20.43,20.43,0,0,1-.28,3,9.22,9.22,0,0,1-.88,2.72A9,9,0,0,1,190.91,61a8.75,8.75,0,0,1-2.29,1.67,9.26,9.26,0,0,1-2.72.9,19.3,19.3,0,0,1-3,.27l-1.47,0H13.77Z" style="fill: #191919"/>
    </g>
    <g id="_Group_" data-name=" Group ">
      <g id="_Group_2" data-name=" Group 2">
        <g id="_Group_3" data-name=" Group 3">
          <path id="_Path_" data-name=" Path " d="M40.4,33.11a8,8,0,0,1,3.84-6.77,8.24,8.24,0,0,0-6.51-3.52c-2.74-.29-5.39,1.64-6.79,1.64s-3.57-1.62-5.88-1.57a8.68,8.68,0,0,0-7.3,4.45C14.6,32.8,17,40.83,20,45.24c1.51,2.17,3.28,4.58,5.59,4.5s3.11-1.45,5.84-1.45,3.5,1.45,5.86,1.39,3.95-2.17,5.41-4.35a17.93,17.93,0,0,0,2.48-5A7.81,7.81,0,0,1,40.4,33.11Z" style="fill: #fff"/>
          <path id="_Path_2" data-name=" Path 2" d="M35.94,19.92a7.93,7.93,0,0,0,1.82-5.7,8.09,8.09,0,0,0-5.24,2.71,7.58,7.58,0,0,0-1.86,5.48A6.7,6.7,0,0,0,35.94,19.92Z" style="fill: #fff"/>
        </g>
      </g>
      <g id="Group_1370" data-name="Group 1370">
        <path id="Path_3581" data-name="Path 3581" d="M69,44.27H61.28l-1.86,5.47H56.15l7.31-20.26h3.4l7.32,20.26H70.85Zm-6.92-2.53h6.12l-3-8.88h-.09Z" style="fill: #fff"/>
        <path id="Path_3582" data-name="Path 3582" d="M90,42.36c0,4.58-2.46,7.53-6.17,7.53a5,5,0,0,1-4.64-2.58h-.07v7.31h-3V35H79v2.45H79a5.27,5.27,0,0,1,4.7-2.61C87.49,34.82,90,37.78,90,42.36Zm-3.12,0c0-3-1.55-5-3.9-5s-3.87,2-3.87,5,1.55,5,3.87,5,3.9-2,3.9-5Z" style="fill: #fff"/>
        <path id="Path_3583" data-name="Path 3583" d="M106.22,42.36c0,4.58-2.46,7.53-6.16,7.53a5,5,0,0,1-4.65-2.58h-.07v7.31h-3V35h2.93v2.45h.06a5.25,5.25,0,0,1,4.7-2.61C103.75,34.82,106.22,37.78,106.22,42.36Zm-3.12,0c0-3-1.54-5-3.9-5s-3.87,2-3.87,5,1.56,5,3.87,5S103.1,45.37,103.1,42.36Z" style="fill: #fff"/>
        <path id="Path_3584" data-name="Path 3584" d="M117,44.1c.22,2,2.17,3.32,4.84,3.32s4.39-1.32,4.39-3.13c0-1.57-1.1-2.51-3.73-3.16l-2.62-.63c-3.72-.9-5.45-2.64-5.45-5.46,0-3.49,3-5.89,7.37-5.89s7.21,2.4,7.31,5.89H126c-.18-2-1.85-3.24-4.3-3.24s-4.11,1.23-4.11,3c0,1.43,1.07,2.27,3.68,2.92l2.23.55c4.15,1,5.88,2.65,5.88,5.61,0,3.79-3,6.16-7.82,6.16-4.49,0-7.52-2.31-7.72-6Z" style="fill: #fff"/>
        <path id="Path_3585" data-name="Path 3585" d="M135.93,31.48V35h2.81v2.4h-2.81v8.14c0,1.27.57,1.86,1.81,1.86.33,0,.66,0,1-.07v2.38a8.7,8.7,0,0,1-1.69.14c-3,0-4.15-1.13-4.15-4V37.37h-2.16V35h2.15V31.48Z" style="fill: #fff"/>
        <path id="Path_3586" data-name="Path 3586" d="M140.37,42.36c0-4.65,2.74-7.57,7-7.57s7,2.92,7,7.57-2.71,7.56-7,7.56S140.37,47,140.37,42.36Zm10.92,0c0-3.19-1.46-5.07-3.92-5.07s-3.91,1.9-3.91,5.07,1.46,5.07,3.91,5.07S151.29,45.56,151.29,42.36Z" style="fill: #fff"/>
        <path id="Path_3587" data-name="Path 3587" d="M156.88,35h2.89v2.51h.07a3.51,3.51,0,0,1,3.55-2.66,4,4,0,0,1,1,.11v2.84a3.92,3.92,0,0,0-1.36-.18,3.05,3.05,0,0,0-3.18,2.92,3.7,3.7,0,0,0,0,.47v8.76h-3Z" style="fill: #fff"/>
        <path id="Path_3588" data-name="Path 3588" d="M178.4,45.4c-.4,2.68-3,4.52-6.35,4.52-4.31,0-7-2.88-7-7.49s2.68-7.64,6.84-7.64,6.65,2.81,6.65,7.28v1H168.14v.19a3.85,3.85,0,0,0,3.49,4.17h.48a3.34,3.34,0,0,0,3.41-2.08ZM168.16,41h7.38a3.55,3.55,0,0,0-3.35-3.74h-.27A3.73,3.73,0,0,0,168.16,41h0Z" style="fill: #fff"/>
      </g>
    </g>
  </g>
  <g id="_Group_4" data-name=" Group 4">
    <g id="Group_1372" data-name="Group 1372">
      <path id="Path_3589" data-name="Path 3589" d="M62.69,13.24a4.3,4.3,0,0,1,4.6,4,4,4,0,0,1,0,.85c0,3.11-1.68,4.91-4.58,4.91H59.18V13.24Zm-2,8.35h1.84a3,3,0,0,0,3.23-2.87h0a2.66,2.66,0,0,0,0-.63,3.07,3.07,0,0,0-2.63-3.45,2.82,2.82,0,0,0-.58,0H60.69Z" style="fill: #fff"/>
      <path id="Path_3590" data-name="Path 3590" d="M75.56,21a3,3,0,0,1-3.19,2.12A3.33,3.33,0,0,1,69,19.87a4.93,4.93,0,0,1,0-.55,3.38,3.38,0,0,1,2.9-3.8,2.7,2.7,0,0,1,.49,0c2,0,3.28,1.4,3.28,3.7v.51H70.46v.09a1.94,1.94,0,0,0,1.77,2.1h.18A1.75,1.75,0,0,0,74.16,21Zm-5.1-2.37h3.71a1.78,1.78,0,0,0-1.64-1.9h-.17a1.88,1.88,0,0,0-1.9,1.85v.05Z" style="fill: #fff"/>
      <path id="Path_3591" data-name="Path 3591" d="M80.27,15.48c1.66,0,2.73.77,2.88,2.07H81.76c-.14-.54-.67-.88-1.49-.88s-1.42.38-1.42.95.37.72,1.17.9l1.22.28c1.4.33,2.05.93,2.05,2,0,1.38-1.29,2.31-3,2.31s-2.89-.79-3-2.09h1.45a1.49,1.49,0,0,0,1.6.92c.9,0,1.55-.4,1.55-1,0-.43-.35-.72-1.08-.9l-1.28-.3c-1.4-.33-2-.95-2-2C77.42,16.4,78.61,15.48,80.27,15.48Z" style="fill: #fff"/>
      <path id="Path_3592" data-name="Path 3592" d="M90.05,18a1.64,1.64,0,0,0-1.74-1.25c-1.21,0-2,.93-2,2.5s.75,2.54,2,2.54a1.59,1.59,0,0,0,1.74-1.21h1.41a2.87,2.87,0,0,1-3.14,2.5,3.36,3.36,0,0,1-3.47-3.26,2.82,2.82,0,0,1,0-.58,3.35,3.35,0,0,1,2.87-3.76h0a2.67,2.67,0,0,1,.56,0A2.91,2.91,0,0,1,91.46,18Z" style="fill: #fff"/>
      <path id="Path_3593" data-name="Path 3593" d="M92.9,20.89c0-1.32,1-2.08,2.73-2.19l2-.11V18c0-.77-.51-1.21-1.5-1.21-.81,0-1.37.3-1.53.82h-1.4c.14-1.27,1.33-2.07,3-2.07,1.84,0,2.88.91,2.88,2.46v5h-1.4v-1h-.12a2.46,2.46,0,0,1-2.2,1.15,2.22,2.22,0,0,1-2.44-2A1.55,1.55,0,0,1,92.9,20.89Zm4.72-.62v-.62l-1.79.12c-1,.07-1.47.41-1.47,1.06s.57,1,1.36,1a1.73,1.73,0,0,0,1.9-1.54h0ZM95.31,14.4,97,12.08h1.7l-1.9,2.32Z" style="fill: #fff"/>
      <path id="Path_3594" data-name="Path 3594" d="M101.33,15.63h1.4v1.12h.11a2,2,0,0,1,2-1.25,2.79,2.79,0,0,1,.64.07V17a3.59,3.59,0,0,0-.81-.09,1.71,1.71,0,0,0-1.86,1.56h0a.86.86,0,0,0,0,.16V23h-1.45Z" style="fill: #fff"/>
      <path id="Path_3595" data-name="Path 3595" d="M106.8,23.7h1.48c.12.54.74.88,1.71.88,1.21,0,1.92-.57,1.92-1.54V21.63h-.1a2.48,2.48,0,0,1-2.27,1.23c-1.87,0-3-1.45-3-3.64s1.17-3.71,3-3.71a2.52,2.52,0,0,1,2.3,1.29H112V15.63h1.38V23c0,1.68-1.31,2.74-3.39,2.74C108.14,25.78,107,25,106.8,23.7Zm5.14-4.5c0-1.46-.75-2.4-2-2.4s-1.94.94-1.94,2.4.7,2.4,1.94,2.4S111.94,20.67,111.94,19.2Z" style="fill: #fff"/>
      <path id="Path_3596" data-name="Path 3596" d="M115.26,20.89c0-1.32,1-2.08,2.73-2.19l2-.11V18c0-.77-.52-1.21-1.5-1.21-.81,0-1.37.3-1.53.81h-1.4c.14-1.26,1.33-2.07,3-2.07,1.84,0,2.88.92,2.88,2.47v5H120v-1h-.11a2.48,2.48,0,0,1-2.21,1.15,2.21,2.21,0,0,1-2.43-2h0A.79.79,0,0,1,115.26,20.89Zm4.72-.62v-.62l-1.8.12c-1,.07-1.47.41-1.47,1.06s.58,1,1.37,1A1.71,1.71,0,0,0,120,20.32h0Z" style="fill: #fff"/>
      <path id="Path_3597" data-name="Path 3597" d="M123.76,12.76h1.45V23h-1.45Z" style="fill: #fff"/>
      <path id="Path_3598" data-name="Path 3598" d="M127.23,19.3a3.48,3.48,0,1,1,6.92-.66,3.64,3.64,0,0,1,0,.66,3.48,3.48,0,0,1-6.92.72V20A2.51,2.51,0,0,1,127.23,19.3Zm5.43,0c0-1.6-.71-2.53-2-2.53s-2,.93-2,2.53.71,2.53,2,2.53,2-.94,2-2.53Z" style="fill: #fff"/>
      <path id="Path_3599" data-name="Path 3599" d="M146.29,21a3,3,0,0,1-3.19,2.12,3.33,3.33,0,0,1-3.42-3.24,4.93,4.93,0,0,1,0-.55,3.4,3.4,0,0,1,2.91-3.81l.48,0c2,0,3.27,1.4,3.27,3.7v.51h-5.18v.09a2,2,0,0,0,1.77,2.1h.19a1.74,1.74,0,0,0,1.74-.89Zm-5.1-2.37h3.71a1.78,1.78,0,0,0-1.64-1.9h-.17a1.88,1.88,0,0,0-1.9,1.85v.05Z" style="fill: #fff"/>
      <path id="Path_3600" data-name="Path 3600" d="M148.32,15.63h1.4v1.16h.11a2.17,2.17,0,0,1,2.19-1.3,2.38,2.38,0,0,1,2.56,2.19,3.25,3.25,0,0,1,0,.54V23h-1.45v-4.4c0-1.18-.51-1.77-1.59-1.77a1.7,1.7,0,0,0-1.76,1.62,2.18,2.18,0,0,0,0,.25V23h-1.45Z" style="fill: #fff"/>
      <path id="Path_3601" data-name="Path 3601" d="M167,21a3,3,0,0,1-3.19,2.12,3.34,3.34,0,0,1-3.39-3.79,3.38,3.38,0,0,1,2.9-3.8,2.63,2.63,0,0,1,.49,0c2,0,3.27,1.4,3.27,3.7v.51H161.9v.09a1.93,1.93,0,0,0,1.76,2.1h.19A1.75,1.75,0,0,0,165.6,21Zm-5.1-2.37h3.7a1.77,1.77,0,0,0-1.63-1.9h-.17a1.88,1.88,0,0,0-1.9,1.85v.05Z" style="fill: #fff"/>
      <path id="Path_3602" data-name="Path 3602" d="M169.1,12.76h1.45V23H169.1Z" style="fill: #fff"/>
    </g>
  </g>
</svg>
