<svg id="Layer_1" data-name="Layer 1" xmlns="http://www.w3.org/2000/svg" viewBox="0 0 351 282">
  <title>icon_2</title>
  <path id="Path_4292" data-name="Path 4292" d="M148.06,129.29V137l-33.66,7.89s-4.61,1.07-5.17,7.24-2.76,33.44-2.76,33.44-1.9,11.81,13.53,14.05h20.82s6.08-.9,6.16-8.66c0,.08,21.46,0,21.46,0s-1.23,6.15,6.68,8.27c0,.05,22.8,0,22.8,0s11.73-2.84,11-11.68c.05-.08-3.14-37.71-3.14-37.71a8.56,8.56,0,0,0-7.24-6.29c-.05,0-31.94-6.55-31.94-6.55v-7.67s9.53-5,10.34-14.57c0-.08,8.71-1.64,8.19-8A7.85,7.85,0,0,0,179,99.42a7.57,7.57,0,0,0,4.87-7.24c-.17-5.47,0-13.27,0-13.27a7,7,0,0,0-7.24-5.9H137.07s-5.71.55-6.12,6.29c-.13,0,0,14.35,0,14.35s.47,4.31,4,5.69c0,.13-4.63,3.57-4,8.32s4.78,6.46,7.71,6.9c0,0-.25,7.35,7.91,14C146.6,128.59,148.06,129.29,148.06,129.29Z" style="fill: #ffc205;stroke: #ffc205;stroke-width: 3px"/>
  <g id="Group_1558" data-name="Group 1558">
    <rect id="Rectangle_269" data-name="Rectangle 269" x="154.34" y="167.62" width="9.03" height="9.03" rx="3.2" style="fill: #4b4b4b"/>
    <rect id="Rectangle_270" data-name="Rectangle 270" x="161.92" y="168.03" width="18.07" height="9.03" rx="3.2" style="fill: #4b4b4b"/>
    <path id="Path_4292-2" data-name="Path 4292-2" d="M205.56,183.16l-3-38.54a6.7,6.7,0,0,0-1.66-3.89,12.8,12.8,0,0,0-6.84-4l-31.26-6.83c0-.17,0-.33,0-.5v-4.49a21.51,21.51,0,0,0,10-14.4A9.58,9.58,0,0,0,177.08,93a7.71,7.71,0,0,0,2.74-5.9V72.63a7.73,7.73,0,0,0-7.72-7.73H130.49a7.74,7.74,0,0,0-7.73,7.73V87.11a7.69,7.69,0,0,0,3.39,6.38,9.56,9.56,0,0,0,4.49,16.93,21.44,21.44,0,0,0,9.56,14.19v4.77c0,.18,0,.35,0,.53l-32.18,7.62a9.33,9.33,0,0,0-7.09,8.18l-3.38,35.8a12.62,12.62,0,0,0,3,9.34l1.48,1.73a12.88,12.88,0,0,0,9.79,4.5h22.1a7.84,7.84,0,0,0,5.59-2.31l.5-.5a8,8,0,0,0,2.35-5.67V188h18.5v.47a9.15,9.15,0,0,0,1.29,4.67,7.18,7.18,0,0,0,6.14,3.47h24a12.19,12.19,0,0,0,8.83-3.8l1.67-1.77A10.36,10.36,0,0,0,205.56,183.16ZM126.43,86.43h49.72v.68a4.06,4.06,0,0,1-4.06,4h-41.6a4.06,4.06,0,0,1-4.06-4Zm17.66-4.5v-3.7a.62.62,0,0,1,.62-.62h13.17a.62.62,0,0,1,.62.62v3.7a.62.62,0,0,1-.62.62H144.71a.61.61,0,0,1-.62-.62Zm29.07,24.77V95.23a5.91,5.91,0,0,1,0,11.47ZM130.49,68.57H172.1a4.07,4.07,0,0,1,4.05,4.06V82.75H162.09a4.47,4.47,0,0,0,.08-.82v-3.7a4.31,4.31,0,0,0-4.3-4.29H144.71a4.31,4.31,0,0,0-4.3,4.29v3.7a4.47,4.47,0,0,0,.08.82H126.43V72.63a4.07,4.07,0,0,1,4.06-4.06ZM126.22,101a5.91,5.91,0,0,1,4.06-5.61v11.22a5.91,5.91,0,0,1-4.06-5.61Zm7.73,5.58V94.84H169.5v11.7a17.78,17.78,0,1,1-35.55.26ZM151.72,128a21.16,21.16,0,0,0,7.43-1.32v2.72a7.64,7.64,0,0,1-15.28,0v-2.89a21.3,21.3,0,0,0,7.85,1.49Zm-47.11,18.08a5.68,5.68,0,0,1,4.29-5l32.09-7.6a11.28,11.28,0,0,0,21,0l31.22,6.81a9.24,9.24,0,0,1,4.9,2.89,3,3,0,0,1,.73,1.73l1.72,21.93h-18v-16.1a5.54,5.54,0,0,0-5.54-5.53H125.5a5.53,5.53,0,0,0-5.53,5.53v15.89h-17.3Zm41.25,2.8h10V160a.55.55,0,0,1-.54.55.55.55,0,0,1-.39-.16l-1.06-1.07a4.29,4.29,0,0,0-6.06,0l-1.58,1.59a.25.25,0,0,1-.35,0,.21.21,0,0,1-.07-.17Zm-41,41.33-1.49-1.73a8.92,8.92,0,0,1-2.1-6.6l1-10.94H120v4.41H118.5a5.31,5.31,0,0,0-3.75,1.55l-.76.76a6.76,6.76,0,0,0-2,4.8v11h-.19a9.18,9.18,0,0,1-7-3.22Zm33.87-1.59a4.25,4.25,0,0,1-1.27,3.06l-.5.5a4.2,4.2,0,0,1-3,1.24H115.67v-11a3.1,3.1,0,0,1,.92-2.21l.75-.76a1.64,1.64,0,0,1,1.16-.48H120v3.51a5.55,5.55,0,0,0,5.54,5.54h13.19Zm0-4.23H125.5a1.88,1.88,0,0,1-1.87-1.86V150.73a1.89,1.89,0,0,1,1.87-1.87h16.69v11.88a3.91,3.91,0,0,0,6.68,2.76l1.58-1.58a.62.62,0,0,1,.87,0l1.06,1.07a4.22,4.22,0,0,0,7.2-3V148.86h17.5a1.88,1.88,0,0,1,1.87,1.87v31.78a1.88,1.88,0,0,1-1.87,1.87H138.69Zm26.62,6.91a5.34,5.34,0,0,1-.77-2.78V188h12.54a5.56,5.56,0,0,0,5.54-5.53v-3.29h1.67a1.61,1.61,0,0,1,1.16.48l.76.76a3.05,3.05,0,0,1,.91,2.21V193H168.29a3.51,3.51,0,0,1-3-1.7Zm34.79-2.73-1.67,1.77a8.54,8.54,0,0,1-6.16,2.66H190.8V182.66a6.8,6.8,0,0,0-2-4.8l-.76-.76a5.26,5.26,0,0,0-3.76-1.55h-1.67v-4.41h18.32l1,12.3a6.73,6.73,0,0,1-1.81,5.12Z" style="fill: #4b4b4b"/>
  </g>
  <rect width="351" height="282" style="fill: none"/>
</svg>
