<svg id="Layer_1" data-name="Layer 1" xmlns="http://www.w3.org/2000/svg" viewBox="0 0 396 280">
  <title>icon_3</title>
  <path id="Path_4293" data-name="Path 4293" d="M187.27,91.49,174,116.23v95.46l3.19,7.82,4.79,4.31H294.7l4.47-2.07,1.43-3.68,1.76-6.38V115l-2.08-5.42-9.41-14.85-2.24-4.63V77.76l-3-2.39H190.78l-3.51,2.39s.64,4,0,4.47S187.27,91.49,187.27,91.49Z" style="fill: #ffc205"/>
  <g id="Group_1559" data-name="Group 1559">
    <path id="Path_4286" data-name="Path 4286" d="M294.28,118.56l-12-20.07a6.78,6.78,0,0,0,.6-2.73V87.83a6.59,6.59,0,0,0-6.58-6.58H182.68a6.59,6.59,0,0,0-6.58,6.58v7.93a6.44,6.44,0,0,0,.59,2.7l-11.64,21a13.86,13.86,0,0,0-1.73,6.69v91.11a20.23,20.23,0,0,0,6,14.41,12.34,12.34,0,0,0,8.81,3.65H283.42a12.3,12.3,0,0,0,8.76-3.62,13.83,13.83,0,0,0,4.07-9.84V125.69A13.87,13.87,0,0,0,294.28,118.56ZM180.58,87.83a2.1,2.1,0,0,1,2.1-2.1h93.58a2.11,2.11,0,0,1,2.1,2.1v7.93a2.11,2.11,0,0,1-2.1,2.1H182.68a2.1,2.1,0,0,1-2.1-2.1ZM169,121.58l10.69-19.24h97.81L265.9,122.51v44.65a37.35,37.35,0,0,1-4.67-7.95l-7.93-18.29-7.68,14.73a11,11,0,0,1-5.35,5l-10.83,4.69a9.53,9.53,0,0,1-6.69.33l-18.06-5.8,8.73,23.69a52.78,52.78,0,0,1,2.55,9.65l.08.46-5.61.42.34,4.46,6-.45,0,.21c.1.61.22,1.22.35,1.83l-5.08,1,.88,4.39,5.33-1.07c.42,1.36.91,2.7,1.46,4L216,210.26l1.94,4,3.53-1.7,7.69,18.22h-5.5l-10.06-21.46h-4.18a6,6,0,0,0-6.63-7.57,6,6,0,0,0-7.18-2.2,6.07,6.07,0,0,0-2-1.28,6.06,6.06,0,0,0-5.8-5.52,6.06,6.06,0,0,0-8.2-2.49,5.71,5.71,0,0,0-1.54,1.17,6.07,6.07,0,0,0-8.18,7.95,5.82,5.82,0,0,0-2.13,1.12V126.1a9.41,9.41,0,0,1,1.16-4.52Zm63.05,81-8.21,3.94c-.4-1-.75-2-1.08-3l9.42-1.88-.88-4.39-9.69,1.94c-.1-.5-.21-1-.3-1.49l10.91-.82-.33-4.46-11.32.85-.15-.86A57.5,57.5,0,0,0,217.62,182l-5.55-15.07,9.31,3a14,14,0,0,0,9.84-.48l10.83-4.69a15.48,15.48,0,0,0,7.54-7l3.34-6.4,4.19,9.67a42.52,42.52,0,0,0,6.18,10.1l.38.46-5.18,9.62,3.94,2.12,3.45-6.42v7.56l-4,.37.4,4.45,3.63-.32v2.26l-3-1.15-1.57,4.19,4.61,1.73V230.8H234.05l-8.51-20.15,8.41-4Zm-59.56,25.89a15.76,15.76,0,0,1-4.66-11.26v-3.39h35.08a5.47,5.47,0,0,0,1.4,0h6.5l8,17H178.1a7.9,7.9,0,0,1-5.65-2.34Zm116.56,0a7.88,7.88,0,0,1-5.59,2.31H270.37V123.71L281,105.15l9.43,15.71a9.35,9.35,0,0,1,1.34,4.83v25.54h-16.3V157h16.3v3.84h-16.3v5.75h16.3V171h-16.3v5.76h16.3v4.47h-16.3V187h16.3v4.34a5.62,5.62,0,0,0-1.41-.18h-9a5.58,5.58,0,0,0-5.57,5.57v16.34a5.59,5.59,0,0,0,5.57,5.57h9a5.63,5.63,0,0,0,1.41-.19v3.34a9.37,9.37,0,0,1-2.76,6.67Zm2.44-31.74v16.34a1.1,1.1,0,0,1-1.1,1.1h-9a1.1,1.1,0,0,1-1.1-1.1h0V196.75a1.1,1.1,0,0,1,1.1-1.1h9a1.1,1.1,0,0,1,1.1,1.1Z" style="fill: #4b4b4b"/>
    <path id="Path_4287" data-name="Path 4287" d="M189.64,143.5c4.7,0,9.32-1.17,13.85-2.32,7.47-1.89,14.53-3.68,21.45-.17l3.25,1.65V116.05l-1.23-.62c-8.41-4.26-16.62-2.18-24.57-.17-7.47,1.89-14.52,3.68-21.44.17l-3.25-1.64v26.6l1.23.62A23.15,23.15,0,0,0,189.64,143.5Zm-7.47-22.73c7.29,2.38,14.4.58,21.32-1.17s13.7-3.47,20.23-.74v16.81c-7.29-2.38-14.4-.58-21.32,1.18s-13.7,3.47-20.23.74Z" style="fill: #4b4b4b"/>
    <rect id="Rectangle_263" data-name="Rectangle 263" x="175.78" y="148.04" width="5.75" height="5.75" style="fill: #4b4b4b"/>
    <rect id="Rectangle_264" data-name="Rectangle 264" x="186.01" y="148.04" width="15.98" height="5.75" style="fill: #4b4b4b"/>
    <rect id="Rectangle_265" data-name="Rectangle 265" x="175.78" y="158.26" width="5.75" height="5.75" style="fill: #4b4b4b"/>
    <rect id="Rectangle_266" data-name="Rectangle 266" x="186.01" y="158.26" width="15.98" height="5.75" style="fill: #4b4b4b"/>
    <rect id="Rectangle_267" data-name="Rectangle 267" x="175.78" y="168.49" width="5.75" height="5.75" style="fill: #4b4b4b"/>
    <rect id="Rectangle_268" data-name="Rectangle 268" x="186.01" y="168.49" width="15.98" height="5.75" style="fill: #4b4b4b"/>
    <path id="Path_4288" data-name="Path 4288" d="M238.1,185.11a7.35,7.35,0,1,0-7.35,7.35A7.36,7.36,0,0,0,238.1,185.11ZM230.75,188a2.88,2.88,0,1,1,2.87-2.87A2.88,2.88,0,0,1,230.75,188Z" style="fill: #4b4b4b"/>
    <path id="Path_4289" data-name="Path 4289" d="M252.16,183.83a7.35,7.35,0,1,0-7.35-7.35A7.35,7.35,0,0,0,252.16,183.83Zm0-10.23a2.88,2.88,0,1,1-2.88,2.88A2.88,2.88,0,0,1,252.16,173.6Z" style="fill: #4b4b4b"/>
    <path id="Path_4290" data-name="Path 4290" d="M244.84,200.48a4.15,4.15,0,0,1-5.87,0l-3.16,3.17a8.62,8.62,0,0,0,14.68-5.3,8.63,8.63,0,0,0,7.74-14.57l-3.16,3.16a4.15,4.15,0,1,1-5.87,5.88l0,0c-.13-.2-.27-.38-.41-.57l1-5.51a1.6,1.6,0,0,0-1.31-1.85,1.71,1.71,0,0,0-.81.07l-7.44,2.72a1.6,1.6,0,0,0-.94,2.06,1.49,1.49,0,0,0,.47.66l5.63,4.72A4.14,4.14,0,0,1,244.84,200.48Z" style="fill: #4b4b4b"/>
  </g>
  <rect width="396" height="280" style="fill: none"/>
</svg>
