<svg id="Layer_1" data-name="Layer 1" xmlns="http://www.w3.org/2000/svg" viewBox="0 0 445 282">
  <title>icon_4</title>
  <path id="Path_4296" data-name="Path 4296" d="M213.36,96.5c0,4.84,0,19,0,19s-.21,2.34,1.09,3.5a23.69,23.69,0,0,0-3.14,3.85c-1.09,1.85-9.38,17.2-9.38,17.2v12.76s.65,6.89,10.4,8.12c0,0,0,54.79,0,54.79H200.77s-2.8-.38-2.83,2.25c.07,0,0,9.79,0,9.79a2.81,2.81,0,0,0,2.83,2.29c-.24.06,135,0,135,0s2.15,0,2-3.21v-9.25s0-2.38-3.51-2.35H323.13V160.27s11.12,1.74,12.31-8.22v-11.8l-11.15-18.93a4.71,4.71,0,0,0-3.58-1.74c-.07,0,1.6-3.38,1.43-5.43,0,0,0-17.86,0-17.86A4.87,4.87,0,0,0,317,91.71h-.13c0,.09-99.21.31-99.21.31S213.39,91.67,213.36,96.5Z" style="fill: #ffc205;stroke: #ffc205"/>
  <g id="Group_1561" data-name="Group 1561">
    <path id="Path_4296-2" data-name="Path 4296-2" d="M324.81,205.22H314.06V153.87h.46c6.27,0,11.37-4.57,11.37-10.18V131.34l-2.21-3.59-8.56-15.22a4.82,4.82,0,0,0-3-2.28,6.31,6.31,0,0,0,.54-2.5V87.86a6.16,6.16,0,0,0-6.15-6.14H206.65a6.15,6.15,0,0,0-6.15,6.14v19.89a6.17,6.17,0,0,0,.77,3,4.82,4.82,0,0,0-1.82,1.82l-8.24,14.64h0l-1.32,2.36a1.55,1.55,0,0,0-.14.29l-.6,1.08V143.7c0,5.3,4.55,9.67,10.34,10.13v51.38H188.81a3.45,3.45,0,0,0-3.45,3.45v11.09a3.46,3.46,0,0,0,3.45,3.45h136a3.46,3.46,0,0,0,3.45-3.45V208.66A3.44,3.44,0,0,0,324.81,205.22Zm-14.53,3.44v10.75H253V183c0-10.37-9.53-18.8-21.24-18.8s-21.25,8.43-21.25,18.8v36.46h-7.19V208.66a3.68,3.68,0,0,0-.06-.66V153.57a11.49,11.49,0,0,0,6.72-4.25,12.13,12.13,0,0,0,18.95,0,12.14,12.14,0,0,0,19,0,12.14,12.14,0,0,0,17,1.9,11.84,11.84,0,0,0,1.91-1.9,12.13,12.13,0,0,0,18.95,0,12.12,12.12,0,0,0,17,1.92,12.4,12.4,0,0,0,2.06-2.1,11.15,11.15,0,0,0,5.37,4Zm-61,10.75H214.32V183c0-8.28,7.83-15,17.46-15s17.46,6.74,17.46,15ZM231,113.9l-4.58,18.92H210.93l7.57-18.92Zm64.24,0,7.57,18.92h-15l-5-18.92Zm-64.34,22.71H246v7.1c0,3.52-3.41,6.38-7.59,6.38s-7.58-2.86-7.58-6.38Zm19,0H265v7.1c0,3.52-3.4,6.38-7.58,6.38s-7.59-2.86-7.59-6.38Zm19,0h15.17v7.1c0,3.52-3.4,6.38-7.58,6.38s-7.59-2.86-7.59-6.38Zm19,0h15.17v7.1c0,3.52-3.4,6.38-7.59,6.38s-7.58-2.86-7.58-6.38Zm-8.84-22.71,5,18.92H268.73l-1.2-18.92Zm-15.14,0,1.19,18.92H249.69l.9-18.92ZM245.9,132.82H230.27l4.58-18.92h12Zm-34,3.79h15.17v7.1c0,3.52-3.4,6.38-7.59,6.38s-7.58-2.86-7.58-6.38Zm102.63,13.48c-4.18,0-7.59-2.86-7.59-6.38v-7.1h13.61a4.57,4.57,0,0,0,1.56-.27v7.37c0,3.52-3.4,6.38-7.58,6.38Zm6.86-18.69a1,1,0,0,1-.37,1.3.94.94,0,0,1-.47.12h-13.7l-7.57-18.92H311a1,1,0,0,1,.85.49ZM204.29,87.86a2.36,2.36,0,0,1,2.35-2.36H306.5a2.37,2.37,0,0,1,2.36,2.36v19.89a2.36,2.36,0,0,1-2.36,2.36H206.64a2.36,2.36,0,0,1-2.35-2.36Zm-1.54,26.54a1,1,0,0,1,.85-.51h10.83l-7.57,18.93H194a1,1,0,0,1-1-1,.92.92,0,0,1,.05-.28l1.4-2.54Zm-9.82,29.3v-7.23a4.45,4.45,0,0,0,1.09.13h14.09v7.1c0,3.52-3.41,6.39-7.59,6.39s-7.59-2.86-7.59-6.39Zm-3.78,75.71V209h10.34v10.41Zm135.32,0H314.06V209h10.41Z" style="fill: #4b4b4b"/>
    <path id="Path_4297" data-name="Path 4297" d="M295.94,182H267.36a4.4,4.4,0,0,0-4.4,4.4v16.75a4.4,4.4,0,0,0,4.4,4.4h28.58a4.4,4.4,0,0,0,4.4-4.4V186.43A4.4,4.4,0,0,0,295.94,182Zm.62,21.15a.62.62,0,0,1-.62.62H267.36a.61.61,0,0,1-.61-.62V186.43a.61.61,0,0,1,.61-.61h28.58a.61.61,0,0,1,.62.61h0Z" style="fill: #4b4b4b"/>
    <circle id="Ellipse_25" data-name="Ellipse 25" cx="243.63" cy="196.29" r="3.17" style="fill: #4b4b4b"/>
  </g>
  <rect width="445" height="282" style="fill: none"/>
</svg>
