<svg id="Layer_1" data-name="Layer 1" xmlns="http://www.w3.org/2000/svg" viewBox="0 0 380 284">
  <title>icon_1</title>
  <path id="Path_4298" data-name="Path 4298" d="M134,128.66a82.77,82.77,0,0,0-16.81,10.24s-8.84-29.74-30.61-21.43c-.07.13-12.32,6.16-3,26.92,0,.14,2.14,5.29,14.06,12.19l-8.49,14s-14.06-1.17-14.25,15.16c0,.05.78,6.6,8.7,10.32,0,0,5.73,2.84,13-1.8,0-.05,7.89,0,7.89,0s-.21,12,12,13.26S129.28,194,129.28,194h54.09s-1.16,12.09,12.14,13,12.63-13,12.63-13h26.77s1.66-32.79-24.62-56.81c.05.14-12.94-11.52-27.22-14.07.06-.06,0-21.7,0-21.7s3.31,2.84,12,3,17.86-9.11,17.63-20-10.79-18.56-19.26-18-12.53,4.93-15.6,5.4-8.47-6.5-17.81-6.15-19.32,10.15-17.87,21.35,12.07,21.46,28.66,15c0,0,0,19,0,19a31.44,31.44,0,0,0-8.55-.48s-3.67-6.62-11.17-6.35-12,5.27-14.9,10.49C136.12,124.75,134,128.66,134,128.66Z" style="fill: #ffc205;stroke: #ffc205"/>
  <g id="Group_1562" data-name="Group 1562">
    <path id="Path_4298-2" data-name="Path 4298-2" d="M231.77,203.35v-2.07c0-20.46-7-39.36-19.76-53.21a68.83,68.83,0,0,0-34-20.21l2.14,1v-17a21.19,21.19,0,0,0,29.4-20.21,21.18,21.18,0,0,0-34.38-15.87,4.94,4.94,0,0,1-6.13,0,21.12,21.12,0,0,0-14.72-4.57A21.34,21.34,0,0,0,134.66,91.6a21.21,21.21,0,0,0,29.47,20.18V125.6c-2.15-.16-4.32-.25-6.53-.26a15.35,15.35,0,0,0-9-5.72c-5-1-10.13.66-14.52,4.68a27.19,27.19,0,0,0-6.53,9.43,110.88,110.88,0,0,0-14.31,8.59,31.54,31.54,0,0,0-4.14-8.9,29,29,0,0,0-13.84-11.35c-5.59-2-11-1.62-15.21,1.19-8.51,5.68-9.32,19.46-1.81,30.73A29.82,29.82,0,0,0,90,164.43a78.26,78.26,0,0,0-7,11,15.24,15.24,0,1,0,8.72,27.89h5.79a14.2,14.2,0,0,0,28.29,0h50.75a14.2,14.2,0,0,0,28.29,0h7.3c2.36,0,.4,0,4.13,0Zm-88.19-99.21a16.93,16.93,0,0,1-4.79-12.41A17.05,17.05,0,0,1,166.46,79a9.08,9.08,0,0,0,11.28,0,17.05,17.05,0,1,1,.3,26.89,9.82,9.82,0,0,0-11.88,0,17,17,0,0,1-22.58-1.7Zm24.68,5.28.41-.3a5.58,5.58,0,0,1,6.86,0l.48.35v17.9c-2.52-.57-5.11-1-7.75-1.36Zm-31.38,17.93a13.3,13.3,0,0,1,8.91-3.87,9.79,9.79,0,0,1,2,.2c7.79,1.56,12.33,11.81,10.12,22.85s-10.36,18.76-18.14,17.2-12.34-11.81-10.13-22.86a24.93,24.93,0,0,1,7.23-13.52ZM81.68,151.7c-6.24-9.37-6-20.59.67-25a10.91,10.91,0,0,1,6.12-1.78,15.89,15.89,0,0,1,5.37,1,26.55,26.55,0,0,1,16.29,24.44c-.2,4.59-2,8.25-5.13,10.32C98.39,165.11,87.93,161.07,81.68,151.7Zm17.26,14.88a14.85,14.85,0,0,0,8.36-2.44c4.22-2.81,6.7-7.63,7-13.57a24,24,0,0,0-.14-3.79,109.74,109.74,0,0,1,11.64-7.43c-.05.24-.11.47-.16.72-2.66,13.28,3.34,25.71,13.37,27.72a14.32,14.32,0,0,0,2.78.27c9.08,0,17.81-8.66,20.22-20.71a29.07,29.07,0,0,0-1.8-17.82c43.43,1.4,66.55,35.42,67.44,69.69H95.87a15.1,15.1,0,0,0,2.61-8.53A15.26,15.26,0,0,0,87.38,176a76.62,76.62,0,0,1,6.71-10.1,19.34,19.34,0,0,0,4.85.65Zm-26.8,24.11a11.11,11.11,0,1,1,11.1,11.11,11.1,11.1,0,0,1-11.1-11.11Zm39.52,21.44a10.08,10.08,0,0,1-10-8.78h20a10.08,10.08,0,0,1-10,8.78Zm79,0a10.08,10.08,0,0,1-10-8.78h20a10.09,10.09,0,0,1-10,8.78Z" style="fill: #4b4b4b"/>
    <path id="Path_4299" data-name="Path 4299" d="M156.34,84a8.27,8.27,0,1,0,8.27,8.27A8.28,8.28,0,0,0,156.34,84Zm0,12.4a4.13,4.13,0,1,1,4.14-4.13A4.13,4.13,0,0,1,156.34,96.41Z" style="fill: #4b4b4b"/>
    <path id="Path_4300" data-name="Path 4300" d="M187.85,100.55a8.27,8.27,0,1,0-8.26-8.27A8.28,8.28,0,0,0,187.85,100.55Zm0-12.4a4.13,4.13,0,1,1-4.13,4.13,4.13,4.13,0,0,1,4.13-4.13Z" style="fill: #4b4b4b"/>
    <path id="Path_4301" data-name="Path 4301" d="M88.79,135.17c.44-.22,1.48,0,2.84,1.1a18.27,18.27,0,0,1,4.62,6l3,5.46a2.07,2.07,0,1,0,3.62-2h0l-3-5.35A22.19,22.19,0,0,0,94.19,133c-2.6-2-5.18-2.58-7.25-1.54-3.88,1.94-4.14,8.73-.6,15.78l3,5.6a2.06,2.06,0,0,0,1.82,1.08,2,2,0,0,0,1-.25,2.06,2.06,0,0,0,.83-2.8l-3-5.51C87.33,140,87.69,135.72,88.79,135.17Z" style="fill: #4b4b4b"/>
    <path id="Path_4302" data-name="Path 4302" d="M137.49,150.46a2.09,2.09,0,0,0,2.43-1.63l1.2-6.16a18.33,18.33,0,0,1,3-6.91c1.07-1.36,2-1.86,2.5-1.75s1.13,1,1.5,2.66a18.28,18.28,0,0,1-.27,7.58l-1.15,6.12a2.08,2.08,0,0,0,1.65,2.42,2.56,2.56,0,0,0,.39,0,2.06,2.06,0,0,0,2-1.69l1.13-6a22.12,22.12,0,0,0,.26-9.34c-.7-3.23-2.34-5.29-4.61-5.81s-4.64.63-6.67,3.23a22.1,22.1,0,0,0-3.82,8.57L135.86,148A2.07,2.07,0,0,0,137.49,150.46Z" style="fill: #4b4b4b"/>
    <path id="Path_4303" data-name="Path 4303" d="M107,186.3a7.49,7.49,0,1,0-7.49-7.49A7.51,7.51,0,0,0,107,186.3Zm0-10.85a3.36,3.36,0,1,1-3.36,3.36A3.37,3.37,0,0,1,107,175.45Z" style="fill: #4b4b4b"/>
    <path id="Path_4304" data-name="Path 4304" d="M128.19,186.3a7.49,7.49,0,1,0-7.49-7.49A7.51,7.51,0,0,0,128.19,186.3Zm0-10.85a3.36,3.36,0,1,1-3.36,3.36A3.37,3.37,0,0,1,128.19,175.45Z" style="fill: #4b4b4b"/>
  </g>
  <rect width="380" height="284" style="fill: none"/>
</svg>
