<svg id="Layer_1" data-name="Layer 1" xmlns="http://www.w3.org/2000/svg" viewBox="0 0 554.13 555.85">
  <title>app_2</title>
  <g>
    <circle cx="486.63" cy="75.14" r="61" style="fill: #fff"/>
    <g id="Group_1346" data-name="Group 1346">
      <g id="Group_1322" data-name="Group 1322">
        <rect id="Rectangle_15" data-name="Rectangle 15" x="127.45" y="5.14" width="289.82" height="545.56" rx="12.11" style="fill: #191919"/>
        <g id="Group_1321" data-name="Group 1321">
          <path id="Path_3454" data-name="Path 3454" d="M402.9,46.93V505.27a28.26,28.26,0,0,1-28.06,28.27h-205a28.26,28.26,0,0,1-28.06-28.27V46.93a28.26,28.26,0,0,1,28.06-28.27h205A28.26,28.26,0,0,1,402.9,46.93Z" style="fill: #fff8d9"/>
          <path id="Path_3455" data-name="Path 3455" d="M374.84,18.66,172.41,533.54h-2.54a28.26,28.26,0,0,1-28.06-28.27V46.93a28.26,28.26,0,0,1,28.06-28.27Z" style="fill: #fff"/>
        </g>
        <path id="Rectangle_16" data-name="Rectangle 16" d="M221.33,8.34H323.39a4.49,4.49,0,0,1,4.49,4.49V31.22a4.49,4.49,0,0,1-4.49,4.49H221.32a4.48,4.48,0,0,1-4.48-4.49h0V12.83a4.49,4.49,0,0,1,4.49-4.49Z" style="fill: #191919"/>
      </g>
      <path id="Rectangle_18" data-name="Rectangle 18" d="M30.28,134.15H308a25.15,25.15,0,0,1,25.15,25.15V262.35A25.15,25.15,0,0,1,308,287.5H30.28A25.15,25.15,0,0,1,5.13,262.35v-103a25.15,25.15,0,0,1,25.15-25.15Z" style="fill: #ffc205"/>
      <g id="Group_1326" data-name="Group 1326">
        <rect id="Rectangle_19" data-name="Rectangle 19" x="147.66" y="96.08" width="103.35" height="31.07" rx="8.58" style="fill: #ffeea4"/>
      </g>
      <g id="Group_1406" data-name="Group 1406">
        <rect id="Rectangle_19-2" data-name="Rectangle 19-2" x="262.27" y="96.08" width="103.35" height="31.07" rx="8.58" style="fill: #ffeea4"/>
      </g>
      <g id="Group_1407" data-name="Group 1407">
        <path id="Rectangle_19-3" data-name="Rectangle 19-3" d="M385.44,96.08H403v31.07H385.44a8.57,8.57,0,0,1-8.57-8.57V104.65A8.57,8.57,0,0,1,385.44,96.08Z" style="fill: #ffeea4"/>
      </g>
      <g id="Group_1327" data-name="Group 1327">
        <rect id="Rectangle_20" data-name="Rectangle 20" x="141.82" y="468.42" width="261.59" height="67.17" rx="10.58" style="fill: #ffeea4"/>
      </g>
      <g id="Group_1328" data-name="Group 1328">
        <path id="Rectangle_21" data-name="Rectangle 21" d="M232,314.23H369.83A15.19,15.19,0,0,1,385,329.42v62.21a15.19,15.19,0,0,1-15.18,15.19H232a15.18,15.18,0,0,1-15.18-15.19h0V329.42A15.18,15.18,0,0,1,232,314.23Z" style="fill: #4b4b4b"/>
      </g>
      <path id="Path_3485" data-name="Path 3485" d="M131.21,205A47.54,47.54,0,1,1,83.67,157.5h0a47.3,47.3,0,0,1,47.54,47.06Z" style="fill: #fff"/>
      <rect id="Rectangle_24" data-name="Rectangle 24" x="160.36" y="172.66" width="60.81" height="8.43" rx="3" style="fill: #fff"/>
      <g id="Group_1334" data-name="Group 1334">
        <path id="Path_3487" data-name="Path 3487" d="M218.42,211.4H163.11a2.75,2.75,0,0,1-2.75-2.75h0a2.76,2.76,0,0,1,2.75-2.75h55.31a2.76,2.76,0,0,1,2.74,2.75h0A2.75,2.75,0,0,1,218.42,211.4Z" style="fill: #fff"/>
        <rect id="Rectangle_25" data-name="Rectangle 25" x="160.36" y="218.91" width="35.68" height="5.5" rx="2" style="fill: #fff"/>
        <rect id="Rectangle_26" data-name="Rectangle 26" x="204.57" y="218.91" width="56.13" height="5.5" rx="2" style="fill: #fff"/>
        <path id="Path_3488" data-name="Path 3488" d="M305.57,211.4H233.05a2.75,2.75,0,0,1-2.75-2.75h0a2.76,2.76,0,0,1,2.75-2.75h72.52a2.77,2.77,0,0,1,2.75,2.75h0A2.77,2.77,0,0,1,305.57,211.4Z" style="fill: #fff"/>
        <path id="Path_3489" data-name="Path 3489" d="M218.42,237.42H163.11a2.75,2.75,0,0,1-2.75-2.75h0a2.76,2.76,0,0,1,2.75-2.75h55.31a2.75,2.75,0,0,1,2.74,2.75h0A2.75,2.75,0,0,1,218.42,237.42Z" style="fill: #fff"/>
        <path id="Path_3490" data-name="Path 3490" d="M305.57,237.42H233.05a2.75,2.75,0,0,1-2.75-2.75h0a2.75,2.75,0,0,1,2.75-2.75h72.52a2.77,2.77,0,0,1,2.75,2.75h0A2.77,2.77,0,0,1,305.57,237.42Z" style="fill: #fff"/>
      </g>
      <rect id="Rectangle_27" data-name="Rectangle 27" x="228.7" y="172.66" width="44.62" height="8.43" rx="3" style="fill: #fff"/>
      <g id="Group_1341" data-name="Group 1341">
        <rect id="Rectangle_36" data-name="Rectangle 36" x="236.22" y="331.2" width="47.33" height="6.56" rx="3" style="fill: #fee55c"/>
        <g id="Group_1339" data-name="Group 1339">
          <path id="Path_3497" data-name="Path 3497" d="M281.41,354.56H238.36a2.14,2.14,0,0,1-2.14-2.14h0a2.15,2.15,0,0,1,2.14-2.14h43.05a2.15,2.15,0,0,1,2.14,2.14h0A2.14,2.14,0,0,1,281.41,354.56Z" style="fill: #fee55c"/>
          <rect id="Rectangle_37" data-name="Rectangle 37" x="236.22" y="360.41" width="27.77" height="4.28" rx="2" style="fill: #fee55c"/>
          <rect id="Rectangle_38" data-name="Rectangle 38" x="270.64" y="360.41" width="43.69" height="4.28" rx="2" style="fill: #fee55c"/>
          <path id="Path_3498" data-name="Path 3498" d="M349.25,354.56H292.8a2.15,2.15,0,0,1-2.14-2.14h0a2.16,2.16,0,0,1,2.14-2.14h56.45a2.15,2.15,0,0,1,2.14,2.14h0A2.14,2.14,0,0,1,349.25,354.56Z" style="fill: #fee55c"/>
          <path id="Path_3499" data-name="Path 3499" d="M281.41,374.81H238.36a2.14,2.14,0,0,1-2.14-2.14h0a2.13,2.13,0,0,1,2.14-2.13h43.05a2.13,2.13,0,0,1,2.14,2.13h0A2.14,2.14,0,0,1,281.41,374.81Z" style="fill: #fee55c"/>
          <path id="Path_3500" data-name="Path 3500" d="M349.25,374.81H292.8a2.14,2.14,0,0,1-2.14-2.14h0a2.14,2.14,0,0,1,2.14-2.13h56.45a2.13,2.13,0,0,1,2.14,2.13h0A2.14,2.14,0,0,1,349.25,374.81Z" style="fill: #fee55c"/>
        </g>
        <g id="Group_1340" data-name="Group 1340">
          <path id="Path_3501" data-name="Path 3501" d="M281.41,385.36H238.36a2.15,2.15,0,0,1-2.14-2.14h0a2.14,2.14,0,0,1,2.14-2.14h43.05a2.15,2.15,0,0,1,2.14,2.14h0A2.15,2.15,0,0,1,281.41,385.36Z" style="fill: #fee55c"/>
          <path id="Path_3502" data-name="Path 3502" d="M349.25,385.36H292.8a2.16,2.16,0,0,1-2.14-2.14h0a2.15,2.15,0,0,1,2.14-2.14h56.45a2.14,2.14,0,0,1,2.14,2.14h0A2.15,2.15,0,0,1,349.25,385.36Z" style="fill: #fee55c"/>
        </g>
        <rect id="Rectangle_39" data-name="Rectangle 39" x="289.41" y="331.2" width="34.73" height="6.56" rx="3" style="fill: #fee55c"/>
      </g>
      <g id="Group_1345" data-name="Group 1345">
        <path id="Path_3503" data-name="Path 3503" d="M181.34,47.34l-2.92,2.1-2.94-2.08a3.6,3.6,0,0,1,5-.85,3.68,3.68,0,0,1,.84.83Z" style="fill: #fff"/>
        <g id="Group_1342" data-name="Group 1342">
          <path id="Path_3504" data-name="Path 3504" d="M178.42,40.73a8.66,8.66,0,0,0-7.1,3.7l1.85,1.3a6.42,6.42,0,0,1,9-1.55,6.23,6.23,0,0,1,1.52,1.51l1.85-1.33A8.7,8.7,0,0,0,178.42,40.73Z" style="fill: #fff"/>
        </g>
        <g id="Group_1343" data-name="Group 1343">
          <path id="Path_3505" data-name="Path 3505" d="M178.42,31a18.38,18.38,0,0,0-15,7.82l1.86,1.3a16.12,16.12,0,0,1,26.29-.1l1.84-1.33A18.37,18.37,0,0,0,178.42,31Z" style="fill: #fff"/>
        </g>
        <g id="Group_1344" data-name="Group 1344">
          <path id="Path_3506" data-name="Path 3506" d="M178.41,36.33a13.14,13.14,0,0,0-10.71,5.54l1.85,1.3a10.89,10.89,0,0,1,15.2-2.53,10.77,10.77,0,0,1,2.49,2.46l1.84-1.31A13.14,13.14,0,0,0,178.41,36.33Z" style="fill: #fff"/>
        </g>
      </g>
      <path id="Path_3507" data-name="Path 3507" d="M162,356.74A18.67,18.67,0,0,0,191.39,372l.45-.33a18.67,18.67,0,1,0-29.82-15Z" style="fill: #fff"/>
      <path id="Path_3509" data-name="Path 3509" d="M166,502.63a18.7,18.7,0,1,0,0-.2Z" style="fill: #ffc205"/>
      <path id="Path_3854" data-name="Path 3854" d="M283,502.63a18.7,18.7,0,1,0,0-.2Z" style="fill: #ffc205"/>
      <path id="Path_3856" data-name="Path 3856" d="M224.49,502.63a18.7,18.7,0,1,0,0-.2Z" style="fill: #ffc205"/>
      <path id="Path_3855" data-name="Path 3855" d="M341.59,502.63a18.7,18.7,0,1,0,0-.2Z" style="fill: #ffc205"/>
    </g>
    <g id="Ellipse_13" data-name="Ellipse 13">
      <circle cx="486.5" cy="76.05" r="62.5" style="fill: none"/>
      <circle cx="486.5" cy="76.05" r="60" style="fill: none;stroke: #ffc205;stroke-width: 5px"/>
    </g>
    <ellipse id="Ellipse_14" data-name="Ellipse 14" cx="436.5" cy="408.55" rx="43.5" ry="44" style="fill: #fff;stroke: #ffc205;stroke-linecap: round;stroke-width: 3px"/>
    <g id="Ellipse_15" data-name="Ellipse 15">
      <circle cx="114" cy="374.55" r="48" style="fill: #fff"/>
      <circle cx="114" cy="374.55" r="46.5" style="fill: none;stroke: #ffc205;stroke-width: 3px"/>
    </g>
    <g id="Group_1410" data-name="Group 1410">
      <g id="Group_1409" data-name="Group 1409">
        <path id="Path_3868" data-name="Path 3868" d="M532.11,70.6c0,6.21,0,14.72-5.82,21.76-3.66,4.42-9.06,7.63-16.3,9.66a8.52,8.52,0,0,0,.84-2.13q9.36-2.94,14.1-8.65c5.08-6.14,5.4-13.67,5.42-19.48a6.61,6.61,0,0,0,.38-2.2c0-2.17-1.1-4.23-3.12-6.1-3.64-3.94-10.78-6.81-20.86-8.4a120.47,120.47,0,0,0-41.15,0c-10.1,1.58-17.28,4.47-20.91,8.42-2,1.87-3.1,3.93-3.1,6.09a6.38,6.38,0,0,0,.39,2.2c0,5.81.32,13.34,5.41,19.48,5.5,6.62,15.74,10.48,30.52,11.48a76.43,76.43,0,0,0,9.86,1.49,5,5,0,0,0,.37.53h-2c-20.09,0-33.21-4.06-40.12-12.39-5.84-7-5.83-15.55-5.83-21.76v-.53c0-11.39,17.17-18.18,45.94-18.18s45.95,6.8,45.95,18.18Z" style="fill: #ffc205;stroke: #ffc205"/>
        <path id="Path_3869" data-name="Path 3869" d="M530.73,69.56a6.61,6.61,0,0,1-.38,2.2c0,.13-.09.26-.14.38s-.23.5-.36.74a4.36,4.36,0,0,1-.24.41,10.73,10.73,0,0,1-.74,1,14.81,14.81,0,0,1-1.66,1.7l-.05,0a.85.85,0,0,1-1.1,0c-.26-.22-.52-.43-.81-.65a9.44,9.44,0,0,0,3.39-4.06c0-.1.07-.19.1-.29a.67.67,0,0,0,.07-.24,3.59,3.59,0,0,0,.08-.35,1.09,1.09,0,0,0,0-.25,2.3,2.3,0,0,0,0-.26c0-.12,0-.24,0-.37C529,61.69,509.36,55,486.15,55s-42.81,6.65-42.81,14.51c0,.13,0,.25,0,.37a2.28,2.28,0,0,0,0,.26,2.21,2.21,0,0,0,.05.25,5,5,0,0,0,.24.88,2.52,2.52,0,0,0,.12.29,2.59,2.59,0,0,0,.14.29,1.35,1.35,0,0,0,.16.29,10.32,10.32,0,0,0,3,3.19c-.29.22-.55.43-.81.65a.85.85,0,0,1-1.11,0l0,0a14.9,14.9,0,0,1-1.67-1.7,10.64,10.64,0,0,1-.73-1,3.91,3.91,0,0,1-.26-.44c-.12-.23-.23-.47-.33-.71a2.5,2.5,0,0,1-.15-.38,6.62,6.62,0,0,1-.39-2.2c0-2.16,1.1-4.21,3.1-6.09.2-.18.4-.36.62-.54a21,21,0,0,1,2-1.44l.5-.32A37.24,37.24,0,0,1,454.49,58c.45-.16.9-.33,1.37-.48l1.49-.47c.36-.12.74-.23,1.12-.33l.85-.24,1.18-.31c1.06-.27,2.17-.52,3.29-.76.22,0,.44-.1.66-.13l1.14-.23a120.72,120.72,0,0,1,41.15,0c.7.13,1.38.26,2.05.42.45.08.9.19,1.33.29l.23,0,1.44.35c.54.13,1.08.27,1.6.42a59.68,59.68,0,0,1,5.84,1.95c.67.27,1.31.55,1.92.83l.61.29a29.88,29.88,0,0,1,2.78,1.51l.89.57c.34.23.67.48,1,.72s.56.44.83.67l.36.33C529.63,65.33,530.73,67.39,530.73,69.56Z" style="fill: #ffc205;stroke: #ffc205"/>
        <path id="Path_3870" data-name="Path 3870" d="M526.6,74.2a8.23,8.23,0,0,0,2-2.88,9.56,9.56,0,0,1-3.39,4.06c-6.94-5.25-22.39-8.73-39.1-8.73S454,70.13,447.07,75.38a10.43,10.43,0,0,1-3-3.19,8.94,8.94,0,0,0,1.62,2c7.2-5.67,22.91-9.31,40.45-9.31S519.41,68.53,526.6,74.2Z" style="fill: #ffc205;stroke: #ffc205"/>
        <path id="Path_3871" data-name="Path 3871" d="M528.87,74.32a12.13,12.13,0,0,1-1.66,1.7A14.81,14.81,0,0,0,528.87,74.32Z" style="fill: #ffc205;stroke: #ffc205"/>
        <path id="Path_3872" data-name="Path 3872" d="M526.42,62.46c.29.21.56.44.83.67C527,62.9,526.71,62.68,526.42,62.46Z" style="fill: #ffc205;stroke: #ffc205"/>
        <path id="Path_3873" data-name="Path 3873" d="M526.06,76a.87.87,0,0,0,1.11,0c-3.44,2.94-9.15,5.42-16.4,7.13a7.06,7.06,0,0,0-.84-1.64c6.63-1.54,12-3.68,15.32-6.18C525.54,75.59,525.8,75.8,526.06,76Z" style="fill: #ffc205;stroke: #ffc205"/>
        <path id="Path_3874" data-name="Path 3874" d="M525.43,61.74l-.88-.57Z" style="fill: #ffc205;stroke: #ffc205"/>
        <path id="Path_3875" data-name="Path 3875" d="M521.77,59.66l-.61-.29C521.36,59.46,521.58,59.55,521.77,59.66Z" style="fill: #ffc205;stroke: #ffc205"/>
        <path id="Path_3876" data-name="Path 3876" d="M513.4,56.59a54.78,54.78,0,0,1,5.84,1.95A59.68,59.68,0,0,0,513.4,56.59Z" style="fill: #ffc205;stroke: #ffc205"/>
        <path id="Path_3877" data-name="Path 3877" d="M513.4,56.59c-.52-.15-1.06-.29-1.6-.43C512.34,56.3,512.88,56.44,513.4,56.59Z" style="fill: #ffc205;stroke: #ffc205"/>
        <path id="Path_3878" data-name="Path 3878" d="M513.1,91.56a2.32,2.32,0,0,1-2,2.28V92a.53.53,0,0,0,.25-.43.28.28,0,0,0-.1-.24.37.37,0,0,0-.14-.07l0-1.76a2,2,0,0,1,1.31.54A2,2,0,0,1,513.1,91.56Z" style="fill: #ffc205;stroke: #ffc205"/>
        <path id="Path_3879" data-name="Path 3879" d="M511.8,56.17c-.48-.13-1-.24-1.44-.35C510.84,55.92,511.33,56,511.8,56.17Z" style="fill: #ffc205;stroke: #ffc205"/>
        <path id="Path_3880" data-name="Path 3880" d="M510.77,83.2a7,7,0,0,1,.39,2.4l0,3.89h-.28l-1,.08a33,33,0,0,0-.47-3.29v-.7a5.24,5.24,0,0,0-.37-2Q509.92,83.41,510.77,83.2Z" style="fill: #ffc205;stroke: #ffc205"/>
        <path id="Path_3881" data-name="Path 3881" d="M511.12,89.49v1.76H511l-1,.08c0-.59-.08-1.17-.13-1.76l1-.08Z" style="fill: #ffc205;stroke: #ffc205"/>
        <path id="Path_3882" data-name="Path 3882" d="M511.11,91.26V92a.52.52,0,0,1-.26.1l-.81.07c0-.28,0-.56,0-.83l1-.09h0Z" style="fill: #ffc205;stroke: #ffc205"/>
        <path id="Path_3883" data-name="Path 3883" d="M511.09,92v1.85H511l-.94.08c0-.59,0-1.18,0-1.76l.81-.07A.47.47,0,0,0,511.09,92Z" style="fill: #ffc205;stroke: #ffc205"/>
        <path id="Path_3884" data-name="Path 3884" d="M511.08,93.84,511,98.19a7.52,7.52,0,0,1-.2,1.7l-1.33.4a39.74,39.74,0,0,0,.55-6.35l.94-.08Z" style="fill: #ffc205;stroke: #ffc205"/>
        <path id="Path_3885" data-name="Path 3885" d="M509.5,100.28c.45-.12.9-.25,1.34-.4A8.61,8.61,0,0,1,510,102c-.34.1-.69.2-1.05.28a.94.94,0,0,0,.28-.47C509.32,101.32,509.42,100.8,509.5,100.28Z" style="fill: #ffc205;stroke: #ffc205"/>
        <path id="Path_3886" data-name="Path 3886" d="M510.13,55.76l-1.33-.29Z" style="fill: #ffc205;stroke: #ffc205"/>
        <path id="Path_3887" data-name="Path 3887" d="M509.94,81.56a6.66,6.66,0,0,1,.83,1.64l-1.74.4a4.36,4.36,0,0,0-.53-1h0A3.73,3.73,0,0,0,508,82Z" style="fill: #ffc205;stroke: #ffc205"/>
        <path id="Path_3888" data-name="Path 3888" d="M510,92.17c0,.58,0,1.17,0,1.76l-.73.06,0-1.76Z" style="fill: #ffc205;stroke: #ffc205"/>
        <path id="Path_3889" data-name="Path 3889" d="M509.32,94l.73-.06a38.63,38.63,0,0,1-.56,6.35,7.15,7.15,0,0,1-.7.2,6.08,6.08,0,0,0,.49-2.3Z" style="fill: #ffc205;stroke: #ffc205"/>
        <path id="Path_3890" data-name="Path 3890" d="M510,91.33q0,.42,0,.84l-.69.06v-.84Z" style="fill: #ffc205;stroke: #ffc205"/>
        <path id="Path_3891" data-name="Path 3891" d="M510,91.33l-.65,0V89.61l.5,0C509.92,90.16,510,90.74,510,91.33Z" style="fill: #ffc205;stroke: #ffc205"/>
        <path id="Path_3892" data-name="Path 3892" d="M508.94,102.31c.35-.09.71-.18,1.05-.29a8.46,8.46,0,0,1-6.36,4.28l-9.42,1a7,7,0,0,1-.78,0,6.61,6.61,0,0,1-4.53-1.73,5.43,5.43,0,0,1-.76-.83l2.46-.06a5,5,0,0,0,3.42.82l9.44-1a6.34,6.34,0,0,0,3.64-1.66c.49-.11,1-.23,1.48-.37A.72.72,0,0,0,508.94,102.31Z" style="fill: #ffc205;stroke: #ffc205"/>
        <path id="Path_3893" data-name="Path 3893" d="M509.86,89.57l-.5,0,0-3.33C509.6,87.37,509.76,88.47,509.86,89.57Z" style="fill: #ffc205;stroke: #ffc205"/>
        <path id="Path_3894" data-name="Path 3894" d="M509.49,100.28c-.07.52-.17,1-.27,1.56a1,1,0,0,1-.28.47c-.54.15-1.1.29-1.67.41a6.55,6.55,0,0,0,1.52-2.24A7.15,7.15,0,0,0,509.49,100.28Z" style="fill: #ffc205;stroke: #ffc205"/>
        <path id="Path_3895" data-name="Path 3895" d="M509.39,86.28l0,3.33-1.25.11a38.82,38.82,0,0,0-1-5.65l-1.66.21c1.14-.19,2.26-.41,3.35-.64Q509.17,85,509.39,86.28Z" style="fill: #ffc205;stroke: #ffc205"/>
        <path id="Path_3896" data-name="Path 3896" d="M509.36,89.61v1.78l-1.1.1c0-.59-.08-1.18-.14-1.76Z" style="fill: #ffc205;stroke: #ffc205"/>
        <path id="Path_3897" data-name="Path 3897" d="M509.35,91.39v.84l-1,.09c0-.27,0-.56,0-.84Z" style="fill: #ffc205;stroke: #ffc205"/>
        <path id="Path_3898" data-name="Path 3898" d="M509.34,92.23l0,1.76-1,.08c0-.58,0-1.16,0-1.75Z" style="fill: #ffc205;stroke: #ffc205"/>
        <path id="Path_3899" data-name="Path 3899" d="M509.32,94l0,4.19a6.08,6.08,0,0,1-.49,2.3l-1.16.3a39.71,39.71,0,0,0,.66-6.7Z" style="fill: #ffc205;stroke: #ffc205"/>
        <path id="Path_3900" data-name="Path 3900" d="M509,80.5a6.85,6.85,0,0,1,.95,1.06c-.64.14-1.3.29-2,.42a1.37,1.37,0,0,0-.16-.18,5,5,0,0,0-3.95-1.23l-9.43,1a6.54,6.54,0,0,0-4.31,2.37l-2,.16h-.19a8.48,8.48,0,0,1,6.36-4.28l9.43-1c.27,0,.53,0,.78,0A6.61,6.61,0,0,1,509,80.5Z" style="fill: #ffc205;stroke: #ffc205"/>
        <path id="Path_3901" data-name="Path 3901" d="M509,83.6l-.21,0c-.05-.26-.12-.52-.19-.78a.84.84,0,0,0-.13-.27A4.23,4.23,0,0,1,509,83.6Z" style="fill: #ffc205;stroke: #ffc205"/>
        <path id="Path_3902" data-name="Path 3902" d="M508.63,82.86c.06.26.14.52.19.78-1.09.23-2.21.45-3.35.64-4,.48-10.19,1-16.43,1.47A6.56,6.56,0,0,1,490,84a110,110,0,0,0,14.37-1.37l.13,0c1.22-.13,2.27-.26,3.1-.39a.88.88,0,0,1,.86.35h0A.84.84,0,0,1,508.63,82.86Z" style="fill: #ffc205;stroke: #ffc205"/>
        <path id="Path_3903" data-name="Path 3903" d="M508.94,102.31a.82.82,0,0,1-.36.21l-1.48.37a1.37,1.37,0,0,0,.17-.17C507.84,102.59,508.4,102.46,508.94,102.31Z" style="fill: #ffc205;stroke: #ffc205"/>
        <path id="Path_3904" data-name="Path 3904" d="M508.28,92.32c0,.59,0,1.17,0,1.76l-2.87.24h-.19a2,2,0,0,1-1.41-.53,2.06,2.06,0,0,1-.66-1.54,2.32,2.32,0,0,1,2.11-2.3l2.84-.24c.06.58.1,1.17.14,1.76l-2.83.24a.56.56,0,0,0-.5.54.31.31,0,0,0,.35.31Z" style="fill: #ffc205;stroke: #ffc205"/>
        <path id="Path_3905" data-name="Path 3905" d="M508,82a3.73,3.73,0,0,1,.52.6.88.88,0,0,0-.86-.35c-.83.13-1.88.26-3.1.39C505.72,82.43,506.87,82.22,508,82Z" style="fill: #ffc205;stroke: #ffc205"/>
        <path id="Path_3906" data-name="Path 3906" d="M508.79,100.48a6.55,6.55,0,0,1-1.52,2.24,78.05,78.05,0,0,1-11.9,1.7c-.66,0-1.33,0-2,0-1.09,0-2.15,0-3.19-.08l-.13-.1a4.48,4.48,0,0,1-1-1.32c1.91,0,3.76-.12,5.53-.25a55.89,55.89,0,0,0,13-1.75l0-.18C508,100.68,508.42,100.58,508.79,100.48Z" style="fill: #ffc205;stroke: #ffc205"/>
        <path id="Path_3907" data-name="Path 3907" d="M507.63,100.77c0,.07,0,.12,0,.18a56.44,56.44,0,0,1-13,1.76A77.35,77.35,0,0,0,507.63,100.77Z" style="fill: #ffc205;stroke: #ffc205"/>
        <path id="Path_3908" data-name="Path 3908" d="M507.27,102.72a1.37,1.37,0,0,1-.17.17,58.64,58.64,0,0,1-11.72,1.54A79.39,79.39,0,0,0,507.27,102.72Z" style="fill: #ffc205;stroke: #ffc205"/>
        <path id="Path_3909" data-name="Path 3909" d="M490.13,83.91c5.38-.43,10.58-.86,14.28-1.27A110,110,0,0,1,490,84Z" style="fill: #ffc205;stroke: #ffc205"/>
        <path id="Path_3910" data-name="Path 3910" d="M489,85.75c6.24-.49,12.39-1,16.43-1.47A112,112,0,0,1,489,85.8.08.08,0,0,1,489,85.75Z" style="fill: #ffc205;stroke: #ffc205"/>
        <path id="Path_3911" data-name="Path 3911" d="M493.4,104.46c.65,0,1.31,0,2,0-1.54.13-3.13.2-4.78.26a2.88,2.88,0,0,1-.39-.3C491.25,104.43,492.32,104.46,493.4,104.46Z" style="fill: #ffc205;stroke: #ffc205"/>
        <path id="Path_3912" data-name="Path 3912" d="M488.89,102.58c1.84.12,3.76.17,5.72.13-1.77.12-3.62.21-5.53.24A2.58,2.58,0,0,1,488.89,102.58Z" style="fill: #ffc205;stroke: #ffc205"/>
        <path id="Path_3913" data-name="Path 3913" d="M490.21,104.38a2.88,2.88,0,0,0,.39.3c-.81,0-1.63,0-2.46.06a4.49,4.49,0,0,1-.37-.52C488.57,104.28,489.38,104.35,490.21,104.38Z" style="fill: #ffc205;stroke: #ffc205"/>
        <path id="Path_3914" data-name="Path 3914" d="M490.08,104.27l.13.11c-.83,0-1.65-.1-2.45-.17a6.67,6.67,0,0,1-.6-1.23c.66,0,1.29,0,1.92,0A4.48,4.48,0,0,0,490.08,104.27Z" style="fill: #ffc205;stroke: #ffc205"/>
        <path id="Path_3915" data-name="Path 3915" d="M490.13,83.91,490,84c-.64,0-1.29,0-2,.06Z" style="fill: #ffc205;stroke: #ffc205"/>
        <path id="Path_3916" data-name="Path 3916" d="M490,84a6.72,6.72,0,0,0-1,1.74l-1,.07c-.32,0-.62,0-.92,0a8.1,8.1,0,0,1,.73-1.75h.19C488.75,84.05,489.4,84,490,84Z" style="fill: #ffc205;stroke: #ffc205"/>
        <path id="Path_3917" data-name="Path 3917" d="M489,85.75s0,0,0,0l-.93,0Z" style="fill: #ffc205;stroke: #ffc205"/>
        <path id="Path_3918" data-name="Path 3918" d="M488.89,102.57a2.25,2.25,0,0,0,.19.38c-.63,0-1.26,0-1.91,0a5.27,5.27,0,0,1-.19-.56C487.61,102.48,488.25,102.54,488.89,102.57Z" style="fill: #ffc205;stroke: #ffc205"/>
        <path id="Path_3919" data-name="Path 3919" d="M489,85.8a6.07,6.07,0,0,0-.4,2.1l-.12,12.59a5.74,5.74,0,0,0,.39,2.09l-1.9-.16a7,7,0,0,1-.24-1.93l.11-12.6a7.84,7.84,0,0,1,.29-2l.94-.08Z" style="fill: #ffc205;stroke: #ffc205"/>
        <path id="Path_3920" data-name="Path 3920" d="M488.09,84.06l-.19,0v0Z" style="fill: #ffc205;stroke: #ffc205"/>
        <path id="Path_3921" data-name="Path 3921" d="M488.09,85.82l-.94.08a.19.19,0,0,1,0-.07Z" style="fill: #ffc205;stroke: #ffc205"/>
        <path id="Path_3922" data-name="Path 3922" d="M487.91,84.06v0l-4.64.35c-3.47.26-6.84.52-9.78.76-12.87-1.34-23.18-4.7-28.33-9.13a.85.85,0,0,0,1.11,0c.26-.22.52-.44.81-.65,6.76,5.07,21.94,8.7,39.09,8.7C486.74,84.08,487.33,84.08,487.91,84.06Z" style="fill: #ffc205;stroke: #ffc205"/>
        <path id="Path_3923" data-name="Path 3923" d="M487.9,84.08a7.9,7.9,0,0,0-.73,1.75h-1a121.94,121.94,0,0,1-12.68-.65c2.94-.24,6.31-.5,9.78-.76Z" style="fill: #ffc205;stroke: #ffc205"/>
        <path id="Path_3924" data-name="Path 3924" d="M487.17,103a5.61,5.61,0,0,0,.6,1.23,74.48,74.48,0,0,1-9.86-1.49c2.61.18,5.35.27,8.25.27C486.5,103,486.83,103,487.17,103Z" style="fill: #ffc205;stroke: #ffc205"/>
        <path id="Path_3925" data-name="Path 3925" d="M487.17,85.83a.19.19,0,0,0,0,.07l-3.76.28c-7.33.55-14.24,1.08-17.39,1.49-1.73.23-3.26,2.21-3.48,4.53a4.88,4.88,0,0,0,3.68,5.33l1.19.4A86.61,86.61,0,0,0,487,102.42c.06.2.12.38.19.56h-1c-2.9,0-5.64-.09-8.25-.27a99.06,99.06,0,0,1-11.08-3.13l-1.17-.38a6.67,6.67,0,0,1-4.9-7.18c.3-3.15,2.45-5.78,5-6.1,1.69-.22,4.43-.47,7.71-.74a119.52,119.52,0,0,0,12.68.65Z" style="fill: #ffc205;stroke: #ffc205"/>
        <path id="Path_3926" data-name="Path 3926" d="M464.46,55.28l-.66.13Z" style="fill: #ffc205;stroke: #ffc205"/>
        <path id="Path_3927" data-name="Path 3927" d="M460.51,56.17l-1.18.31Z" style="fill: #ffc205;stroke: #ffc205"/>
        <path id="Path_3928" data-name="Path 3928" d="M458.48,56.72c-.38.1-.76.21-1.12.33C457.72,56.93,458.1,56.82,458.48,56.72Z" style="fill: #ffc205;stroke: #ffc205"/>
        <path id="Path_3929" data-name="Path 3929" d="M457.36,57.05l-1.49.47C456.35,57.36,456.84,57.2,457.36,57.05Z" style="fill: #ffc205;stroke: #ffc205"/>
        <path id="Path_3930" data-name="Path 3930" d="M455.87,57.52c-.47.15-.92.32-1.37.48C455,57.83,455.4,57.67,455.87,57.52Z" style="fill: #ffc205;stroke: #ffc205"/>
        <path id="Path_3931" data-name="Path 3931" d="M447.77,61.17l-.5.32Z" style="fill: #ffc205;stroke: #ffc205"/>
        <path id="Path_3932" data-name="Path 3932" d="M444.69,63.47c.2-.18.4-.37.62-.54C445.09,63.11,444.89,63.29,444.69,63.47Z" style="fill: #ffc205;stroke: #ffc205"/>
        <path id="Path_3933" data-name="Path 3933" d="M443.93,71.9l.17.29A1.69,1.69,0,0,1,443.93,71.9Z" style="fill: #ffc205;stroke: #ffc205"/>
        <path id="Path_3934" data-name="Path 3934" d="M443.79,71.61c0,.1.09.19.14.29C443.88,71.8,443.83,71.71,443.79,71.61Z" style="fill: #ffc205;stroke: #ffc205"/>
        <path id="Path_3935" data-name="Path 3935" d="M443.68,71.32c0,.1.08.19.11.29C443.75,71.51,443.71,71.42,443.68,71.32Z" style="fill: #ffc205;stroke: #ffc205"/>
        <path id="Path_3936" data-name="Path 3936" d="M443.45,74.32a14.81,14.81,0,0,0,1.66,1.7A12.71,12.71,0,0,1,443.45,74.32Z" style="fill: #ffc205;stroke: #ffc205"/>
        <path id="Path_3937" data-name="Path 3937" d="M443.39,70.18a2,2,0,0,0,0,.26A1.09,1.09,0,0,1,443.39,70.18Z" style="fill: #ffc205;stroke: #ffc205"/>
        <path id="Path_3938" data-name="Path 3938" d="M443.34,69.56c0,.12,0,.24,0,.37C443.35,69.8,443.34,69.68,443.34,69.56Z" style="fill: #ffc205;stroke: #ffc205"/>
        <path id="Path_3939" data-name="Path 3939" d="M443.45,74.32a7,7,0,0,1-.74-1A10.87,10.87,0,0,0,443.45,74.32Z" style="fill: #ffc205;stroke: #ffc205"/>
        <path id="Path_3940" data-name="Path 3940" d="M442.12,72.14a6.59,6.59,0,0,0,.34.71A6.59,6.59,0,0,1,442.12,72.14Z" style="fill: #ffc205;stroke: #ffc205"/>
      </g>
    </g>
    <g id="Group_1413" data-name="Group 1413">
      <g id="Group_1412" data-name="Group 1412">
        <path id="Path_3941" data-name="Path 3941" d="M462.9,410.75a3.21,3.21,0,0,1,0,1.74l-1.28,5.16-2,8-.12.44a5.56,5.56,0,0,1-.32.8,5.8,5.8,0,0,1-3.81,3,5.16,5.16,0,0,1-.88.11l-18,.09-18-.09a4.44,4.44,0,0,1-.9-.13,5.82,5.82,0,0,1-3.77-3,4.21,4.21,0,0,1-.32-.79l-.89-3.24-1.39-5.15-1.35-5.15a3.28,3.28,0,0,1,0-1.73,3,3,0,0,1,.42-.88,2.08,2.08,0,0,1-.4-.69,2.6,2.6,0,0,1,0-1.76l1.49-4.68,2-6.12.14-.39a3.64,3.64,0,0,1,.39-.76,5.57,5.57,0,0,1,2.32-2,5.66,5.66,0,0,1,1.46-.47,5,5,0,0,1,.78-.09l3.12,0,4.17,0a4.55,4.55,0,0,1,.38-1.29,11.31,11.31,0,0,1,20.4,0,4.88,4.88,0,0,1,.37,1.29l7.5.07a7,7,0,0,1,.79.07,6.32,6.32,0,0,1,1.46.45,5.6,5.6,0,0,1,2.34,2,5.45,5.45,0,0,1,.39.76l.21.64,1.83,5.92,1.42,4.75a2.4,2.4,0,0,1,0,1.75,2,2,0,0,1-.36.61A2.65,2.65,0,0,1,462.9,410.75Zm-1.26,1.41a2,2,0,0,0,0-1,1.84,1.84,0,0,0-.3-.57,5,5,0,0,1-2.36.6H413.71a5.07,5.07,0,0,1-2.35-.58,1.71,1.71,0,0,0-.27.56,2,2,0,0,0,0,1l1.36,5.17,2.26,8.35a4.84,4.84,0,0,0,.23.57,4.47,4.47,0,0,0,.74,1,4.42,4.42,0,0,0,2.18,1.29,3.2,3.2,0,0,0,.62.09l7.32.06,10.65,0,18-.09a4.25,4.25,0,0,0,.61-.08,4.39,4.39,0,0,0,2.19-1.27,4.18,4.18,0,0,0,.73-1,4.24,4.24,0,0,0,.23-.59c0-.14.07-.27.1-.39l2-8Zm-.27-3.45a.89.89,0,0,0-.05-.66l-1.69-4.69L457.38,397a1.74,1.74,0,0,0-.18-.33,3.37,3.37,0,0,0-1.44-1.12,3.62,3.62,0,0,0-.91-.25,1.66,1.66,0,0,0-.44,0l-8.05.08-9.91,0-17.95-.1a3.42,3.42,0,0,0-.45,0,4,4,0,0,0-.9.26,3.41,3.41,0,0,0-1.44,1.14,2.21,2.21,0,0,0-.18.34,3.42,3.42,0,0,0-.13.34l-2.23,6L411.41,408a2.25,2.25,0,0,0-.08.24l0,.15a.51.51,0,0,0,0,.3,1.13,1.13,0,0,0,.45.58,3.63,3.63,0,0,0,2,.56H459a3.6,3.6,0,0,0,1.94-.57,1.15,1.15,0,0,0,.47-.57ZM443,394h2.91a.64.64,0,0,1-.24-.48,3.23,3.23,0,0,0-.29-1.4,10,10,0,0,0-18,0,3.43,3.43,0,0,0-.3,1.41.66.66,0,0,1-.2.48h2.88a.63.63,0,0,1-.14-.81,7.5,7.5,0,0,1,13.54,0,.63.63,0,0,1,0,.65,1.07,1.07,0,0,1-.14.16Zm-6.52-1.16h5a6.27,6.27,0,0,0-10.2,0Z" style="fill: #ffc205;stroke: #ffc205;stroke-width: 0.5px"/>
        <path id="Path_3942" data-name="Path 3942" d="M452.78,414.69v10.65a.71.71,0,0,1-1.42,0V414.69A.69.69,0,0,1,452,414h0A.72.72,0,0,1,452.78,414.69Z" style="fill: #ffc205;stroke: #ffc205;stroke-width: 0.5px"/>
        <path id="Path_3943" data-name="Path 3943" d="M449.92,414.69v10.65a.72.72,0,0,1-1.43,0V414.7a.72.72,0,0,1,1.43,0Z" style="fill: #ffc205;stroke: #ffc205;stroke-width: 0.5px"/>
        <path id="Path_3944" data-name="Path 3944" d="M447.07,414.7v10.65a.71.71,0,0,1-1.42,0V414.7a.72.72,0,0,1,1.43,0Z" style="fill: #ffc205;stroke: #ffc205;stroke-width: 0.5px"/>
        <path id="Path_3945" data-name="Path 3945" d="M444.21,414.7l0,10.65a.71.71,0,0,1-.72.69.7.7,0,0,1-.71-.69h0V414.7a.71.71,0,0,1,1.42,0Z" style="fill: #ffc205;stroke: #ffc205;stroke-width: 0.5px"/>
        <path id="Path_3946" data-name="Path 3946" d="M441.36,414.7v10.66a.71.71,0,0,1-1.42,0l0-10.66a.72.72,0,0,1,1.43,0Z" style="fill: #ffc205;stroke: #ffc205;stroke-width: 0.5px"/>
        <path id="Path_3947" data-name="Path 3947" d="M438.51,414.7v10.66a.72.72,0,0,1-1.43,0V414.7a.72.72,0,0,1,1.43,0Z" style="fill: #ffc205;stroke: #ffc205;stroke-width: 0.5px"/>
        <path id="Path_3948" data-name="Path 3948" d="M435.65,414.71v10.65a.71.71,0,0,1-1.42,0l0-10.65a.72.72,0,0,1,1.43,0Z" style="fill: #ffc205;stroke: #ffc205;stroke-width: 0.5px"/>
        <path id="Path_3949" data-name="Path 3949" d="M432.8,414.71v10.65a.72.72,0,0,1-1.43,0V414.71a.71.71,0,1,1,1.42,0Z" style="fill: #ffc205;stroke: #ffc205;stroke-width: 0.5px"/>
        <path id="Path_3950" data-name="Path 3950" d="M430,414.72v10.64a.72.72,0,0,1-1.43,0V414.71a.71.71,0,1,1,1.42,0Z" style="fill: #ffc205;stroke: #ffc205;stroke-width: 0.5px"/>
        <path id="Path_3951" data-name="Path 3951" d="M427.09,414.72v10.65a.71.71,0,0,1-1.42,0V414.72a.71.71,0,0,1,1.42,0Z" style="fill: #ffc205;stroke: #ffc205;stroke-width: 0.5px"/>
        <path id="Path_3952" data-name="Path 3952" d="M424.24,414.72v10.65a.71.71,0,0,1-1.42,0l0-10.65a.73.73,0,0,1,.75-.68A.72.72,0,0,1,424.24,414.72Z" style="fill: #ffc205;stroke: #ffc205;stroke-width: 0.5px"/>
        <path id="Path_3953" data-name="Path 3953" d="M421.39,414.72v10.65a.72.72,0,0,1-1.43,0V414.72a.72.72,0,0,1,1.43,0Z" style="fill: #ffc205;stroke: #ffc205;stroke-width: 0.5px"/>
      </g>
    </g>
    <g id="Group_1415" data-name="Group 1415">
      <g id="Group_1414" data-name="Group 1414">
        <path id="Path_3954" data-name="Path 3954" d="M147.12,376.6a3.24,3.24,0,0,1,0,.44,5,5,0,0,1-.09.94c-.05.26-.14.64-.25,1a12.48,12.48,0,0,1-1.74,3.62,18.28,18.28,0,0,1-5.4,5,30.6,30.6,0,0,1-6.24,3,46.87,46.87,0,0,1-6.47,1.76,70.26,70.26,0,0,1-13.1,1.21,62.4,62.4,0,0,1-13.14-1.4,55.23,55.23,0,0,1-6.42-1.83,39.3,39.3,0,0,1-6.22-2.77,26.44,26.44,0,0,1-3-1.94,12.9,12.9,0,0,1-2.75-2.72,7.52,7.52,0,0,1-1.07-2,5,5,0,0,1-.12-2.75,5.13,5.13,0,0,1,1.25-2.21c.34-.39.68-.8,1-1.2a16.19,16.19,0,0,0,1.67-2.65c.47-.9.9-1.89,1.3-2.84l.1-.23c.81-1.92,1.79-4.19,2.84-6.4a.65.65,0,0,1,.1-.15,1,1,0,0,1,.12-.16,21.2,21.2,0,0,1,5.64-3.87,28.66,28.66,0,0,1,6.34-2.06,63.84,63.84,0,0,1,12.8-1,61.88,61.88,0,0,1,12.81,1.09,28.67,28.67,0,0,1,6.3,2.12,28,28,0,0,1,5.68,3.65,1.05,1.05,0,0,1,.2.27.73.73,0,0,1,.15.29,19.14,19.14,0,0,0,2.84,5.81c.64.92,1.37,1.84,2,2.65l.24.3a18.25,18.25,0,0,1,1.87,2.75A6,6,0,0,1,147.12,376.6Zm-1.62,1.07a3.71,3.71,0,0,0,.05-.94A4.87,4.87,0,0,0,145,375a18.48,18.48,0,0,0-1.72-2.5l-.23-.3c-.65-.82-1.39-1.76-2.06-2.71a21.86,21.86,0,0,1-2.9-5.72.83.83,0,0,1-.34-.3.9.9,0,0,1-.13-.42,26.09,26.09,0,0,0-4.89-3.07,27.69,27.69,0,0,0-5.94-2,60.17,60.17,0,0,0-12.49-1.06,63.67,63.67,0,0,0-12.48,1,26.72,26.72,0,0,0-6,1.94,20.06,20.06,0,0,0-4.8,3.19.8.8,0,0,1-.15.47.77.77,0,0,1-.4.29c-1,2-1.83,4.07-2.57,5.83l-.1.22c-.43,1-.86,2-1.36,3a18.62,18.62,0,0,1-1.83,2.9c-.32.42-.68.85-1.06,1.29a3.64,3.64,0,0,0-.89,1.53,3.35,3.35,0,0,0,.09,1.88,5.67,5.67,0,0,0,.85,1.59,11.62,11.62,0,0,0,2.42,2.38,22.14,22.14,0,0,0,2.78,1.82,36.59,36.59,0,0,0,6,2.66,54.11,54.11,0,0,0,6.24,1.78,61.1,61.1,0,0,0,12.8,1.37,69.49,69.49,0,0,0,12.79-1.18,46.14,46.14,0,0,0,6.25-1.7,28.83,28.83,0,0,0,5.93-2.83,16.71,16.71,0,0,0,4.94-4.57,10.81,10.81,0,0,0,1.53-3.17c.08-.32.15-.65.2-.87Z" style="fill: #ffc205;stroke: #ffc205"/>
        <path id="Path_3955" data-name="Path 3955" d="M143.43,378.11a3.3,3.3,0,0,1-.07.77v0a8.18,8.18,0,0,1-.23.79,9.82,9.82,0,0,1-1.51,2.77A15.83,15.83,0,0,1,137,386.4a34.49,34.49,0,0,1-11.28,3.83,65.54,65.54,0,0,1-11.61,1h-.59a58.47,58.47,0,0,1-11.43-1.16,44,44,0,0,1-11.34-3.75,15.36,15.36,0,0,1-4.87-3.59,3.66,3.66,0,0,1-1-2.87,3.33,3.33,0,0,1,.73-1.39c.35-.43.65-.84.93-1.26a23.26,23.26,0,0,0,2.71-5.83l.43-1.23c.56-1.59,1.12-3.24,1.72-4.87a.86.86,0,0,1,.26-.34,23.21,23.21,0,0,1,10.93-4.53c1.3-.21,2.66-.37,4.17-.48a.81.81,0,0,1,.85.72.8.8,0,0,1-.7.85c-8.21.92-13.94,3.39-13.94,6,0,3.08,8.52,6.4,21.19,6.4s21.19-3.32,21.19-6.4c0-2.5-5.37-4.92-13.07-5.91a.79.79,0,0,1,.18-1.57h0c1.25.12,2.45.28,3.53.47a27.59,27.59,0,0,1,11,4.4.76.76,0,0,1,.33.5,17.72,17.72,0,0,0,.87,2.94,21.62,21.62,0,0,0,1.44,2.84c.55.92,1.15,1.8,1.75,2.66l.14.2a17.65,17.65,0,0,1,1.53,2.54A4.57,4.57,0,0,1,143.43,378.11Zm-1.61.4a1.84,1.84,0,0,0,0-.33,2.81,2.81,0,0,0-.27-1,17,17,0,0,0-1.39-2.27l-.14-.21c-.61-.88-1.24-1.79-1.81-2.75a21.84,21.84,0,0,1-1.53-3.06.21.21,0,0,1,0-.07c-1.78,4.36-12.2,6.63-22.5,6.63S93.74,373.26,91.76,369c-.2.55-.39,1.1-.57,1.64l-.43,1.22a24.82,24.82,0,0,1-2.9,6.22c-.3.44-.63.89-1,1.36a1.62,1.62,0,0,0-.4.71,2.1,2.1,0,0,0,.62,1.54,13.94,13.94,0,0,0,4.38,3.2,42.58,42.58,0,0,0,10.92,3.61,56.26,56.26,0,0,0,11.13,1.12h.59a64.18,64.18,0,0,0,11.33-.95A32.86,32.86,0,0,0,136.18,385a14.16,14.16,0,0,0,4.2-3.54,8.62,8.62,0,0,0,1.26-2.33,6.36,6.36,0,0,0,.18-.66Z" style="fill: #ffc205;stroke: #ffc205"/>
      </g>
    </g>
    <g id="Group_1408" data-name="Group 1408">
      <path id="Path_3577" data-name="Path 3577" d="M94.89,214.41l-10.7-8.19a5.7,5.7,0,0,1-1.85-3.74,3.17,3.17,0,0,0-3.33-3,3.34,3.34,0,0,0-1,.23c-2,.6-2.06,3.41-2.06,3.41s-5,0-4.89,2.59,2.64,3.26,6.24,3.78,13.51,8.2,14.73,10-.1,5.3,4.06,5.82a3.29,3.29,0,0,0,3.92-2.51,3.05,3.05,0,0,0,.07-1s5.5-.38,3.77-4.38C102.46,214.33,99.45,217.26,94.89,214.41Z" style="fill: #ffc205"/>
      <path id="Path_3866" data-name="Path 3866" d="M105.53,186.23c-2.53-1.39-17.2-7.11-35.57,0-13.65,38.15-4,44.74-4,44.74s-4.55,4.16-1.18,5.72,45.85,0,45.85,0,1.52-4.68-2.52-5.72C108.23,230.8,118.85,223.69,105.53,186.23Z" style="fill: none;stroke: #ffc205;stroke-width: 3px"/>
      <path id="Path_3867" data-name="Path 3867" d="M69.07,185.68s-3.84-11.45.42-13.44,3.85,1.9,3.85,1.9,23.8-1.37,28.16,0c-.1.18,3-3.53,4.67-1.9s.42,11.8,0,13.44" style="fill: none;stroke: #ffc205;stroke-width: 3px"/>
    </g>
  </g>
</svg>
