<svg id="Layer_1" data-name="Layer 1" xmlns="http://www.w3.org/2000/svg" viewBox="0 0 1963.62 1121.02">
  <title>Artboard 1</title>
  <g id="Group_212" data-name="Group 212">
    <g id="huellas">
      <g id="Group_131" data-name="Group 131">
        <path id="Path_288" data-name="Path 288" d="M701.81,556.13a32.4,32.4,0,0,1,4.46-12.33c12.37-19.87,38.39-19.39,51.94-1.45A33.37,33.37,0,0,1,765,558.93c.62,6.22-1,12.93-4.88,17.08s-10,5.14-14.27,1.64a19.39,19.39,0,0,1-4.55-5.52c-1.15-2.15-2.31-4.38-4.69-5.38a7.57,7.57,0,0,0-3.26-.5,9,9,0,0,0-7.95,5c-1.31,2.55-2.68,5.43-5.46,6.63a9.16,9.16,0,0,1-6,.26C703.61,575.47,700.44,565.74,701.81,556.13Z" style="fill: #f2f2f2"/>
        <g id="Group_130" data-name="Group 130">
          <g id="Group_129" data-name="Group 129">
            <path id="Path_289" data-name="Path 289" d="M716.17,505.29c-8.72,3.24-10.54,16-1.24,19.78a10.52,10.52,0,0,0,13.34-14.5C726.16,506.41,720.71,503.61,716.17,505.29Z" style="fill: #f2f2f2"/>
            <path id="Path_290" data-name="Path 290" d="M743.89,505.29c-8.71,3.24-10.54,16-1.24,19.78A10.53,10.53,0,0,0,756,510.57C753.89,506.41,748.43,503.61,743.89,505.29Z" style="fill: #f2f2f2"/>
          </g>
          <path id="Path_291" data-name="Path 291" d="M766.87,523.26c-7.3,1.61-9.47,11.36-4.07,16.38a10.37,10.37,0,0,0,14.6-1.13C783.5,530.74,775.7,521.3,766.87,523.26Z" style="fill: #f2f2f2"/>
          <path id="Path_292" data-name="Path 292" d="M694.1,523.26c-7.3,1.61-9.46,11.36-4.06,16.38a10.35,10.35,0,0,0,14.59-1.13C710.74,530.74,702.93,521.3,694.1,523.26Z" style="fill: #f2f2f2"/>
        </g>
      </g>
      <g id="Group_134" data-name="Group 134">
        <path id="Path_293" data-name="Path 293" d="M35.25,468a32.42,32.42,0,0,1,1-13.07c6.57-22.47,31.76-29,49.63-15.37a33.38,33.38,0,0,1,11,14.14c2.27,5.84,2.5,12.74-.1,17.77s-8.26,7.64-13.3,5.42a19.38,19.38,0,0,1-5.87-4.09c-1.69-1.77-3.4-3.6-6-3.92a7.56,7.56,0,0,0-3.27.39A9,9,0,0,0,62,476.21c-.58,2.8-1.12,6-3.47,7.85a9.17,9.17,0,0,1-5.68,1.86C42.19,486.16,36.5,477.63,35.25,468Z" style="fill: #f2f2f2"/>
        <g id="Group_133" data-name="Group 133">
          <g id="Group_132" data-name="Group 132">
            <path id="Path_294" data-name="Path 294" d="M35.39,415.18c-7.52,5.47-5.84,18.26,4.13,19.39A10.52,10.52,0,0,0,48.47,417C45.32,413.57,39.31,412.34,35.39,415.18Z" style="fill: #f2f2f2"/>
            <path id="Path_295" data-name="Path 295" d="M62.1,407.73c-7.53,5.46-5.85,18.25,4.12,19.38a10.52,10.52,0,0,0,9-17.56C72,406.11,66,404.88,62.1,407.73Z" style="fill: #f2f2f2"/>
          </g>
          <path id="Path_296" data-name="Path 296" d="M89.06,418.85c-6.6,3.51-6.06,13.49.5,16.87a10.35,10.35,0,0,0,13.74-5C107.09,421.58,97,414.59,89.06,418.85Z" style="fill: #f2f2f2"/>
          <path id="Path_297" data-name="Path 297" d="M19,438.43c-6.59,3.51-6.06,13.49.5,16.87a10.36,10.36,0,0,0,13.75-5C37,441.15,27,434.17,19,438.43Z" style="fill: #f2f2f2"/>
        </g>
      </g>
      <g id="Group_137" data-name="Group 137">
        <path id="Path_298" data-name="Path 298" d="M229.84,691.72a32.39,32.39,0,0,1,7.6-10.68c17.26-15.81,42.2-8.35,50.41,12.58a33.25,33.25,0,0,1,2,17.78c-1.08,6.16-4.45,12.19-9.29,15.14s-11,2.26-14.18-2.26a19.22,19.22,0,0,1-2.9-6.54c-.53-2.38-1-4.84-3.08-6.44a7.51,7.51,0,0,0-3-1.36,9,9,0,0,0-9,2.65c-1.95,2.1-4,4.5-7,4.92a9.24,9.24,0,0,1-5.82-1.36C226.36,710.83,225.92,700.6,229.84,691.72Z" style="fill: #f2f2f2"/>
        <g id="Group_136" data-name="Group 136">
          <g id="Group_135" data-name="Group 135">
            <path id="Path_299" data-name="Path 299" d="M257.34,646.62c-9.27.77-14.46,12.58-6.52,18.71A10.52,10.52,0,0,0,267.57,655C266.66,650.38,262.16,646.22,257.34,646.62Z" style="fill: #f2f2f2"/>
            <path id="Path_300" data-name="Path 300" d="M284,654.08c-9.27.77-14.46,12.58-6.52,18.71a10.52,10.52,0,0,0,16.75-10.38C293.36,657.84,288.86,653.68,284,654.08Z" style="fill: #f2f2f2"/>
          </g>
          <path id="Path_301" data-name="Path 301" d="M301.33,677.56c-7.46-.41-12.17,8.4-8.32,14.69a10.36,10.36,0,0,0,14.36,2.83C315.34,689.24,310.37,678.05,301.33,677.56Z" style="fill: #f2f2f2"/>
          <path id="Path_302" data-name="Path 302" d="M231.25,658c-7.46-.41-12.17,8.4-8.32,14.69a10.36,10.36,0,0,0,14.36,2.83C245.26,669.66,240.28,658.48,231.25,658Z" style="fill: #f2f2f2"/>
        </g>
      </g>
      <g id="Group_140" data-name="Group 140">
        <path id="Path_303" data-name="Path 303" d="M1548.06,491.48a32.22,32.22,0,0,1,4.45-12.33c12.37-19.87,38.39-19.39,51.94-1.45a33.37,33.37,0,0,1,6.75,16.57c.62,6.23-1,12.94-4.88,17.08s-10,5.15-14.27,1.64a19.49,19.49,0,0,1-4.55-5.51c-1.15-2.15-2.31-4.38-4.69-5.38a7.57,7.57,0,0,0-3.26-.5,9,9,0,0,0-8,5c-1.31,2.54-2.68,5.43-5.46,6.63a9.16,9.16,0,0,1-6,.26C1549.86,510.82,1546.68,501.09,1548.06,491.48Z" style="fill: #f2f2f2"/>
        <g id="Group_139" data-name="Group 139">
          <g id="Group_138" data-name="Group 138">
            <path id="Path_304" data-name="Path 304" d="M1562.41,440.64c-8.72,3.23-10.54,16-1.24,19.78a10.52,10.52,0,0,0,13.34-14.51C1572.4,441.76,1566.94,439,1562.41,440.64Z" style="fill: #f2f2f2"/>
            <path id="Path_305" data-name="Path 305" d="M1590.13,440.64c-8.72,3.23-10.54,16-1.24,19.78a10.52,10.52,0,0,0,13.34-14.51C1600.12,441.76,1594.67,439,1590.13,440.64Z" style="fill: #f2f2f2"/>
          </g>
          <path id="Path_306" data-name="Path 306" d="M1613.1,458.61c-7.3,1.61-9.46,11.36-4.06,16.38a10.36,10.36,0,0,0,14.59-1.13C1629.74,466.09,1621.94,456.66,1613.1,458.61Z" style="fill: #f2f2f2"/>
          <path id="Path_307" data-name="Path 307" d="M1540.34,458.61c-7.3,1.61-9.46,11.36-4.06,16.38a10.36,10.36,0,0,0,14.59-1.13C1557,466.09,1549.17,456.66,1540.34,458.61Z" style="fill: #f2f2f2"/>
        </g>
      </g>
      <g id="Group_143" data-name="Group 143">
        <path id="Path_308" data-name="Path 308" d="M1029,447a32.45,32.45,0,0,1,8.82-9.7c19-13.65,42.89-3.28,48.56,18.48a33.37,33.37,0,0,1-.09,17.9c-1.8,6-5.87,11.57-11,13.92s-11.21.94-13.82-3.93a19.46,19.46,0,0,1-2.1-6.83c-.24-2.43-.46-4.93-2.28-6.76a7.51,7.51,0,0,0-2.82-1.71,9,9,0,0,0-9.24,1.56c-2.19,1.86-4.56,4-7.58,4.05a9.17,9.17,0,0,1-5.61-2C1023.27,465.55,1024.05,455.34,1029,447Z" style="fill: #f2f2f2"/>
        <g id="Group_142" data-name="Group 142">
          <g id="Group_141" data-name="Group 141">
            <path id="Path_309" data-name="Path 309" d="M1061.66,405.47c-9.29-.33-15.85,10.78-8.7,17.81a10.52,10.52,0,0,0,17.87-8.31C1070.47,410.32,1066.5,405.65,1061.66,405.47Z" style="fill: #f2f2f2"/>
            <path id="Path_310" data-name="Path 310" d="M1087.29,416.05c-9.3-.33-15.86,10.78-8.7,17.81a10.52,10.52,0,0,0,17.86-8.31C1096.1,420.9,1092.12,416.23,1087.29,416.05Z" style="fill: #f2f2f2"/>
          </g>
          <path id="Path_311" data-name="Path 311" d="M1101.67,441.43c-7.37-1.29-13.09,6.89-10,13.6a10.35,10.35,0,0,0,13.92,4.52C1114.19,454.69,1110.57,443,1101.67,441.43Z" style="fill: #f2f2f2"/>
          <path id="Path_312" data-name="Path 312" d="M1034.41,413.66c-7.36-1.3-13.09,6.89-10,13.6a10.36,10.36,0,0,0,13.92,4.52C1046.93,426.92,1043.31,415.22,1034.41,413.66Z" style="fill: #f2f2f2"/>
        </g>
      </g>
      <g id="Group_146" data-name="Group 146">
        <path id="Path_313" data-name="Path 313" d="M1305.08,711.69a32.45,32.45,0,0,1-.61-13.09c3.83-23.09,28-32.61,47.43-21.21a33.25,33.25,0,0,1,12.59,12.73c3,5.51,4,12.33,2,17.64s-7.28,8.58-12.56,7a19.61,19.61,0,0,1-6.32-3.35c-1.88-1.55-3.81-3.17-6.39-3.18a7.58,7.58,0,0,0-3.2.78,9.05,9.05,0,0,0-5.44,7.64c-.24,2.85-.4,6-2.51,8.22a9.25,9.25,0,0,1-5.41,2.52C1314.14,728.88,1307.49,721.1,1305.08,711.69Z" style="fill: #f2f2f2"/>
        <g id="Group_145" data-name="Group 145">
          <g id="Group_144" data-name="Group 144">
            <path id="Path_314" data-name="Path 314" d="M1298.89,659.23c-6.82,6.33-3.62,18.82,6.42,18.75a10.52,10.52,0,0,0,6.77-18.5C1308.54,656.44,1302.43,655.94,1298.89,659.23Z" style="fill: #f2f2f2"/>
            <path id="Path_315" data-name="Path 315" d="M1324.5,648.62c-6.82,6.33-3.61,18.82,6.42,18.75a10.52,10.52,0,0,0,6.77-18.5C1334.16,645.83,1328,645.33,1324.5,648.62Z" style="fill: #f2f2f2"/>
          </g>
          <path id="Path_316" data-name="Path 316" d="M1352.6,656.43c-6.13,4.28-4.4,14.12,2.51,16.69a10.35,10.35,0,0,0,13.05-6.63C1370.83,657,1360,651.24,1352.6,656.43Z" style="fill: #f2f2f2"/>
          <path id="Path_317" data-name="Path 317" d="M1285.37,684.28c-6.12,4.28-4.39,14.11,2.52,16.69a10.35,10.35,0,0,0,13-6.63C1303.61,684.82,1292.78,679.09,1285.37,684.28Z" style="fill: #f2f2f2"/>
        </g>
      </g>
      <g id="Group_149" data-name="Group 149">
        <path id="Path_318" data-name="Path 318" d="M679.84,269.38a32.3,32.3,0,0,1,.16-13.1c5.16-22.83,29.89-30.93,48.58-18.44a33.37,33.37,0,0,1,11.82,13.44c2.63,5.68,3.29,12.55,1,17.73s-7.77,8.15-12.94,6.24a19.52,19.52,0,0,1-6.11-3.71c-1.8-1.66-3.63-3.38-6.2-3.54a7.72,7.72,0,0,0-3.25.59A9,9,0,0,0,707,275.9c-.4,2.84-.75,6-3,8.06a9.2,9.2,0,0,1-5.54,2.21C687.9,287.06,681.7,278.91,679.84,269.38Z" style="fill: #f2f2f2"/>
        <g id="Group_148" data-name="Group 148">
          <g id="Group_147" data-name="Group 147">
            <path id="Path_319" data-name="Path 319" d="M676.7,216.65c-7.17,5.92-4.7,18.58,5.33,19.09a10.52,10.52,0,0,0,7.83-18.08C686.5,214.42,680.43,213.57,676.7,216.65Z" style="fill: #f2f2f2"/>
            <path id="Path_320" data-name="Path 320" d="M702.89,207.54c-7.17,5.92-4.7,18.59,5.32,19.09a10.52,10.52,0,0,0,7.84-18.08C712.69,205.32,706.61,204.46,702.89,207.54Z" style="fill: #f2f2f2"/>
          </g>
          <path id="Path_321" data-name="Path 321" d="M730.48,217c-6.36,3.93-5.2,13.84,1.55,16.82a10.37,10.37,0,0,0,13.41-5.87C748.66,218.56,738.19,212.22,730.48,217Z" style="fill: #f2f2f2"/>
          <path id="Path_322" data-name="Path 322" d="M661.76,240.87c-6.37,3.92-5.2,13.84,1.54,16.81a10.35,10.35,0,0,0,13.41-5.86C679.93,242.47,669.46,236.12,661.76,240.87Z" style="fill: #f2f2f2"/>
        </g>
      </g>
      <g id="Group_152" data-name="Group 152">
        <path id="Path_323" data-name="Path 323" d="M27.59,70.5a32.5,32.5,0,0,1,9.84-8.65c20.43-11.44,43,1.52,46.2,23.78a33.32,33.32,0,0,1-2.07,17.77c-2.46,5.75-7.13,10.85-12.5,12.61s-11.25-.31-13.3-5.44a19.21,19.21,0,0,1-1.33-7c0-2.44.09-5-1.52-7a7.59,7.59,0,0,0-2.61-2,9,9,0,0,0-9.36.53c-2.37,1.6-5,3.46-8,3.17a9.18,9.18,0,0,1-5.35-2.64C19.84,88.32,21.75,78.26,27.59,70.5Z" style="fill: #f2f2f2"/>
        <g id="Group_151" data-name="Group 151">
          <g id="Group_150" data-name="Group 150">
            <path id="Path_324" data-name="Path 324" d="M64.68,32.89c-9.2-1.37-17,9-10.62,16.73a10.52,10.52,0,0,0,18.68-6.27C72.89,38.69,69.46,33.61,64.68,32.89Z" style="fill: #f2f2f2"/>
            <path id="Path_325" data-name="Path 325" d="M89,46.26C79.76,44.89,72,55.2,78.34,63A10.52,10.52,0,0,0,97,56.72C97.18,52.06,93.75,47,89,46.26Z" style="fill: #f2f2f2"/>
          </g>
          <path id="Path_326" data-name="Path 326" d="M100.43,73.08C93.26,71,86.66,78.47,89,85.48a10.36,10.36,0,0,0,13.33,6C111.4,87.65,109.11,75.62,100.43,73.08Z" style="fill: #f2f2f2"/>
          <path id="Path_327" data-name="Path 327" d="M36.68,38c-7.17-2.1-13.77,5.39-11.46,12.4a10.37,10.37,0,0,0,13.33,6C47.65,52.57,45.36,40.54,36.68,38Z" style="fill: #f2f2f2"/>
        </g>
      </g>
      <g id="Group_155" data-name="Group 155">
        <path id="Path_328" data-name="Path 328" d="M229.78,318.64a32.34,32.34,0,0,1,7.73-10.58c17.47-15.58,42.3-7.81,50.26,13.22a33.47,33.47,0,0,1,1.82,17.8c-1.16,6.14-4.62,12.12-9.48,15s-11.06,2.12-14.16-2.44a19.53,19.53,0,0,1-2.82-6.58c-.5-2.38-1-4.85-3-6.48a7.71,7.71,0,0,0-3-1.4,9.05,9.05,0,0,0-9,2.54c-2,2.08-4.1,4.46-7.11,4.83a9.29,9.29,0,0,1-5.8-1.42C226.06,337.71,225.75,327.47,229.78,318.64Z" style="fill: #f2f2f2"/>
        <g id="Group_154" data-name="Group 154">
          <g id="Group_153" data-name="Group 153">
            <path id="Path_329" data-name="Path 329" d="M257.85,273.89c-9.28.66-14.62,12.4-6.75,18.63A10.52,10.52,0,0,0,268,282.36C267.12,277.78,262.67,273.55,257.85,273.89Z" style="fill: #f2f2f2"/>
            <path id="Path_330" data-name="Path 330" d="M284.45,281.69c-9.27.65-14.61,12.4-6.75,18.63a10.52,10.52,0,0,0,16.88-10.17C293.73,285.57,289.28,281.35,284.45,281.69Z" style="fill: #f2f2f2"/>
          </g>
          <path id="Path_331" data-name="Path 331" d="M301.45,305.39c-7.46-.5-12.28,8.24-8.51,14.58a10.37,10.37,0,0,0,14.32,3C315.31,317.25,310.47,306,301.45,305.39Z" style="fill: #f2f2f2"/>
          <path id="Path_332" data-name="Path 332" d="M231.62,284.92c-7.46-.5-12.28,8.25-8.51,14.59a10.36,10.36,0,0,0,14.32,3C245.48,296.78,240.64,285.54,231.62,284.92Z" style="fill: #f2f2f2"/>
        </g>
      </g>
      <g id="Group_158" data-name="Group 158">
        <path id="Path_333" data-name="Path 333" d="M515.56,44.77a32.37,32.37,0,0,1,7.74-10.58c17.46-15.59,42.3-7.81,50.25,13.21a33.29,33.29,0,0,1,1.82,17.8c-1.16,6.15-4.61,12.13-9.48,15s-11,2.13-14.16-2.43a19.31,19.31,0,0,1-2.81-6.58c-.5-2.39-1-4.85-3-6.48a7.5,7.5,0,0,0-3-1.4,9,9,0,0,0-9,2.54c-2,2.07-4.1,4.45-7.11,4.83a9.2,9.2,0,0,1-5.8-1.43C511.85,63.84,511.54,53.6,515.56,44.77Z" style="fill: #f2f2f2"/>
        <g id="Group_157" data-name="Group 157">
          <g id="Group_156" data-name="Group 156">
            <path id="Path_334" data-name="Path 334" d="M543.64,0c-9.28.65-14.62,12.4-6.76,18.63a10.82,10.82,0,0,0,12,.77,10.81,10.81,0,0,0,4.91-10.93C552.91,3.9,548.46-.32,543.64,0Z" style="fill: #f2f2f2"/>
            <path id="Path_335" data-name="Path 335" d="M570.24,7.81c-9.28.66-14.62,12.4-6.76,18.64a10.8,10.8,0,0,0,12,.76,10.78,10.78,0,0,0,4.91-10.93C579.51,11.7,575.06,7.47,570.24,7.81Z" style="fill: #f2f2f2"/>
          </g>
          <path id="Path_336" data-name="Path 336" d="M587.23,31.51c-7.45-.5-12.27,8.25-8.5,14.59a10.35,10.35,0,0,0,14.32,3C601.1,43.37,596.26,32.12,587.23,31.51Z" style="fill: #f2f2f2"/>
          <path id="Path_337" data-name="Path 337" d="M517.4,11.05c-7.45-.5-12.27,8.24-8.5,14.58a10.36,10.36,0,0,0,14.32,3C531.26,22.91,526.43,11.66,517.4,11.05Z" style="fill: #f2f2f2"/>
        </g>
      </g>
      <g id="Group_161" data-name="Group 161">
        <path id="Path_338" data-name="Path 338" d="M1560.55,99.15a32.6,32.6,0,0,1-1-13.07c3.09-23.2,27-33.49,46.73-22.72a33.21,33.21,0,0,1,13,12.32c3.13,5.41,4.4,12.2,2.6,17.57s-7,8.81-12.33,7.37a19.41,19.41,0,0,1-6.42-3.15c-1.93-1.48-3.91-3-6.49-3a7.64,7.64,0,0,0-3.17.88,9,9,0,0,0-5.2,7.8c-.14,2.87-.2,6.06-2.24,8.3a9.15,9.15,0,0,1-5.33,2.7C1570.17,116,1563.26,108.46,1560.55,99.15Z" style="fill: #f2f2f2"/>
        <g id="Group_160" data-name="Group 160">
          <g id="Group_159" data-name="Group 159">
            <path id="Path_339" data-name="Path 339" d="M1552.69,46.91c-6.61,6.54-3,18.93,7,18.53a10.52,10.52,0,0,0,6.17-18.71C1562.25,43.81,1556.12,43.51,1552.69,46.91Z" style="fill: #f2f2f2"/>
            <path id="Path_340" data-name="Path 340" d="M1578,35.49c-6.61,6.54-3,18.92,7,18.53a10.52,10.52,0,0,0,6.17-18.71C1587.51,32.39,1581.38,32.08,1578,35.49Z" style="fill: #f2f2f2"/>
          </g>
          <path id="Path_341" data-name="Path 341" d="M1606.28,42.39c-6,4.47-3.94,14.25,3,16.6a10.36,10.36,0,0,0,12.83-7.05C1624.52,42.35,1613.52,37,1606.28,42.39Z" style="fill: #f2f2f2"/>
          <path id="Path_342" data-name="Path 342" d="M1540,72.37c-6,4.48-3.94,14.25,3,16.61a10.37,10.37,0,0,0,12.83-7C1558.22,72.33,1547.22,67,1540,72.37Z" style="fill: #f2f2f2"/>
        </g>
      </g>
      <g id="Group_164" data-name="Group 164">
        <path id="Path_343" data-name="Path 343" d="M1883.8,316.64a32.37,32.37,0,0,1,10.26-8.15c21-10.41,42.86,3.66,45,26a33.32,33.32,0,0,1-3,17.65c-2.75,5.62-7.66,10.47-13.12,12s-11.22-.88-13-6.1a19.36,19.36,0,0,1-1-7.09c.15-2.43.33-4.94-1.17-7a7.57,7.57,0,0,0-2.5-2.14,9.06,9.06,0,0,0-9.38.06c-2.45,1.48-5.14,3.21-8.13,2.78a9.23,9.23,0,0,1-5.21-2.91C1875.17,334.05,1877.58,324.09,1883.8,316.64Z" style="fill: #f2f2f2"/>
        <g id="Group_163" data-name="Group 163">
          <g id="Group_162" data-name="Group 162">
            <path id="Path_344" data-name="Path 344" d="M1922.72,280.92c-9.12-1.83-17.38,8.08-11.45,16.18a10.52,10.52,0,0,0,19-5.34C1930.63,287.11,1927.46,281.86,1922.72,280.92Z" style="fill: #f2f2f2"/>
            <path id="Path_345" data-name="Path 345" d="M1946.31,295.47c-9.12-1.82-17.38,8.09-11.44,16.19a10.52,10.52,0,0,0,19-5.34C1954.22,301.67,1951.05,296.42,1946.31,295.47Z" style="fill: #f2f2f2"/>
          </g>
          <path id="Path_346" data-name="Path 346" d="M1956.42,322.83c-7.05-2.46-14,4.7-12.06,11.81a10.36,10.36,0,0,0,13,6.7C1966.66,337.93,1965,325.8,1956.42,322.83Z" style="fill: #f2f2f2"/>
          <path id="Path_347" data-name="Path 347" d="M1894.5,284.61c-7.06-2.46-14,4.7-12.07,11.82a10.38,10.38,0,0,0,13,6.7C1904.73,299.72,1903,287.59,1894.5,284.61Z" style="fill: #f2f2f2"/>
        </g>
      </g>
      <g id="Group_167" data-name="Group 167">
        <path id="Path_348" data-name="Path 348" d="M1030.77,87.41a32.55,32.55,0,0,1,4.45-12.33c12.38-19.87,38.4-19.4,51.94-1.45a33.35,33.35,0,0,1,6.76,16.57c.61,6.23-1,12.94-4.88,17.08s-10,5.15-14.27,1.64a19.49,19.49,0,0,1-4.55-5.51c-1.15-2.15-2.31-4.38-4.69-5.38a7.57,7.57,0,0,0-3.26-.51,9.06,9.06,0,0,0-8,5c-1.31,2.54-2.68,5.42-5.46,6.63a9.16,9.16,0,0,1-6,.26C1032.57,106.75,1029.4,97,1030.77,87.41Z" style="fill: #f2f2f2"/>
        <g id="Group_166" data-name="Group 166">
          <g id="Group_165" data-name="Group 165">
            <path id="Path_349" data-name="Path 349" d="M1045.13,36.57c-8.72,3.23-10.54,16-1.24,19.78a10.52,10.52,0,0,0,13.34-14.51C1055.12,37.68,1049.66,34.88,1045.13,36.57Z" style="fill: #f2f2f2"/>
            <path id="Path_350" data-name="Path 350" d="M1072.85,36.57c-8.71,3.23-10.54,16-1.24,19.78A10.52,10.52,0,0,0,1085,41.84C1082.85,37.68,1077.39,34.88,1072.85,36.57Z" style="fill: #f2f2f2"/>
          </g>
          <path id="Path_351" data-name="Path 351" d="M1095.83,54.53c-7.3,1.62-9.47,11.36-4.07,16.39a10.37,10.37,0,0,0,14.6-1.14C1112.47,62,1104.66,52.58,1095.83,54.53Z" style="fill: #f2f2f2"/>
          <path id="Path_352" data-name="Path 352" d="M1023.06,54.53c-7.3,1.62-9.46,11.36-4.06,16.39a10.36,10.36,0,0,0,14.59-1.14C1039.7,62,1031.89,52.58,1023.06,54.53Z" style="fill: #f2f2f2"/>
        </g>
      </g>
      <g id="Group_170" data-name="Group 170">
        <path id="Path_353" data-name="Path 353" d="M1299,328.05a32.34,32.34,0,0,1,4.45-12.32c12.37-19.87,38.39-19.4,51.94-1.45a33.3,33.3,0,0,1,6.75,16.57c.62,6.23-1,12.94-4.87,17.08s-10,5.15-14.27,1.64a19.43,19.43,0,0,1-4.56-5.52c-1.15-2.15-2.3-4.37-4.69-5.37a7.53,7.53,0,0,0-3.25-.51,9,9,0,0,0-8,5c-1.31,2.54-2.69,5.42-5.46,6.63a9.26,9.26,0,0,1-6,.26C1300.75,347.4,1297.57,337.66,1299,328.05Z" style="fill: #f2f2f2"/>
        <g id="Group_169" data-name="Group 169">
          <g id="Group_168" data-name="Group 168">
            <path id="Path_354" data-name="Path 354" d="M1313.31,277.21c-8.72,3.24-10.54,16-1.24,19.78a10.52,10.52,0,0,0,13.34-14.5C1323.3,278.33,1317.84,275.53,1313.31,277.21Z" style="fill: #f2f2f2"/>
            <path id="Path_355" data-name="Path 355" d="M1341,277.21c-8.72,3.24-10.54,16-1.24,19.78a10.52,10.52,0,0,0,13.34-14.5C1351,278.33,1345.56,275.53,1341,277.21Z" style="fill: #f2f2f2"/>
          </g>
          <path id="Path_356" data-name="Path 356" d="M1364,295.18c-7.3,1.61-9.46,11.36-4.06,16.39a10.36,10.36,0,0,0,14.59-1.14C1380.64,302.66,1372.83,293.23,1364,295.18Z" style="fill: #f2f2f2"/>
          <path id="Path_357" data-name="Path 357" d="M1291.23,295.18c-7.3,1.61-9.46,11.36-4.06,16.39a10.36,10.36,0,0,0,14.59-1.14C1307.87,302.66,1300.07,293.23,1291.23,295.18Z" style="fill: #f2f2f2"/>
        </g>
      </g>
      <g id="Group_173" data-name="Group 173">
        <path id="Path_358" data-name="Path 358" d="M597.44,869a32.64,32.64,0,0,1,2.8-12.8c9.67-21.32,35.52-24.26,51.3-8.24a33.25,33.25,0,0,1,8.87,15.54c1.43,6.09.69,13-2.6,17.57s-9.24,6.41-13.93,3.5a19.11,19.11,0,0,1-5.23-4.87c-1.43-2-2.87-4-5.36-4.71a7.5,7.5,0,0,0-3.3-.08,9,9,0,0,0-7.22,6c-1,2.7-1.95,5.74-4.55,7.29a9.19,9.19,0,0,1-5.88,1C601.77,888,597.34,878.73,597.44,869Z" style="fill: #f2f2f2"/>
        <g id="Group_172" data-name="Group 172">
          <g id="Group_171" data-name="Group 171">
            <path id="Path_359" data-name="Path 359" d="M605,816.75c-8.22,4.35-8.35,17.25,1.37,19.77a10.52,10.52,0,0,0,11.32-16.13C615.07,816.55,609.29,814.49,605,816.75Z" style="fill: #f2f2f2"/>
            <path id="Path_360" data-name="Path 360" d="M632.5,813.11c-8.22,4.35-8.35,17.25,1.36,19.77a10.52,10.52,0,0,0,11.32-16.12C642.55,812.91,636.77,810.85,632.5,813.11Z" style="fill: #f2f2f2"/>
          </g>
          <path id="Path_361" data-name="Path 361" d="M657.63,827.91c-7,2.56-7.89,12.5-1.88,16.78a10.36,10.36,0,0,0,14.32-3C675.1,833.15,666.13,824.82,657.63,827.91Z" style="fill: #f2f2f2"/>
          <path id="Path_362" data-name="Path 362" d="M585.49,837.45c-7,2.56-7.9,12.5-1.88,16.78a10.35,10.35,0,0,0,14.31-3C603,842.69,594,834.36,585.49,837.45Z" style="fill: #f2f2f2"/>
        </g>
      </g>
      <g id="Group_176" data-name="Group 176">
        <path id="Path_363" data-name="Path 363" d="M672.52,1100.7a32.47,32.47,0,0,1,2.8-12.8c9.67-21.32,35.52-24.26,51.3-8.25a33.25,33.25,0,0,1,8.87,15.54c1.43,6.1.69,13-2.59,17.57s-9.25,6.42-13.93,3.5a19.15,19.15,0,0,1-5.24-4.87c-1.42-2-2.86-4-5.36-4.71a7.45,7.45,0,0,0-3.29-.08,9.06,9.06,0,0,0-7.23,6c-1,2.7-2,5.74-4.54,7.29a9.19,9.19,0,0,1-5.88,1.05C676.84,1119.64,672.42,1110.4,672.52,1100.7Z" style="fill: #f2f2f2"/>
        <g id="Group_175" data-name="Group 175">
          <g id="Group_174" data-name="Group 174">
            <path id="Path_364" data-name="Path 364" d="M680.09,1048.42c-8.22,4.35-8.35,17.25,1.37,19.77a10.52,10.52,0,0,0,11.32-16.13C690.14,1048.22,684.37,1046.15,680.09,1048.42Z" style="fill: #f2f2f2"/>
            <path id="Path_365" data-name="Path 365" d="M707.58,1044.78c-8.22,4.35-8.35,17.26,1.36,19.78a10.52,10.52,0,0,0,11.32-16.13C717.63,1044.58,711.85,1042.52,707.58,1044.78Z" style="fill: #f2f2f2"/>
          </g>
          <path id="Path_366" data-name="Path 366" d="M732.71,1059.58c-7,2.56-7.9,12.5-1.88,16.78a10.36,10.36,0,0,0,14.32-3C750.18,1064.82,741.21,1056.49,732.71,1059.58Z" style="fill: #f2f2f2"/>
          <path id="Path_367" data-name="Path 367" d="M660.57,1069.12c-7,2.56-7.89,12.5-1.88,16.78a10.36,10.36,0,0,0,14.32-3C678,1074.36,669.07,1066,660.57,1069.12Z" style="fill: #f2f2f2"/>
        </g>
      </g>
      <g id="Group_179" data-name="Group 179">
        <path id="Path_368" data-name="Path 368" d="M36.21,839.08a32.49,32.49,0,0,1,.4-13.1c5.61-22.73,30.49-30.34,48.94-17.48A33.36,33.36,0,0,1,97.1,822.16c2.52,5.73,3.05,12.62.66,17.75s-7.91,8-13.05,6a19.64,19.64,0,0,1-6-3.84c-1.76-1.68-3.55-3.44-6.13-3.65a7.51,7.51,0,0,0-3.25.52,9.06,9.06,0,0,0-6,7.2c-.45,2.82-.87,6-3.13,8a9.24,9.24,0,0,1-5.59,2.1C43.91,856.92,37.87,848.64,36.21,839.08Z" style="fill: #f2f2f2"/>
        <g id="Group_178" data-name="Group 178">
          <g id="Group_177" data-name="Group 177">
            <path id="Path_369" data-name="Path 369" d="M34.09,786.3c-7.28,5.78-5.06,18.49,5,19.19a10.53,10.53,0,0,0,8.18-17.93C43.94,784.26,37.88,783.29,34.09,786.3Z" style="fill: #f2f2f2"/>
            <path id="Path_370" data-name="Path 370" d="M60.45,777.7c-7.29,5.78-5.06,18.49,5,19.19A10.52,10.52,0,0,0,73.59,779C70.29,775.67,64.24,774.69,60.45,777.7Z" style="fill: #f2f2f2"/>
          </g>
          <path id="Path_371" data-name="Path 371" d="M87.86,787.66c-6.44,3.8-5.47,13.73,1.22,16.84a10.36,10.36,0,0,0,13.52-5.6C106,789.61,95.65,783.06,87.86,787.66Z" style="fill: #f2f2f2"/>
          <path id="Path_372" data-name="Path 372" d="M18.68,810.22C12.24,814,13.2,824,19.9,827.06a10.37,10.37,0,0,0,13.52-5.6C36.82,812.18,26.47,805.63,18.68,810.22Z" style="fill: #f2f2f2"/>
        </g>
      </g>
      <g id="Group_182" data-name="Group 182">
        <path id="Path_373" data-name="Path 373" d="M229.51,1058a32.31,32.31,0,0,1,8.71-9.8c18.86-13.86,42.85-3.76,48.77,17.93a33.37,33.37,0,0,1,.12,17.9c-1.74,6-5.75,11.63-10.87,14s-11.2,1.06-13.86-3.77a19.55,19.55,0,0,1-2.18-6.81c-.27-2.43-.52-4.93-2.36-6.74a7.65,7.65,0,0,0-2.84-1.68,9,9,0,0,0-9.22,1.67c-2.17,1.88-4.51,4-7.54,4.13a9.16,9.16,0,0,1-5.63-2C224,1076.61,224.67,1066.39,229.51,1058Z" style="fill: #f2f2f2"/>
        <g id="Group_181" data-name="Group 181">
          <g id="Group_180" data-name="Group 180">
            <path id="Path_374" data-name="Path 374" d="M261.71,1016.1c-9.3-.23-15.73,10.95-8.5,17.91a10.52,10.52,0,0,0,17.77-8.52C270.57,1020.85,266.54,1016.22,261.71,1016.1Z" style="fill: #f2f2f2"/>
            <path id="Path_375" data-name="Path 375" d="M287.45,1026.39c-9.3-.23-15.73,10.95-8.49,17.9a10.52,10.52,0,0,0,17.77-8.51C296.31,1031.13,292.29,1026.51,287.45,1026.39Z" style="fill: #f2f2f2"/>
          </g>
          <path id="Path_376" data-name="Path 376" d="M302.12,1051.6c-7.37-1.22-13,7-9.85,13.71a10.37,10.37,0,0,0,14,4.36C314.79,1064.72,311,1053.06,302.12,1051.6Z" style="fill: #f2f2f2"/>
          <path id="Path_377" data-name="Path 377" d="M234.54,1024.59c-7.37-1.21-13,7-9.85,13.71a10.36,10.36,0,0,0,14,4.36C247.22,1037.71,243.47,1026.05,234.54,1024.59Z" style="fill: #f2f2f2"/>
        </g>
      </g>
      <g id="Group_185" data-name="Group 185">
        <path id="Path_378" data-name="Path 378" d="M1886.2,980.4a32.47,32.47,0,0,1-.24-13.1c4.48-23,29-31.81,48-19.88a33.29,33.29,0,0,1,12.22,13.08c2.8,5.6,3.67,12.44,1.54,17.69s-7.52,8.38-12.75,6.62a19.31,19.31,0,0,1-6.22-3.53c-1.84-1.6-3.72-3.26-6.3-3.34a7.46,7.46,0,0,0-3.22.68,9,9,0,0,0-5.65,7.48c-.32,2.85-.58,6-2.74,8.15a9.24,9.24,0,0,1-5.48,2.37C1894.78,997.83,1888.34,989.87,1886.2,980.4Z" style="fill: #f2f2f2"/>
        <g id="Group_184" data-name="Group 184">
          <g id="Group_183" data-name="Group 183">
            <path id="Path_379" data-name="Path 379" d="M1881.48,927.79c-7,6.13-4.14,18.71,5.9,18.92a10.52,10.52,0,0,0,7.29-18.31C1891.22,925.27,1885.12,924.6,1881.48,927.79Z" style="fill: #f2f2f2"/>
            <path id="Path_380" data-name="Path 380" d="M1907.38,917.9c-7,6.13-4.13,18.71,5.9,18.92a10.52,10.52,0,0,0,7.29-18.31C1917.12,915.38,1911,914.71,1907.38,917.9Z" style="fill: #f2f2f2"/>
          </g>
          <path id="Path_381" data-name="Path 381" d="M1935.25,926.49c-6.24,4.11-4.79,14,2,16.76a10.37,10.37,0,0,0,13.23-6.27C1953.47,927.54,1942.81,921.51,1935.25,926.49Z" style="fill: #f2f2f2"/>
          <path id="Path_382" data-name="Path 382" d="M1867.27,952.44c-6.24,4.11-4.79,14,2,16.76a10.37,10.37,0,0,0,13.23-6.26C1885.48,953.5,1874.83,947.47,1867.27,952.44Z" style="fill: #f2f2f2"/>
        </g>
      </g>
      <g id="Group_188" data-name="Group 188">
        <path id="Path_383" data-name="Path 383" d="M1482,883.42a32.47,32.47,0,0,1-.24-13.1c4.48-23,29-31.81,48-19.88A33.35,33.35,0,0,1,1542,863.52c2.8,5.6,3.66,12.45,1.54,17.69s-7.52,8.38-12.75,6.63a19.69,19.69,0,0,1-6.22-3.53c-1.84-1.6-3.72-3.27-6.3-3.35a7.6,7.6,0,0,0-3.22.68,9,9,0,0,0-5.65,7.49c-.32,2.84-.58,6-2.74,8.14a9.17,9.17,0,0,1-5.48,2.36C1490.54,900.85,1484.1,892.89,1482,883.42Z" style="fill: #f2f2f2"/>
        <g id="Group_187" data-name="Group 187">
          <g id="Group_186" data-name="Group 186">
            <path id="Path_384" data-name="Path 384" d="M1477.24,830.81c-7,6.13-4.14,18.71,5.9,18.92a10.52,10.52,0,0,0,7.29-18.31C1487,828.29,1480.88,827.62,1477.24,830.81Z" style="fill: #f2f2f2"/>
            <path id="Path_385" data-name="Path 385" d="M1503.14,820.92c-7,6.13-4.14,18.71,5.9,18.92a10.52,10.52,0,0,0,7.29-18.31C1512.87,818.4,1506.78,817.73,1503.14,820.92Z" style="fill: #f2f2f2"/>
          </g>
          <path id="Path_386" data-name="Path 386" d="M1531,829.5c-6.24,4.11-4.79,14,2,16.76a10.36,10.36,0,0,0,13.23-6.26C1549.22,830.56,1538.57,824.53,1531,829.5Z" style="fill: #f2f2f2"/>
          <path id="Path_387" data-name="Path 387" d="M1463,855.46c-6.24,4.11-4.79,14,2,16.76A10.34,10.34,0,0,0,1478.3,866C1481.24,856.52,1470.59,850.49,1463,855.46Z" style="fill: #f2f2f2"/>
        </g>
      </g>
      <g id="Group_191" data-name="Group 191">
        <path id="Path_388" data-name="Path 388" d="M1567.24,1062.81a32.3,32.3,0,0,1,10.69-7.59c21.49-9.28,42.6,6,43.5,28.41a33.49,33.49,0,0,1-3.9,17.47c-3,5.46-8.21,10.05-13.75,11.25s-11.15-1.47-12.66-6.78a19.5,19.5,0,0,1-.6-7.13c.28-2.42.6-4.91-.79-7.09a7.62,7.62,0,0,0-2.38-2.28,9.05,9.05,0,0,0-9.37-.44c-2.53,1.35-5.3,2.93-8.27,2.34a9.2,9.2,0,0,1-5-3.19C1557.7,1079.73,1560.64,1069.92,1567.24,1062.81Z" style="fill: #f2f2f2"/>
        <g id="Group_190" data-name="Group 190">
          <g id="Group_189" data-name="Group 189">
            <path id="Path_389" data-name="Path 389" d="M1608,1029.22c-9-2.31-17.79,7.15-12.3,15.55a10.53,10.53,0,0,0,19.23-4.32C1615.59,1035.83,1612.7,1030.42,1608,1029.22Z" style="fill: #f2f2f2"/>
            <path id="Path_390" data-name="Path 390" d="M1630.79,1045c-9-2.31-17.78,7.15-12.29,15.55a10.53,10.53,0,0,0,19.23-4.32C1638.37,1051.63,1635.48,1046.22,1630.79,1045Z" style="fill: #f2f2f2"/>
          </g>
          <path id="Path_391" data-name="Path 391" d="M1639.43,1072.88c-6.91-2.83-14.25,3.94-12.68,11.15a10.36,10.36,0,0,0,12.64,7.38C1648.84,1088.51,1647.8,1076.31,1639.43,1072.88Z" style="fill: #f2f2f2"/>
          <path id="Path_392" data-name="Path 392" d="M1579.64,1031.4c-6.92-2.83-14.25,3.94-12.68,11.15a10.37,10.37,0,0,0,12.64,7.39C1589.05,1047,1588,1034.83,1579.64,1031.4Z" style="fill: #f2f2f2"/>
        </g>
      </g>
      <g id="Group_194" data-name="Group 194">
        <path id="Path_393" data-name="Path 393" d="M1029.22,823.22a32.4,32.4,0,0,1,6.9-11.15c16.2-16.9,41.56-11.07,51.12,9.28a33.35,33.35,0,0,1,3.2,17.61c-.68,6.22-3.66,12.45-8.29,15.71s-10.86,3-14.3-1.34a19.39,19.39,0,0,1-3.32-6.33c-.68-2.34-1.36-4.76-3.48-6.23a7.6,7.6,0,0,0-3.09-1.17,9,9,0,0,0-8.8,3.23c-1.8,2.22-3.74,4.76-6.71,5.37a9.2,9.2,0,0,1-5.89-1C1027,842.52,1025.9,832.34,1029.22,823.22Z" style="fill: #f2f2f2"/>
        <g id="Group_193" data-name="Group 193">
          <g id="Group_192" data-name="Group 192">
            <path id="Path_394" data-name="Path 394" d="M1053.74,776.43c-9.2,1.37-13.61,13.5-5.28,19.1a10.52,10.52,0,0,0,16-11.45C1063.29,779.58,1058.53,775.72,1053.74,776.43Z" style="fill: #f2f2f2"/>
            <path id="Path_395" data-name="Path 395" d="M1080.87,782.14c-9.2,1.37-13.61,13.5-5.28,19.1a10.52,10.52,0,0,0,16-11.44C1090.42,785.29,1085.66,781.43,1080.87,782.14Z" style="fill: #f2f2f2"/>
          </g>
          <path id="Path_396" data-name="Path 396" d="M1099.65,804.45c-7.47.08-11.6,9.17-7.35,15.2a10.36,10.36,0,0,0,14.52,1.9C1114.39,815.2,1108.7,804.36,1099.65,804.45Z" style="fill: #f2f2f2"/>
          <path id="Path_397" data-name="Path 397" d="M1028.45,789.46c-7.47.08-11.6,9.17-7.35,15.2a10.35,10.35,0,0,0,14.51,1.9C1043.19,800.21,1037.49,789.37,1028.45,789.46Z" style="fill: #f2f2f2"/>
        </g>
      </g>
      <g id="Group_197" data-name="Group 197">
        <path id="Path_398" data-name="Path 398" d="M1223,1088.2a32.41,32.41,0,0,1-5.8-11.75c-5.75-22.69,12.62-41.12,34.94-38.45a33.2,33.2,0,0,1,16.63,6.61c4.92,3.87,8.62,9.7,8.94,15.35s-3.23,10.78-8.7,11.43a19.47,19.47,0,0,1-7.13-.54c-2.35-.66-4.76-1.37-7.13-.34a7.45,7.45,0,0,0-2.62,2,9,9,0,0,0-1.92,9.18c.92,2.7,2,5.7,1,8.53a9.18,9.18,0,0,1-4,4.48C1238.24,1100.31,1229,1095.85,1223,1088.2Z" style="fill: #f2f2f2"/>
        <g id="Group_196" data-name="Group 196">
          <g id="Group_195" data-name="Group 195">
            <path id="Path_399" data-name="Path 399" d="M1196.33,1042.63c-3.71,8.52,4.24,18.69,13.4,14.6a10.52,10.52,0,0,0-1.21-19.67C1204.06,1036.2,1198.26,1038.19,1196.33,1042.63Z" style="fill: #f2f2f2"/>
            <path id="Path_400" data-name="Path 400" d="M1215.54,1022.64c-3.71,8.52,4.24,18.69,13.4,14.6a10.52,10.52,0,0,0-1.21-19.67C1223.27,1016.21,1217.47,1018.2,1215.54,1022.64Z" style="fill: #f2f2f2"/>
          </g>
          <path id="Path_401" data-name="Path 401" d="M1244.41,1018.52c-3.89,6.38,1.64,14.7,9,14.28a10.36,10.36,0,0,0,9.3-11.3C1261.34,1011.71,1249.13,1010.8,1244.41,1018.52Z" style="fill: #f2f2f2"/>
          <path id="Path_402" data-name="Path 402" d="M1194,1071c-3.89,6.38,1.64,14.69,9,14.28a10.36,10.36,0,0,0,9.3-11.31C1210.92,1064.17,1198.71,1063.27,1194,1071Z" style="fill: #f2f2f2"/>
        </g>
      </g>
    </g>
    <g id="huesos">
      <g id="hueso">
        <path id="Path_403" data-name="Path 403" d="M493.83,443.2c-4.91,4.28-6.61,11-4.64,18a12,12,0,0,0,13.75,9.13c9.64-.12,14-9,18.9-16.7,3.66-6.34,9.32-10.84,15.81-14.07,8.38-4.16,16.88-8,25.45-11.75,3.76-1.67,7.61-3.16,11.3-4.89,7-3.27,14.39-6.33,22.2-6.18,8.16.15,15.82,6.57,23.51,1.38,11.19-7.55,5.4-24.12-7.11-24.45" style="fill: #f2f2f2"/>
        <path id="Path_404" data-name="Path 404" d="M610,396.46a17.72,17.72,0,0,0,5.56-9.4c1-10.16-6-16.72-15-18.26-10.16-1-13.5,10.15-18.39,17.86-2.71,4.27-6.66,9-11.32,11L562,401.62l-25.29,11.23-16.28,7.22a30.26,30.26,0,0,1-6.77,2.5c-5.84,1.13-11.12.07-16.69-1.57-4.84-1.43-9.73-2.22-14.11.93-11,8-4.44,24.61,8.42,24.16" style="fill: #f2f2f2"/>
      </g>
      <path id="Path_405" data-name="Path 405" d="M1185.24,230.82l-4,2.22-5.17.82-5.38-.83-3.84-3-2.71-3.62-1.13-4,.28-4.61,2-4.65,4.6-4.22,6.4-3.29,5-3.33,3.62-3.86,3.49-5.2,3-5.9,16.39-39,2.59-7.58,1.22-7.66-.58-8-1.5-7.7-.66-5.53.67-6.52,3.76-6.13,4.39-3.84,6.85-1.22,6.31,3.47,4.5,4.08,2.25,4.19.77,3.06,3.82-2.7,4.5-1.2,5,.67,5.7,3.16,3.8,6-.65,8.72-6.3,5.93-6.77,3.66-6,4.38-4.3,5.4-3.68,8.54L1215,195.07l-3.1,8.79.11,7.81,1.86,8.82,1.63,7.8-.48,6.56-4.46,5.64-5.41,2.38-6.2.6-5-1.05-4.74-3.75-2.89-4.76Z" style="fill: #f2f2f2"/>
      <g id="hueso-2">
        <path id="Path_406" data-name="Path 406" d="M1730.18,171.22c-6.5.39-12,4.71-14.65,11.4a12,12,0,0,0,5.32,15.63c7.72,5.78,16.59,1.43,25.17-1.7,6.77-2.79,14-2.9,21.11-1.5,9.18,1.82,18.23,4,27.34,6.23,4,1,8,2.14,11.94,3,7.49,1.65,15.25,3.76,21.35,8.65,6.37,5.1,8.52,14.86,17.79,15.44,13.47.85,19-15.81,9.29-23.7" style="fill: #f2f2f2"/>
        <path id="Path_407" data-name="Path 407" d="M1850.76,205.1a17.76,17.76,0,0,0,10.14-4c7-7.42,5.42-16.93-.77-23.64-7.41-7-16.89-.2-25.47,2.92-4.75,1.73-10.74,3-15.7,1.83l-9.41-2.29-26.89-6.54-17.3-4.21a30.64,30.64,0,0,1-6.89-2.16c-5.31-2.67-8.85-6.73-12.26-11.43-3-4.09-6.35-7.7-11.74-7.87-13.59-.43-18.54,16.79-8.08,24.27" style="fill: #f2f2f2"/>
      </g>
      <path id="Path_408" data-name="Path 408" d="M613.47,393.36l4.42,1.09,4.34,2.93,3.37,4.27.76,4.82-.49,4.5L624,414.63l-3.35,3.18L616,419.86l-6.24-.05-6.93-2-6-1-5.29.36-6.1,1.43-6.19,2.3-38.59,17.35-7.06,3.77-6.12,4.77-5,6.23-4.15,6.65-3.29,4.5-4.94,4.31-6.93,1.92-5.83-.18-5.84-3.78-2.24-6.85-.51-6.05L490,449l1.52-2.76-4.64-.63-4.1-2.2-3.23-3.92-2-6.2,1.35-7,6.42-5.93,8.65,0,7.45,1.93,7.41.94,6.82-1,8.52-3.74,43.16-19.16,8.26-4.31,5.25-5.79,4.66-7.72,4.13-6.81,4.83-4.47,7.1-1.09,5.59,2,4.94,3.79,2.95,4.19.92,6-1.14,5.45Z" style="fill: #f2f2f2"/>
      <g id="Group_198" data-name="Group 198">
        <g id="hueso-3">
          <path id="Path_409" data-name="Path 409" d="M493.85,189.08c-4.91,4.28-6.61,11-4.65,18A12,12,0,0,0,503,216.19c9.64-.12,14-9,18.9-16.7,3.67-6.34,9.32-10.84,15.81-14.06,8.38-4.17,16.89-8,25.46-11.76,3.76-1.67,7.61-3.15,11.3-4.89,6.94-3.27,14.38-6.33,22.19-6.18,8.17.15,15.82,6.57,23.52,1.38,11.19-7.55,5.4-24.12-7.11-24.45" style="fill: #f2f2f2"/>
          <path id="Path_410" data-name="Path 410" d="M610,142.34a17.78,17.78,0,0,0,5.56-9.4c1-10.15-6-16.71-15-18.26-10.15-1-13.5,10.15-18.39,17.86-2.7,4.27-6.66,9-11.32,11L562,147.51,536.7,158.73,520.42,166a30.26,30.26,0,0,1-6.77,2.5c-5.83,1.12-11.11.07-16.69-1.58-4.84-1.42-9.73-2.22-14.1.94-11,8-4.44,24.61,8.42,24.16" style="fill: #f2f2f2"/>
        </g>
        <path id="Path_411" data-name="Path 411" d="M613.4,139.24l4.42,1.09,4.34,2.93,3.37,4.27.76,4.82-.49,4.5-1.87,3.66-3.35,3.18L616,165.75l-6.24-.06-6.93-2-5.95-1-5.29.35-6.1,1.43-6.19,2.3-38.59,17.35-7.06,3.77-6.12,4.77-5,6.23-4.15,6.65-3.29,4.5-4.94,4.32-6.93,1.91-5.83-.18-5.84-3.78-2.24-6.85-.51-6.05,1.21-4.6,1.52-2.76-4.64-.63-4.1-2.2-3.23-3.92-2-6.2,1.35-7,6.42-5.93,8.65,0,7.45,1.94,7.41.93,6.82-1,8.52-3.74,43.16-19.16,8.26-4.31,5.25-5.79,4.66-7.72,4.13-6.81L594.4,116l7.1-1.08,5.59,1.95,4.94,3.79,3,4.19.92,6-1.14,5.45Z" style="fill: #f2f2f2"/>
      </g>
      <g id="Group_199" data-name="Group 199">
        <g id="hueso-4">
          <path id="Path_412" data-name="Path 412" d="M167.46,132.06c-5.8-2.95-12.71-2-18.41,2.4a12,12,0,0,0-3.35,16.17c3.72,8.9,13.58,9.64,22.56,11.3,7.24,1,13.53,4.6,18.94,9.42,7,6.22,13.68,12.7,20.41,19.23,2.95,2.87,5.77,5.88,8.76,8.66,5.62,5.23,11.23,11,14,18.29,2.9,7.63-.19,17.13,7.49,22.33,11.19,7.56,24.4-4,20-15.72" style="fill: #f2f2f2"/>
          <path id="Path_413" data-name="Path 413" d="M254.18,222.42a17.76,17.76,0,0,0,10.8,1.65c9.81-2.83,13.26-11.84,11.33-20.76-2.83-9.81-14.45-8.74-23.43-10.4-5-.92-10.8-2.84-14.46-6.39l-6.95-6.75L211.61,160.5l-12.78-12.41a30.38,30.38,0,0,1-4.84-5.35c-3.22-5-4.21-10.28-4.77-16.07-.48-5-1.57-9.86-6.12-12.74-11.5-7.26-24.5,5.07-19.28,16.83" style="fill: #f2f2f2"/>
        </g>
        <path id="Path_414" data-name="Path 414" d="M258.31,224.39l.64,4.5-1.1,5.12-2.71,4.73-4.18,2.5-4.36,1.22-4.1-.37-4.2-1.91-3.63-3.53-2.28-5.81-.76-7.15-1.29-5.9L228,213l-3.6-5.13L220,203l-30.5-29.33-6.13-5.14-6.72-3.9L169,162.3l-7.72-1.37-5.4-1.37-5.84-3-4.36-5.72-2-5.47,1.33-6.83,5.51-4.64,5.42-2.73,4.73-.59,3.13.38-1.15-4.54.51-4.63,2.43-4.45,5-4.18,7-1.37,7.9,3.75,3.26,8,1,7.63,1.9,7.22,3.49,6,6.64,6.51,33.88,32.89,7.09,6.06,7.33,2.71L259,194l7.86,1.3,5.95,2.81,3.66,6.18.27,5.91-1.67,6-2.79,4.31L267,223.58l-5.47,1Z" style="fill: #f2f2f2"/>
      </g>
      <g id="Group_200" data-name="Group 200">
        <g id="hueso-5">
          <path id="Path_415" data-name="Path 415" d="M163.86,506.51c-5.8-3-12.71-2-18.41,2.4a12,12,0,0,0-3.34,16.16c3.71,8.9,13.57,9.65,22.55,11.31,7.25,1,13.54,4.6,19,9.42,7,6.22,13.68,12.7,20.41,19.23,2.95,2.86,5.76,5.88,8.75,8.66,5.63,5.22,11.24,11,14,18.28,2.9,7.63-.2,17.13,7.49,22.33,11.18,7.57,24.39-4,20-15.71" style="fill: #f2f2f2"/>
          <path id="Path_416" data-name="Path 416" d="M250.59,596.86a17.69,17.69,0,0,0,10.8,1.65c9.81-2.83,13.26-11.83,11.33-20.76-2.83-9.81-14.45-8.74-23.43-10.4-5-.92-10.8-2.84-14.46-6.39l-7-6.75L208,534.94l-12.78-12.4a30.74,30.74,0,0,1-4.84-5.35c-3.22-5-4.21-10.29-4.77-16.07-.48-5-1.57-9.86-6.13-12.74-11.5-7.26-24.49,5.06-19.27,16.82" style="fill: #f2f2f2"/>
        </g>
        <path id="Path_417" data-name="Path 417" d="M254.72,598.83l.64,4.5-1.1,5.12-2.71,4.73-4.18,2.5L243,616.9l-4.1-.37-4.2-1.91-3.63-3.53-2.28-5.81-.76-7.15-1.29-5.9-2.3-4.77-3.6-5.13-4.44-4.88-30.5-29.33L179.77,543l-6.71-3.9-7.65-2.34-7.72-1.37-5.4-1.37-5.84-3-4.36-5.72-2-5.47,1.33-6.83,5.51-4.64,5.42-2.73,4.73-.59,3.13.38-1.15-4.54.51-4.63,2.43-4.45,5-4.18,7-1.37,7.9,3.75,3.26,8,1,7.63,1.9,7.22,3.49,6,6.64,6.51,33.88,32.89,7.08,6.06,7.34,2.71,8.9,1.43,7.86,1.3,5.95,2.8,3.66,6.19.27,5.91-1.67,6-2.79,4.31L263.44,598,258,599Z" style="fill: #f2f2f2"/>
      </g>
      <g id="Group_201" data-name="Group 201">
        <g id="hueso-6">
          <path id="Path_418" data-name="Path 418" d="M617.09,703.27c5.13-4,7.21-10.65,5.64-17.68a12,12,0,0,0-13.22-9.89c-9.63-.42-14.5,8.19-19.81,15.62-4,6.12-9.91,10.3-16.57,13.15-8.6,3.69-17.3,7-26.08,10.32-3.84,1.45-7.77,2.72-11.55,4.24-7.12,2.88-14.72,5.52-22.51,4.93-8.14-.61-15.42-7.45-23.4-2.7-11.6,6.91-6.74,23.78,5.73,24.81" style="fill: #f2f2f2"/>
          <path id="Path_419" data-name="Path 419" d="M498.45,743.43a17.79,17.79,0,0,0-6.07,9.08c-1.6,10.08,5.09,17,14,19.07,10.08,1.6,14-9.38,19.37-16.8,2.94-4.11,7.15-8.57,11.92-10.38l9.06-3.43,25.88-9.79,16.66-6.3a29.76,29.76,0,0,1,6.9-2.11c5.89-.8,11.1.55,16.57,2.5,4.75,1.7,9.59,2.77,14.14-.14,11.45-7.32,5.81-24.32-7.05-24.6" style="fill: #f2f2f2"/>
        </g>
        <path id="Path_420" data-name="Path 420" d="M494.92,746.34,490.58,745l-4.18-3.17-3.12-4.45-.49-4.85.74-4.47,2.08-3.56,3.52-3,4.73-1.79,6.23.4,6.8,2.35,5.89,1.33,5.3-.06,6.16-1.08,6.31-1.94,39.5-15.17,7.26-3.37,6.38-4.42,5.37-5.94,4.51-6.4,3.54-4.31,5.17-4,7-1.52,5.81.51,5.62,4.1,1.85,7,.17,6.07-1.46,4.52-1.68,2.68,4.6.89,4,2.42,3,4.09,1.66,6.3L631.12,721l-6.75,5.56-8.63-.44-7.33-2.35-7.35-1.34-6.87.63-8.71,3.25-44.17,16.71-8.49,3.84-5.57,5.49-5.08,7.45-4.51,6.57-5.07,4.2-7.15.68L500,769,495.25,765l-2.71-4.35-.58-6,1.44-5.38Z" style="fill: #f2f2f2"/>
      </g>
      <g id="Group_202" data-name="Group 202">
        <g id="hueso-7">
          <path id="Path_421" data-name="Path 421" d="M157.55,879.56c-6.08-2.33-12.85-.65-18.05,4.34a12,12,0,0,0-1.61,16.42c4.64,8.46,14.52,8.16,23.63,8.85,7.31.26,13.94,3.14,19.84,7.36,7.61,5.44,14.95,11.17,22.33,17,3.24,2.54,6.36,5.24,9.63,7.69,6.14,4.6,12.33,9.72,15.87,16.69,3.7,7.28,1.63,17,9.82,21.41,11.92,6.34,23.83-6.56,18.25-17.75" style="fill: #f2f2f2"/>
          <path id="Path_422" data-name="Path 422" d="M253.38,960.2a17.7,17.7,0,0,0,10.91.49c9.45-3.85,11.92-13.17,9.06-21.84-3.85-9.46-15.3-7.16-24.4-7.85-5-.39-11-1.68-15.06-4.82l-7.63-6-21.79-17.06-14-11a30.76,30.76,0,0,1-5.38-4.81c-3.73-4.62-5.28-9.78-6.45-15.47-1-4.95-2.6-9.64-7.44-12-12.2-6-23.82,7.64-17.38,18.78" style="fill: #f2f2f2"/>
        </g>
        <path id="Path_423" data-name="Path 423" d="M257.7,961.71l1.1,4.41-.54,5.21-2.19,5-3.9,2.93-4.2,1.68-4.11.07-4.38-1.47-4-3.11-2.89-5.54-1.52-7-1.9-5.73-2.8-4.5-4.12-4.72-4.94-4.38L183.88,918.6l-6.64-4.47L170.15,911l-7.86-1.51-7.82-.55-5.51-.79-6.13-2.33-4.94-5.22-2.58-5.24.6-6.93,5-5.19,5.1-3.29,4.64-1.09,3.15,0-1.62-4.39v-4.65l1.94-4.69,4.53-4.68,6.82-2.1,8.25,2.89,4.1,7.61,1.79,7.49,2.66,7,4.1,5.55,7.3,5.76,37.18,29.11,7.68,5.27,7.58,1.92,9,.49,8,.45,6.21,2.16,4.29,5.76.9,5.85-1,6.15-2.32,4.57L266.28,960l-5.34,1.55Z" style="fill: #f2f2f2"/>
      </g>
      <g id="Group_203" data-name="Group 203">
        <g id="hueso-8">
          <path id="Path_424" data-name="Path 424" d="M841.29,582.67c-3.67-5.37-10.2-7.84-17.31-6.69a12,12,0,0,0-10.66,12.61c-1,9.59,7.31,15,14.41,20.7,5.87,4.37,9.69,10.51,12.15,17.32,3.17,8.8,6,17.69,8.74,26.65,1.23,3.92,2.26,7.91,3.56,11.79,2.44,7.27,4.62,15,3.58,22.75-1.1,8.1-8.36,15-4.09,23.2,6.21,12,23.34,8.14,25.1-4.24" style="fill: #f2f2f2"/>
          <path id="Path_425" data-name="Path 425" d="M874.33,703.48a17.79,17.79,0,0,0,8.7,6.6c10,2.2,17.3-4.07,19.87-12.83,2.2-10-8.53-14.58-15.62-20.33-3.93-3.18-8.13-7.65-9.65-12.52q-1.44-4.62-2.89-9.25l-8.23-26.41q-2.65-8.5-5.3-17a29.86,29.86,0,0,1-1.7-7c-.44-5.92,1.21-11.05,3.49-16.39,2-4.65,3.33-9.41.7-14.12-6.63-11.87-23.94-7.25-25,5.57" style="fill: #f2f2f2"/>
        </g>
        <path id="Path_426" data-name="Path 426" d="M877,707.17l-1.6,4.26-3.41,4-4.63,2.86-4.87.2-4.42-1-3.42-2.28-2.77-3.69-1.51-4.83.78-6.2,2.74-6.65,1.69-5.8.25-5.29-.71-6.22-1.57-6.41-12.79-40.34-2.93-7.44-4-6.63L828.21,610l-6.13-4.89L818,601.29l-3.72-5.4-1.1-7.1L814,583l4.43-5.37,7.06-1.44,6.07.2,4.43,1.73,2.57,1.83,1.16-4.53,2.66-3.83,4.26-2.75,6.39-1.28,6.81,2.14,5.15,7.07-1,8.59-2.78,7.18-1.78,7.25.22,6.9,2.73,8.89,14.06,45.08,3.32,8.71,5.15,5.88,7.13,5.51,6.29,4.9,3.89,5.31.25,7.18L900,703.49,895.62,708l-4.51,2.45-6,.22-5.28-1.76Z" style="fill: #f2f2f2"/>
      </g>
      <g id="Group_204" data-name="Group 204">
        <g id="hueso-9">
          <path id="Path_427" data-name="Path 427" d="M815.57,903.24c-3.68-5.37-10.21-7.84-17.32-6.69a12,12,0,0,0-10.66,12.61c-1,9.59,7.32,15,14.41,20.7,5.88,4.37,9.69,10.51,12.15,17.32,3.17,8.8,6,17.69,8.74,26.65,1.23,3.92,2.26,7.92,3.56,11.79,2.44,7.27,4.62,15,3.58,22.75-1.1,8.09-8.36,15-4.09,23.2,6.21,12,23.34,8.15,25.1-4.23" style="fill: #f2f2f2"/>
          <path id="Path_428" data-name="Path 428" d="M848.6,1024a17.73,17.73,0,0,0,8.7,6.6c10,2.2,17.3-4.07,19.87-12.82,2.2-10-8.53-14.59-15.62-20.33-3.93-3.18-8.13-7.65-9.65-12.52L849,975.72l-8.24-26.42q-2.65-8.49-5.3-17a30.79,30.79,0,0,1-1.7-7c-.44-5.93,1.21-11,3.49-16.4,2-4.64,3.33-9.41.7-14.12-6.63-11.87-23.94-7.24-25,5.58" style="fill: #f2f2f2"/>
        </g>
        <path id="Path_429" data-name="Path 429" d="M851.29,1027.74l-1.6,4.26-3.41,4-4.63,2.85-4.87.2-4.41-1-3.43-2.28-2.77-3.69-1.51-4.82.78-6.2,2.74-6.65,1.69-5.8.25-5.3-.71-6.22-1.57-6.41-12.79-40.33-2.92-7.45-4-6.63-5.61-5.71-6.12-4.89-4.09-3.79-3.72-5.4-1.1-7.1.85-5.77,4.43-5.37,7.06-1.44,6.07.19,4.43,1.74,2.57,1.83L814,896l2.66-3.82,4.26-2.76,6.39-1.27,6.8,2.14,5.16,7.07-1,8.59-2.78,7.18-1.78,7.25.22,6.9,2.73,8.89,14,45.08,3.33,8.7,5.15,5.89,7.13,5.51,6.29,4.89,3.89,5.31.25,7.18-2.58,5.33-4.34,4.47-4.5,2.45-6,.22-5.28-1.76Z" style="fill: #f2f2f2"/>
      </g>
      <g id="Group_205" data-name="Group 205">
        <g id="hueso-10">
          <path id="Path_430" data-name="Path 430" d="M1199.62,874.46c-6-2.4-12.84-.82-18.1,4.11a12,12,0,0,0-1.82,16.4c4.53,8.52,14.42,8.34,23.51,9.15,7.32.36,13.91,3.32,19.75,7.6,7.54,5.54,14.81,11.37,22.12,17.24,3.2,2.58,6.28,5.32,9.52,7.8,6.09,4.68,12.22,9.88,15.67,16.9,3.6,7.32,1.4,17.07,9.54,21.53,11.84,6.48,23.92-6.26,18.48-17.52" style="fill: #f2f2f2"/>
          <path id="Path_431" data-name="Path 431" d="M1294.41,956.31a17.75,17.75,0,0,0,10.9.63c9.5-3.73,12.09-13,9.34-21.73-3.73-9.5-15.21-7.35-24.3-8.16-5-.45-11-1.81-15-5l-7.55-6.07-21.57-17.33-13.89-11.16a30.36,30.36,0,0,1-5.32-4.87c-3.67-4.67-5.16-9.85-6.25-15.56-.94-4.95-2.48-9.67-7.29-12.11-12.12-6.15-23.91,7.34-17.62,18.56" style="fill: #f2f2f2"/>
        </g>
        <path id="Path_432" data-name="Path 432" d="M1298.71,957.88l1,4.42-.61,5.2-2.25,5-3.93,2.88-4.23,1.62-4.12,0-4.36-1.51-3.94-3.17-2.81-5.58-1.43-7.05-1.84-5.75-2.74-4.54-4.06-4.76-4.87-4.45-33.11-26.34-6.59-4.55-7-3.26-7.84-1.61-7.81-.64-5.51-.86-6.09-2.41-4.88-5.29-2.51-5.26.69-6.92,5.05-5.13,5.15-3.23,4.64-1,3.16.09-1.57-4.42.07-4.65,2-4.67,4.59-4.62,6.84-2,8.22,3,4,7.66,1.7,7.51,2.57,7,4,5.6,7.22,5.86,36.81,29.58,7.62,5.37,7.55,2,9,.6,7.94.56,6.19,2.24,4.22,5.81.82,5.87-1.1,6.13-2.37,4.54-4.9,3.56-5.36,1.48Z" style="fill: #f2f2f2"/>
      </g>
      <g id="Group_206" data-name="Group 206">
        <g id="hueso-11">
          <path id="Path_433" data-name="Path 433" d="M1746.84,863.34c-3.18-5.68-9.46-8.73-16.65-8.22a12,12,0,0,0-11.75,11.59c-1.85,9.46,5.94,15.56,12.49,21.92,5.45,4.88,8.7,11.34,10.53,18.35,2.37,9,4.34,18.16,6.31,27.32.86,4,1.53,8.09,2.47,12.07,1.78,7.46,3.26,15.37,1.52,23-1.82,8-9.67,14.14-6.16,22.74,5.1,12.5,22.51,10.21,25.38-2" style="fill: #f2f2f2"/>
          <path id="Path_434" data-name="Path 434" d="M1768.84,986.63a17.79,17.79,0,0,0,8.07,7.37c9.73,3.08,17.6-2.49,20.94-11,3.09-9.73-7.17-15.29-13.72-21.65-3.63-3.52-7.41-8.35-8.48-13.34l-2-9.47-5.82-27L1764,894.08a30.73,30.73,0,0,1-1.06-7.14c.1-5.94,2.2-10.89,5-16,2.39-4.45,4.16-9.07,2-14-5.54-12.42-23.19-9.38-25.37,3.3" style="fill: #f2f2f2"/>
        </g>
        <path id="Path_435" data-name="Path 435" d="M1771.19,990.56l-2,4.1-3.76,3.65-4.87,2.43-4.87-.25-4.3-1.4-3.21-2.58-2.43-3.92-1.06-5,1.33-6.1,3.33-6.37,2.2-5.63.73-5.24-.15-6.26-1-6.53-9.1-41.32-2.25-7.68-3.42-7-5.07-6.19-5.66-5.43-3.73-4.14-3.21-5.71-.46-7.17,1.37-5.67,4.9-5,7.15-.8,6,.74,4.26,2.13,2.39,2L1746,856l3-3.57,4.5-2.36,6.47-.7,6.59,2.75,4.49,7.5-1.73,8.47-3.41,6.9-2.43,7.06-.4,6.89,1.92,9.1,9.93,46.17,2.53,9,4.6,6.32,6.6,6.13,5.82,5.44,3.4,5.64-.4,7.18-3.05,5.07-4.72,4.06-4.71,2-6-.32-5.1-2.23Z" style="fill: #f2f2f2"/>
      </g>
      <g id="Group_207" data-name="Group 207">
        <g id="hueso-12">
          <path id="Path_436" data-name="Path 436" d="M1870,582.24c-4.06-5.09-10.74-7.09-17.76-5.43a12,12,0,0,0-9.73,13.33c-.3,9.64,8.37,14.4,15.86,19.62,6.17,3.94,10.42,9.79,13.35,16.42,3.8,8.55,7.2,17.22,10.63,26,1.5,3.83,2.82,7.74,4.39,11.5,3,7.08,5.69,14.65,5.2,22.45-.51,8.15-7.26,15.51-2.41,23.43,7,11.51,23.86,6.45,24.73-6" style="fill: #f2f2f2"/>
          <path id="Path_437" data-name="Path 437" d="M1911.54,700.38a17.78,17.78,0,0,0,9.15,6c10.1,1.48,17-5.29,18.9-14.21,1.48-10.1-9.54-13.94-17-19.16-4.15-2.89-8.66-7.05-10.52-11.8l-3.54-9-10.1-25.76q-3.26-8.29-6.5-16.58a29.83,29.83,0,0,1-2.2-6.88c-.87-5.88.42-11.1,2.3-16.6,1.64-4.78,2.65-9.63-.31-14.13-7.46-11.37-24.4-5.52-24.51,7.34" style="fill: #f2f2f2"/>
        </g>
        <path id="Path_438" data-name="Path 438" d="M1914.49,703.87l-1.28,4.37-3.12,4.21-4.42,3.18-4.84.54-4.48-.69-3.58-2-3-3.48-1.84-4.71.33-6.23,2.26-6.83,1.27-5.91-.13-5.3-1.15-6.15-2-6.28-15.64-39.32-3.45-7.22-4.5-6.33-6-5.29L1852.4,606l-4.35-3.48-4.09-5.12-1.61-7,.44-5.82,4-5.66,6.94-1.94,6.07-.25,4.54,1.42,2.7,1.64.83-4.61,2.37-4,4.06-3.06,6.28-1.73,6.94,1.65,5.64,6.68-.34,8.64-2.26,7.36-1.25,7.36.71,6.87,3.36,8.67,17.24,44,3.95,8.44,5.55,5.5,7.5,5,6.63,4.43,4.25,5,.77,7.14-2.2,5.5-4,4.77-4.32,2.77-6,.65-5.4-1.37Z" style="fill: #f2f2f2"/>
      </g>
      <g id="Group_208" data-name="Group 208">
        <g id="hueso-13">
          <path id="Path_439" data-name="Path 439" d="M1203.26,502.63c-6.12-2.19-12.86-.36-18,4.74a12,12,0,0,0-1.23,16.47c4.83,8.34,14.7,7.82,23.82,8.31,7.32.09,14,2.82,20,6.9,7.73,5.26,15.2,10.83,22.71,16.44,3.3,2.46,6.48,5.09,9.8,7.46,6.25,4.46,12.56,9.45,16.25,16.33,3.86,7.2,2,17,10.3,21.18,12.07,6.07,23.68-7.1,17.85-18.16" style="fill: #f2f2f2"/>
          <path id="Path_440" data-name="Path 440" d="M1300.89,581.07a17.72,17.72,0,0,0,10.92.25c9.36-4.07,11.62-13.44,8.57-22.05-4.07-9.36-15.46-6.8-24.58-7.3-5-.27-11.07-1.42-15.16-4.47l-7.76-5.8-22.17-16.56-14.27-10.66a30.69,30.69,0,0,1-5.49-4.68c-3.84-4.54-5.5-9.66-6.79-15.32-1.13-4.93-2.83-9.58-7.72-11.85-12.33-5.72-23.64,8.18-17,19.17" style="fill: #f2f2f2"/>
        </g>
        <path id="Path_441" data-name="Path 441" d="M1305.24,582.49l1.21,4.39-.43,5.22-2.07,5-3.83,3-4.17,1.78-4.11.16-4.41-1.36-4-3-3-5.48-1.68-7-2-5.69-2.9-4.43-4.22-4.62-5-4.27-34-25.16-6.75-4.31-7.15-3-7.9-1.34-7.83-.36-5.53-.67-6.18-2.19-5.06-5.11-2.7-5.17.44-6.95,4.87-5.3,5-3.41,4.61-1.2,3.15,0-1.72-4.36-.09-4.65,1.84-4.73,4.42-4.79,6.77-2.25L1219,484l4.27,7.52,2,7.44,2.81,6.92,4.23,5.46,7.43,5.6,37.83,28.25,7.8,5.1L1293,552l9,.28,8,.27,6.26,2,4.42,5.66,1,5.83-.88,6.17-2.21,4.63-4.77,3.72-5.31,1.67Z" style="fill: #f2f2f2"/>
      </g>
      <g id="Group_209" data-name="Group 209">
        <g id="hueso-14">
          <path id="Path_442" data-name="Path 442" d="M1726.4,325.15c4.74-4.46,6.19-11.28,4-18.14a12,12,0,0,0-14.09-8.6c-9.63.49-13.66,9.52-18.25,17.41-3.42,6.48-8.9,11.19-15.26,14.66-8.22,4.48-16.58,8.59-25,12.72-3.69,1.81-7.48,3.44-11.1,5.31-6.82,3.53-14.13,6.87-22,7-8.16.15-16-6-23.55-.49-10.9,8-4.47,24.31,8,24.16" style="fill: #f2f2f2"/>
          <path id="Path_443" data-name="Path 443" d="M1612.07,376.29a17.69,17.69,0,0,0-5.19,9.6c-.65,10.19,6.66,16.47,15.72,17.68,10.18.64,13.1-10.66,17.7-18.55,2.54-4.37,6.31-9.21,10.89-11.45l8.7-4.27,24.84-12.18,16-7.84a30.45,30.45,0,0,1,6.68-2.76c5.78-1.34,11.1-.49,16.73.94,4.9,1.25,9.81,1.85,14.06-1.47,10.72-8.37,3.5-24.76-9.33-23.82" style="fill: #f2f2f2"/>
        </g>
        <path id="Path_444" data-name="Path 444" d="M1608.83,379.51l-4.45-.92-4.45-2.76-3.53-4.14-.94-4.79.31-4.51,1.73-3.74,3.23-3.3,4.54-2.22,6.24-.19,7,1.7,6,.78,5.27-.56,6-1.66,6.1-2.53,37.9-18.81,6.92-4,5.93-5,4.79-6.41,3.89-6.8,3.12-4.62,4.76-4.5,6.86-2.18,5.83,0,6,3.55,2.5,6.76.74,6-1,4.64-1.41,2.82,4.66.45,4.18,2,3.38,3.79,2.24,6.12-1.08,7-6.19,6.17-8.64.37-7.52-1.65-7.44-.64-6.78,1.27-8.37,4.06-42.4,20.79-8.1,4.62-5,6-4.36,7.89-3.87,7L1628.7,402l-7.06,1.36-5.65-1.74-5.09-3.6-3.11-4.08-1.14-5.94.93-5.49Z" style="fill: #f2f2f2"/>
      </g>
      <g id="Group_210" data-name="Group 210">
        <g id="hueso-15">
          <path id="Path_445" data-name="Path 445" d="M1238.69,113.71c.67-6.48-2.7-12.58-8.87-16.31a12,12,0,0,0-16.28,2.71c-7,6.67-4.11,16.14-2.42,25.11,1.65,7.14.59,14.29-1.95,21.07-3.28,8.76-6.91,17.34-10.58,26-1.61,3.78-3.41,7.5-4.92,11.29-2.85,7.12-6.2,14.44-12,19.66-6.08,5.46-16.05,6-18.13,15-3,13.16,12.52,21.31,21.88,13" style="fill: #f2f2f2"/>
          <path id="Path_446" data-name="Path 446" d="M1185.68,227.18a17.75,17.75,0,0,0,2.35,10.66c6.18,8.13,15.82,8.1,23.45,3.08,8.13-6.17,2.94-16.63,1.25-25.6-.93-5-1.24-11.1.75-15.79l3.79-8.92,10.82-25.47,7-16.39a31,31,0,0,1,3.25-6.45c3.5-4.8,8.07-7.63,13.27-10.23,4.52-2.27,8.63-5,9.67-10.31,2.63-13.34-13.55-21-22.64-11.92" style="fill: #f2f2f2"/>
        </g>
        <path id="Path_447" data-name="Path 447" d="M1185.34,231.74l-4,2.21-5.17.83-5.38-.83-3.84-3-2.71-3.62-1.14-4,.28-4.6,2-4.66,4.6-4.22,6.4-3.29,5-3.33,3.62-3.87,3.48-5.2,3-5.9,16.36-39,2.59-7.58,1.21-7.66-.58-8-1.5-7.69-.66-5.53.66-6.52,3.76-6.13,4.38-3.85,6.85-1.22,6.31,3.47,4.5,4.07,2.26,4.19.77,3.06,3.82-2.7,4.5-1.2,5,.66,5.7,3.16,3.8,6-.65,8.72-6.29,5.93-6.77,3.67-6,4.38-4.3,5.4-3.67,8.54L1215,196l-3.1,8.79.12,7.82,1.87,8.82,1.62,7.8-.47,6.56-4.45,5.64-5.42,2.39-6.2.6-5-1.05-4.75-3.75-2.88-4.75Z" style="fill: #f2f2f2"/>
      </g>
      <path id="Path_448" data-name="Path 448" d="M872.46,335.1l-1.58,4.26-3.4,4-4.63,2.87-4.87.2-4.42-1-3.43-2.27-2.78-3.69-1.51-4.82.76-6.2,2.73-6.66L851,316l.24-5.29-.72-6.22-1.58-6.4-12.86-40.31-3-7.45-4-6.62-5.62-5.7-6.14-4.88-4.1-3.78-3.72-5.39-1.12-7.1.84-5.77,4.42-5.38,7.06-1.45,6.07.18,4.43,1.73L833.8,208l1.15-4.54,2.65-3.83,4.26-2.76,6.38-1.29,6.81,2.13,5.16,7-.94,8.6-2.77,7.18-1.76,7.26.23,6.9,2.75,8.88,14.14,45.06,3.34,8.7,5.16,5.87,7.14,5.5,6.3,4.88,3.9,5.3L898,326l-2.58,5.33-4.32,4.48-4.5,2.46-6.05.23-5.28-1.75Z" style="fill: #f2f2f2"/>
      <g id="Group_211" data-name="Group 211">
        <g id="hueso-16">
          <path id="Path_449" data-name="Path 449" d="M837.36,211.35c-3.69-5.36-10.23-7.81-17.34-6.65a12,12,0,0,0-10.62,12.64c-1,9.59,7.35,14.94,14.46,20.67,5.88,4.36,9.72,10.48,12.19,17.3,3.19,8.8,6,17.67,8.81,26.62,1.23,3.92,2.27,7.92,3.58,11.78,2.46,7.27,4.66,15,3.63,22.75-1.07,8.1-8.31,15-4,23.21,6.23,12,23.35,8.08,25.09-4.3" style="fill: #f2f2f2"/>
          <path id="Path_450" data-name="Path 450" d="M870.68,332.08a17.78,17.78,0,0,0,8.72,6.58c10,2.18,17.29-4.11,19.84-12.87,2.17-10-8.56-14.56-15.67-20.29-3.94-3.17-8.15-7.63-9.68-12.5L871,283.75l-8.3-26.39-5.34-17a30.32,30.32,0,0,1-1.72-7c-.46-5.93,1.19-11.05,3.45-16.4,2-4.65,3.31-9.42.67-14.12-6.66-11.86-24-7.2-25,5.63" style="fill: #f2f2f2"/>
        </g>
        <path id="Path_451" data-name="Path 451" d="M873.39,335.77,871.8,340l-3.4,4-4.63,2.86-4.87.21-4.41-1-3.44-2.27-2.78-3.68-1.51-4.83.76-6.2,2.73-6.65,1.67-5.81.24-5.29-.73-6.22-1.58-6.4L837,258.44,834,251l-4-6.62-5.62-5.7-6.14-4.87L814.1,230l-3.73-5.39-1.11-7.1.84-5.77,4.41-5.38,7.06-1.45,6.07.17,4.43,1.73,2.57,1.82,1.15-4.53,2.65-3.84,4.26-2.76,6.38-1.29,6.81,2.12,5.17,7.06-.94,8.59-2.76,7.19-1.76,7.25.24,6.9,2.75,8.89,14.16,45,3.35,8.7,5.16,5.88,7.15,5.49,6.3,4.88,3.9,5.3.27,7.18L896.31,332,892,336.51l-4.5,2.46-6,.23-5.29-1.74Z" style="fill: #f2f2f2"/>
      </g>
      <path id="Path_452" data-name="Path 452" d="M1855.31,204.69l2.83,3.57,1.65,5,.07,5.44-2.34,4.27-3.14,3.27-3.72,1.76-4.59.48-4.91-1.2-4.91-3.85-4.29-5.78-4.1-4.43-4.41-2.95-5.7-2.59-6.3-2-41.16-9.8-7.89-1.33-7.76.05-7.79,1.87-7.34,2.73-5.36,1.55-6.54.41-6.65-2.71-4.51-3.7-2.32-6.56,2.4-6.79,3.29-5.1,3.77-2.91,2.89-1.26-3.29-3.33-1.91-4.25-.17-5.07,2.19-6.13,5.35-4.73,8.7-.78,6.88,5.24,4.72,6.08,5.3,5.26,6,3.36,9,2.24,45.88,11.16,9.17,1.63,7.7-1.38,8.4-3.28,7.43-2.87,6.56-.6,6.28,3.48,3.23,5,1.6,6-.21,5.12-2.93,5.3-4.22,3.62Z" style="fill: #f2f2f2"/>
      <path id="Path_453" data-name="Path 453" d="M1641.23,683.39l4.42,1.09,4.34,2.93,3.37,4.28.76,4.81-.49,4.5-1.87,3.67-3.35,3.18-4.62,2-6.24-.06-6.92-2-6-1-5.29.35-6.1,1.43-6.19,2.3-38.59,17.35-7.06,3.77-6.12,4.77-5,6.24-4.15,6.64-3.29,4.5-4.94,4.32-6.93,1.91-5.83-.18-5.84-3.78-2.24-6.85-.51-6,1.21-4.6,1.52-2.76-4.64-.63-4.1-2.2-3.23-3.92-2-6.2,1.35-7,6.42-5.94,8.65,0,7.45,1.94,7.41.93,6.83-1,8.51-3.73,43.16-19.16,8.26-4.31,5.26-5.8,4.65-7.71,4.13-6.82,4.83-4.47,7.1-1.08,5.59,1.95,4.94,3.79,3,4.19.91,6-1.13,5.45Z" style="fill: #f2f2f2"/>
      <g id="hueso-17">
        <path id="Path_454" data-name="Path 454" d="M1521.6,733.24c-4.91,4.27-6.61,11-4.65,18a12,12,0,0,0,13.76,9.13c9.64-.12,14-9,18.9-16.7,3.66-6.34,9.32-10.84,15.8-14.06,8.38-4.17,16.89-8,25.46-11.76,3.76-1.67,7.61-3.15,11.3-4.89,6.94-3.27,14.38-6.33,22.19-6.18,8.17.15,15.82,6.57,23.52,1.38,11.19-7.55,5.4-24.12-7.11-24.44" style="fill: #f2f2f2"/>
        <path id="Path_455" data-name="Path 455" d="M1637.79,686.49a17.72,17.72,0,0,0,5.56-9.4c1-10.15-6-16.71-15-18.26-10.16-1-13.5,10.15-18.39,17.86-2.71,4.27-6.66,9-11.32,11l-8.86,3.94-25.29,11.22-16.28,7.23a30.34,30.34,0,0,1-6.78,2.5c-5.83,1.12-11.11.07-16.68-1.58-4.84-1.43-9.73-2.22-14.11.94-11,7.95-4.44,24.61,8.42,24.16" style="fill: #f2f2f2"/>
      </g>
    </g>
    <g id="circulos">
      <path id="Path_456" data-name="Path 456" d="M777.65,987.77c-8.68,3.22-10.49,15.93-1.24,19.68A10.47,10.47,0,0,0,789.68,993C787.58,988.88,782.15,986.1,777.65,987.77Z" style="fill: #f2f2f2"/>
      <path id="Path_457" data-name="Path 457" d="M77.82,660.48c-14.53,5.39-17.57,26.68-2.07,33A17.53,17.53,0,0,0,98,669.28C94.47,662.35,85.38,657.68,77.82,660.48Z" style="fill: #f2f2f2"/>
      <path id="Path_458" data-name="Path 458" d="M366.59,429.7c-14.53,5.4-17.57,26.68-2.07,33a17.53,17.53,0,0,0,22.23-24.17C383.24,431.57,374.15,426.9,366.59,429.7Z" style="fill: #f2f2f2"/>
      <path id="Path_459" data-name="Path 459" d="M606.37,586.85c-14.53,5.39-17.57,26.68-2.07,33a17.53,17.53,0,0,0,22.23-24.17C623,588.71,613.92,584.05,606.37,586.85Z" style="fill: #f2f2f2"/>
      <path id="Path_460" data-name="Path 460" d="M271,500.19c-8.68,3.21-10.49,15.92-1.24,19.67a10.46,10.46,0,0,0,13.27-14.43C281,501.3,275.53,498.51,271,500.19Z" style="fill: #f2f2f2"/>
      <path id="Path_461" data-name="Path 461" d="M524.27,627.69c-8.68,3.22-10.49,15.93-1.24,19.68a10.46,10.46,0,0,0,13.27-14.43C534.21,628.81,528.78,626,524.27,627.69Z" style="fill: #f2f2f2"/>
      <path id="Path_462" data-name="Path 462" d="M813,670.8c-8.67,3.21-10.49,15.92-1.23,19.67A10.46,10.46,0,0,0,825,676C822.94,671.91,817.51,669.12,813,670.8Z" style="fill: #f2f2f2"/>
      <path id="Path_463" data-name="Path 463" d="M485.53,549c-6.08,2.25-7.35,11.17-.86,13.8A7.35,7.35,0,0,0,494,552.64C492.5,549.73,488.7,547.78,485.53,549Z" style="fill: #f2f2f2"/>
      <path id="Path_464" data-name="Path 464" d="M895.76,410c-14.53,5.39-17.57,26.67-2.07,33a17.53,17.53,0,0,0,22.23-24.17C912.41,411.82,903.31,407.15,895.76,410Z" style="fill: #f2f2f2"/>
      <path id="Path_465" data-name="Path 465" d="M849.53,457.08c-8.67,3.22-10.48,15.93-1.23,19.68a10.47,10.47,0,0,0,13.27-14.43C859.47,458.2,854,455.41,849.53,457.08Z" style="fill: #f2f2f2"/>
      <path id="Path_466" data-name="Path 466" d="M789.28,423.24c-6.08,2.26-7.35,11.17-.86,13.8a7.34,7.34,0,0,0,9.31-10.12C796.26,424,792.45,422.07,789.28,423.24Z" style="fill: #f2f2f2"/>
      <path id="Path_467" data-name="Path 467" d="M934.1,608.21c-6.09,2.26-7.36,11.18-.87,13.8a7.34,7.34,0,0,0,9.31-10.12C941.07,609,937.26,607,934.1,608.21Z" style="fill: #f2f2f2"/>
      <path id="Path_468" data-name="Path 468" d="M69.88,539.7c-8.68,3.21-10.49,15.92-1.24,19.67a10.46,10.46,0,0,0,13.27-14.43C79.82,540.81,74.39,538,69.88,539.7Z" style="fill: #f2f2f2"/>
      <path id="Path_469" data-name="Path 469" d="M5.18,524.71c-6.08,2.26-7.35,11.17-.87,13.8a7.54,7.54,0,0,0,8.17-1.84,7.52,7.52,0,0,0,1.14-8.28C12.15,525.49,8.34,523.53,5.18,524.71Z" style="fill: #f2f2f2"/>
      <path id="Path_470" data-name="Path 470" d="M132.69,709.68c-6.09,2.26-7.36,11.17-.87,13.8a7.34,7.34,0,0,0,9.31-10.12C139.66,710.46,135.85,708.51,132.69,709.68Z" style="fill: #f2f2f2"/>
      <path id="Path_471" data-name="Path 471" d="M1089.47,660.48c-14.53,5.39-17.57,26.68-2.07,33a17.54,17.54,0,0,0,22.24-24.17C1106.12,662.35,1097,657.68,1089.47,660.48Z" style="fill: #f2f2f2"/>
      <path id="Path_472" data-name="Path 472" d="M1357.6,429.7c-14.53,5.4-17.57,26.68-2.07,33a17.53,17.53,0,0,0,22.23-24.17C1374.25,431.57,1365.15,426.9,1357.6,429.7Z" style="fill: #f2f2f2"/>
      <path id="Path_473" data-name="Path 473" d="M1735.39,555.42c-14.53,5.39-17.56,26.68-2.07,33a17.53,17.53,0,0,0,22.23-24.17C1752,557.29,1743,552.62,1735.39,555.42Z" style="fill: #f2f2f2"/>
      <path id="Path_474" data-name="Path 474" d="M1342.14,500.19c-8.67,3.21-10.48,15.92-1.23,19.67a10.46,10.46,0,0,0,13.27-14.43C1352.08,501.3,1346.66,498.51,1342.14,500.19Z" style="fill: #f2f2f2"/>
      <path id="Path_475" data-name="Path 475" d="M1672.67,596.27c-8.67,3.21-10.48,15.92-1.23,19.67a10.46,10.46,0,0,0,13.27-14.42C1682.61,597.38,1677.18,594.59,1672.67,596.27Z" style="fill: #f2f2f2"/>
      <path id="Path_476" data-name="Path 476" d="M1832.51,670.8c-8.68,3.21-10.49,15.92-1.24,19.67A10.46,10.46,0,0,0,1844.54,676C1842.44,671.91,1837,669.12,1832.51,670.8Z" style="fill: #f2f2f2"/>
      <path id="Path_477" data-name="Path 477" d="M1506.28,581.28c-6.08,2.26-7.35,11.17-.87,13.8a7.34,7.34,0,0,0,9.31-10.12C1513.26,582.06,1509.44,580.11,1506.28,581.28Z" style="fill: #f2f2f2"/>
      <path id="Path_478" data-name="Path 478" d="M1895.22,410c-14.52,5.39-17.56,26.67-2.06,33a17.53,17.53,0,0,0,22.23-24.17C1911.88,411.82,1902.78,407.15,1895.22,410Z" style="fill: #f2f2f2"/>
      <path id="Path_479" data-name="Path 479" d="M1860.34,457.08c-8.67,3.22-10.48,15.93-1.23,19.68a10.46,10.46,0,0,0,13.27-14.43C1870.28,458.2,1864.85,455.41,1860.34,457.08Z" style="fill: #f2f2f2"/>
      <path id="Path_480" data-name="Path 480" d="M1814.51,423.24c-6.09,2.26-7.36,11.17-.87,13.8a7.34,7.34,0,0,0,9.31-10.12C1821.48,424,1817.67,422.07,1814.51,423.24Z" style="fill: #f2f2f2"/>
      <path id="Path_481" data-name="Path 481" d="M1925,608.21c-6.08,2.26-7.35,11.18-.86,13.8a7.34,7.34,0,0,0,9.3-10.12C1931.92,609,1928.11,607,1925,608.21Z" style="fill: #f2f2f2"/>
      <path id="Path_482" data-name="Path 482" d="M1078.16,539.7c-8.67,3.21-10.48,15.92-1.23,19.67a10.47,10.47,0,0,0,13.27-14.43C1088.1,540.81,1082.67,538,1078.16,539.7Z" style="fill: #f2f2f2"/>
      <path id="Path_483" data-name="Path 483" d="M993,524.71c-6.08,2.26-7.35,11.17-.86,13.8a7.35,7.35,0,0,0,9.31-10.12C999.93,525.49,996.13,523.53,993,524.71Z" style="fill: #f2f2f2"/>
      <path id="Path_484" data-name="Path 484" d="M1160.14,709.68c-6.08,2.26-7.35,11.17-.86,13.8a7.34,7.34,0,0,0,9.31-10.12C1167.12,710.46,1163.31,708.51,1160.14,709.68Z" style="fill: #f2f2f2"/>
      <path id="Path_485" data-name="Path 485" d="M77.82,287.83c-14.53,5.4-17.57,26.68-2.07,33A17.53,17.53,0,0,0,98,296.63C94.47,289.7,85.38,285,77.82,287.83Z" style="fill: #f2f2f2"/>
      <path id="Path_486" data-name="Path 486" d="M366.59,57.06c-14.53,5.4-17.57,26.68-2.07,33a17.53,17.53,0,0,0,22.23-24.17C383.24,58.93,374.15,54.26,366.59,57.06Z" style="fill: #f2f2f2"/>
      <path id="Path_487" data-name="Path 487" d="M579.2,290.53c-14.53,5.39-17.56,26.68-2.06,33a17.53,17.53,0,0,0,22.23-24.17C595.85,292.39,586.76,287.72,579.2,290.53Z" style="fill: #f2f2f2"/>
      <path id="Path_488" data-name="Path 488" d="M271,127.54c-8.68,3.21-10.49,15.92-1.24,19.67a10.46,10.46,0,0,0,13.27-14.43C281,128.65,275.53,125.87,271,127.54Z" style="fill: #f2f2f2"/>
      <path id="Path_489" data-name="Path 489" d="M497.16,331.37c-8.67,3.22-10.48,15.93-1.23,19.68a10.47,10.47,0,0,0,13.27-14.43C507.1,332.49,501.67,329.7,497.16,331.37Z" style="fill: #f2f2f2"/>
      <path id="Path_490" data-name="Path 490" d="M813,298.15c-8.67,3.22-10.49,15.92-1.23,19.67A10.46,10.46,0,0,0,825,303.4C822.94,299.26,817.51,296.48,813,298.15Z" style="fill: #f2f2f2"/>
      <path id="Path_491" data-name="Path 491" d="M439.62,240.06c-6.09,2.26-7.36,11.17-.87,13.8a7.34,7.34,0,0,0,9.31-10.12C446.59,240.84,442.78,238.89,439.62,240.06Z" style="fill: #f2f2f2"/>
      <path id="Path_492" data-name="Path 492" d="M693.92,11.08c-6.08,2.26-7.35,11.18-.86,13.8a7.34,7.34,0,0,0,9.3-10.12C700.89,11.87,697.09,9.91,693.92,11.08Z" style="fill: #f2f2f2"/>
      <path id="Path_493" data-name="Path 493" d="M895.76,37.31c-14.53,5.39-17.57,26.68-2.07,33A17.53,17.53,0,0,0,915.92,46.1C912.41,39.17,903.31,34.5,895.76,37.31Z" style="fill: #f2f2f2"/>
      <path id="Path_494" data-name="Path 494" d="M849.53,84.44c-8.67,3.22-10.48,15.92-1.23,19.68a10.47,10.47,0,0,0,13.27-14.43C859.47,85.55,854,82.76,849.53,84.44Z" style="fill: #f2f2f2"/>
      <path id="Path_495" data-name="Path 495" d="M789.28,50.59c-6.08,2.26-7.35,11.17-.86,13.8a7.34,7.34,0,0,0,9.31-10.12C796.26,51.37,792.45,49.42,789.28,50.59Z" style="fill: #f2f2f2"/>
      <path id="Path_496" data-name="Path 496" d="M934.1,235.57c-6.09,2.26-7.36,11.17-.87,13.8a7.34,7.34,0,0,0,9.31-10.12C941.07,236.35,937.26,234.4,934.1,235.57Z" style="fill: #f2f2f2"/>
      <path id="Path_497" data-name="Path 497" d="M69.88,167.05c-8.68,3.22-10.49,15.92-1.24,19.67A10.46,10.46,0,0,0,81.91,172.3C79.82,168.16,74.39,165.38,69.88,167.05Z" style="fill: #f2f2f2"/>
      <path id="Path_498" data-name="Path 498" d="M5.18,152.06c-6.08,2.26-7.35,11.17-.87,13.8A7.54,7.54,0,0,0,12.48,164a7.54,7.54,0,0,0,1.14-8.29C12.15,152.84,8.34,150.89,5.18,152.06Z" style="fill: #f2f2f2"/>
      <path id="Path_499" data-name="Path 499" d="M132.69,337c-6.09,2.25-7.36,11.17-.87,13.8a7.34,7.34,0,0,0,9.31-10.12C139.66,337.82,135.85,335.86,132.69,337Z" style="fill: #f2f2f2"/>
      <path id="Path_500" data-name="Path 500" d="M1089.47,287.83c-14.53,5.4-17.57,26.68-2.07,33a17.54,17.54,0,0,0,22.24-24.17C1106.12,289.7,1097,285,1089.47,287.83Z" style="fill: #f2f2f2"/>
      <path id="Path_501" data-name="Path 501" d="M1357.6,57.06c-14.53,5.4-17.57,26.68-2.07,33a17.53,17.53,0,0,0,22.23-24.17C1374.25,58.93,1365.15,54.26,1357.6,57.06Z" style="fill: #f2f2f2"/>
      <path id="Path_502" data-name="Path 502" d="M1675.23,214.2c-14.53,5.39-17.57,26.68-2.07,33A17.53,17.53,0,0,0,1695.39,223C1691.88,216.07,1682.79,211.4,1675.23,214.2Z" style="fill: #f2f2f2"/>
      <path id="Path_503" data-name="Path 503" d="M1428.17,160.76c-8.67,3.22-10.48,15.93-1.23,19.68A10.47,10.47,0,0,0,1440.21,166C1438.11,161.88,1432.69,159.09,1428.17,160.76Z" style="fill: #f2f2f2"/>
      <path id="Path_504" data-name="Path 504" d="M1513,255.05c-8.67,3.22-10.49,15.92-1.24,19.67a10.46,10.46,0,0,0,13.27-14.42C1523,256.16,1517.54,253.37,1513,255.05Z" style="fill: #f2f2f2"/>
      <path id="Path_505" data-name="Path 505" d="M1832.51,298.15c-8.68,3.22-10.49,15.92-1.24,19.67a10.46,10.46,0,0,0,13.27-14.42C1842.44,299.26,1837,296.48,1832.51,298.15Z" style="fill: #f2f2f2"/>
      <path id="Path_506" data-name="Path 506" d="M1427.4,240.06c-6.09,2.26-7.36,11.17-.87,13.8a7.34,7.34,0,0,0,9.31-10.12C1434.37,240.84,1430.56,238.89,1427.4,240.06Z" style="fill: #f2f2f2"/>
      <path id="Path_507" data-name="Path 507" d="M1895.22,37.31c-14.52,5.39-17.56,26.68-2.06,33a17.53,17.53,0,0,0,22.23-24.17C1911.88,39.17,1902.78,34.5,1895.22,37.31Z" style="fill: #f2f2f2"/>
      <path id="Path_508" data-name="Path 508" d="M1860.34,84.44c-8.67,3.22-10.48,15.92-1.23,19.68a10.47,10.47,0,0,0,13.27-14.43C1870.28,85.55,1864.85,82.76,1860.34,84.44Z" style="fill: #f2f2f2"/>
      <path id="Path_509" data-name="Path 509" d="M1814.51,50.59c-6.09,2.26-7.36,11.17-.87,13.8A7.34,7.34,0,0,0,1823,54.27C1821.48,51.37,1817.67,49.42,1814.51,50.59Z" style="fill: #f2f2f2"/>
      <path id="Path_510" data-name="Path 510" d="M1925,235.57c-6.08,2.26-7.35,11.17-.86,13.8a7.34,7.34,0,0,0,9.3-10.12C1931.92,236.35,1928.11,234.4,1925,235.57Z" style="fill: #f2f2f2"/>
      <path id="Path_511" data-name="Path 511" d="M1078.16,167.05c-8.67,3.22-10.48,15.92-1.23,19.67a10.46,10.46,0,0,0,13.27-14.42C1088.1,168.16,1082.67,165.38,1078.16,167.05Z" style="fill: #f2f2f2"/>
      <path id="Path_512" data-name="Path 512" d="M993,152.06c-6.08,2.26-7.35,11.17-.86,13.8a7.34,7.34,0,0,0,9.31-10.12C999.93,152.84,996.13,150.89,993,152.06Z" style="fill: #f2f2f2"/>
      <path id="Path_513" data-name="Path 513" d="M1160.14,337c-6.08,2.25-7.35,11.17-.86,13.8a7.35,7.35,0,0,0,9.31-10.12C1167.12,337.82,1163.31,335.86,1160.14,337Z" style="fill: #f2f2f2"/>
      <path id="Path_514" data-name="Path 514" d="M77.82,1030.43c-14.53,5.39-17.57,26.68-2.07,33A17.53,17.53,0,0,0,98,1039.23C94.47,1032.3,85.38,1027.63,77.82,1030.43Z" style="fill: #f2f2f2"/>
      <path id="Path_515" data-name="Path 515" d="M366.59,799.66c-14.53,5.39-17.57,26.68-2.07,33a17.53,17.53,0,0,0,22.23-24.17C383.24,801.53,374.15,796.86,366.59,799.66Z" style="fill: #f2f2f2"/>
      <path id="Path_516" data-name="Path 516" d="M582.74,978.35c-14.53,5.39-17.56,26.68-2.06,33a17.53,17.53,0,0,0,22.23-24.17C599.39,980.22,590.3,975.55,582.74,978.35Z" style="fill: #f2f2f2"/>
      <path id="Path_517" data-name="Path 517" d="M271,870.14c-8.68,3.22-10.49,15.92-1.24,19.67a10.46,10.46,0,0,0,13.27-14.42C281,871.25,275.53,868.46,271,870.14Z" style="fill: #f2f2f2"/>
      <path id="Path_518" data-name="Path 518" d="M500.7,1019.2c-8.68,3.22-10.49,15.92-1.24,19.67a10.46,10.46,0,0,0,13.27-14.42C510.64,1020.31,505.21,1017.52,500.7,1019.2Z" style="fill: #f2f2f2"/>
      <path id="Path_519" data-name="Path 519" d="M485.53,907.23c-6.08,2.26-7.35,11.17-.86,13.8a7.34,7.34,0,0,0,9.3-10.12C492.5,908,488.7,906.06,485.53,907.23Z" style="fill: #f2f2f2"/>
      <path id="Path_520" data-name="Path 520" d="M895.76,779.91c-14.53,5.39-17.57,26.68-2.07,33a17.53,17.53,0,0,0,22.23-24.17C912.41,781.77,903.31,777.1,895.76,779.91Z" style="fill: #f2f2f2"/>
      <path id="Path_521" data-name="Path 521" d="M849.53,827c-8.67,3.22-10.48,15.92-1.23,19.67a10.46,10.46,0,0,0,13.27-14.42C859.47,828.15,854,825.36,849.53,827Z" style="fill: #f2f2f2"/>
      <path id="Path_522" data-name="Path 522" d="M789.28,793.19c-6.08,2.26-7.35,11.17-.86,13.8a7.34,7.34,0,0,0,9.31-10.12C796.26,794,792.45,792,789.28,793.19Z" style="fill: #f2f2f2"/>
      <path id="Path_523" data-name="Path 523" d="M934.1,953c-6.09,2.25-7.36,11.17-.87,13.8a7.35,7.35,0,0,0,9.31-10.12C941.07,953.81,937.26,951.85,934.1,953Z" style="fill: #f2f2f2"/>
      <path id="Path_524" data-name="Path 524" d="M69.88,909.65c-8.68,3.22-10.49,15.92-1.24,19.67A10.46,10.46,0,0,0,81.91,914.9C79.82,910.76,74.39,908,69.88,909.65Z" style="fill: #f2f2f2"/>
      <path id="Path_525" data-name="Path 525" d="M5.18,894.66c-6.08,2.26-7.35,11.17-.87,13.8a7.54,7.54,0,0,0,8.17-1.84,7.52,7.52,0,0,0,1.14-8.28C12.15,895.44,8.34,893.49,5.18,894.66Z" style="fill: #f2f2f2"/>
      <path id="Path_526" data-name="Path 526" d="M132.69,1079.64c-6.09,2.25-7.36,11.17-.87,13.8a7.35,7.35,0,0,0,9.31-10.13C139.66,1080.42,135.85,1078.46,132.69,1079.64Z" style="fill: #f2f2f2"/>
      <path id="Path_527" data-name="Path 527" d="M1072.93,984.64c-14.53,5.39-17.57,26.68-2.07,33a17.54,17.54,0,0,0,22.24-24.17C1089.58,986.5,1080.49,981.83,1072.93,984.64Z" style="fill: #f2f2f2"/>
      <path id="Path_528" data-name="Path 528" d="M1357.6,799.66c-14.53,5.39-17.57,26.68-2.07,33a17.53,17.53,0,0,0,22.23-24.17C1374.25,801.53,1365.15,796.86,1357.6,799.66Z" style="fill: #f2f2f2"/>
      <path id="Path_529" data-name="Path 529" d="M1544.22,947.82c-14.53,5.39-17.57,26.68-2.07,33a17.53,17.53,0,0,0,22.23-24.17C1560.87,949.69,1551.78,945,1544.22,947.82Z" style="fill: #f2f2f2"/>
      <path id="Path_530" data-name="Path 530" d="M1342.14,870.14c-8.67,3.22-10.48,15.92-1.23,19.67a10.46,10.46,0,0,0,13.27-14.42C1352.08,871.25,1346.66,868.46,1342.14,870.14Z" style="fill: #f2f2f2"/>
      <path id="Path_531" data-name="Path 531" d="M1427,980.59c-8.68,3.21-10.49,15.92-1.24,19.67A10.46,10.46,0,0,0,1439,985.83C1436.93,981.7,1431.51,978.91,1427,980.59Z" style="fill: #f2f2f2"/>
      <path id="Path_532" data-name="Path 532" d="M1832.51,1040.75c-8.68,3.22-10.49,15.92-1.24,19.67a10.46,10.46,0,0,0,13.27-14.42C1842.44,1041.86,1837,1039.07,1832.51,1040.75Z" style="fill: #f2f2f2"/>
      <path id="Path_533" data-name="Path 533" d="M1389.72,1060.78c-6.08,2.26-7.35,11.17-.86,13.8a7.34,7.34,0,0,0,9.31-10.12C1396.7,1061.56,1392.89,1059.61,1389.72,1060.78Z" style="fill: #f2f2f2"/>
      <path id="Path_534" data-name="Path 534" d="M1895.22,779.91c-14.52,5.39-17.56,26.68-2.06,33a17.53,17.53,0,0,0,22.23-24.17C1911.88,781.77,1902.78,777.1,1895.22,779.91Z" style="fill: #f2f2f2"/>
      <path id="Path_535" data-name="Path 535" d="M1860.34,827c-8.67,3.22-10.48,15.92-1.23,19.67a10.46,10.46,0,0,0,13.27-14.42C1870.28,828.15,1864.85,825.36,1860.34,827Z" style="fill: #f2f2f2"/>
      <path id="Path_536" data-name="Path 536" d="M1814.51,793.19c-6.09,2.26-7.36,11.17-.87,13.8a7.34,7.34,0,0,0,9.31-10.12C1821.48,794,1817.67,792,1814.51,793.19Z" style="fill: #f2f2f2"/>
      <path id="Path_537" data-name="Path 537" d="M1934.83,1069.76c-6.08,2.26-7.36,11.17-.87,13.8a7.34,7.34,0,0,0,9.31-10.12C1941.8,1070.54,1938,1068.59,1934.83,1069.76Z" style="fill: #f2f2f2"/>
      <path id="Path_538" data-name="Path 538" d="M1078.16,909.65c-8.67,3.22-10.48,15.92-1.23,19.67a10.46,10.46,0,0,0,13.27-14.42C1088.1,910.76,1082.67,908,1078.16,909.65Z" style="fill: #f2f2f2"/>
      <path id="Path_539" data-name="Path 539" d="M902.57,1082.05c-8.67,3.22-10.49,15.93-1.24,19.68a10.46,10.46,0,0,0,13.27-14.43C912.5,1083.17,907.07,1080.38,902.57,1082.05Z" style="fill: #f2f2f2"/>
      <path id="Path_540" data-name="Path 540" d="M993,894.66c-6.08,2.26-7.35,11.17-.86,13.8a7.35,7.35,0,0,0,9.31-10.12C999.93,895.44,996.13,893.49,993,894.66Z" style="fill: #f2f2f2"/>
      <path id="Path_541" data-name="Path 541" d="M1114.23,1079.64c-6.09,2.25-7.36,11.17-.87,13.8a7.35,7.35,0,0,0,9.31-10.13C1121.2,1080.42,1117.39,1078.46,1114.23,1079.64Z" style="fill: #f2f2f2"/>
    </g>
  </g>
</svg>
