<svg id="Layer_1" data-name="Layer 1" xmlns="http://www.w3.org/2000/svg" viewBox="0 0 351 282">
  <title>border_icon_2</title>
  <g id="Path_3629" data-name="Path 3629">
    <path d="M39.75,46.5,255.33,20.25a36,36,0,0,1,36,36L315.75,240.5a36,36,0,0,1-36,36l-240-36a36,36,0,0,1-36-36V82.5A36,36,0,0,1,39.75,46.5Z" style="fill: none"/>
    <path d="M255.44,22.25,40,48.49h-.24a34,34,0,0,0-34,34v122a34,34,0,0,0,34,34h.15l.14,0,239.85,36a34,34,0,0,0,33.86-33.87L289.34,56.51l0-.13v-.13a33.92,33.92,0,0,0-9.95-24,33.88,33.88,0,0,0-23.93-10m-.12-2a36,36,0,0,1,36,36L315.75,240.5a36,36,0,0,1-36,36l-240-36a36,36,0,0,1-36-36V82.5a36,36,0,0,1,36-36Z" style="fill: #707070"/>
  </g>
  <rect width="351" height="282" style="fill: none"/>
</svg>
