<?xml version="1.0" encoding="utf-8"?>
<!-- Generator: Adobe Illustrator 23.0.0, SVG Export Plug-In . SVG Version: 6.00 Build 0)  -->
<svg version="1.1" id="Layer_1" xmlns="http://www.w3.org/2000/svg" xmlns:xlink="http://www.w3.org/1999/xlink" x="0px" y="0px"
	 viewBox="0 0 835 664" style="enable-background:new 0 0 835 664;" xml:space="preserve">
<style type="text/css">
	.st0{fill:#FFEEA4;}
	.st1{fill:#FEE55C;}
	.st2{fill:#4B4B4B;}
	.st3{fill:#FFC205;}
	.st4{opacity:0.11;fill:#001957;enable-background:new    ;}
	.st5{fill:#D4315A;}
	.st6{opacity:0.32;fill:#FFFFFF;enable-background:new    ;}
	.st7{opacity:0.21;fill:#000255;enable-background:new    ;}
	.st8{opacity:0.2;fill:#191919;enable-background:new    ;}
	.st9{fill:#FFFFFF;}
	.st10{fill:#CECECE;}
	.st11{fill:#191919;}
	.st12{opacity:0.42;fill:#D9A848;enable-background:new    ;}
	.st13{fill:#9E9E9E;}
	.st14{opacity:0.2;fill:#CECECE;enable-background:new    ;}
	.st15{opacity:0.26;}
	.st16{fill:#AA544E;}
	.st17{fill:#F2F0EF;}
</style>
<title>hero</title>
<g id="Group_1538">
	<path id="Path_3959" class="st0" d="M700.1,274.6c-44.2-112-174.7-44.9-197.8-109.8S377.9-75.8,228.7,50.6s-55.9,295.1,15.1,398.1
		S803.2,536.1,700.1,274.6z"/>
	<g id="Group_1419">
		<path id="Path_3960" class="st1" d="M329.7,213c0.3-1.8,0.9-3.5,1.9-5.1c5.1-8.2,15.9-8,21.5-0.6c1.5,2,2.5,4.4,2.8,6.9
			c0.3,2.5-0.4,5.1-2,7.1c-1.5,1.8-4.1,2.1-5.9,0.7c-0.8-0.6-1.4-1.4-1.9-2.3c-0.4-0.9-1.1-1.7-2-2.2c-0.4-0.2-0.9-0.2-1.3-0.2
			c-1.4,0-2.7,0.8-3.3,2.1c-0.4,1.1-1.2,2.1-2.3,2.7c-0.8,0.3-1.7,0.3-2.5,0.1C330.4,221,329.1,217,329.7,213z"/>
		<g id="Group_1418">
			<g id="Group_1417">
				<path id="Path_3961" class="st1" d="M335.6,192c-3.6,1.3-4.4,6.6-0.5,8.2c2.2,0.9,4.8-0.2,5.7-2.4c0.5-1.2,0.4-2.5-0.1-3.6
					C339.7,192.3,337.6,191.4,335.6,192z"/>
				<path id="Path_3962" class="st1" d="M347.1,192c-3.6,1.3-4.4,6.6-0.5,8.2c2.2,0.9,4.8-0.2,5.7-2.4c0.5-1.2,0.4-2.5-0.1-3.6
					C351.2,192.4,349.1,191.4,347.1,192z"/>
			</g>
			<path id="Path_3963" class="st1" d="M356.6,199.4c-3,0.7-3.9,4.7-1.7,6.8c1.8,1.5,4.5,1.3,6-0.5
				C363.5,202.5,360.3,198.6,356.6,199.4z"/>
			<path id="Path_3964" class="st1" d="M326.5,199.4c-3,0.7-3.9,4.7-1.7,6.8c1.8,1.5,4.5,1.3,6-0.5
				C333.4,202.5,330.1,198.6,326.5,199.4z"/>
		</g>
	</g>
	<g id="Group_1422">
		<path id="Path_3965" class="st1" d="M202.9,269.1c0.7-1.7,1.8-3.2,3.1-4.4c7.1-6.5,17.5-3.5,20.9,5.2c0.9,2.3,1.2,4.9,0.9,7.4
			c-0.4,2.5-1.8,4.8-3.9,6.3c-1.9,1.3-4.5,0.9-5.9-0.9c-0.6-0.8-1-1.7-1.2-2.7c-0.1-1-0.5-2-1.3-2.7c-0.4-0.3-0.8-0.5-1.3-0.6
			c-1.3-0.4-2.8,0.1-3.7,1.1c-0.7,1-1.7,1.7-2.9,2c-0.8,0.1-1.7-0.1-2.4-0.6C201.5,277,201.3,272.8,202.9,269.1z"/>
		<g id="Group_1421">
			<g id="Group_1420">
				<path id="Path_3966" class="st1" d="M214.3,250.5c-3.8,0.3-6,5.2-2.7,7.8c1.9,1.5,4.6,1.1,6.1-0.8c0.8-1,1.1-2.3,0.8-3.5
					C218.2,251.9,216.4,250.4,214.3,250.5z"/>
				<path id="Path_3967" class="st1" d="M225.4,253.6c-3.8,0.3-6,5.2-2.7,7.7c1.9,1.5,4.6,1.1,6.1-0.8c0.8-1,1.1-2.3,0.8-3.5
					C229.2,255,227.4,253.5,225.4,253.6z"/>
			</g>
			<path id="Path_3968" class="st1" d="M232.5,263.3c-3.1-0.2-5,3.5-3.4,6.1c1.3,2,4,2.5,5.9,1.2c0,0,0,0,0,0
				C238.4,268.1,236.3,263.5,232.5,263.3z"/>
			<path id="Path_3969" class="st1" d="M203.5,255.2c-3.1-0.2-5,3.5-3.4,6.1c1.3,2,4,2.5,5.9,1.2C209.3,260,207.3,255.4,203.5,255.2
				z"/>
		</g>
	</g>
	<g id="Group_1425">
		<path id="Path_3970" class="st1" d="M431.1,167.8c0.9-1.6,2.2-2.9,3.6-4c7.9-5.6,17.8-1.4,20.1,7.7c0.7,2.4,0.7,5,0,7.4
			c-0.7,2.5-2.3,4.5-4.6,5.8c-2,1.1-4.5,0.4-5.7-1.6c-0.5-0.9-0.8-1.8-0.9-2.8c0-1-0.3-2-1-2.8c-0.3-0.3-0.7-0.6-1.2-0.7
			c-1.3-0.5-2.8-0.3-3.8,0.6c-0.8,0.9-1.9,1.5-3.1,1.7c-0.8,0-1.7-0.3-2.3-0.8C428.7,175.5,429,171.3,431.1,167.8z"/>
		<g id="Group_1424">
			<g id="Group_1423">
				<path id="Path_3971" class="st1" d="M444.6,150.6c-3.9-0.1-6.6,4.5-3.6,7.4c1.7,1.7,4.5,1.7,6.2-0.1c0.9-0.9,1.3-2.1,1.2-3.4
					C448.2,152.5,446.6,150.9,444.6,150.6z"/>
				<path id="Path_3972" class="st1" d="M455.2,155c-3.9-0.1-6.6,4.5-3.6,7.4c1.7,1.7,4.5,1.7,6.2,0c0.9-0.9,1.4-2.2,1.2-3.4
					C458.8,156.9,457.3,155.2,455.2,155z"/>
			</g>
			<path id="Path_3973" class="st1" d="M461.2,165.5c-3-0.5-5.4,2.9-4.1,5.6c1.1,2.1,3.7,2.9,5.8,1.9
				C466.4,171,464.9,166.2,461.2,165.5z"/>
			<path id="Path_3974" class="st1" d="M433.3,154c-3-0.5-5.4,2.9-4.1,5.6c1.1,2.1,3.7,2.9,5.8,1.9C438.5,159.5,437,154.7,433.3,154
				z"/>
		</g>
	</g>
	<g id="Group_1428">
		<path id="Path_3975" class="st1" d="M519.1,277.4c-0.5-1.8-0.5-3.6-0.3-5.4c1.6-9.6,11.6-13.5,19.6-8.8c2.2,1.2,4,3.1,5.2,5.3
			c1.3,2.2,1.6,4.9,0.8,7.3c-0.7,2.2-3,3.5-5.2,2.9c-0.9-0.3-1.8-0.8-2.6-1.4c-0.7-0.7-1.6-1.2-2.7-1.3c-0.5,0-0.9,0.1-1.3,0.3
			c-1.3,0.5-2.1,1.8-2.3,3.2c0.1,1.2-0.3,2.4-1,3.4c-0.6,0.6-1.4,1-2.2,1C522.9,284.5,520.1,281.3,519.1,277.4z"/>
		<g id="Group_1427">
			<g id="Group_1426">
				<path id="Path_3976" class="st1" d="M516.5,255.7c-2.8,2.6-1.5,7.8,2.7,7.8c2.4,0,4.3-2,4.3-4.4c0-1.3-0.6-2.5-1.5-3.3
					C520.4,254.5,518.2,254.4,516.5,255.7z"/>
				<path id="Path_3977" class="st1" d="M527.2,251.3c-2.8,2.6-1.5,7.8,2.7,7.8c2.4,0,4.3-2,4.3-4.4c0-1.3-0.6-2.5-1.5-3.3
					C531,250.1,528.8,250,527.2,251.3z"/>
			</g>
			<path id="Path_3978" class="st1" d="M538.8,254.5c-1.8,1.3-2.1,3.8-0.8,5.6c0.5,0.6,1.1,1,1.8,1.3c2.3,0.7,4.7-0.5,5.4-2.8
				C546.3,254.8,541.8,252.4,538.8,254.5z"/>
			<path id="Path_3979" class="st1" d="M511,266c-2.5,1.8-1.8,5.9,1,6.9c2.3,0.7,4.7-0.5,5.4-2.8C518.5,266.3,514,263.9,511,266z"/>
		</g>
	</g>
	<g id="Group_1431">
		<path id="Path_3980" class="st1" d="M323.7,94.3c-0.4-1.8-0.3-3.6,0.1-5.4c2.1-9.4,12.4-12.8,20.1-7.6c2.1,1.4,3.8,3.3,4.9,5.6
			c1.1,2.3,1.3,4.9,0.4,7.3c-0.8,2.1-3.2,3.3-5.4,2.6c-0.9-0.4-1.8-0.9-2.5-1.5c-0.7-0.8-1.6-1.3-2.6-1.5c-0.5,0-0.9,0.1-1.3,0.2
			c-1.3,0.5-2.3,1.7-2.4,3.1c0,1.2-0.5,2.4-1.2,3.3c-0.6,0.6-1.5,0.9-2.3,0.9C327,101.6,324.5,98.2,323.7,94.3z"/>
		<g id="Group_1430">
			<g id="Group_1429">
				<path id="Path_3981" class="st1" d="M322.4,72.4c-3,2.4-2,7.7,2.2,7.9c2.4,0.1,4.4-1.7,4.6-4.1c0.1-1.2-0.4-2.5-1.3-3.3
					C326.4,71.4,324.1,71.3,322.4,72.4z"/>
				<path id="Path_3982" class="st1" d="M333.3,68.7c-3,2.4-1.9,7.7,2.2,7.9c2.4,0.1,4.4-1.7,4.6-4.1c0.1-1.3-0.4-2.5-1.3-3.4
					C337.2,67.7,334.9,67.5,333.3,68.7z"/>
			</g>
			<path id="Path_3983" class="st1" d="M344.7,72.6c-1.8,1.2-2.3,3.7-1.1,5.5c0.4,0.6,1,1.1,1.7,1.5c2.2,0.9,4.7-0.2,5.5-2.4
				C352.2,73.2,347.9,70.6,344.7,72.6z"/>
			<path id="Path_3984" class="st1" d="M316.2,82.5c-2.6,1.6-2.1,5.7,0.6,7c2.2,0.9,4.7-0.2,5.5-2.5c0,0,0,0,0,0
				C323.8,83.1,319.4,80.5,316.2,82.5z"/>
		</g>
	</g>
	<g id="Group_1434">
		<path id="Path_3985" class="st1" d="M202.9,114.7c0.8-1.7,1.8-3.2,3.2-4.4c7.2-6.4,17.5-3.2,20.8,5.5c0.9,2.3,1.2,4.9,0.8,7.4
			c-0.4,2.5-1.8,4.8-3.9,6.2c-1.9,1.3-4.5,0.8-5.9-1c-0.6-0.8-0.9-1.7-1.2-2.7c-0.1-1-0.5-2-1.2-2.7c-0.4-0.3-0.8-0.5-1.2-0.6
			c-1.3-0.4-2.8,0-3.7,1c-0.7,1-1.8,1.7-3,2c-0.8,0.1-1.7-0.1-2.4-0.6C201.4,122.6,201.3,118.3,202.9,114.7z"/>
		<g id="Group_1433">
			<g id="Group_1432">
				<path id="Path_3986" class="st1" d="M214.5,96.1c-3.8,0.3-6,5.1-2.8,7.7c1.9,1.5,4.6,1.2,6.1-0.7c0.8-1,1.1-2.3,0.9-3.5
					C218.4,97.6,216.6,96.2,214.5,96.1z"/>
				<path id="Path_3987" class="st1" d="M225.6,99.4c-3.9,0.3-6.1,5.1-2.8,7.7c1.9,1.5,4.6,1.2,6.1-0.7c0.8-1,1.1-2.3,0.9-3.6
					C229.4,100.8,227.6,99.4,225.6,99.4z"/>
			</g>
			<path id="Path_3988" class="st1" d="M232.6,109.2c-3.1-0.2-5.1,3.4-3.5,6c1.3,2,3.9,2.5,5.9,1.3
				C238.3,114.1,236.3,109.4,232.6,109.2z"/>
			<path id="Path_3989" class="st1" d="M203.7,100.7c-3.1-0.2-5.1,3.4-3.5,6c1.3,2,3.9,2.5,5.9,1.3
				C209.4,105.6,207.4,101,203.7,100.7z"/>
		</g>
	</g>
	<g id="Group_1437">
		<path id="Path_3990" class="st1" d="M297.4,342.5c0-1.8,0.4-3.6,1.2-5.3c4-8.8,14.7-10,21.2-3.4c1.8,1.8,3.1,4,3.7,6.4
			c0.7,2.5,0.3,5.1-1.1,7.3c-1.2,1.9-3.8,2.6-5.8,1.5c-0.8-0.5-1.6-1.2-2.2-2c-0.5-0.9-1.3-1.6-2.2-2c-0.5-0.1-0.9-0.1-1.4,0
			c-1.4,0.2-2.5,1.2-3,2.5c-0.3,1.2-0.9,2.2-1.9,3c-0.7,0.4-1.6,0.6-2.4,0.4C299.2,350.4,297.4,346.6,297.4,342.5z"/>
		<g id="Group_1436">
			<g id="Group_1435">
				<path id="Path_3991" class="st1" d="M300.6,320.9c-3.4,1.8-3.5,7.1,0.6,8.2c2.3,0.6,4.7-0.8,5.3-3.1c0.3-1.2,0.1-2.5-0.6-3.6
					C304.7,320.7,302.5,320.1,300.6,320.9z"/>
				<path id="Path_3992" class="st1" d="M312,319.4c-3.4,1.8-3.5,7.1,0.6,8.2c2.3,0.6,4.7-0.8,5.3-3.1c0.3-1.2,0.1-2.5-0.6-3.6
					C316.1,319.2,313.9,318.6,312,319.4z"/>
			</g>
			<path id="Path_3993" class="st1" d="M322.4,325.5c-2.9,1.1-3.3,5.2-0.8,7c2,1.3,4.6,0.7,5.9-1.3
				C329.6,327.7,325.9,324.2,322.4,325.5z"/>
			<path id="Path_3994" class="st1" d="M292.5,329.5c-2.9,1.1-3.3,5.2-0.8,7c2,1.3,4.6,0.7,5.9-1.3
				C299.7,331.6,296,328.2,292.5,329.5z"/>
		</g>
	</g>
	<g id="Group_1440">
		<path id="Path_3995" class="st1" d="M320.9,438.5c0-1.8,0.4-3.6,1.2-5.3c4-8.8,14.7-10,21.2-3.4c1.8,1.8,3.1,4,3.7,6.4
			c0.7,2.5,0.3,5.1-1.1,7.3c-1.2,1.9-3.8,2.6-5.8,1.5c-0.8-0.5-1.6-1.2-2.2-2c-0.5-0.9-1.3-1.6-2.2-2c-0.4-0.1-0.9-0.1-1.4,0
			c-1.4,0.2-2.5,1.1-3,2.5c-0.3,1.2-0.9,2.2-1.9,3c-0.7,0.4-1.6,0.6-2.4,0.4C322.6,446.3,320.8,442.5,320.9,438.5z"/>
		<g id="Group_1439">
			<g id="Group_1438">
				<path id="Path_3996" class="st1" d="M324,416.8c-3.4,1.8-3.5,7.1,0.6,8.2c2.3,0.6,4.7-0.8,5.3-3.1c0.3-1.2,0.1-2.5-0.6-3.6
					C328.1,416.6,325.9,416,324,416.8z"/>
				<path id="Path_3997" class="st1" d="M335.4,415.3c-3.4,1.8-3.5,7.1,0.6,8.2c2.3,0.6,4.7-0.8,5.3-3.1c0.3-1.2,0.1-2.5-0.6-3.6
					C339.5,415.1,337.3,414.5,335.4,415.3z"/>
			</g>
			<path id="Path_3998" class="st1" d="M345.8,421.4c-2.9,1.1-3.3,5.2-0.8,7c2,1.3,4.6,0.7,5.9-1.3
				C353,423.6,349.3,420.2,345.8,421.4z"/>
			<path id="Path_3999" class="st1" d="M315.9,425.4c-2.9,1.1-3.3,5.2-0.8,7c2,1.3,4.6,0.7,5.9-1.3
				C323.1,427.6,319.4,424.1,315.9,425.4z"/>
		</g>
	</g>
	<g id="Group_1443">
		<path id="Path_4000" class="st1" d="M122.8,330.1c-0.3-1.8-0.3-3.6,0.2-5.4c2.3-9.4,12.6-12.6,20.3-7.2c2.1,1.4,3.7,3.4,4.8,5.6
			c1.1,2.3,1.2,5,0.3,7.4c-0.9,2.1-3.2,3.2-5.4,2.5c-0.9-0.4-1.8-0.9-2.5-1.6c-0.6-0.8-1.5-1.3-2.5-1.5c-0.5,0-0.9,0-1.4,0.2
			c-1.3,0.5-2.3,1.6-2.5,3c0,1.2-0.5,2.4-1.3,3.3c-0.7,0.5-1.5,0.8-2.3,0.9C126,337.5,123.5,334.1,122.8,330.1z"/>
		<g id="Group_1442">
			<g id="Group_1441">
				<path id="Path_4001" class="st1" d="M121.9,308.3c-3,2.4-2.1,7.7,2,8c2.4,0.2,4.5-1.7,4.6-4.1c0.1-1.2-0.4-2.5-1.3-3.4
					C125.8,307.4,123.6,307.2,121.9,308.3z"/>
				<path id="Path_4002" class="st1" d="M132.8,304.7c-3,2.4-2.1,7.7,2.1,8c2.4,0.2,4.5-1.6,4.6-4c0.1-1.3-0.4-2.5-1.3-3.4
					C136.8,303.8,134.5,303.6,132.8,304.7z"/>
			</g>
			<path id="Path_4003" class="st1" d="M144.2,308.9c-2.7,1.6-2.3,5.7,0.5,7c2.2,0.9,4.7-0.1,5.6-2.3
				C151.7,309.7,147.4,307,144.2,308.9z"/>
			<path id="Path_4004" class="st1" d="M115.5,318.2c-2.7,1.6-2.3,5.7,0.5,7c2.2,0.9,4.7-0.1,5.6-2.3
				C123,319,118.7,316.3,115.5,318.2z"/>
		</g>
	</g>
	<g id="Group_1446">
		<path id="Path_4005" class="st1" d="M202.8,420.8c0.9-1.6,2.1-3,3.6-4.1c7.8-5.7,17.7-1.6,20.2,7.4c0.7,2.4,0.7,5,0.1,7.4
			c-0.6,2.5-2.3,4.6-4.5,5.8c-2,1.1-4.5,0.4-5.7-1.6c-0.5-0.9-0.8-1.8-0.9-2.8c0-1-0.3-2-1-2.8c-0.3-0.3-0.7-0.6-1.2-0.7
			c-1.3-0.5-2.8-0.2-3.8,0.7c-0.8,0.9-1.9,1.5-3.1,1.7c-0.8,0-1.7-0.3-2.3-0.8C200.5,428.5,200.8,424.3,202.8,420.8z"/>
		<g id="Group_1445">
			<g id="Group_1444">
				<path id="Path_4006" class="st1" d="M216.1,403.4c-3.9-0.1-6.5,4.5-3.5,7.4c1.7,1.7,4.5,1.6,6.2-0.1c0.9-0.9,1.3-2.1,1.2-3.4
					C219.8,405.3,218.2,403.6,216.1,403.4z"/>
				<path id="Path_4007" class="st1" d="M226.8,407.7c-3.9-0.1-6.5,4.5-3.5,7.4c1.7,1.7,4.5,1.6,6.2-0.1c0.9-0.9,1.3-2.2,1.2-3.4
					C230.5,409.5,228.8,407.9,226.8,407.7z"/>
			</g>
			<path id="Path_4008" class="st1" d="M232.9,418.1c-3.1-0.5-5.4,2.9-4.1,5.7c1.1,2.1,3.7,2.9,5.8,1.8c0,0,0,0,0,0
				C238.1,423.6,236.6,418.7,232.9,418.1z"/>
			<path id="Path_4009" class="st1" d="M204.9,407c-3-0.5-5.4,2.9-4.1,5.7c1.1,2.1,3.7,2.9,5.8,1.8c0,0,0,0,0,0
				C210.1,412.4,208.6,407.6,204.9,407z"/>
		</g>
	</g>
	<g id="Group_1449">
		<path id="Path_4010" class="st1" d="M699.1,388.7c-0.4-1.8-0.4-3.6-0.1-5.4c1.9-9.5,12-13.2,19.9-8.2c2.1,1.3,3.9,3.2,5.1,5.4
			c1.2,2.3,1.4,4.9,0.6,7.3c-0.8,2.2-3.1,3.4-5.3,2.7c-0.9-0.3-1.8-0.8-2.6-1.5c-0.7-0.8-1.6-1.3-2.6-1.4c-0.5,0-0.9,0.1-1.3,0.3
			c-1.3,0.5-2.2,1.7-2.3,3.1c0,1.2-0.4,2.4-1.1,3.4c-0.6,0.6-1.4,0.9-2.3,1C702.7,395.9,700,392.6,699.1,388.7z"/>
		<g id="Group_1448">
			<g id="Group_1447">
				<path id="Path_4011" class="st1" d="M697.2,366.9c-2.9,2.5-1.7,7.8,2.4,7.8c2.4,0.1,4.4-1.8,4.5-4.2c0.1-2.4-1.8-4.4-4.2-4.5
					C698.9,366,698,366.3,697.2,366.9z"/>
				<path id="Path_4012" class="st1" d="M707.9,362.8c-2.9,2.5-1.7,7.8,2.4,7.8c2.4,0.1,4.4-1.9,4.5-4.3c0-1.3-0.5-2.5-1.4-3.3
					C711.8,361.7,709.5,361.5,707.9,362.8z"/>
			</g>
			<path id="Path_4013" class="st1" d="M719.4,366.3c-2.6,1.7-2,5.8,0.8,6.9c2.2,0.8,4.7-0.4,5.5-2.6c0,0,0,0,0,0
				C727,366.8,722.6,364.3,719.4,366.3z"/>
			<path id="Path_4014" class="st1" d="M691.3,377.1c-2.6,1.7-2,5.8,0.8,6.9c2.2,0.8,4.7-0.4,5.5-2.6
				C698.8,377.5,694.4,375,691.3,377.1z"/>
		</g>
	</g>
	<g id="Group_1452">
		<path id="Path_4015" class="st1" d="M574.2,348.5c-0.4-1.8-0.4-3.6-0.1-5.4c1.8-9.5,12-13.2,19.9-8.2c2.1,1.3,3.9,3.2,5.1,5.4
			c1.2,2.3,1.4,4.9,0.6,7.3c-0.8,2.2-3.1,3.4-5.3,2.7c-0.9-0.3-1.8-0.8-2.6-1.5c-0.7-0.8-1.6-1.2-2.6-1.4c-0.5,0-0.9,0.1-1.3,0.3
			c-1.3,0.5-2.2,1.7-2.3,3.1c0,1.2-0.4,2.4-1.1,3.4c-0.6,0.6-1.4,0.9-2.3,1C577.8,355.7,575.1,352.4,574.2,348.5z"/>
		<g id="Group_1451">
			<g id="Group_1450">
				<path id="Path_4016" class="st1" d="M572.3,326.7c-2.9,2.5-1.7,7.8,2.4,7.8c2.4,0.1,4.4-1.9,4.4-4.3c0,0,0,0,0,0
					c0.1-2.4-1.8-4.4-4.2-4.4C574,325.9,573,326.1,572.3,326.7z"/>
				<path id="Path_4017" class="st1" d="M583,322.6c-2.9,2.5-1.7,7.8,2.4,7.8c2.4,0,4.4-1.9,4.4-4.3c0-1.3-0.5-2.5-1.4-3.3
					C586.9,321.5,584.6,321.4,583,322.6z"/>
			</g>
			<path id="Path_4018" class="st1" d="M594.5,326.2c-2.6,1.7-2,5.8,0.8,6.9c2.2,0.8,4.7-0.4,5.5-2.6c0,0,0,0,0,0
				C602.1,326.6,597.7,324.1,594.5,326.2z"/>
			<path id="Path_4019" class="st1" d="M566.4,336.9c-2.6,1.7-2,5.8,0.8,6.9c2.2,0.8,4.7-0.4,5.5-2.6
				C573.9,337.4,569.5,334.9,566.4,336.9z"/>
		</g>
	</g>
	<g id="Group_1455">
		<path id="Path_4020" class="st1" d="M599.4,422.8c1.2-1.3,2.7-2.4,4.4-3.1c8.9-3.8,17.6,2.5,18,11.8c0.1,2.5-0.4,5-1.6,7.2
			c-1.2,2.3-3.2,4-5.7,4.7c-2.2,0.6-4.5-0.6-5.2-2.8c-0.3-1-0.4-2-0.3-3c0.2-1,0.1-2-0.3-2.9c-0.3-0.4-0.6-0.7-1-0.9
			c-1.2-0.8-2.7-0.8-3.9-0.2c-1,0.7-2.2,1.1-3.4,1c-0.8-0.2-1.6-0.7-2.1-1.3C595.4,429.8,596.6,425.7,599.4,422.8z"/>
		<g id="Group_1454">
			<g id="Group_1453">
				<path id="Path_4021" class="st1" d="M616.3,408.9c-3.7-1-7.4,3-5.1,6.4c1.3,2,4,2.6,6,1.3c1.1-0.7,1.8-1.8,2-3.1
					C619.4,411.5,618.2,409.5,616.3,408.9z"/>
				<path id="Path_4022" class="st1" d="M625.7,415.4c-3.7-1-7.4,3-5.1,6.4c1.3,2,4,2.6,6,1.3c1.1-0.7,1.8-1.8,2-3.1
					C628.9,418,627.6,416.1,625.7,415.4z"/>
			</g>
			<path id="Path_4023" class="st1" d="M629.3,427c-2.9-1.2-5.9,1.6-5.3,4.6c0.6,2.3,2.9,3.7,5.2,3.1c0,0,0,0,0,0
				C633.2,433.4,632.7,428.4,629.3,427z"/>
			<path id="Path_4024" class="st1" d="M604.5,409.8c-2.9-1.2-5.9,1.6-5.3,4.6c0.6,2.3,2.9,3.7,5.2,3.1
				C608.4,416.2,608,411.2,604.5,409.8z"/>
		</g>
	</g>
	<g id="Group_1458">
		<path id="Path_4025" class="st1" d="M431.4,323.6c0.6-1.7,1.6-3.3,2.9-4.6c6.7-7,17.2-4.6,21.2,3.9c1.1,2.3,1.6,4.8,1.3,7.3
			c-0.2,2.5-1.5,4.9-3.4,6.5c-1.8,1.4-4.4,1.2-5.9-0.5c-0.6-0.8-1.1-1.7-1.4-2.6c-0.2-1-0.7-1.9-1.4-2.6c-0.4-0.2-0.8-0.4-1.3-0.5
			c-1.4-0.3-2.8,0.2-3.6,1.3c-0.6,1-1.6,1.8-2.8,2.2c-0.8,0.1-1.7,0-2.4-0.4C430.5,331.6,430,327.4,431.4,323.6z"/>
		<g id="Group_1457">
			<g id="Group_1456">
				<path id="Path_4026" class="st1" d="M441.5,304.2c-3.8,0.6-5.6,5.6-2.2,7.9c2,1.3,4.7,0.8,6-1.2c0.7-1,0.9-2.4,0.6-3.6
					C445.4,305.4,443.6,304.1,441.5,304.2z"/>
				<path id="Path_4027" class="st1" d="M452.8,306.6c-3.8,0.6-5.6,5.6-2.2,7.9c2,1.3,4.7,0.8,6-1.2c0.7-1,0.9-2.3,0.6-3.5
					C456.7,307.8,454.8,306.4,452.8,306.6z"/>
			</g>
			<path id="Path_4028" class="st1" d="M460.5,315.8c-3.1,0-4.8,3.8-3,6.3c1.4,1.9,4.1,2.2,6,0.8
				C466.6,320.3,464.3,315.8,460.5,315.8z"/>
			<path id="Path_4029" class="st1" d="M431,309.6c-3.1,0-4.8,3.8-3,6.3c1.4,1.9,4.1,2.2,6,0.8C437.1,314,434.8,309.6,431,309.6z"/>
		</g>
	</g>
	<g id="Group_1461">
		<path id="Path_4030" class="st1" d="M494.3,433.3c-1.1-1.4-1.9-3.1-2.4-4.9c-2.4-9.4,5.2-17,14.5-15.9c2.5,0.3,4.9,1.2,6.9,2.7
			c2.1,1.5,3.4,3.8,3.7,6.4c0.2,2.3-1.3,4.4-3.6,4.7c-1,0.1-2,0-3-0.2c-1-0.4-2-0.5-3-0.1c-0.4,0.2-0.8,0.5-1.1,0.8
			c-1,1-1.3,2.5-0.8,3.8c0.5,1.1,0.7,2.3,0.4,3.5c-0.3,0.8-0.9,1.4-1.6,1.9C500.6,438.3,496.8,436.5,494.3,433.3z"/>
		<g id="Group_1460">
			<g id="Group_1459">
				<path id="Path_4031" class="st1" d="M483.3,414.4c-1.5,3.5,1.8,7.7,5.5,6c2.2-1,3.2-3.6,2.2-5.8c-0.5-1.1-1.5-2-2.7-2.4
					C486.3,411.7,484.2,412.6,483.3,414.4z"/>
				<path id="Path_4032" class="st1" d="M491.2,406.1c-1.5,3.5,1.8,7.7,5.5,6c2.2-1,3.2-3.6,2.2-5.8c-0.5-1.1-1.5-2-2.7-2.4
					C494.3,403.4,492.2,404.3,491.2,406.1z"/>
			</g>
			<path id="Path_4033" class="st1" d="M503.2,404.4c-1.6,2.6,0.7,6.1,3.7,5.9c2.4-0.2,4.1-2.3,3.9-4.7
				C510.2,401.6,505.1,401.2,503.2,404.4z"/>
			<path id="Path_4034" class="st1" d="M482.3,426.2c-1.1,1.9-0.4,4.4,1.6,5.4c0.7,0.4,1.4,0.5,2.1,0.5c2.4-0.2,4.1-2.3,3.9-4.7
				c0,0,0,0,0,0C489.3,423.3,484.2,423,482.3,426.2z"/>
		</g>
	</g>
	<g id="hueso">
		<path id="Path_4035" class="st1" d="M273.1,166.3c-2.1,1.9-2.8,4.8-1.9,7.4c0.6,2.6,3.1,4.2,5.7,3.8c4-0.1,5.8-3.7,7.8-6.9
			c1.6-2.5,3.8-4.6,6.5-5.8c3.5-1.7,7-3.3,10.5-4.9c1.5-0.7,3.1-1.3,4.7-2c2.9-1.4,6-2.6,9.2-2.6s6.5,2.7,9.7,0.6
			c2.5-1.7,3.2-5.1,1.5-7.7c-1-1.5-2.7-2.4-4.5-2.4"/>
		<path id="Path_4036" class="st1" d="M321.2,146.9c1.2-1,2-2.4,2.3-3.9c0.4-4.2-2.5-6.9-6.2-7.6c-4.2-0.4-5.6,4.2-7.6,7.4
			c-1.1,1.9-2.7,3.5-4.7,4.6l-3.7,1.6l-10.5,4.6l-6.7,3c-0.9,0.4-1.8,0.8-2.8,1c-2.3,0.4-4.7,0.1-6.9-0.6c-2-0.6-4-0.9-5.8,0.4
			c-4.6,3.3-1.8,10.2,3.5,10"/>
	</g>
	<path id="Path_4037" class="st1" d="M322.6,145.6l1.8,0.5l1.8,1.2l1.4,1.8l0.3,2l-0.2,1.9l-0.8,1.5l-1.4,1.3l-1.9,0.9h-2.6
		l-2.9-0.8l-2.5-0.4l-2.2,0.1l-2.5,0.6l-2.6,1l-16,7.2l-2.9,1.6l-2.5,2l-2,2.5l-1.7,2.8l-1.4,1.9l-2,1.8l-2.9,0.8l-2.4-0.1l-2.4-1.6
		l-0.9-2.8l-0.2-2.5l0.5-1.9l0.6-1.1l-1.9-0.3l-1.7-0.9l-1.3-1.6l-0.8-2.6l0.6-2.9l2.7-2.5h3.6l3.1,0.8l3.1,0.4l2.8-0.4l3.5-1.6
		l17.8-8l3.4-1.8l2.2-2.4l1.9-3.2l1.7-2.8l2-1.9l2.9-0.4l2.3,0.8l2,1.6l1.2,1.7l0.4,2.5l-0.5,2.3L322.6,145.6z"/>
	<g id="Group_1462">
		<g id="hueso-2">
			<path id="Path_4038" class="st1" d="M273.1,61c-2.1,1.9-2.8,4.8-1.9,7.4c0.6,2.6,3.1,4.2,5.7,3.8c4,0,5.8-3.7,7.8-6.9
				c1.6-2.5,3.8-4.6,6.5-5.8c3.5-1.7,7-3.3,10.5-4.9c1.5-0.7,3.1-1.3,4.7-2c2.9-1.3,6-2.6,9.2-2.6s6.5,2.7,9.7,0.6
				c2.5-1.7,3.2-5.1,1.5-7.7c-1-1.5-2.7-2.4-4.5-2.4"/>
			<path id="Path_4039" class="st1" d="M321.2,41.7c1.2-1,2-2.4,2.3-3.9c0.4-4.2-2.5-6.9-6.2-7.6c-4.2-0.4-5.6,4.2-7.6,7.4
				c-1.1,1.9-2.7,3.5-4.7,4.6l-3.7,1.6l-10.5,4.7l-6.7,3c-0.9,0.4-1.8,0.8-2.8,1c-2.3,0.4-4.7,0.1-6.9-0.7c-2-0.6-4-0.9-5.8,0.4
				c-4.6,3.3-1.8,10.2,3.5,10"/>
		</g>
		<path id="Path_4040" class="st1" d="M322.6,40.4l1.8,0.5l1.8,1.2l1.4,1.8l0.3,2l-0.2,1.9l-0.7,1.5l-1.4,1.3l-1.9,0.8h-2.6
			l-2.9-0.8l-2.5-0.4l-2.2,0.2l-2.5,0.6l-2.6,1l-16,7.2l-2.9,1.6l-2.5,2l-2.1,2.6l-1.7,2.8l-1.4,1.9l-2,1.8l-2.9,0.8l-2.4-0.1
			l-2.4-1.6l-0.9-2.8l-0.2-2.5l0.5-1.9l0.6-1.1l-2-0.4l-1.7-0.9l-1.3-1.6l-0.8-2.6l0.6-2.9l2.7-2.5h3.6l3.1,0.8l3.1,0.4l2.8-0.4
			l3.5-1.5l17.9-7.9l3.4-1.8l2.2-2.4l1.9-3.2l1.7-2.8l2-1.9l2.9-0.5l2.3,0.8l2,1.6l1.2,1.7l0.4,2.5l-0.5,2.3L322.6,40.4z"/>
	</g>
	<g id="Group_1463">
		<g id="hueso-3">
			<path id="Path_4041" class="st1" d="M175.6,192.4c-2.5-1.2-5.5-0.8-7.6,1c-2.2,1.5-2.8,4.4-1.4,6.7c1.5,3.7,5.6,4,9.3,4.7
				c2.9,0.5,5.7,1.8,7.8,3.9c2.9,2.6,5.7,5.3,8.4,8c1.2,1.2,2.4,2.4,3.6,3.6c2.3,2.2,4.6,4.5,5.8,7.6s-0.1,7.1,3.1,9.2
				c2.5,1.7,6,1.1,7.7-1.5c1-1.5,1.2-3.4,0.6-5"/>
			<path id="Path_4042" class="st1" d="M211.5,229.9c1.4,0.7,2.9,0.9,4.5,0.7c4.1-1.2,5.5-4.9,4.7-8.6c-1.2-4.1-6-3.6-9.7-4.3
				c-2.2-0.3-4.3-1.2-6-2.6l-2.9-2.8l-8.2-8l-5.3-5.1c-0.8-0.7-1.4-1.4-2-2.2c-1.2-2-1.9-4.3-2-6.6c-0.2-2.1-0.6-4.1-2.5-5.3
				c-4.8-3-10.1,2.1-8,7"/>
		</g>
		<path id="Path_4043" class="st1" d="M213.3,230.7l0.3,1.9l-0.5,2.1l-1.1,2l-1.7,1l-1.8,0.5l-1.7-0.1l-1.7-0.8l-1.5-1.5l-0.9-2.4
			l-0.3-3l-0.5-2.4l-0.9-2l-1.5-2.1l-1.8-2l-12.6-12.1l-2.5-2.1l-2.8-1.6l-3.2-1l-3.2-0.6l-2.2-0.6l-2.4-1.2l-1.8-2.4l-0.8-2.3
			l0.6-2.8l2.3-1.9l2.2-1.1l2-0.3l1.3,0.2l-0.5-1.9l0.2-1.9l1-1.9l2.1-1.7l2.9-0.6l3.3,1.6l1.4,3.3l0.4,3.2l0.8,3l1.4,2.5l2.8,2.7
			l14,13.6l2.9,2.5l3,1.1l3.7,0.6l3.3,0.5l2.5,1.2l1.5,2.6l0.1,2.4l-0.7,2.5l-1.1,1.8l-2.1,1.3l-2.3,0.4L213.3,230.7z"/>
	</g>
	<g id="Group_1464">
		<g id="hueso-4">
			<path id="Path_4044" class="st1" d="M323.5,273.9c2.2-1.8,3.1-4.6,2.3-7.3c-0.5-2.6-2.9-4.4-5.5-4.1c-4-0.2-6,3.4-8.2,6.5
				c-1.7,2.5-4.1,4.3-6.9,5.4c-3.6,1.5-7.2,2.9-10.8,4.3c-1.6,0.6-3.2,1.1-4.8,1.8c-3,1.2-6.1,2.3-9.3,2s-6.4-3.1-9.7-1.1
				c-2.6,1.5-3.5,4.9-2,7.6c0.9,1.6,2.5,2.6,4.3,2.7"/>
			<path id="Path_4045" class="st1" d="M274.3,290.5c-1.2,1-2.1,2.3-2.5,3.8c-0.7,4.2,2.1,7,5.8,7.9c4.2,0.7,5.8-3.9,8-7
				c1.2-1.9,2.9-3.3,4.9-4.3l3.8-1.4l10.7-4l6.9-2.6c0.9-0.4,1.9-0.7,2.9-0.9c2.3-0.2,4.7,0.1,6.9,1c2,0.7,4,1.1,5.9-0.1
				c4.7-3,2.4-10.1-2.9-10.2"/>
		</g>
		<path id="Path_4046" class="st1" d="M272.9,291.8l-1.8-0.6l-1.7-1.3L268,288l-0.2-2l0.3-1.9l0.9-1.5l1.5-1.2l2-0.7l2.6,0.2l2.8,1
			l2.4,0.5h2.2l2.5-0.4l2.6-0.8l16.4-6.3l3-1.4l2.6-1.8l2.2-2.5l1.9-2.6l1.5-1.8l2.1-1.7l2.9-0.6l2.4,0.2l2.3,1.7l0.8,2.9l0.1,2.5
			l-0.6,1.9l-0.7,1.1l1.9,0.4l1.6,1l1.3,1.7l0.7,2.6l-0.7,2.9l-2.8,2.3l-3.6-0.2l-3-1l-3-0.6l-2.9,0.3l-3.6,1.4l-18.3,6.9l-3.6,1.6
			l-2.3,2.3l-2.1,3.1l-1.9,2.7l-2.1,1.7l-3,0.3l-2.3-0.9l-2-1.7l-1.1-1.8l-0.2-2.5l0.6-2.2L272.9,291.8z"/>
	</g>
	<g id="Group_1465">
		<g id="hueso-5">
			<path id="Path_4047" class="st1" d="M173,346.9c-2.6-0.9-5.6-0.2-7.5,1.8c-2,1.7-2.3,4.7-0.7,6.8c1.9,3.5,6,3.4,9.8,3.7
				c3,0.2,5.8,1.2,8.2,3c3.1,2.3,6.2,4.6,9.3,7c1.3,1,2.6,2.2,4,3.2c2.6,1.9,5.1,4,6.6,6.9s0.7,7.1,4.1,8.9c2.7,1.4,6.1,0.4,7.5-2.3
				c0.8-1.6,0.9-3.5,0.1-5"/>
			<path id="Path_4048" class="st1" d="M212.7,380.3c1.4,0.5,3,0.6,4.5,0.2c3.9-1.6,4.9-5.5,3.8-9c-1.6-3.9-6.3-3-10.1-3.3
				c-2.2-0.1-4.4-0.8-6.2-2l-3.2-2.5l-9-7.1l-5.8-4.5c-0.8-0.6-1.6-1.2-2.2-2c-1.4-1.9-2.3-4.1-2.7-6.4c-0.4-2-1.1-4-3.1-5
				c-5-2.5-9.9,3.2-7.2,7.8"/>
		</g>
		<path id="Path_4049" class="st1" d="M214.5,380.9l0.5,1.8l-0.2,2.1l-0.9,2.1l-1.6,1.2l-1.7,0.7h-1.7l-1.8-0.6l-1.7-1.3l-1.2-2.3
			l-0.6-2.9l-0.8-2.4l-1.1-1.9l-1.7-2l-2-1.8L184,363.1l-2.8-1.9l-2.9-1.3l-3.3-0.6l-3.2-0.2l-2.3-0.3l-2.5-1l-2-2.2l-1.1-2.2
			l0.2-2.9l2.1-2.1l2.1-1.4l1.9-0.5h1.3l-0.7-1.8v-1.9l0.8-1.9l1.9-1.9l2.8-0.9l3.4,1.2l1.7,3.1l0.7,3.1l1.1,2.9l1.7,2.3l3,2.4
			l15.4,12.1l3.2,2.2l3.1,0.8l3.7,0.2l3.3,0.2l2.6,0.9l1.8,2.4l0.4,2.4l-0.4,2.5l-1,1.9l-2,1.5l-2.2,0.6L214.5,380.9z"/>
	</g>
	<g id="Group_1466">
		<g id="hueso-6">
			<path id="Path_4050" class="st1" d="M381.1,224c-1.6-2.3-4.4-3.4-7.2-2.8c-2.6,0.3-4.6,2.6-4.4,5.2c-0.4,4,3,6.2,6,8.6
				c2.3,1.8,4.1,4.3,5,7.2c1.3,3.6,2.5,7.3,3.6,11c0.5,1.6,0.9,3.3,1.5,4.9c1,3,1.9,6.2,1.5,9.4s-3.5,6.2-1.7,9.6
				c1.4,2.7,4.7,3.8,7.4,2.4c1.6-0.8,2.7-2.4,2.9-4.1"/>
			<path id="Path_4051" class="st1" d="M394.8,274c0.9,1.3,2.1,2.2,3.6,2.7c4.1,0.9,7.2-1.7,8.2-5.3c0.9-4.1-3.5-6-6.5-8.4
				c-1.8-1.3-3.2-3.1-4-5.2L395,254l-3.4-10.9c-0.7-2.4-1.5-4.7-2.2-7c-0.3-0.9-0.6-1.9-0.7-2.9c-0.1-2.3,0.4-4.7,1.5-6.8
				c0.8-1.9,1.4-3.9,0.3-5.9c-2.8-4.9-9.9-3-10.3,2.3"/>
		</g>
		<path id="Path_4052" class="st1" d="M395.9,275.5l-0.7,1.8l-1.4,1.6l-1.9,1.2l-2,0.1l-1.8-0.4l-1.4-0.9l-1.1-1.5l-0.6-2l0.3-2.6
			l1.1-2.8l0.7-2.4l0.1-2.2l-0.3-2.6l-0.6-2.7l-5.3-16.7l-1.2-3.1l-1.7-2.8l-2.3-2.4l-2.5-2l-1.7-1.6l-1.5-2.3l-0.5-2.9l0.4-2.4
			l1.8-2.2l2.9-0.6l2.5,0.1l1.8,0.7l1.1,0.8l0.5-1.9l1.1-1.6l1.8-1.1l2.6-0.5l2.8,0.9l2.1,2.9l-0.4,3.6l-1.1,3l-0.7,3l0.1,2.9
			l1.1,3.7l5.8,18.7l1.4,3.6l2.1,2.4l3,2.3l2.6,2l1.6,2.2l0.1,3l-1.1,2.2l-1.8,1.9l-1.9,1l-2.5,0.1l-2.2-0.7L395.9,275.5z"/>
	</g>
	<g id="Group_1467">
		<g id="hueso-7">
			<path id="Path_4053" class="st1" d="M373.3,356.7c-1.6-2.3-4.4-3.3-7.2-2.8c-2.6,0.3-4.5,2.6-4.4,5.2c-0.4,4,3,6.2,6,8.6
				c2.3,1.8,4.1,4.3,5,7.2c1.3,3.6,2.5,7.3,3.6,11c0.5,1.6,0.9,3.3,1.5,4.9c1,3,1.9,6.2,1.5,9.4s-3.5,6.2-1.7,9.6
				c1.4,2.7,4.8,3.8,7.5,2.3c1.6-0.8,2.6-2.3,2.9-4.1"/>
			<path id="Path_4054" class="st1" d="M387,406.7c0.9,1.3,2.1,2.2,3.6,2.7c4.1,0.9,7.2-1.7,8.2-5.3c0.9-4.1-3.5-6-6.5-8.4
				c-1.8-1.3-3.2-3.1-4-5.2l-1.2-3.8c-1.1-3.7-2.3-7.3-3.4-10.9c-0.7-2.3-1.5-4.7-2.2-7c-0.4-0.9-0.6-1.9-0.7-2.9
				c-0.1-2.3,0.4-4.7,1.4-6.8c0.8-1.9,1.4-3.9,0.3-5.9c-2.8-4.9-9.9-3-10.3,2.3"/>
		</g>
		<path id="Path_4055" class="st1" d="M388.1,408.3l-0.7,1.8l-1.4,1.6l-1.9,1.2l-2,0.1l-1.8-0.4l-1.4-1l-1.1-1.6l-0.6-2l0.3-2.6
			l1.1-2.8l0.7-2.4l0.1-2.2l-0.3-2.6l-0.6-2.6l-5.3-16.7l-1.2-3.1l-1.7-2.7l-2.3-2.3l-2.5-2l-1.7-1.6l-1.5-2.2l-0.5-2.9l0.4-2.4
			l1.8-2.2l2.9-0.6l2.5,0.1l1.8,0.7l1.1,0.8l0.5-1.9l1.1-1.6l1.8-1.1l2.6-0.5l2.8,0.9l2.1,2.9l-0.4,3.6l-1.2,3l-0.7,3l0.1,2.9
			l1.1,3.7l5.8,18.6l1.4,3.6l2.1,2.4l3,2.3l2.6,2l1.6,2.2l0.1,3l-1.1,2.2l-1.8,1.9l-1.9,1l-2.5,0.1l-2.2-0.7L388.1,408.3z"/>
	</g>
	<g id="Group_1468">
		<g id="hueso-8">
			<path id="Path_4056" class="st1" d="M485.9,344.8c-2.6-1-5.6-0.3-7.5,1.7c-2,1.7-2.3,4.7-0.8,6.8c1.9,3.5,6,3.5,9.7,3.8
				c3,0.2,5.8,1.3,8.2,3.1c3.1,2.3,6.1,4.7,9.2,7.1c1.3,1.1,2.6,2.2,4,3.2c2.5,1.9,5.1,4.1,6.5,7s0.6,7.1,4,8.9
				c2.7,1.5,6,0.5,7.5-2.2c0.9-1.6,0.9-3.5,0.1-5.1"/>
			<path id="Path_4057" class="st1" d="M525.1,378.7c1.4,0.6,3,0.7,4.5,0.3c3.9-1.5,5-5.4,3.9-9c-1.5-3.9-6.3-3-10.1-3.4
				c-2.2-0.1-4.4-0.8-6.2-2.1l-3.1-2.5l-8.9-7.2l-5.8-4.6c-0.8-0.6-1.5-1.2-2.2-2c-1.4-1.9-2.3-4.1-2.6-6.4c-0.4-2-1-4-3-5
				c-5-2.5-9.9,3-7.3,7.7"/>
		</g>
		<path id="Path_4058" class="st1" d="M526.9,379.3l0.4,1.8l-0.3,2.2l-0.9,2l-1.6,1.2l-1.8,0.7h-1.7l-1.8-0.6l-1.6-1.3l-1.2-2.3
			l-0.6-2.9l-0.8-2.4l-1.1-1.9l-1.7-2l-2-1.8l-13.7-10.9l-2.7-1.9l-2.9-1.3l-3.3-0.7l-3.2-0.3l-2.3-0.4l-2.5-1l-2-2.2l-1-2.2
			l0.3-2.9l2.1-2.1l2.1-1.3l1.9-0.4h1.3l-0.6-1.8v-1.9l0.8-1.9l1.9-1.9l2.8-0.8l3.4,1.2l1.6,3.2l0.7,3.1l1.1,2.9l1.7,2.3l3,2.4
			l15.1,12.3l3.2,2.2l3.1,0.8l3.7,0.3l3.3,0.2l2.6,0.9l1.8,2.4l0.3,2.4l-0.5,2.5l-1,1.9l-2,1.5l-2.2,0.6L526.9,379.3z"/>
	</g>
	<g id="Group_1469">
		<g id="hueso-9">
			<path id="Path_4059" class="st1" d="M641.4,340.2c-1.4-2.4-4.1-3.7-6.9-3.4c-2.6,0.1-4.8,2.2-4.9,4.8c-0.8,3.9,2.5,6.4,5.2,9.1
				c2.2,2,3.7,4.7,4.4,7.6c1,3.8,1.8,7.5,2.6,11.3c0.4,1.7,0.6,3.4,1,5c0.7,3.1,1.3,6.4,0.6,9.5c-0.8,3.3-4,5.9-2.5,9.4
				c1.1,2.8,4.4,4.2,7.2,3.1c1.7-0.7,2.9-2.1,3.3-3.9"/>
			<path id="Path_4060" class="st1" d="M650.5,391.2c0.8,1.3,1.9,2.4,3.3,3c4,1.3,7.3-1,8.7-4.5c1.3-4-3-6.3-5.7-9
				c-1.7-1.5-2.9-3.4-3.5-5.5l-0.8-3.9c-0.8-3.7-1.6-7.5-2.4-11.2l-1.6-7.2c-0.3-1-0.4-2-0.4-3c0.1-2.3,0.8-4.6,2-6.6
				c1-1.8,1.7-3.8,0.8-5.8c-2.3-5.1-9.6-3.9-10.5,1.4"/>
		</g>
		<path id="Path_4061" class="st1" d="M651.5,392.9l-0.8,1.7l-1.6,1.5l-2,1l-2-0.1l-1.8-0.6l-1.4-1.1l-1-1.6l-0.4-2l0.5-2.5l1.4-2.6
			l0.9-2.3l0.3-2.2l-0.1-2.6l-0.4-2.7l-3.8-17.1l-0.9-3.2l-1.4-2.9L635,351l-2.3-2.3l-1.5-1.8l-1.3-2.4l-0.2-3l0.6-2.4l2-2l3-0.3
			l2.5,0.3l1.8,0.9l1,0.9l0.7-1.8l1.2-1.5l1.9-1l2.7-0.3l2.7,1.1l1.9,3.1l-0.7,3.5l-1.4,2.9l-1,2.9l-0.2,2.9l0.8,3.8l4.1,19.1l1,3.7
			l2,2.6l2.7,2.5l2.4,2.3l1.4,2.3l-0.2,3l-1.3,2.1l-2,1.7l-2,0.8l-2.5-0.1l-2.1-0.9L651.5,392.9z"/>
	</g>
	<g id="Group_1470">
		<g id="hueso-10">
			<path id="Path_4062" class="st1" d="M486.8,190.9c-2.7-0.9-5.6-0.1-7.4,2c-1.9,1.8-2.2,4.8-0.5,6.8c2,3.4,6.1,3.2,9.9,3.4
				c3,0.1,5.9,1.1,8.3,2.9c3.2,2.2,6.3,4.5,9.4,6.8c1.4,1,2.7,2.1,4,3.1c2.6,1.8,5.2,3.9,6.7,6.8s0.8,7,4.3,8.8
				c2.7,1.4,6.1,0.3,7.4-2.4c0.8-1.6,0.8-3.5,0-5.1"/>
			<path id="Path_4063" class="st1" d="M527.2,223.3c1.5,0.5,3,0.5,4.5,0.1c3.9-1.7,4.8-5.6,3.5-9.1c-1.7-3.9-6.4-2.8-10.2-3
				c-2.2,0-4.4-0.7-6.3-1.9l-3.2-2.4l-9.2-6.9l-5.9-4.4c-0.8-0.6-1.6-1.2-2.3-1.9c-1.5-1.9-2.4-4-2.8-6.4c-0.5-2-1.2-4-3.2-4.9
				c-5.1-2.4-9.8,3.4-7,7.9"/>
		</g>
		<path id="Path_4064" class="st1" d="M529,223.9l0.5,1.8l-0.2,2.2l-0.9,2.1l-1.6,1.3l-1.7,0.7l-1.7,0.1l-1.8-0.6l-1.6-1.3l-1.2-2.3
			L518,225l-0.8-2.4l-1.2-1.8l-1.8-1.9l-2.1-1.8L498,206.7l-2.8-1.7l-3-1.2l-3.3-0.6l-3.2-0.2l-2.3-0.3l-2.5-0.9l-2.1-2.1l-1.1-2.1
			l0.2-2.9l2-2.2l2.1-1.4l1.9-0.5h1.3l-0.7-1.8v-1.9l0.8-2l1.8-2l2.8-0.9l3.5,1.1l1.8,3.1l0.8,3.1l1.2,2.9l1.8,2.3l3.1,2.3
			l15.7,11.7l3.2,2.1l3.2,0.7l3.7,0.1l3.3,0.1l2.6,0.8l1.8,2.4l0.4,2.4l-0.4,2.6l-0.9,1.9l-2,1.5l-2.2,0.7L529,223.9z"/>
	</g>
	<path id="Path_4065" class="st1" d="M394.6,121.5l-0.6,1.8l-1.4,1.7l-1.9,1.2l-2,0.1l-1.8-0.4l-1.4-0.9l-1.2-1.5l-0.6-2l0.3-2.6
		l1.1-2.7l0.7-2.4l0.1-2.2l-0.3-2.6l-0.7-2.7l-5.3-16.7l-1.2-3.1l-1.7-2.8l-2.3-2.4l-2.5-2l-1.7-1.6l-1.5-2.2l-0.5-2.9l0.4-2.4
		l1.8-2.2l2.9-0.6l2.5,0.1l1.8,0.7l1.1,0.8L379,67l1.1-1.6l1.8-1.1l2.6-0.5l2.8,0.9l2.1,2.9l-0.4,3.6L388,74l-0.7,3l0.1,2.9l1.1,3.7
		l5.9,18.7l1.4,3.6l2.1,2.4l3,2.3l2.6,2l1.6,2.2l0.1,3l-1.1,2.2l-1.8,1.8l-1.9,1l-2.5,0.1l-2.2-0.7L394.6,121.5z"/>
	<g id="Group_1471">
		<g id="hueso-11">
			<path id="Path_4066" class="st1" d="M379.9,70.3c-1.6-2.3-4.4-3.3-7.2-2.8c-2.6,0.3-4.5,2.6-4.4,5.2c-0.4,4,3,6.2,6,8.6
				c2.4,1.8,4.1,4.3,5,7.2c1.3,3.6,2.5,7.3,3.6,11c0.5,1.6,0.9,3.3,1.5,4.9c1,3,1.9,6.2,1.5,9.4s-3.4,6.2-1.7,9.6
				c1.4,2.7,4.8,3.8,7.5,2.3c1.6-0.8,2.7-2.4,2.9-4.1"/>
			<path id="Path_4067" class="st1" d="M393.7,120.2c0.9,1.3,2.2,2.2,3.6,2.7c4.1,0.9,7.2-1.7,8.2-5.3c0.9-4.1-3.5-6-6.5-8.4
				c-1.8-1.3-3.2-3.1-4-5.2l-1.2-3.8l-3.4-10.9l-2.2-7c-0.4-0.9-0.6-1.9-0.7-2.9c-0.1-2.3,0.4-4.7,1.4-6.8c0.8-1.9,1.4-3.9,0.3-5.8
				c-2.8-4.9-9.9-3-10.3,2.3"/>
		</g>
		<path id="Path_4068" class="st1" d="M394.9,121.8l-0.7,1.8l-1.4,1.7l-1.9,1.2l-2,0.1L387,126l-1.4-0.9l-1.1-1.5l-0.6-2l0.3-2.6
			l1.1-2.8l0.7-2.4l0.1-2.2l-0.3-2.6l-0.6-2.7l-5.3-16.7l-1.2-3.1l-1.7-2.7l-2.3-2.4l-2.5-2l-1.7-1.5l-1.5-2.2l-0.5-3l0.3-2.4
			l1.8-2.2l2.9-0.6l2.5,0.1l1.8,0.7l1.1,0.8l0.5-1.9l1.1-1.6l1.8-1.2l2.6-0.5l2.8,0.9l2.1,2.9l-0.4,3.6l-1.1,3l-0.7,3l0.1,2.9
			l1.1,3.7l5.9,18.7l1.4,3.6l2.1,2.4l3,2.3l2.6,2l1.6,2.2l0.1,3l-1.1,2.2l-1.8,1.9l-1.9,1l-2.5,0.1l-2.2-0.7L394.9,121.8z"/>
	</g>
	<path id="Path_4069" class="st1" d="M621.1,318.1l1.8,0.5l1.8,1.2l1.4,1.8l0.3,2l-0.2,1.9l-0.8,1.5l-1.4,1.3l-1.9,0.9h-2.6
		l-2.9-0.8l-2.5-0.4l-2.2,0.1l-2.5,0.6l-2.6,1l-16,7.2l-2.9,1.6l-2.5,2l-2.1,2.6l-1.7,2.8l-1.4,1.9l-2,1.8l-2.9,0.8l-2.4-0.1
		l-2.4-1.6l-0.9-2.8l-0.2-2.5l0.5-1.9l0.6-1.1l-1.9-0.3l-1.7-0.9l-1.3-1.6l-0.8-2.6l0.5-2.9l2.7-2.5h3.6l3.1,0.8l3.1,0.4l2.8-0.4
		l3.5-1.5l17.8-8l3.4-1.8l2.2-2.4l1.9-3.2l1.7-2.8l2-1.9l2.9-0.5l2.3,0.8l2,1.6l1.2,1.7l0.4,2.5l-0.5,2.3L621.1,318.1z"/>
	<g id="hueso-12">
		<path id="Path_4070" class="st1" d="M660,289.6c2.8,0.1,5.4-1.4,6.6-3.9c1.4-2.2,0.8-5.2-1.4-6.7c-2.8-2.8-6.7-1.5-10.4-0.6
			c-2.9,0.7-5.9,0.5-8.8-0.5c-3.7-1.2-7.3-2.6-10.9-4c-1.6-0.6-3.1-1.3-4.7-1.9c-3-1.1-6.1-2.4-8.3-4.7s-2.7-6.6-6.5-7.3
			c-3-0.6-5.9,1.4-6.5,4.4c-0.3,1.7,0.2,3.6,1.4,4.8"/>
		<path id="Path_4071" class="st1" d="M612.3,269.2c-1.5-0.1-3.1,0.3-4.4,1.1c-3.3,2.7-3.1,6.7-1,9.8c2.7,3.3,6.9,1,10.6,0.2
			c2.1-0.6,4.4-0.6,6.5,0.1l3.7,1.4l10.7,4.1l6.9,2.6c1,0.3,1.9,0.7,2.7,1.3c1.9,1.4,3.4,3.2,4.4,5.4c1,1.8,2.2,3.5,4.4,3.9
			c5.6,0.9,8.5-5.9,4.6-9.5"/>
	</g>
	<path id="Path_4072" class="st1" d="M353.8,391.7c-3.6,1.3-4.3,6.6-0.5,8.1c2.2,0.9,4.7-0.1,5.7-2.4c0.5-1.2,0.4-2.5-0.2-3.6
		C357.9,392,355.8,391.1,353.8,391.7z"/>
	<path id="Path_4073" class="st1" d="M140,256.2c-6,2.2-7.3,11-0.9,13.6c3.7,1.5,7.9-0.3,9.4-4c0.8-1.9,0.7-4.1-0.2-6
		C146.9,257,143.1,255,140,256.2z"/>
	<path id="Path_4074" class="st1" d="M224.4,160.7c-6,2.2-7.3,11-0.9,13.6c3.7,1.5,7.9-0.3,9.4-4c0.8-1.9,0.7-4.1-0.2-6
		C231.3,161.4,227.5,159.5,224.4,160.7z"/>
	<path id="Path_4075" class="st1" d="M299.9,225.7c-6,2.2-7.3,11-0.9,13.6c3.7,1.5,7.9-0.3,9.4-4c0.8-1.9,0.7-4.1-0.2-6
		C306.8,226.5,303,224.6,299.9,225.7z"/>
	<path id="Path_4076" class="st1" d="M220,189.8c-3.6,1.3-4.3,6.6-0.5,8.1c2.2,0.9,4.7-0.1,5.7-2.4c0.5-1.2,0.4-2.5-0.2-3.6
		C224,190.2,222,189.3,220,189.8z"/>
	<path id="Path_4077" class="st1" d="M273.9,242.6c-3.6,1.3-4.3,6.6-0.5,8.1c2.2,0.9,4.7-0.1,5.7-2.4c0.5-1.2,0.4-2.5-0.2-3.6
		C277.9,243,275.9,242.1,273.9,242.6z"/>
	<path id="Path_4078" class="st1" d="M365,260.5c-3.6,1.3-4.3,6.6-0.5,8.1c2.2,0.9,4.7-0.1,5.7-2.4c0.5-1.2,0.4-2.5-0.2-3.6
		C369,260.8,367,259.9,365,260.5z"/>
	<path id="Path_4079" class="st1" d="M261.6,210c-2.5,0.9-3,4.6-0.4,5.7c1.5,0.7,3.3,0,4-1.5c0.4-0.9,0.3-1.9-0.1-2.7
		C264.5,210.2,263,209.6,261.6,210z"/>
	<path id="Path_4080" class="st1" d="M391,152.5c-6,2.2-7.3,11-0.9,13.6c3.7,1.5,7.9-0.3,9.5-4c0.8-1.9,0.7-4.1-0.3-6
		C397.9,153.3,394.1,151.3,391,152.5z"/>
	<path id="Path_4081" class="st1" d="M376.5,172c-3.6,1.3-4.3,6.6-0.5,8.1c2.2,0.9,4.8-0.2,5.6-2.4c0.5-1.2,0.4-2.5-0.2-3.6
		C380.6,172.3,378.5,171.4,376.5,172z"/>
	<path id="Path_4082" class="st1" d="M357.5,158c-2.5,0.9-3,4.6-0.4,5.7c1.5,0.7,3.3,0,4-1.5c0,0,0-0.1,0-0.1
		c0.3-0.8,0.3-1.7-0.1-2.5C360.4,158.2,358.9,157.6,357.5,158z"/>
	<path id="Path_4083" class="st1" d="M403.3,234.6c-2.5,0.9-3,4.6-0.4,5.7c1.5,0.7,3.3,0,4-1.5c0,0,0-0.1,0-0.1
		c0.3-0.8,0.3-1.7-0.1-2.5C406.1,234.8,404.7,234.1,403.3,234.6z"/>
	<path id="Path_4084" class="st1" d="M136.7,206.2c-3.6,1.3-4.3,6.6-0.5,8.1c2.2,0.9,4.7-0.1,5.7-2.3c0.5-1.2,0.4-2.5-0.2-3.7
		C140.8,206.5,138.7,205.6,136.7,206.2z"/>
	<path id="Path_4085" class="st1" d="M109.9,200c-2.5,0.9-3.1,4.6-0.4,5.7c1.5,0.7,3.3,0,4-1.5c0.4-0.9,0.3-1.9-0.1-2.7
		C112.8,200.2,111.3,199.6,109.9,200z"/>
	<path id="Path_4086" class="st1" d="M162.7,276.6c-2.5,0.9-3,4.6-0.4,5.7c1.5,0.6,3.3-0.2,3.9-1.7s-0.2-3.3-1.7-3.9
		C163.9,276.5,163.3,276.4,162.7,276.6z"/>
	<path id="Path_4087" class="st1" d="M451.9,256.2c-6,2.2-7.3,11-0.9,13.6c3.7,1.5,7.9-0.3,9.4-4c0.8-1.9,0.7-4.1-0.2-6
		C458.8,257,455,255,451.9,256.2z"/>
	<path id="Path_4088" class="st1" d="M644.1,225.1c-6,2.2-7.3,11-0.9,13.6c3.7,1.5,7.9-0.3,9.4-4c0.8-1.9,0.7-4.1-0.2-6
		C651,225.9,647.2,224,644.1,225.1z"/>
	<path id="Path_4089" class="st1" d="M551.2,213c-3.6,1.3-4.3,6.6-0.5,8.1c2.2,0.9,4.8-0.2,5.7-2.4c0.5-1.2,0.4-2.5-0.2-3.6
		C555.2,213.3,553.1,212.4,551.2,213z"/>
	<path id="Path_4090" class="st1" d="M610.7,229.6c-3.6,1.3-4.3,6.6-0.5,8.1c2.2,0.9,4.7-0.1,5.7-2.3c0.5-1.2,0.4-2.5-0.2-3.7
		C614.8,229.9,612.7,229,610.7,229.6z"/>
	<path id="Path_4091" class="st1" d="M676.9,260.5c-3.6,1.3-4.3,6.6-0.5,8.1c2.2,0.9,4.7-0.1,5.7-2.4c0.5-1.2,0.4-2.5-0.2-3.6
		C680.9,260.8,678.9,259.9,676.9,260.5z"/>
	<path id="Path_4092" class="st1" d="M583.9,223.4c-2.5,0.9-3,4.6-0.4,5.7c1.5,0.7,3.3,0,4-1.5c0,0,0-0.1,0-0.1
		c0.3-0.8,0.3-1.7-0.1-2.5C586.8,223.6,585.3,223,583.9,223.4z"/>
	<path id="Path_4093" class="st1" d="M448.6,206.2c-3.6,1.3-4.3,6.6-0.5,8.1c2.2,0.9,4.7-0.1,5.7-2.4c0.5-1.2,0.4-2.5-0.2-3.6
		C452.7,206.5,450.6,205.6,448.6,206.2z"/>
	<path id="Path_4094" class="st1" d="M421.9,200c-2.5,0.9-3,4.6-0.4,5.7c1.5,0.7,3.3,0,4-1.5c0.4-0.9,0.3-1.9-0.1-2.7
		C424.7,200.2,423.2,199.6,421.9,200z"/>
	<path id="Path_4095" class="st1" d="M474.6,276.6c-2.5,0.9-3,4.6-0.4,5.7c1.5,0.7,3.3,0,4-1.5c0.4-0.9,0.3-1.9-0.1-2.7
		C477.5,276.8,476,276.2,474.6,276.6z"/>
	<path id="Path_4096" class="st1" d="M291.3,103c-6,2.2-7.3,11-0.9,13.7c3.7,1.5,7.9-0.3,9.4-4c0.8-1.9,0.7-4.1-0.2-6
		C298.2,103.8,294.4,101.9,291.3,103z"/>
	<path id="Path_4097" class="st1" d="M265.4,119.9c-3.6,1.3-4.3,6.6-0.5,8.1c2.2,0.9,4.8-0.2,5.6-2.4c0.5-1.2,0.4-2.5-0.2-3.6
		C269.4,120.3,267.3,119.4,265.4,119.9z"/>
	<path id="Path_4098" class="st1" d="M365,106.2c-3.6,1.3-4.3,6.6-0.5,8.1c2.2,0.9,4.7-0.1,5.7-2.4c0.5-1.2,0.4-2.5-0.2-3.6
		C369,106.5,367,105.6,365,106.2z"/>
	<path id="Path_4099" class="st1" d="M247.1,82.1c-2.5,0.9-3,4.6-0.4,5.7c1.5,0.7,3.3,0,4-1.5c0.4-0.9,0.3-1.9-0.1-2.7
		C250,82.4,248.5,81.7,247.1,82.1z"/>
	<path id="Path_4100" class="st1" d="M403.3,80.3c-2.5,0.9-3,4.6-0.4,5.7c1.5,0.7,3.3,0,4-1.5c0,0,0-0.1,0-0.1
		c0.3-0.8,0.3-1.7-0.1-2.5C406.1,80.5,404.7,79.9,403.3,80.3z"/>
	<path id="Path_4101" class="st1" d="M451.9,101.9c-6,2.2-7.3,11-0.9,13.7c3.7,1.5,7.9-0.3,9.4-4c0.8-1.9,0.7-4.1-0.2-6
		C458.8,102.7,455,100.8,451.9,101.9z"/>
	<path id="Path_4102" class="st1" d="M231.5,53.7c-6,2.2-7.3,11-0.9,13.6c3.7,1.5,7.9-0.3,9.4-4c0.8-1.9,0.7-4.1-0.2-6
		C238.4,54.5,234.6,52.6,231.5,53.7z"/>
	<path id="Path_4103" class="st1" d="M474.6,122.3c-2.5,0.9-3,4.6-0.4,5.7c1.5,0.7,3.3,0,4-1.5c0.4-0.9,0.3-1.9-0.1-2.7
		C477.5,122.5,476,121.9,474.6,122.3z"/>
	<path id="Path_4104" class="st1" d="M261.4,335.9c-6,2.2-7.3,11-0.9,13.6c3.7,1.5,7.9-0.3,9.5-4c0.8-1.9,0.7-4.1-0.3-6
		C268.3,336.7,264.5,334.7,261.4,335.9z"/>
	<path id="Path_4105" class="st1" d="M224.4,313.8c-6,2.2-7.3,11-0.9,13.6c3.7,1.5,7.9-0.3,9.4-4c0.8-1.9,0.7-4.1-0.2-6
		C231.3,314.6,227.5,312.7,224.4,313.8z"/>
	<path id="Path_4106" class="st1" d="M292.2,363.7c-6,2.2-7.3,11-0.9,13.6c3.7,1.5,7.9-0.3,9.5-4c0.8-1.9,0.7-4.1-0.3-6
		C299.1,364.5,295.3,362.5,292.2,363.7z"/>
	<path id="Path_4107" class="st1" d="M220,343c-3.6,1.3-4.3,6.6-0.5,8.1c2.2,0.9,4.7-0.1,5.7-2.4c0.5-1.2,0.4-2.5-0.2-3.6
		C224,343.3,222,342.4,220,343z"/>
	<path id="Path_4108" class="st1" d="M266.5,404.7c-3.6,1.3-4.3,6.6-0.5,8.1c2.2,0.9,4.8-0.2,5.7-2.4c0.5-1.2,0.4-2.5-0.2-3.6
		C270.5,405.1,268.4,404.2,266.5,404.7z"/>
	<path id="Path_4109" class="st1" d="M257.3,371.8c-2.5,0.9-3,4.6-0.4,5.7c1.5,0.7,3.3,0,4-1.5c0,0,0-0.1,0-0.1
		c0.3-0.8,0.3-1.7-0.1-2.5C260.2,372,258.7,371.4,257.3,371.8z"/>
	<path id="Path_4110" class="st1" d="M391,305.6c-6,2.2-7.3,11-0.9,13.6c3.7,1.5,7.9-0.3,9.5-4c0.8-1.9,0.7-4.1-0.3-6
		C397.9,306.4,394.1,304.5,391,305.6z"/>
	<path id="Path_4111" class="st1" d="M376.5,325.2c-3.6,1.3-4.3,6.6-0.5,8.1c2.2,0.9,4.8-0.2,5.6-2.4c0.5-1.2,0.4-2.5-0.2-3.6
		C380.6,325.5,378.5,324.6,376.5,325.2z"/>
	<path id="Path_4112" class="st1" d="M357.5,311.1c-2.5,0.9-3,4.6-0.4,5.7c1.5,0.7,3.3,0,4-1.5c0,0,0-0.1,0-0.1
		c0.3-0.8,0.3-1.7-0.1-2.5C360.4,311.4,358.9,310.7,357.5,311.1z"/>
	<path id="Path_4113" class="st1" d="M403.3,377.3c-2.5,0.9-3,4.6-0.4,5.7c1.5,0.7,3.3,0,4-1.5c0,0,0-0.1,0-0.1
		c0.3-0.8,0.3-1.7-0.1-2.5C406.1,377.5,404.7,376.9,403.3,377.3z"/>
	<path id="Path_4114" class="st1" d="M136.7,359.4c-3.6,1.3-4.3,6.6-0.5,8.1c2.2,0.9,4.7-0.1,5.7-2.3c0.5-1.2,0.4-2.5-0.2-3.7
		C140.8,359.7,138.7,358.8,136.7,359.4z"/>
	<path id="Path_4115" class="st1" d="M109.9,353.2c-2.5,0.9-3.1,4.6-0.4,5.7c1.5,0.7,3.3,0,4-1.5c0.4-0.9,0.3-1.9-0.1-2.7
		C112.8,353.4,111.3,352.8,109.9,353.2z"/>
	<path id="Path_4116" class="st1" d="M162.7,429.7c-2.5,0.9-3,4.6-0.4,5.7c1.5,0.6,3.3-0.2,3.9-1.7s-0.2-3.3-1.7-3.9
		C163.9,429.6,163.3,429.6,162.7,429.7z"/>
	<path id="Path_4117" class="st1" d="M433.5,381.6c-6,2.2-7.3,11-0.9,13.6c3.7,1.5,7.9-0.3,9.4-4c0.8-1.9,0.7-4.1-0.2-6
		C440.4,382.4,436.6,380.5,433.5,381.6z"/>
	<path id="Path_4118" class="st1" d="M536.3,313.8c-6,2.2-7.3,11-0.8,13.6c3.7,1.5,7.9-0.3,9.4-4c0.8-1.9,0.7-4.1-0.2-6
		C543.2,314.6,539.4,312.7,536.3,313.8z"/>
	<path id="Path_4119" class="st1" d="M595,375.2c-6,2.2-7.3,11-0.8,13.6c3.7,1.5,7.9-0.3,9.4-4c0.8-1.9,0.7-4.1-0.2-6
		C602,375.9,598.2,374,595,375.2z"/>
	<path id="Path_4120" class="st1" d="M531.9,343c-3.6,1.3-4.3,6.6-0.5,8.1c2.2,0.9,4.7-0.1,5.7-2.4c0.5-1.2,0.4-2.5-0.2-3.6
		C536,343.3,533.9,342.4,531.9,343z"/>
	<path id="Path_4121" class="st1" d="M558.7,388.7c-3.6,1.3-4.3,6.6-0.5,8.1c2.2,0.9,4.7-0.1,5.7-2.4c0.5-1.2,0.4-2.5-0.2-3.6
		C562.7,389.1,560.6,388.2,558.7,388.7z"/>
	<path id="Path_4122" class="st1" d="M676.9,413.6c-3.6,1.3-4.3,6.6-0.5,8.1c2.2,0.9,4.7-0.1,5.7-2.4c0.5-1.2,0.4-2.5-0.2-3.6
		C680.9,414,678.9,413.1,676.9,413.6z"/>
	<path id="Path_4123" class="st1" d="M547.1,421.9c-2.5,0.9-3,4.6-0.3,5.7c1.5,0.7,3.3,0,4-1.5c0.4-0.9,0.3-1.9-0.1-2.7
		C550,422.2,548.5,421.5,547.1,421.9z"/>
	<path id="Path_4124" class="st1" d="M702.9,305.6c-6,2.2-7.3,11-0.9,13.6c3.7,1.5,7.9-0.3,9.4-4c0.8-1.9,0.7-4.1-0.2-6
		C709.8,306.4,706,304.5,702.9,305.6z"/>
	<path id="Path_4125" class="st1" d="M688.4,325.2c-3.6,1.3-4.3,6.6-0.5,8.1c2.2,0.9,4.8-0.2,5.6-2.4c0.5-1.2,0.4-2.5-0.2-3.6
		C692.5,325.5,690.4,324.6,688.4,325.2z"/>
	<path id="Path_4126" class="st1" d="M669.5,311.1c-2.5,0.9-3,4.6-0.4,5.7c1.5,0.7,3.3,0,4-1.5c0.4-0.9,0.3-1.9-0.1-2.7
		C672.3,311.4,670.8,310.8,669.5,311.1z"/>
	<path id="Path_4127" class="st1" d="M719.3,425.6c-2.5,0.9-3,4.6-0.4,5.7c1.5,0.7,3.3,0,4-1.5c0.4-0.9,0.3-1.9-0.1-2.7
		C722.1,425.9,720.6,425.3,719.3,425.6z"/>
	<path id="Path_4128" class="st1" d="M448.6,359.4c-3.6,1.3-4.3,6.6-0.5,8.1c2.2,0.9,4.7-0.2,5.6-2.4c0,0,0,0,0,0
		c0.9-2.2-0.1-4.7-2.3-5.6C450.5,359.2,449.6,359.1,448.6,359.4L448.6,359.4z"/>
	<path id="Path_4129" class="st1" d="M393.2,430.7c-3.6,1.3-4.3,6.6-0.5,8.1c2.2,0.9,4.7-0.1,5.7-2.4c0.5-1.2,0.4-2.5-0.2-3.6
		C397.3,431.1,395.2,430.2,393.2,430.7z"/>
	<path id="Path_4130" class="st1" d="M421.9,353.2c-2.5,0.9-3,4.6-0.4,5.7c1.5,0.7,3.3,0,4-1.5c0.4-0.9,0.3-1.9-0.1-2.7
		C424.7,353.4,423.2,352.8,421.9,353.2z"/>
	<path id="Path_4131" class="st1" d="M460.1,429.7c-2.5,0.9-3,4.6-0.4,5.7c1.5,0.7,3.3,0,4-1.5c0.4-0.9,0.3-1.9-0.1-2.7
		C463,430,461.5,429.4,460.1,429.7z"/>
	<g id="Group_1473">
		<g id="Group_1472">
			<path id="Path_4132" class="st2" d="M699,177.2c-8.8,5.1-17,11.1-24.5,17.9c3.3,15.3,31.3,41.5,29.2,51c-2.2,9.9-7.7,8.1-18.5-15
				c-7.6-16.5-12.8-27-15.1-31.7c-9.7,9.8-17.3,21.4-22.5,34.1c2.6,4.1,8.3,9.3,20.5,14.8c28.2,12.9,20.3,35.1,4.4,28.2
				c-10.9-4.8-22.3-22.5-28.3-33.1c-8,28.9-0.5,55.5,11.7,65.5c29.4,24,49.3-7.6,49.3-7.6s-8.4,24.1-1.5,34.8
				c4,6.2,19.2,21.9,39.8,22.7c-21.7-13.5-13.2-32.6-3.3-17.3c7.3,11.3,16,13.9,21,14.3c2.1-0.8,4.1-1.7,6-2.7
				c-6-0.7-12.7-3.1-14.4-9.8c-2.8-10.9,4.6,3.3,21.1,5.7c7.6-5.6,14.3-12.2,20-19.7c-6.4-2.8-16.4-6.4-25-6.2
				c-13.8,0.3-22.4-12.3-12.2-18.9c9.3-6,22.1,14.7,44,16.1c9.5-13.5,16.6-28.7,20.8-44.7c-12.4,2.1-24.5,5.5-36.1,10.2
				c-20.4,8.5-20.3-12.3-1.9-11.8c12.8,0.4,30.4-4.3,40-7.2c1.9-10.1,2.7-20.5,2.4-30.8c-5.8,5.2-17.8,14.2-32.5,15.8
				c-20.8,2.3-24.3-13.6-9.3-14.5c13.5-0.8,31.7-1.6,41.3-10.3c-1.2-14.3-4-28.4-8.5-42c-6.4,3.3-18.8,9-17.5,3.1
				c1.4-6.3,10.3-11.5,13.9-13.4c-3.4-9-7.5-17.8-12.4-26.1c-10.1,0.9-19.7,2.1-28.7,3.6c-3.8,6.5-9.5,19.3-6.9,33.4
				c3.7,20.4-1.6,25.1-9.3,20.5c-7.1-4.2-5.4-36.3,8.8-52.5c-25.8,5.1-46.7,12.8-63.5,22.1c2.2,7.1,7.8,24.4,14.6,34.9
				c8.7,13.6,2.8,22.8-5.8,15.7C703.2,220.5,699.9,188,699,177.2z M745.2,302.9c0,0,8.8,7.5-0.5,11.3S729.3,294,745.2,302.9
				L745.2,302.9z M758.2,270.2c0,0,8.3,13.6-2.8,14.9S749.9,256.6,758.2,270.2z M786.2,229.3c-10.3-2.2,16.4-14.3,12.8-8.2
				C799,221.1,796.4,231.5,786.2,229.3L786.2,229.3z M708.8,269.9c0,0,2.8,11.7-9.7,14S701,257.9,708.8,269.9z M733.8,184.7
				c0,0,24.4,34.8,12,42.8S724.1,168.4,733.8,184.7z"/>
		</g>
		<path id="Path_4133" class="st3" d="M795.2,196.5c-13.4,14.1-26.4,28.6-39,43.4c-12.6,14.8-24.9,29.9-36.5,45.4
			C713.9,293,708.3,301,703,309s-10.4,16.3-15,24.8c-2.3,4.2-4.4,8.5-6.3,12.9c-0.5,1.1-0.9,2.2-1.3,3.3c-0.4,1.1-0.8,2.2-1.1,3.3
			c-0.7,2.2-1.2,4.5-1.7,6.8c-0.9,4.6-1.4,9.3-1.6,14c-0.1,2.4-0.1,4.7-0.1,7.1c0,1.2,0,2.4,0.1,3.5s0.1,2.4,0.2,3.4l-8.3,0.6
			c0-1.4,0-2.6,0-3.9s0-2.5,0.1-3.8c0.1-2.5,0.3-5,0.5-7.5c0.5-5,1.3-10,2.5-14.9c0.6-2.5,1.4-4.9,2.2-7.3c0.4-1.2,0.9-2.4,1.4-3.6
			s1-2.3,1.5-3.4c2.1-4.5,4.4-8.9,6.9-13.1c4.9-8.5,10.3-16.7,16-24.7s11.6-15.8,17.6-23.4c12.1-15.3,24.9-30,38-44.4
			S781.4,210.2,795.2,196.5z"/>
		<path id="Path_4134" class="st3" d="M768.4,335.2c-3.1-0.1-6.1-0.4-9.1-1c-9-1.7-17.7-5.3-25.3-10.4c-1.3-0.8-2.5-1.8-3.7-2.7
			s-2.4-1.9-3.5-3c-2.3-2-4.5-4.2-6.5-6.6c-4-4.7-7.4-9.8-10.3-15.3c-0.2-0.4,0-0.8,0.3-1s0.8,0,1,0.3l0,0
			c2.6,5.5,5.9,10.6,9.7,15.3c1.9,2.3,4,4.6,6.2,6.6c1.1,1.1,2.3,2,3.4,3s2.4,1.9,3.6,2.7c7.5,5.3,16,8.9,25,10.9
			C762.3,334.7,765.4,335.1,768.4,335.2z"/>
		<path id="Path_4135" class="st3" d="M652.1,279.5c1.4,2.2,2.9,4.3,4.7,6.2c1.8,1.9,3.6,3.7,5.6,5.3c4,3.3,8.5,5.9,13.3,7.8
			c4.8,1.8,9.9,2.9,15,3.1c5.1,0.2,10.3-0.4,15.3-1.6c0.4-0.1,0.8,0.2,0.9,0.6c0.1,0.4-0.2,0.8-0.6,0.9l0,0
			c-5.1,1.1-10.4,1.6-15.6,1.3c-5.3-0.3-10.4-1.5-15.3-3.5c-4.8-2-9.3-4.8-13.3-8.2c-2-1.7-3.8-3.5-5.5-5.5
			C655,283.9,653.5,281.8,652.1,279.5z"/>
		<path id="Path_4136" class="st3" d="M792.3,295.7c-2.9,0.7-5.9,1.3-8.9,1.5c-3,0.3-6,0.4-9.1,0.4c-9.1-0.1-18.1-2.1-26.4-5.9
			c-2.8-1.3-5.4-2.8-8-4.4c-5.1-3.4-9.7-7.5-13.7-12.1c-0.3-0.3-0.2-0.8,0.1-1.1s0.8-0.2,1.1,0.1l0,0c5.7,7,12.8,12.7,20.9,16.6
			c2.7,1.3,5.5,2.4,8.3,3.3c5.7,1.8,11.7,2.8,17.7,3.1c3,0.1,6,0.1,9-0.2C786.3,296.8,789.3,296.4,792.3,295.7z"/>
		<path id="Path_4137" class="st3" d="M804.1,259.1c-4.8,1.9-9.8,3.1-14.9,3.6c-5.1,0.5-10.3,0.4-15.4-0.3c-1.3-0.2-2.5-0.4-3.8-0.6
			s-2.5-0.5-3.8-0.9c-2.5-0.7-4.9-1.5-7.3-2.5c-4.8-1.9-9.4-4.4-13.6-7.3c-0.4-0.2-0.5-0.7-0.3-1s0.7-0.5,1-0.3c0,0,0,0,0.1,0l0,0
			c4.1,3,8.6,5.5,13.2,7.5c2.3,1,4.7,1.9,7.2,2.6c1.2,0.4,2.5,0.7,3.7,1s2.5,0.5,3.7,0.7c5,0.9,10.2,1.1,15.3,0.7
			C794.2,261.9,799.3,260.8,804.1,259.1z"/>
		<path id="Path_4138" class="st3" d="M688.8,199.8c2.6,6.2,5.5,12.2,8.6,18.1c3.1,5.9,6.5,11.7,10.2,17.3c1.8,2.8,3.8,5.5,5.8,8.2
			s4.1,5.2,6.4,7.7c2.2,2.5,4.6,4.8,7.2,6.9c2.5,2.1,5.2,4,8.1,5.7l0,0c0.4,0.2,0.5,0.7,0.3,1c-0.2,0.4-0.7,0.5-1,0.3l0,0
			c-2.9-1.7-5.6-3.8-8.2-6c-2.5-2.2-4.9-4.6-7.1-7.2c-2.2-2.5-4.3-5.1-6.3-7.9s-3.9-5.5-5.7-8.3c-3.6-5.7-6.8-11.5-9.8-17.5
			S691.3,206.1,688.8,199.8z"/>
		<path id="Path_4139" class="st3" d="M743.6,178.4c0.3,4.7,0.9,9.4,2,14.1c1,4.6,2.4,9.2,4.1,13.6l0.6,1.7l0.7,1.6
			c0.5,1.1,0.9,2.2,1.4,3.2c1,2.1,2,4.3,3.2,6.3c2.3,4.1,4.9,8.1,7.8,11.8l0,0c0.2,0.3,0.2,0.8-0.1,1c0,0,0,0,0,0
			c-0.3,0.2-0.8,0.2-1-0.1l0,0l0,0c-2.8-3.9-5.3-7.9-7.6-12.2c-1.2-2.1-2.1-4.3-3.1-6.4c-0.5-1.1-0.9-2.2-1.3-3.3l-0.6-1.7l-0.6-1.7
			c-1.6-4.5-2.9-9.1-3.8-13.8C744.3,187.9,743.7,183.2,743.6,178.4z"/>
	</g>
	<g id="Group_1476">
		<g id="Group_1474">
			<path id="Path_4140" class="st3" d="M204,379c-29.7-13.7-65.9-32.7-89.3-48.4c-2.8-1.9-5.4-3.7-7.8-5.4
				c-10.3-7.5-16.7-13.8-16.7-17.8c0-12.7,12.9-5.2,16.5-8.1s5-5.8-9.3-8.8s-48.1-12.7-42.4-29.6s21.6-5.4,30.9-4.7
				s12.2-2.2-9.3-23.3c-20.8-20.4-32.2-58.4-7.6-68.8l0,0c0.8-0.4,1.7-0.7,2.5-0.9c9.6-3,18.1-0.4,25.3,5.1
				c14.3,11,23.3,33.6,24.2,45.4c1.5,17.8,10.1,28.9,8.6,15.3s2.9-24.4,14.4-23.7s15.8,12.2,12.9,30.2s0.7,33,6.5,32.3
				s0-23.7,12.9-25.1s19.4,8.6,23,39.1c2.6,22.4,17.2,62.4,30.7,86.9c4.9,8.9,9.6,15.8,13.6,19c3.8,3.1,6.2,5.5,6.9,7l0,0l0,0
				C252.6,399,240.1,395.6,204,379z"/>
			<path id="Path_4141" class="st2" d="M250.4,394.6c-21-13.5-40.3-29.4-58.6-46.3c-1.4-1.3-2.7-2.6-4.1-3.9
				c-16.7-16-32.3-33-46.8-51c-7.7-9.8-15.1-19.9-22.2-30.2c-3.4-5.3-6.9-10.4-10.2-15.8c-1.6-2.6-3.3-5.3-4.9-8l-4.6-8.1
				c-1.6-2.7-3-5.5-4.5-8.2s-3-5.5-4.3-8.3c-2.7-5.6-5.6-11.2-8-16.9c-1.1-2.5-2.2-5-3.3-7.5c-3.7-8.7-7-17.5-10.1-26.3
				c-0.1-0.3-0.2-0.6-0.3-0.9l0.4,0.9c3.4,8.2,6.7,16.3,10.4,24.2c1.4,3,2.8,6,4.3,9c2.6,5.6,5.5,11.1,8.4,16.6
				c1.4,2.8,3,5.4,4.5,8.1s3,5.4,4.6,8.1c6.3,10.7,12.9,21.2,19.9,31.5c7.1,10.2,14.5,20.2,22.3,29.9s15.8,19.2,24.1,28.4
				c8.3,9.2,17.1,18,26,26.7c0.4,0.4,0.7,0.7,1.1,1c8.6,8.3,17.4,16.3,26.5,24C230.5,379.7,240.2,387.4,250.4,394.6z"/>
		</g>
		<g id="Group_1475">
			<path id="Path_4142" class="st1" d="M308.2,441.9c0,0-25.9,0.8-63.7-5.2c-9.1-1.4-19-3.3-29.3-5.6c-2.3-0.5-4.6-1.1-6.9-1.6
				c-10.3-2.5-21.1-5.5-32.1-9.1c-3.1-1-6.3-2.1-9.4-3.2c-42.8-15.3-88.6-39.9-126.8-79.5c0,0,25.7-13.4,66.9-12.4
				c10.7,0.2,21.5,1.4,32,3.5c16.9,3.3,33.3,8.6,48.9,15.8c2.2,1,4.5,2.1,6.8,3.2c12.3,6.1,24.2,13.1,35.5,21
				c14.9,10.4,28.9,21.9,42,34.5c3.4,3.2,6.8,6.6,10.2,10c0.6,0.6,1.2,1.3,1.8,1.9c1.6,1.7,3.2,3.3,4.8,5
				C295.3,426.9,301.7,434.2,308.2,441.9z"/>
			<path id="Path_4143" class="st3" d="M40,337.6c12,1.5,23.9,3.8,35.7,6.1c5.9,1.3,11.8,2.6,17.7,4c5.9,1.5,11.8,2.9,17.6,4.5
				c23.4,6.3,46.4,13.8,69,22.5c11.4,4.2,22.4,9.2,33.5,13.9l16.4,7.7c2.7,1.3,5.5,2.5,8.2,3.9l8,4.3c21.6,10.9,42.1,23.9,62,37.5
				c-5.2-3.1-10.4-6.2-15.6-9.3l-7.7-4.7c-2.6-1.5-5.3-2.9-7.9-4.3l-15.9-8.7c-5.4-2.8-10.8-5.4-16.2-8.1l-8.1-4
				c-2.7-1.3-5.5-2.5-8.2-3.8l-16.4-7.5c-11.1-4.6-22.2-9.4-33.5-13.5c-11.2-4.5-22.6-8.4-34-12.4l-17.2-5.6l-17.3-5.2
				c-5.8-1.7-11.6-3.3-17.4-4.9s-11.7-3-17.5-4.5C63.6,342.6,51.8,339.9,40,337.6z"/>
		</g>
		<path id="Path_4144" class="st4" d="M176.2,420.4l24.5-11.4c1.1-0.5,2.1-1,3.2-1.5c-19.8,2.7-40-3.8-57.2-14s-31.8-24.2-46.2-38
			c-1.5-1.3-2.8-2.8-4-4.4c-0.6-0.9-1.2-1.8-1.5-2.9c-0.4-1-0.6-2-0.6-3.1c0-5.1,5.1-8.7,9.8-10.8c3.4-1.5,6.9-2.7,10.4-3.7
			c7.9-2.1,16.1-2.8,24.2-2h0.4l-19.1-8.4c-3.7-1.7-8-4-8.4-8c-0.9-8.3,13.5-9.5,16.3-17.3l-31.9-21.5c5.8,1.2,10.8-5.5,10.3-11.5
			s-4.4-10.9-8-15.8c-10.5-14.3-19.1-30.8-19.7-48.5c-0.1-2.4,0-4.8,0.3-7.2c0.1-0.7,0.2-1.4,0.3-2.1c1.1-6.3,3.8-12.1,8.7-16.1
			c2.6-2,5.6-3.4,8.8-4c-7.2-5.5-15.7-8.1-25.3-5.1c-0.9,0.3-1.7,0.6-2.5,0.9c-0.1-0.3-0.3-0.6-0.4-0.9c0.1,0.3,0.2,0.6,0.3,0.9
			c-24.6,10.4-13.3,48.4,7.6,68.9c21.6,21.1,18.7,24,9.3,23.3s-25.2-12.2-30.9,4.7s28.1,26.6,42.4,29.6s12.9,6,9.3,8.8
			s-16.5-4.6-16.5,8.1c0,4,6.4,10.3,16.7,17.8C65.6,324.3,40,337.6,40,337.6c38.2,39.6,84,64.3,126.8,79.5L176.2,420.4z"/>
	</g>
	<g id="Group_1479">
		<g id="Group_1477">
			<path id="Path_4146" class="st0" d="M832,340.7c-37.5,39-82.9,62.4-124.7,76.4c-0.2,0.1-0.5,0.2-0.8,0.3
				c-15.1,5-30.4,9.1-45.9,12.3c-2.8,0.5-5.5,1.1-8.2,1.6c-10.3,1.9-20,3.3-28.5,4.3c-25.5,2.9-41.8,2.4-41.8,2.4
				c3.8-4.5,7.6-8.9,11.3-13.1c1.7-1.8,3.3-3.6,4.9-5.4l1.9-2c3.5-3.7,7-7.3,10.5-10.7c15.9-15.9,33.4-30.2,52.3-42.5
				c10.1-6.5,20.6-12.3,31.5-17.3c1.9-0.9,3.8-1.7,5.7-2.5c13.2-5.6,26.9-9.8,41-12.4c9.9-1.9,20-2.9,30-3
				C808.7,328.6,832,340.7,832,340.7z"/>
			<path id="Path_4147" class="st1" d="M832,340.7c-11,2.1-22,4.6-32.9,7.3c-5.5,1.4-10.9,2.8-16.3,4.2s-10.8,3-16.2,4.6l-16.1,4.9
				l-16,5.2c-10.6,3.7-21.2,7.3-31.6,11.5c-10.6,3.8-20.8,8.3-31.2,12.6l-15.3,7c-2.5,1.2-5.1,2.3-7.6,3.5l-7.6,3.8
				c-5,2.5-10.1,4.9-15.1,7.5l-14.8,8.1c-2.5,1.3-5,2.6-7.4,4l-7.2,4.3c-4.8,2.9-9.6,5.8-14.5,8.6c18.6-12.7,37.7-24.8,57.8-35
				l7.5-4c2.5-1.3,5.1-2.4,7.6-3.6l15.3-7.2c10.4-4.4,20.7-9,31.3-12.9c21.1-8.1,42.5-15.1,64.3-20.9c5.4-1.5,10.9-2.8,16.4-4.2
				s11-2.5,16.5-3.7C809.8,344.2,820.8,342.1,832,340.7z"/>
		</g>
		<g id="Group_1478">
			<path id="Path_4148" class="st3" d="M801.2,517.2c-7.5,6.3-18.7,8.9-31.8,5.8c-3.1-0.8-6.2-1.8-9.1-3
				c-33.3-13.5-62.9-55.2-136.3-84.6c-7.4-3-15.2-5.8-23.5-8.5c-0.4-0.1-0.9-0.3-1.3-0.4c-1.9-0.6-3.7-1.2-5.7-1.8
				c-17.2-5.1-34.6-9.2-52.3-12.1c0,0,28.8-5.7,69.6-6c6.8,0,13.9,0,21.3,0.3c1.6,0.1,3.3,0.2,4.9,0.3c23.5,1.1,46.8,4.4,69.6,10
				l0.9,0.2c12.9,3.2,25.6,7.3,37.9,12.3C814.3,458,821.1,500.5,801.2,517.2z"/>
			<path id="Path_4149" class="st1" d="M801.2,517.2c-2.5-5.3-6-9.9-9.7-14.4l-2.9-3.3l-1.4-1.6l-1.6-1.5c-2.1-2-4.2-4-6.3-6
				l-6.7-5.5c-1.1-0.9-2.2-1.9-3.4-2.7l-3.5-2.5l-7.1-5c-2.4-1.6-4.9-3-7.4-4.5l-7.4-4.5l-7.7-4l-7.7-4l-1.9-1l-2-0.9l-4-1.7l-8-3.4
				l-4-1.7l-2-0.9l-2-0.7l-16.4-5.8c-5.4-2.1-11-3.5-16.6-5.2s-11.1-3.3-16.7-4.9l-16.9-4.1l-8.5-2l-4.2-1l-4.3-0.8l-17.1-3.3
				l-8.5-1.7l-4.3-0.8l-4.3-0.6c-11.5-1.8-23-3.5-34.5-5.4c11.6,1,23.2,2.3,34.8,3.5l4.3,0.5l4.3,0.7l8.6,1.4l17.3,2.8l4.3,0.7
				l4.3,0.9l8.5,1.9l17.1,3.8c5.7,1.5,11.2,3.2,16.9,4.8s11.3,3.1,16.7,5.2l16.5,6l2.1,0.8l2,0.9l4,1.8l8,3.5l4,1.8l2,0.9l1.9,1
				l7.8,4.1l7.8,4.1l7.4,4.7c2.5,1.6,5,3.1,7.4,4.8l7,5.3l3.5,2.6c1.2,0.9,2.2,1.9,3.3,2.9l6.6,5.8c2,2.1,4,4.3,6.1,6.4l1.5,1.6
				l1.4,1.7l2.7,3.4c0.5,0.6,0.9,1.1,1.4,1.7l1.2,1.8l2.5,3.6l2.1,3.8C800,514.5,800.6,515.9,801.2,517.2z"/>
		</g>
		<path id="Path_4150" class="st4" d="M801.2,517.2c-7.5,6.3-18.7,8.9-31.8,5.8c-3.1-0.7-6.2-1.7-9.1-3c1.8-0.8,3.7-1.4,5.6-2
			c9-3.1,14.5-12.7,15.1-22.1c0.1-1.3,0.1-2.6,0-3.9c0-0.9-0.2-1.9-0.3-2.8c-1-7.1-4-13.9-7.8-20.1c-10.9-17.8-27.5-31.3-47.1-38.2
			c-4.7-1.7-9.8-3-13.7-6.2c-2.3-1.8-3.9-4.3-4.7-7.1c12.9,3.2,25.6,7.3,37.9,12.3C814.3,458,821.1,500.5,801.2,517.2z"/>
		<path id="Path_4151" class="st4" d="M771.2,329.1c37.5-0.5,60.8,11.6,60.8,11.6c-37.5,39-82.9,62.4-124.7,76.4
			c-0.4-1.9-0.2-3.9,0.6-5.6c1.3-2.6,3.8-4.3,6.3-5.8c10.6-6.2,22.4-10.3,32.7-16.9s19.4-16.9,20-29.2c0.1-0.9,0.1-1.9,0-2.8
			c-0.1-0.9-0.2-1.7-0.3-2.6c-1.3-6.2-4.6-11.8-9.5-15.9c-4.4-3.8-10-6-15.8-6.2h-0.8C740.4,332.1,758,328.7,771.2,329.1z"/>
	</g>
	<g id="Group_1480">
		<path id="Path_4152" class="st5" d="M725.6,499.5l-107.8,33l-440.7,1.4l184.1-31.6L725.6,499.5z"/>
		<path id="Path_4153" class="st2" d="M725.6,499.5C725.6,499.5,725.6,499.5,725.6,499.5c-6.1-16.8-18.8-39.8-29.8-58.4
			c-11.7-19.7-33-31.8-56-31.6l-372,2.4c-25.6,0.2-48.6,15.4-58.8,38.8c-10.8,24.9-21.1,51.7-24.5,60.7c-0.8,2.1-1.7,4.1-2.7,6.1
			c-5.3,10.5-13.8,28.6-22.9,48.3c-9.7,20.9-41.2,88.9-41.2,90.3c0,1.2,76.2,1.8,100.9,1.4c39.2-0.6,86.2-2,136.2-3.7
			c188.4-6.5,420.1-18.4,444.2-19.7l1.7-0.1h0.3C785.9,606.7,725.6,499.5,725.6,499.5z"/>
		<path id="Path_4154" class="st6" d="M725.6,499.5c-1.4-2.4-48.6-57.5-57.1-66.5S263.4,412,263.4,412l380.5-2.6
			c21.3,2.2,36,10.6,47,24.6C705.4,452.6,718.8,480.5,725.6,499.5z"/>
		<path id="Path_4155" class="st7" d="M800.9,634.2h-0.3l-1.7,0.1L354.7,654c-111.8,3.8-208.3,5.7-237,2.2
			c0,0,50.8-112.7,65.6-141.6l-38.6,128.8L800.9,634.2z"/>
	</g>
	<g id="Group_1483">
		<g id="Group_1482">
			<path id="Path_4178" class="st3" d="M104.8,408.8c4.1,10.3-6.4,13.2-16.7,0.7c-8-9.7-22.7-20.4-28.8-24.6
				c-14,13.1-27.8,30.7-40.5,53.7c19.8-8.5,50.8-0.3,52.7,7.7c2,8.8-4.1,12.4-22.4,2.6c-12.6-6.8-26.5-5.3-33.9-3.7
				C11,453.4,6.9,462,3,471.4c6.4,7.2,13.4,13.8,21,19.8c2.9-2.9,10.6-9.7,17-9.1c6,0.6-3.2,10.6-8.3,15.7
				c11.6,8.4,24.2,15.5,37.4,21c11.3-6.5,17.6-23.5,22.5-36.2c5.4-14,19.5-5.8,10.9,13.3c-6,13.5-18.2,22.1-25,26.1
				c9.8,3.4,19.8,5.7,30.1,7c5.7-8.2,15.6-23.5,19.1-35.9c5.1-17.8,25-11.5,10.6,5.4c-8,9.7-15,20.2-20.8,31.3
				c16.5,0.9,33.1-1.1,48.9-6.1c5.3-21.2-10.5-39.7-1.9-46.8c9.4-7.7,18.8,4.3,14.2,17.4c-2.8,8.1-2.4,18.8-1.8,25.7
				c8.8-3.1,17.2-7.4,24.8-12.9c2.8-16.4-8.4-27.8,1.1-21.8c5.9,3.7,6.1,10.7,4.9,16.7c1.6-1.5,3.1-3.2,4.5-4.9
				c1.1-5,1.3-14-7.2-24.4c-11.6-14.1,9.3-16.4,15.5,8.5c5.5-19.9-4.7-39.2-9.4-44.9c-8.1-9.9-33.6-9.3-33.6-9.3s36.2-9.3,22.4-44.6
				c-5.8-14.6-28.8-29.9-58.8-31.1c8.2,9,21.6,25.2,22.8,37c1.7,17.2-21.8,17.9-25.5-12.9c-1.6-13.3-4.8-20.3-7.9-24
				c-13.7,1-27.1,4.7-39.3,10.9c3.8,3.7,12.2,11.8,25.6,24.1c18.7,17.3,18.8,23.2,8.7,22.2c-9.6-1-26-35.6-39.6-43.5
				c-8.8,5-17,11-24.5,17.8C71.3,387.2,101.3,400.2,104.8,408.8z M177.8,468.5c-6.4,7.6-10.9-3-10.9-3
				C163.3,447.6,184.2,460.9,177.8,468.5L177.8,468.5z M146.9,469.7c-4.6,10.2-15.1-1.9-15.1-1.9
				C121.4,455.8,151.5,459.5,146.9,469.7L146.9,469.7z M72.5,491.6c-6.8,1.6,12.8-20.1,11.8-9.7S72.5,491.6,72.5,491.6z M163,415.7
				c-6,11.1-16.3,4.9-16.3,4.9C137.6,409.6,169,404.6,163,415.7z M95,442.8c-11.4,9.4-37-24.5-37-24.5
				C45.4,404.1,106.5,433.4,95,442.8L95,442.8z"/>
		</g>
		<path id="Path_4179" class="st2" d="M50.3,480.5c17.3-9,34.8-17.4,52.5-25.5s35.7-15.7,53.9-22.6c9.1-3.4,18.3-6.7,27.7-9.6
			s18.8-5.6,28.4-7.6c4.8-1,9.7-1.9,14.6-2.5c1.2-0.2,2.5-0.3,3.7-0.4c1.2-0.1,2.6-0.2,3.8-0.3c2.5-0.1,5.1,0,7.6,0.1
			c5,0.4,10,1.1,14.9,2.1c2.5,0.5,4.9,1.1,7.3,1.8c1.2,0.3,2.4,0.7,3.6,1.1s2.4,0.8,3.7,1.2l-3,7.7c-1-0.4-2.1-0.9-3.2-1.3
			s-2.2-0.8-3.3-1.2c-2.2-0.8-4.5-1.5-6.8-2.1c-4.5-1.3-9.1-2.2-13.8-2.8c-2.3-0.3-4.6-0.5-6.9-0.5c-1.2,0-2.3,0-3.4,0.1
			c-1.2,0.1-2.4,0.2-3.5,0.3c-4.7,0.5-9.5,1.1-14.2,2c-9.5,1.7-18.8,4-28.2,6.6s-18.6,5.6-27.7,8.7c-18.4,6.3-36.5,13.3-54.4,20.8
			S67.8,472,50.3,480.5z"/>
		<path id="Path_4180" class="st2" d="M190.6,497.5c0.8-2.9,1.3-6,1.6-9c0.9-9.1,0-18.3-2.7-27.1c-0.4-1.5-1-2.9-1.5-4.3
			s-1.1-2.8-1.8-4.2c-1.3-2.8-2.7-5.4-4.4-8c-3.3-5.1-7.2-9.7-11.6-13.9c-0.3-0.3-0.2-0.8,0.1-1.1c0.3-0.2,0.6-0.2,0.9,0l0,0
			c4.4,4.3,8.2,9.2,11.5,14.4c1.6,2.6,3,5.4,4.3,8.2c0.7,1.4,1.2,2.8,1.7,4.3s1,2.9,1.4,4.4c2.5,8.9,3.3,18.2,2.2,27.3
			C192,491.5,191.4,494.5,190.6,497.5z"/>
		<path id="Path_4181" class="st2" d="M173.1,369.7c1.7,1.9,3.3,4,4.6,6.3c1.4,2.2,2.5,4.6,3.5,7c2,4.8,3.3,9.9,3.7,15.1
			c0.4,5.2,0,10.5-1.3,15.6c-1.3,5.1-3.3,10-6,14.5c-0.2,0.4-0.6,0.5-1,0.3c-0.4-0.2-0.5-0.6-0.3-1c0,0,0-0.1,0.1-0.1l0,0
			c2.7-4.4,4.8-9.1,6.2-14c1.4-5,2-10.1,1.7-15.3c-0.3-5.2-1.4-10.3-3.3-15.1c-0.9-2.4-2.1-4.8-3.4-7
			C176.3,373.9,174.8,371.7,173.1,369.7z"/>
		<path id="Path_4182" class="st2" d="M145.6,508.1c1.5-2.6,2.9-5.3,4-8.1c1.2-2.8,2.1-5.6,2.9-8.5c1.6-5.8,2.4-11.8,2.5-17.8
			c0-6-0.8-11.9-2.5-17.7c-1.8-5.7-4.3-11.2-7.5-16.3l0,0c-0.2-0.4-0.1-0.8,0.2-1c0.4-0.2,0.8-0.1,1,0.2l0,0
			c3.2,5.2,5.6,10.8,7.3,16.7c0.8,2.9,1.4,5.9,1.8,9c0.4,3,0.5,6.1,0.4,9.1c-0.2,6.1-1.2,12.1-2.9,17.9c-0.9,2.9-1.9,5.7-3.1,8.5
			C148.6,502.8,147.2,505.5,145.6,508.1z"/>
		<path id="Path_4183" class="st2" d="M107.1,508.1c3.2-4,5.7-8.5,7.6-13.3c1.9-4.7,3.3-9.7,4-14.7c0.2-1.3,0.3-2.5,0.4-3.8
			s0.2-2.5,0.2-3.8c0.1-2.5,0-5.1-0.3-7.6c-0.5-5.1-1.5-10.1-3.1-14.9c-0.1-0.4,0.1-0.8,0.5-1c0.4-0.1,0.8,0.1,1,0.5l0,0l0,0l0,0
			c1.5,5,2.4,10.1,2.8,15.2c0.2,2.6,0.2,5.2,0.1,7.7c0,1.3-0.2,2.6-0.3,3.9s-0.3,2.6-0.5,3.8c-0.8,5.1-2.3,10.1-4.4,14.9
			C113.1,499.7,110.4,504.1,107.1,508.1z"/>
		<path id="Path_4184" class="st2" d="M86,380.2c5.2,4.2,10.1,8.8,14.9,13.4c4.8,4.7,9.3,9.6,13.6,14.7c2.2,2.6,4.2,5.2,6.2,7.9
			s3.8,5.5,5.6,8.4c1.7,2.9,3.3,5.9,4.6,9c1.4,3.1,2.4,6.3,3.2,9.6c0.1,0.4-0.1,0.8-0.5,0.9c-0.4,0.1-0.8-0.1-0.9-0.5l0,0l0,0
			c-0.7-3.2-1.7-6.4-2.9-9.4c-1.3-3.1-2.7-6-4.4-8.9c-1.6-2.9-3.4-5.8-5.3-8.5s-3.9-5.4-6-8c-4.2-5.2-8.7-10.2-13.3-15
			S91.1,384.6,86,380.2z"/>
		<path id="Path_4185" class="st2" d="M48.9,425.8c4.5,1.6,8.8,3.6,13,5.9c4.2,2.3,8.2,4.9,12,7.8l1.4,1.1l1.4,1.1
			c0.9,0.8,1.9,1.5,2.7,2.3c1.8,1.6,3.6,3.2,5.2,4.9c3.4,3.4,6.5,7.1,9.3,10.9c0.3,0.3,0.2,0.8-0.1,1.1c-0.3,0.3-0.8,0.2-1.1-0.1
			l0,0l0,0l0,0c-2.7-3.9-5.6-7.6-8.9-11c-1.6-1.8-3.3-3.4-5-5c-0.9-0.8-1.8-1.6-2.7-2.3l-1.3-1.2l-1.4-1.1c-3.7-3-7.6-5.7-11.7-8.1
			C57.7,429.6,53.4,427.5,48.9,425.8z"/>
	</g>
	<g id="Group_1537">
		<g id="Group_1536">
			<g id="Group_1535">
				<g id="Group_1484">
					<path id="Path_4188" class="st8" d="M387.9,434.8l1.6-23.8l16.2-1C408.2,439.6,387.9,434.8,387.9,434.8z"/>
					<path id="Path_4189" class="st8" d="M585.1,399.6c-2.4,2.9-9.4,5.8-11.3,7.7c-3.2,3.2-6.4,16.7-9.7,25.1s-19.3,5.1-22.2,4.7
						s-8-25.9-11.3-24s-21.3,0-32.2,0s-12.2,1.3-17.4,12.9s-12.9,3.2-12.9,3.2c-5.1-6.4-3-15,1.4-23.1
						C510,403.7,552.7,401.3,585.1,399.6z"/>
				</g>
				<g id="Group_1534">
					<g id="Group_1505">
						<g id="Group_1489">
							<g id="Group_1485">
								<path id="Path_4190" class="st9" d="M424.4,411c0,0.4-22.3,1.2-25.1,1.9c-0.2,0.1-0.4,0.3-0.6,0.6
									c-1.6,3.7,0.9,22.6-10.9,23.6c-12.8,1-15.6-19.3-16.7-19.5c-2.2-0.3-23.6-6.2-28.1-5.6c-0.8,0.1-5.5-0.9-10.5-1
									c-4.6-3.1-5.6-3.9-7.5-4.6l0,0c-3.3-1.1-4.5,1.9-9.5,10.6c-8,13.8-25.2,9.4-21.1-10s23.5-32.2,23.5-32.2s82.3,6.5,85,5.8
									c1.7-0.4,9.5,10.4,15.2,19.2C421.7,405.3,424.4,410.1,424.4,411z"/>
								<path id="Path_4191" class="st10" d="M371.2,417.6c-5.3-1.2-31.3-7-37.1-6.1c-0.9,0-0.7,0.1-0.9,0c-3.8-2.4-6.2-4.3-8.1-5
									c2.8-3.2,8.4-7.2,17-1C354.7,414.5,373.8,408.5,371.2,417.6z"/>
								<path id="Path_4192" class="st10" d="M424.4,411c0,0.4-22.3,1.2-25.1,1.9c-0.2,0.1-0.4,0.3-0.6,0.6
									c-3.4-4.3,10.2-10.2,19.5-13.6C421.7,405.3,424.4,410.1,424.4,411z"/>
							</g>
							<g id="Group_1488">
								<g id="Group_1486">
									<path id="Path_4193" class="st11" d="M364.5,390c-31.5-1-43.2-9.3-46.5-12.8c-1.3-1.6-1.8-3.7-1.2-5.6
										c0.3-1.5,0.8-3,1.6-4.4c0,0,80.6,2.7,84.4,8.3c1,1.3,1.6,2.9,1.9,4.5C405.6,387.7,391.2,390.9,364.5,390z"/>
									<path id="Path_4194" class="st8" d="M404.7,380c-9.9,3.7-26.1,6.5-43.9,4.4c-23.8-2.7-38.1-9.4-44.1-12.8
										c0.3-1.5,0.8-3,1.6-4.4c0,0,80.6,2.7,84.4,8.3C403.7,376.8,404.4,378.4,404.7,380z"/>
								</g>
								<g id="Group_1487">
									<path id="Path_4195" class="st3" d="M368,389.7c0,1.2-0.3,2.5-0.8,3.6c-2,4.3-7.1,6.2-11.5,4.2c-4.3-2-6.2-7.1-4.2-11.5
										c1-2.2,2.9-3.9,5.2-4.6c0.9-0.3,1.8-0.4,2.7-0.4C364.1,381.1,368,384.9,368,389.7C368,389.7,368,389.7,368,389.7L368,389.7
										z"/>
									<path id="Path_4196" class="st12" d="M368,389.7c0,1.2-0.3,2.5-0.8,3.6c-4.5,1.5-9.4-1-10.9-5.5c-0.3-0.9-0.4-1.8-0.4-2.7
										c0-1.3,0.3-2.5,0.8-3.6c4.5-1.5,9.4,1,10.9,5.5C367.9,387.9,368,388.8,368,389.7z"/>
								</g>
							</g>
						</g>
						<g id="Group_1504">
							<g id="Group_1494">
								<g id="Group_1491">
									<g id="Group_1490">
										<path id="Path_4197" class="st2" d="M342,254.1c-0.6,1.2-1.2,2.3-2.1,3.3c-1.2,1.7-2.9,2.9-4.8,3.4
											c-2.6,0.5-5.8-0.7-9.4-6c-9.7-14.2-31.1-17.3-43.9,2.8c-0.7,1.1-1.4,2.1-2.1,3.1c-7.1,9.7-14.5,13.5-20.3,11.5
											c-4.3-1.5-7.6-6.1-9.1-13.9c-3.8-19.4,27.7-48.1,57.4-42.9S342,254.1,342,254.1z"/>
										<path id="Path_4198" class="st11" d="M335.1,260.9c-2.6,0.5-5.8-0.7-9.4-6c-9.7-14.2-31.1-17.3-43.9,2.8
											c-0.7,1.1-1.4,2.1-2.1,3.1c-7-4.2,13.9-28.7,30.8-24.2C321.6,239.5,330.4,252.4,335.1,260.9z"/>
									</g>
									<path id="Path_4199" class="st10" d="M340,257.5c-1.2,1.7-2.9,2.9-4.8,3.4c-2.6,0.5-5.8-0.7-9.4-6
										c-9.7-14.2-31.1-17.3-43.9,2.8c-0.7,1.1-1.4,2.1-2.1,3.1c-7.1,9.7-14.5,13.5-20.3,11.5c-5.7-9.8,8.2-32.3,32-40.2
										C316.1,223.8,335.1,247.9,340,257.5z"/>
								</g>
								<g id="Group_1493">
									<g id="Group_1492">
										<path id="Path_4200" class="st2" d="M496.5,273.5c-1.9,7.7-5.4,12.2-9.7,13.5c-5.8,1.7-13.1-2.4-19.7-12.5
											c-0.7-1-1.3-2.1-2-3.2c-1.3-2.2-2.7-4.3-4.4-6.2c-0.4-0.5-0.9-1-1.4-1.5c-1.5-1.5-3.2-2.9-5-4c-0.8-0.5-1.6-1-2.4-1.4
											c-0.4-0.2-0.8-0.4-1.1-0.5s-0.8-0.3-1.1-0.4h-0.1l-1.3-0.4c-2.2-0.7-4.4-1-6.7-1h-1.2c-0.7,0-1.4,0.1-2,0.2h-0.3
											c-0.3,0-0.7,0.1-1,0.2c-0.8,0.2-1.6,0.4-2.4,0.6c-0.3,0.1-0.5,0.2-0.8,0.3s-0.5,0.1-0.6,0.2c-0.4,0.1-0.7,0.3-1.1,0.4
											c-0.3,0.1-0.6,0.3-0.9,0.4s-0.7,0.3-1,0.5s-0.8,0.4-1.1,0.6s-0.8,0.5-1.2,0.8s-1,0.7-1.5,1.1l-0.8,0.7
											c-0.1,0.1-0.2,0.1-0.2,0.2c-0.2,0.2-0.5,0.4-0.7,0.6l-0.5,0.4c-0.2,0.2-0.4,0.4-0.5,0.5c-0.2,0.2-0.4,0.3-0.5,0.5
											c-0.6,0.7-1.2,1.4-1.8,2.1c-0.2,0.2-0.4,0.5-0.5,0.7l-0.4,0.6c-2.5,3-4.8,4.2-6.7,4.4c-0.1,0-0.2,0-0.3,0
											c-0.6,0-1.1,0-1.7-0.1c-1.9-0.6-3.6-1.9-4.7-3.6c-0.8-1.1-1.4-2.2-1.9-3.4c0.3-1.5,0.7-3,1.2-4.5
											c2.9-9.2,11.8-29.7,34.9-32.6c1.2-0.2,2.5-0.3,3.7-0.3c8.5-0.2,17,1.9,24.5,5.9C487.1,242.7,499.7,260.6,496.5,273.5z"/>
										<path id="Path_4201" class="st11" d="M467.1,274.5c-0.7-1-1.3-2.1-2-3.2c-1.3-2.2-2.7-4.3-4.4-6.2c-0.4-0.5-0.9-1-1.4-1.5
											c-1.5-1.5-3.2-2.9-5-4c-0.8-0.5-1.6-1-2.4-1.4c-0.4-0.2-0.8-0.4-1.1-0.5s-0.8-0.3-1.1-0.4h-0.1l-1.3-0.4
											c-2.2-0.7-4.4-1-6.7-1h-1.2c-0.7,0-1.4,0.1-2,0.2h-0.3c-0.3,0-0.7,0.1-1,0.2c-0.8,0.2-1.6,0.4-2.4,0.6
											c-0.3,0.1-0.5,0.2-0.8,0.3c-0.2,0.1-0.4,0.1-0.6,0.2c-0.4,0.1-0.7,0.3-1.1,0.4c-0.3,0.1-0.6,0.3-0.9,0.4s-0.7,0.3-1,0.5
											s-0.8,0.4-1.1,0.6s-0.8,0.5-1.2,0.8s-1,0.7-1.5,1.1c-0.3,0.2-0.6,0.4-0.8,0.7c-0.1,0.1-0.2,0.1-0.2,0.2
											c-0.2,0.2-0.5,0.4-0.7,0.6l-0.5,0.4c-0.2,0.2-0.4,0.4-0.5,0.5c-0.2,0.2-0.4,0.3-0.5,0.5c-0.6,0.7-1.2,1.4-1.8,2.1
											c-0.2,0.2-0.4,0.5-0.5,0.7l-0.5,0.6c-2.5,3-4.8,4.2-6.7,4.4c-0.1,0-0.2,0-0.3,0c-0.6,0-1.1,0-1.7-0.1
											c5.1-8.2,14.5-20.7,25.7-23.1c0.6-0.1,1.3-0.2,1.9-0.3c6.6-0.6,13.4,2.7,18.7,7.2C466.3,262.6,471.3,272.2,467.1,274.5z"
											/>
									</g>
									<path id="Path_4202" class="st10" d="M486.8,286.9c-5.8,1.7-13.1-2.4-19.7-12.5c-0.7-1-1.3-2.1-2-3.2
										c-1.3-2.2-2.7-4.3-4.4-6.2c-0.4-0.5-0.9-1-1.4-1.5c-1.5-1.5-3.2-2.9-5-4c-0.8-0.5-1.6-1-2.4-1.4c-0.4-0.2-0.8-0.4-1.1-0.5
										s-0.8-0.3-1.1-0.4h-0.1l-1.3-0.4c-2.2-0.7-4.4-1-6.7-1h-1.2c-0.7,0-1.4,0.1-2,0.2h-0.3c-0.3,0-0.7,0.1-1,0.2
										c-0.8,0.2-1.6,0.4-2.4,0.6c-0.3,0.1-0.5,0.2-0.8,0.3c-0.2,0.1-0.4,0.1-0.6,0.2c-0.4,0.1-0.7,0.3-1.1,0.4
										c-0.3,0.1-0.6,0.3-0.9,0.4s-0.7,0.3-1,0.5s-0.8,0.4-1.1,0.6s-0.8,0.5-1.2,0.8s-1,0.7-1.5,1.1c-0.3,0.2-0.6,0.4-0.8,0.7
										c-0.1,0.1-0.2,0.1-0.2,0.2c-0.2,0.2-0.5,0.4-0.7,0.6l-0.5,0.4c-0.2,0.2-0.4,0.4-0.5,0.5c-0.2,0.2-0.4,0.3-0.5,0.5
										c-0.6,0.7-1.2,1.4-1.8,2.1c-0.2,0.2-0.4,0.5-0.5,0.7l-0.5,0.6c-2.5,3-4.8,4.2-6.7,4.4c-0.1,0-0.2,0-0.3,0
										c-0.6,0-1.1,0-1.7-0.1c-1.9-0.6-3.6-1.9-4.7-3.6c4.1-7.1,16.8-22.3,33.3-24.9c5.5-0.9,11.2-0.3,16.4,1.8
										c2.2,0.8,4.3,1.8,6.3,2.9C482.4,258.5,492.3,278.3,486.8,286.9z"/>
								</g>
							</g>
							<g id="Group_1503">
								<g id="Group_1495">
									<path id="Path_4203" class="st9" d="M434.6,352.7c-4.6,6.1-2.3-6-4-1.4c-0.8,2.5-1.8,4.8-3.1,7.1
										c-6.3,10.8-24.7,29-76.8,20.5c-76.9-12.6-59.2-70-62.9-66.5c-5.7,5.4,5.2-31.5,20.5-45.3c6-5.5,11.5-9.7,17.1-12.9
										c1.4-0.8,2.8-1.5,4.2-2.2c1.8-0.8,3.7-1.5,5.6-2.1c1.9-0.6,3.7-1,5.6-1.4c9.5-1.7,20.7-1,36.1,2c4.6,0.9,9.2,2.1,13.7,3.5
										c5.4,1.7,10.7,3.8,15.7,6.4c1.5,0.8,3,1.6,4.4,2.5c1.7,1,3.4,2.1,4.9,3.2c1.2,0.9,2.4,1.8,3.6,2.8
										c4.1,3.3,7.7,7.2,10.8,11.4c8.5,11.7,11.4,25,11.7,36.9C442.1,335.2,436.5,350.2,434.6,352.7z"/>
									<path id="Path_4204" class="st11" d="M441.7,317.2c-4.4,3-9.5,5-14.8,5.8c-13.1,2.1-29-1.3-39.5-12.1
										c-19.6-20.2-1.7-49.5,3.3-56.8c5.4,1.7,10.7,3.8,15.7,6.4c1.5,0.8,3,1.6,4.4,2.5c1.7,1,3.4,2.1,4.9,3.2
										c1.2,0.9,2.4,1.8,3.6,2.7c4.1,3.3,7.7,7.2,10.8,11.4C438.5,292.1,441.4,305.3,441.7,317.2z"/>
								</g>
								<g id="Group_1502">
									<g id="Group_1496">
										<path id="Path_4205" class="st2" d="M396.2,306.5c-0.6,4.4-3.2,7.6-5.8,7.2s-4.1-4.2-3.4-8.6s3.2-7.6,5.8-7.2
											S396.9,302.1,396.2,306.5z"/>
										<path id="Path_4206" class="st2" d="M347.2,299.8c-0.6,4.4-3.2,7.6-5.8,7.2s-4.1-4.2-3.4-8.6s3.2-7.6,5.8-7.2
											S347.9,295.4,347.2,299.8z"/>
									</g>
									<g id="Group_1497">
										<path id="Path_4207" class="st10" d="M414.8,321.1c0,5.4-4.9,9.8-10.9,9.8s-10.9-4.4-10.9-9.8s4.9-9.8,10.9-9.8
											S414.8,315.7,414.8,321.1z"/>
										<path id="Path_4208" class="st10" d="M337.8,313.3c-0.8,5.4-6.3,9-12.3,8.1s-10.1-6-9.3-11.4s6.3-9,12.3-8.1
											S338.6,307.9,337.8,313.3z"/>
									</g>
									<g id="Group_1501">
										<path id="Path_4209" class="st2" d="M396,363.7c-11.4,9.7-65,10.4-77.1-13.8c-3.4-6.8,5.5-24.9,20.4-36.3
											c11.2-8.6,16.7-10.2,23-10c2.1,0.1,4.3,0.4,6.8,0.6c15.2,1.7,19.7,8.6,26.6,22.1S407.5,354,396,363.7z"/>
										<path id="Path_4210" class="st8" d="M396,363.7c-11.4,9.7-65,10.4-77.1-13.8c-3.4-6.8,5.5-24.9,20.4-36.3
											c11.2-8.6,16.7-10.2,23-10C337.6,325.9,333.4,370.9,396,363.7z"/>
										<g id="Group_1500">
											<g id="Group_1499">
												<path id="Path_4211" class="st11" d="M379,318c0,2.2-1.8,5.2-4.2,8c-2,2.5-4.5,4.7-7.2,6.4c-0.7,0.5-1.5,0.7-2.4,0.6
													c-0.6-0.2-1.2-0.6-1.7-1c-5.3-4-12.9-17-9-19.3c1.7-1,6.1-1.2,10.6-0.7C371.8,312.6,379,314.8,379,318z"/>
												<g id="Group_1498">
													<path id="Path_4212" class="st11" d="M363,353.6h-0.1c-1.1-0.1-1.9-1.2-1.8-2.3c0,0,0,0,0,0l0,0l2.8-22.3
														c0.1-1.1,1.1-1.9,2.2-1.8c0,0,0,0,0.1,0h0.1c1.1,0.1,1.9,1.2,1.8,2.3c0,0,0,0,0,0l0,0l-2.8,22.3
														C365,352.8,364.1,353.6,363,353.6z"/>
												</g>
											</g>
											<path id="Path_4213" class="st13" d="M379,318c0,2.2-1.8,5.2-4.1,8c-5.7-0.9-9.9-5.9-9.9-11.7c0-0.8,0.1-1.7,0.2-2.5
												C371.8,312.6,379,314.8,379,318z"/>
										</g>
									</g>
								</g>
							</g>
							<path id="Path_4214" class="st10" d="M469.4,233.5c-1.6,5.1-3.8,10-6.3,14.7c-1.4,2.7-3.1,5.2-5,7.6c-1.1,1.4-2.3,2.8-3.7,4
								c-0.8-0.5-1.6-1-2.4-1.4c-0.4-0.2-0.7-0.4-1.1-0.5s-0.8-0.3-1.1-0.4h-0.1c-0.4-0.1-0.8-0.3-1.3-0.4c-2.2-0.7-4.4-1-6.7-1
								h-1.2c-0.7,0-1.4,0.1-2,0.2c0.1-2.6,0.4-5.1,0.9-7.6c0.3-1.7,0.6-3.4,1-5.1c1.3-5.6,3-11.4,4.5-15.9
								C453.4,227.5,461.9,229.5,469.4,233.5z"/>
							<path id="Path_4215" class="st10" d="M434.6,352.7c-4.6,6.1-2.3-6-4-1.4c-0.8,2.5-1.8,4.8-3.1,7.1
								c-2.6-10.3,0.3-27.9-0.6-35.3c-0.2-1.9-0.7-3.2-1.6-3.5c-4.7-1.6,1.8-28.1,4.7-39.2c8.5,11.7,11.4,25,11.7,36.9
								C442.1,335.2,436.5,350.2,434.6,352.7z"/>
						</g>
					</g>
					<g id="Group_1533">
						<g id="Group_1506">
							<path id="Path_4216" class="st9" d="M653.5,378.7c-15,8.3-27.2,13.9-34,24.7c-1.2,2-2.6,3.9-4.2,5.7l-2.7,0.2h-0.2l-2.1,0.1
								l-0.1-0.1l-3.8-3.1l0,0l-9.8-8c1.8-2.5,3.7-4.8,5.8-6.9c8.6-8.9,18.8-16.1,30.1-21.2c13.5-6,10.7-19.3,7.6-31.7
								c-0.5-1.9-0.9-3.8-1.4-5.6c-0.6-2.4-1.1-4.9-1.4-7.4c-0.2-1.8-0.3-3.5-0.1-5.3c0-0.3,0.1-0.5,0.1-0.7
								c0.1-0.7,0.3-1.4,0.5-2.1c0.1-0.2,0.1-0.3,0.2-0.5c0.1-0.3,0.2-0.5,0.4-0.8c0.1-0.2,0.2-0.4,0.3-0.6c0.1-0.2,0.2-0.4,0.4-0.6
								c0.3-0.4,0.6-0.7,0.9-1c0.2-0.2,0.4-0.3,0.5-0.5c0.2-0.2,0.4-0.3,0.6-0.5c0.2-0.2,0.4-0.3,0.6-0.4c0.2-0.1,0.4-0.2,0.6-0.4
								h0.1c7.6-4,16.8,4.9,22,17.7C671,346.1,671.2,368.8,653.5,378.7z"/>
							<path id="Path_4217" class="st3" d="M664.4,329.7c-0.5,1.1-1.1,2.2-1.8,3.2c-5.9,7.8-6.4-2.8-8.5-5.1s-1.7,3.8-3.2,6.7
								s-2.3-3.7-4.5-4.7c-4.3-2-0.1,6.1-5.2,8.3c-0.3,0.2-0.7,0.2-1.1,0.1c-2.8-11.3-5.9-21.9,2.4-26.3
								C650.1,307.9,659.2,316.9,664.4,329.7z"/>
							<path id="Path_4218" class="st14" d="M645.6,370.7c-10.1,12.8-41,13.7-39.2,35.4l-9.8-8c0,0,11.6-17.1,36-28.1
								c13.5-6,10.7-19.3,7.6-31.7c-2.8-11.2-5.8-21.9,2.3-26.3C646.5,322.2,659.9,352.6,645.6,370.7z"/>
						</g>
						<path id="Path_4219" class="st10" d="M612.6,409.1h-0.2l-2.2,0.1l-47.4,1.4l-21.9,0.7c0,0,0.2-0.5,0.6-1.5
							c0.6-1.5,1.8-4.2,3.4-7.3c0.6-1.2,1.3-2.5,2-3.7s1.4-2.5,2.2-3.7c1.2-1.8,2.5-3.7,3.8-5.5c4.4-5.5,9.7-10.3,15.8-11.6
							c2.7,0.1,5.5,0.4,8.2,0.9c1,0.2,2.1,0.4,3.2,0.7c0.9,0.2,1.8,0.4,2.7,0.7c7.3,2,14,5.6,19.5,10.8c2,1.9,3.8,4.1,5.3,6.4
							C609.9,401.1,611.6,405,612.6,409.1z"/>
						<path id="Path_4220" class="st9" d="M462.6,378.4c0,0-17.3,15.8-14.8,39.8s21.4,26.8,24.3,13.1s4.2-17.7,11.7-17.8
							s36.5,0.6,37,3.5s-0.1,29,17.9,29.1s16.9-26.4,19.8-30.3s18.6-20.7,6.8-21S502.3,399.4,462.6,378.4z"/>
						<g id="Group_1507">
							<path id="Path_4221" class="st2" d="M584,382.7c0.6,8.6-24.8,27-52.2,28.2c-31.8,1.4-61.8-11.4-68.3-16.4
								c-2.4-1.9-2.7-4.7-2.1-7.5c0.9-3.3,2.5-6.4,4.5-9.1c0,0,18.3,9.4,46.2,18.8s58.2-22.7,69.4-17.3
								C582.9,380,583.9,381.3,584,382.7z"/>
							<path id="Path_4222" class="st8" d="M584,382.7c-11.1,10.5-29.4,20.2-52.5,21.7c-39.7,2.5-62.2-11.3-70-17.4
								c0.9-3.3,2.5-6.4,4.5-9.1c0,0,18.3,9.4,46.2,18.8c27.9,9.4,58.2-22.7,69.4-17.3C582.9,380,583.9,381.3,584,382.7z"/>
						</g>
						<g id="Group_1532">
							<path id="Path_4223" class="st9" d="M600.2,345.2c-3.2-2.4-2.9-3.2-5.1,7.2c-1.1,4.7-2.9,9.2-5.2,13.5
								c-6.5,12.3-19.8,28.1-44,33.2c-10,2-20.3,2.2-30.3,0.7c-4.1-0.5-17.7-3.1-21.5-4c-3.9-0.9-7.8-1.9-11.6-3.2
								c-21.2-7.3-33.1-19.8-39.7-32.3c-8.2-15.5-8.1-30.8-7.3-36.2c1.5-10.5,1.5-9.7-2.3-8.5s13-60.1,21.9-77.3
								s20.7-29.9,25.7-29.4c16,1.7,17.7,50,18.5,53.8c0.3,1.4,1.9,2.3,4.6,3c3.9,0.9,7.9,1.5,11.9,1.9c2.4,0.3,5,0.6,7.7,0.9
								c1.1,0.1,2.2,0.3,3.4,0.4c2.5,0.4,4.9,0.7,7.2,1.1c3.8,0.6,7.1,1.3,9.9,1.8c3.6,0.7,6.5,1.3,8.5,1.5s3.4,0.2,3.8-0.4
								c2-3.3,20.1-48.1,35.8-44.2c5,1.2,11.6,17.3,14.1,36.4S603.4,347.6,600.2,345.2z"/>
							<g id="Group_1531">
								<g id="Group_1510">
									<g id="Group_1508">
										<path id="Path_4224" class="st2" d="M593.3,280.8c-0.6,0.1-1.2,0.2-1.8,0.2c-4.2,0.1-12.6-1.1-18.5-2.7
											c-3.5-0.9-6-2-6.2-2.9c-0.6-2.6,14.1-36.1,21.5-34.2S597.8,279.6,593.3,280.8z"/>
										<path id="Path_4225" class="st11" d="M591.5,281c-4.2,0.1-12.6-1.1-18.5-2.7c0.2-4.9,1.2-11.6,4.8-11
											c5.7,0.8,3,13.8,4.1,9.9c1.5-5.4,0.5-17.5,6.5-15C592.5,263.9,592.2,274.5,591.5,281z"/>
									</g>
									<g id="Group_1509">
										<path id="Path_4226" class="st2" d="M461.4,254.4c0.5,0.3,1.1,0.6,1.7,0.8c4,1.4,12.4,2.7,18.4,2.9
											c3.6,0.1,6.3-0.1,6.8-0.9c1.4-2.4-2.6-38.7-10.2-39.1S457.6,251.9,461.4,254.4z"/>
										<path id="Path_4227" class="st11" d="M463.1,255.2c4,1.4,12.4,2.7,18.4,2.9c1.3-4.7,2.4-11.4-1.3-12
											c-5.7-0.9-7,12.3-6.9,8.2c0.2-5.6,4.8-16.9-1.7-16.3C467.3,238.5,464.4,248.8,463.1,255.2z"/>
									</g>
								</g>
								<g id="Group_1511">
									<path id="Path_4228" class="st3" d="M515.7,267.6c-0.2,1.2-0.4,2.6-0.6,4c-1.2,7.1-3.5,15.9-7.6,15.9
										c-4.4,0.1-4.5-9.9-4.1-17.1c0.1-1.8,0.3-3.5,0.4-4.8C507.7,266.5,511.7,267.2,515.7,267.6z"/>
									<path id="Path_4229" class="st3" d="M534,270c-0.2,1.1-0.4,2.5-0.7,3.9c-1.7,9.4-5.2,23.6-10.5,22.7s-2.9-15.5-0.6-24.2
										c0.4-1.5,0.8-2.9,1.2-4c1.1,0.1,2.2,0.3,3.4,0.4C529.3,269.3,531.7,269.7,534,270z"/>
									<path id="Path_4230" class="st3" d="M552.4,273.4c-0.2,1.2-0.5,2.4-0.8,3.6c-0.9,3-2.3,5.9-4.7,6c-2.8,0.1-3.3-3.8-3.2-7.3
										c0-1.4,0.1-2.8,0.2-3.8C547.5,272.5,550.3,273.1,552.4,273.4z"/>
								</g>
								<g id="Group_1512" class="st15">
									<path id="Path_4231" class="st16" d="M503.7,265.7c3.9,0.9,7.9,1.5,11.9,1.9c-0.2,1.2-0.3,2.6-0.6,4
										c-3.9-0.4-7.8-0.8-11.7-1.1C503.5,268.6,503.6,267,503.7,265.7z"/>
									<path id="Path_4232" class="st16" d="M526.8,268.9c2.5,0.4,4.9,0.7,7.2,1.1c-0.2,1.1-0.4,2.5-0.7,3.9
										c-3.5-0.5-7.2-1-11-1.5c0.4-1.5,0.8-2.9,1.2-4L526.8,268.9z"/>
									<path id="Path_4233" class="st16" d="M552.4,273.4c-0.2,1.2-0.5,2.4-0.8,3.6c-2.3-0.4-4.9-0.9-7.9-1.4
										c0-1.4,0.1-2.8,0.2-3.8C547.5,272.5,550.3,273.1,552.4,273.4z"/>
								</g>
								<g id="Group_1513">
									<path id="Path_4234" class="st3" d="M482.4,392.6c-21.2-7.3-33.1-19.8-39.7-32.3c7.5-2.7,20.6-5.4,31.6,3.1
										C486.3,372.5,484.3,385.9,482.4,392.6z"/>
									<path id="Path_4235" class="st3" d="M589.8,365.9c-6.5,12.2-19.8,28.1-44,33.2c1.4-6,5.1-14.6,15.4-22.5
										C574.2,366.7,584.2,364,589.8,365.9z"/>
								</g>
								<g id="Group_1530">
									<g id="Group_1522">
										<g id="Group_1518">
											<g id="Group_1515">
												
													<ellipse id="Ellipse_17" transform="matrix(2.635146e-02 -0.9997 0.9997 2.635146e-02 223.598 864.7116)" class="st3" cx="555.7" cy="317.6" rx="21.3" ry="22.2"/>
												<g id="Group_1514">
													<path id="Path_4236" class="st17" d="M561.2,319.9c-0.1,5.9-5.2,10.5-11.5,10.4s-11.3-4.9-11.2-10.7
														s5.2-10.5,11.5-10.4S561.3,314.1,561.2,319.9z"/>
													<path id="Path_4237" class="st11" d="M560.6,323.1c-1.7,4.5-6.1,7.4-10.9,7.2c-1.5,0-3-0.3-4.4-0.9
														c1.9-1.2,3.1-3.3,3.1-5.6c0.1-3.6-2.7-6.6-6.3-6.7c-1.2,0-2.5,0.3-3.5,1c0.8-5.2,5.6-9.1,11.3-9.1
														c3.3,0,6.4,1.4,8.6,3.9c-2.7,1.1-3.9,4.2-2.8,6.9c0.8,1.9,2.6,3.1,4.6,3.2C560.4,323.1,560.5,323.1,560.6,323.1z"/>
												</g>
											</g>
											<g id="Group_1517">
												
													<ellipse id="Ellipse_18" transform="matrix(2.635146e-02 -0.9997 0.9997 2.635146e-02 158.6642 779.8922)" class="st3" cx="479.7" cy="308.5" rx="21.3" ry="22.2"/>
												<g id="Group_1516">
													<path id="Path_4238" class="st17" d="M474,310.5c-0.2,5.9,4.6,10.8,10.9,11s11.5-4.3,11.7-10.1s-4.6-10.8-10.9-11
														S474.3,304.7,474,310.5z"/>
													<path id="Path_4239" class="st11" d="M474.4,313.8c1.5,4.6,5.7,7.7,10.5,7.8c1.5,0.1,3-0.2,4.5-0.7
														c-1.9-1.3-2.9-3.5-2.8-5.7c0.1-3.6,3-6.4,6.6-6.4c1.2,0,2.4,0.5,3.4,1.2c-0.5-5.2-5.1-9.4-10.8-9.6
														c-3.3-0.2-6.5,1.1-8.8,3.4c2.6,1.2,3.7,4.4,2.5,7c-0.9,1.9-2.7,3-4.8,3L474.4,313.8z"/>
												</g>
											</g>
										</g>
										<g id="Group_1521">
											<g id="Group_1520">
												<path id="Path_4240" class="st11" d="M528.4,325.3c-1.1,2.8-4.2,6-7.2,8.3l-0.4,0.3c-2.3,1.7-4.6,2.9-5.8,2.6
													c-3.1-0.7-5.9-2.2-8.2-4.5c-3.4-3.2-5.6-7.3-5.5-10.1c0.1-1.8,1.1-3.1,3.5-3.2c8.8-0.7,23.5,0.6,23.9,4.3l0,0
													C528.9,323.7,528.7,324.5,528.4,325.3z"/>
												<g id="Group_1519">
													<path id="Path_4241" class="st2" d="M528.4,325.3c-1.1,2.8-4.2,6-7.2,8.3l-0.4,0.3c-3.8-4.8-3.9-7,1.1-8.4
														C524.1,325.1,526.3,325,528.4,325.3z"/>
													<path id="Path_4242" class="st2" d="M506.9,332c-3.4-3.2-5.6-7.3-5.5-10.1c4.7,0.7,8.4,2,8.6,3.8
														S508.8,329.8,506.9,332z"/>
												</g>
											</g>
											<path id="Path_4243" class="st11" d="M512.7,332.7c0,0-2.5,16-0.6,17.3c4,2.7,5.7-17.7,5.7-17.7L512.7,332.7z"/>
										</g>
									</g>
									<g id="Group_1529">
										<g id="Group_1525">
											<g id="Group_1523">
												<path id="Path_4244" class="st11" d="M614.6,351.8c-0.1,0-0.2,0-0.3-0.1c-24-8.2-80.8-22-81.4-22.2
													c-0.7-0.2-1.2-1-0.9-1.7c0.2-0.7,0.9-1.1,1.6-1c0.6,0.1,57.5,14,81.6,22.2c0.7,0.2,1.1,1,0.9,1.8
													C615.8,351.4,615.2,351.8,614.6,351.8z"/>
											</g>
											<g id="Group_1524">
												<path id="Path_4245" class="st11" d="M602.8,362.8c-0.1,0-0.3,0-0.4-0.1l-70.5-27c-0.7-0.3-1-1.1-0.7-1.8
													c0.3-0.7,1-1,1.7-0.8l70.5,27c0.7,0.3,1.1,1.1,0.8,1.8C604,362.5,603.4,362.8,602.8,362.8L602.8,362.8z"/>
											</g>
										</g>
										<g id="Group_1528">
											<g id="Group_1526">
												<path id="Path_4246" class="st11" d="M413.1,333.1c0.1,0,0.2,0,0.4,0c25.1-3.7,83.5-7,84-7c0.8,0,1.4-0.6,1.4-1.4
													c0-0.8-0.6-1.4-1.4-1.4c-0.1,0-0.1,0-0.2,0l0,0c-0.6,0-59,3.3-84.3,7c-0.8,0.1-1.3,0.8-1.2,1.6
													C412,332.5,412.5,333,413.1,333.1L413.1,333.1z"/>
											</g>
											<g id="Group_1527">
												<path id="Path_4247" class="st11" d="M422.7,346.1c0.1,0,0.3,0,0.4,0l74.3-13.8c0.8-0.1,1.3-0.8,1.2-1.6
													s-0.8-1.3-1.6-1.2l0,0h-0.1l-74.3,13.8c-0.7,0.1-1.2,0.9-1.1,1.6C421.6,345.6,422.1,346,422.7,346.1L422.7,346.1z"/>
											</g>
										</g>
									</g>
								</g>
							</g>
						</g>
					</g>
				</g>
			</g>
		</g>
	</g>
	<g>
		<path class="st9" d="M277.7,521c0,3.4-0.2,8.8-0.4,14c-0.2,5.1-0.4,10.4-0.4,13.6c0,1.6-0.3,5.8-0.9,12.4
			c-0.4,4.5-0.9,10.2-0.9,11.5h-11.2c0-1.6,0.3-5.8,0.9-12.4c0.4-4.5,0.9-10.2,0.9-11.5c0-3.4,0.2-8.8,0.4-14
			c0.2-5.1,0.4-10.4,0.4-13.6c0-2.1-0.3-5.8-0.6-9.7c-0.7,1.9-1.3,3.5-1.6,4.6c-1.9,6.5-5.6,27.4-5.7,27.6c-0.5,2.7-2.8,4.6-5.5,4.6
			c0,0,0,0,0,0c-2.7,0-5-1.9-5.5-4.6c0-0.2-4.5-24.4-6.7-32c-0.2-0.6-0.4-1.4-0.8-2.3c0,0.3,0,0.6-0.1,0.8c-0.5,6.8-0.4,20.6,0,27.1
			c0.2,2.7,0.8,6.7,1.4,10.9c0.9,5.8,1.8,11.8,1.8,16h-11.2c0-3.3-0.9-9.2-1.7-14.3c-0.7-4.5-1.3-8.8-1.5-11.9
			c-0.4-6.9-0.5-21.2,0-28.5c0.2-3.3,1.5-12.4,1.5-12.8c0.4-2.8,2.7-4.8,5.5-4.8h5.6c2.3,0,4.4,1.4,5.2,3.5c0.4,1,3.9,9.9,4.9,13.3
			c0.4,1.5,0.9,3.6,1.5,5.9c0.1-0.6,0.3-1.1,0.4-1.5c1.3-4.6,6.1-16.4,6.7-17.7c0.6-1.4,1.7-2.5,3.1-3.1c1.4-0.6,3-0.5,4.4,0.2
			l5,2.4c1.8,0.8,3,2.5,3.2,4.5C276.1,499.6,277.7,515.1,277.7,521z"/>
		<path class="st9" d="M321.6,567.3h-11.2c0-6.3-0.7-14.8-1.8-23.8c-2.8-0.1-5.7-0.3-8.1-0.5c-1.2-0.1-3.4,0-6,0.3
			c-0.9,7.5-1.4,14.4-1.4,18.9H282c0-4.4,0.4-10.6,1.2-17.5c-1,0.2-2,0.3-2.8,0.4l-1.8-11c1-0.2,3.3-0.5,6.1-0.9
			c0.6-4.1,1.2-8.2,2-12.2c1.5-8.1,3.1-15.1,4.6-20.1c2.5-8,5-11.7,8.6-12.8c2.1-0.7,4.4-0.3,6.3,1.1c2,1.5,6.2,4.6,11.2,35.5
			c0.4,2.6,0.8,5.2,1.2,7.9c1.8,0,3,0,3,0l0,11.2c-0.1,0-0.7,0-1.6,0C321,553.1,321.6,561.7,321.6,567.3z M307.2,532.2
			c-1.6-10.8-3.6-21-5.4-27.6c-1.3,4.4-3,11.2-4.6,21.1c-0.3,2.1-0.7,4.1-1,6.2c2.1-0.1,4.1-0.2,5.5-0.1
			C303.2,532,305.2,532.1,307.2,532.2z"/>
		<path class="st9" d="M360.8,549.1c-1.3,9.3-8.5,16.1-17.5,16.3c-0.4,0-0.7,0-1,0c-6.2,0-11.1-1.9-14.6-5.6
			c-2.7-2.9-5.8-8.3-4.9-17.8l0-0.2l11.2,0.7c0,0.1,0,0.3,0,0.6c-0.5,5.3,0.7,7.8,1.9,9.1c1.4,1.5,3.8,2.1,7.1,2
			c4.4-0.1,6.4-3.5,6.8-6.7c0.6-4.1-1.5-9.8-9.1-12.2c-14.7-4.6-18.8-15.9-17.7-24.1c1.2-9.6,8.7-16.7,18.1-17.2
			c8.3-0.4,12.7,2.7,14.9,5.4c5,6,3.2,14.3,3,15.2l-5.4-1.3l-5.4-1.3c0.3-1.2,0.4-4.1-0.7-5.5s-4.1-1.4-5.7-1.3
			c-4.7,0.3-7.2,3.9-7.7,7.4c-0.7,5.4,3.1,9.8,10,12C357.3,528.9,362,540,360.8,549.1z"/>
		<path class="st9" d="M413,553.4l0,11.2c0,0-16.5,0-28.9,0c0,0,0,0,0,0c-8.2,0-14.7-4.6-18.5-13c-3.2-7.1-3.9-15.6-3.9-21.5
			c0-23.8,12.4-37.6,23.9-40.4c5.4-1.3,11-0.1,15.3,3.3c3.8,3,6.1,7.4,6.1,11.8h-11.2c0-1-0.7-2.1-1.8-3c-0.9-0.7-2.9-1.8-5.8-1.2
			c-7.4,1.8-15.3,12.7-15.3,29.5c0,6.7,1,12.7,2.9,16.9c2.5,5.6,5.8,6.4,8.3,6.4c0,0,0,0,0,0C396.5,553.4,413,553.4,413,553.4z
			 M415.8,530.2c-1.3,18.3-12,20.6-15.3,20.8c-0.4,0-0.8,0-1.1,0c-3,0-5.7-1-7.8-2.9c-3.6-3.2-5.5-8.7-5.8-17.1
			c-0.5-14.3,4.5-23.4,13-23.8c6-0.3,9.8,2.2,11.9,4.4C414.6,515.6,416.3,522,415.8,530.2z M402.6,519.5c-0.5-0.5-1.3-1.1-3.3-1
			c-0.8,0.6-2.7,4.3-2.4,12.2c0.3,7.3,1.9,9,2,9.1c0,0,0.1,0.1,0.6,0.1c2.6-0.2,4.6-4.3,5-10.5C404.9,524.8,404.2,521,402.6,519.5z
			 M399,512.9l0.3,5.6h0L399,512.9z"/>
		<path class="st9" d="M442.3,501.8c-0.6,9.1-1.8,27.1-1.4,33.9c0.6,9.9-0.1,27.5-0.1,28.3l-11.2-0.4c0-0.2,0.7-17.8,0.1-27.2
			c-0.4-7.2,0.6-24.5,1.3-34.1c-6.5,0.3-13.6,0.6-21,1.1l-0.6-11.2c0.2,0,17.5-1,35.6-1.6c37.6-1.2,41.7,0.5,43.7,1.3l-4.2,10.4
			C481.7,501.2,466.1,501,442.3,501.8z M490,567.3h-11.2c0-4.4-0.6-10.4-1.6-16.7c-2.8-0.1-5.7-0.2-8.2-0.4c-1.3-0.1-3.6,0-6.3,0.2
			c-0.7,5-1.2,9.5-1.2,13h-11.2c0-3.1,0.3-7.3,1-11.9c-1,0.1-2,0.2-2.8,0.3l-1.4-11.1c0.6-0.1,3-0.4,6.1-0.7
			c0.5-2.8,1.1-5.7,1.8-8.5c5-21.1,9.5-24.9,13.6-25.9c2.2-0.5,4.5,0,6.4,1.5c1.6,1.3,5.9,4.6,10.8,28c0.3,1.4,0.6,2.9,0.9,4.4
			c1.9,0,3.2,0,3.2,0l0,11.2c-0.1,0-0.6,0-1.4,0C489.4,557.3,490,563.3,490,567.3z M475.2,539.3c-1.6-7.7-3.4-14.9-5.1-19.3
			c-1.8,4.4-3.7,11.5-5.3,19.1c2-0.1,3.7-0.1,5,0C471.4,539.1,473.2,539.2,475.2,539.3z"/>
		<path class="st9" d="M528.9,549.1c-1.3,9.3-8.5,16.1-17.5,16.3c-0.4,0-0.7,0-1,0c-6.2,0-11.1-1.9-14.6-5.6
			c-2.7-2.9-5.8-8.3-4.9-17.8l0-0.2l11.2,0.7c0,0.1,0,0.3,0,0.6c-0.5,5.3,0.7,7.8,1.9,9.1c1.4,1.5,3.8,2.1,7.1,2
			c4.4-0.1,6.4-3.5,6.8-6.7c0.6-4.1-1.5-9.8-9.1-12.2c-14.7-4.6-18.8-15.9-17.7-24.1c1.2-9.6,8.7-16.7,18.1-17.2
			c8.3-0.4,12.7,2.7,14.9,5.4c5,6,3.2,14.3,3,15.2l-5.4-1.3l-5.4-1.3c0.3-1.2,0.4-4.1-0.7-5.5c-1.2-1.4-4.1-1.4-5.7-1.3
			c-4.7,0.3-7.2,3.9-7.7,7.4c-0.7,5.4,3.1,9.8,10,12C525.5,528.9,530.2,540,528.9,549.1z"/>
		<path class="st9" d="M566.4,491.5c0,0.6-2.3,63.7-2.3,72.2h-11.2c0-3.6,0.4-15.9,0.8-29.5H544v29.5h-11.2v-29.5h-4.1V523h4.1
			v-29.5H544V523h10c0.6-16,1.1-30.7,1.1-31.9L566.4,491.5z"/>
		<path class="st9" d="M611.1,528.2c-1.3,20.4-9.5,33.3-22.1,34.5c-0.5,0-1.1,0.1-1.6,0.1c-3.9,0-7.4-1.3-10.2-3.8
			c-5.6-4.9-8.4-14.1-8.9-28.9c-0.8-23.7,6.2-38.8,18.2-39.4c6.6-0.3,12.3,1.7,16.5,6C610.8,504.6,611.7,518.2,611.1,528.2z
			 M595,504.5c-1.8-1.8-4.1-2.7-7.1-2.7c-0.3,0-0.5,0-0.8,0c-3.4,0.2-8.2,9.2-7.6,27.9c0.5,14.7,3.4,19.4,5.1,20.9
			c0.6,0.6,1.6,1.1,3.4,1c6.5-0.6,11.1-9.8,12-24C600.6,516.7,598.8,508.3,595,504.5z"/>
		<path class="st9" d="M651,507.2c0.1,10.3-8.5,17.7-15.8,22.1c-3.8,2.3-7.6,4-10.3,5.2l-0.1,28.9l-11.2,0l0.3-72.7l4.8-0.7
			c17.5-2.6,23.2,0,26.9,3.1C649.2,496.1,651,500.7,651,507.2z M639.8,507.2c0-3-0.5-4.9-1.5-5.8c-1.7-1.5-6.2-1.9-13.2-1.1
			l-0.1,21.8c1.5-0.7,3.1-1.6,4.6-2.5C633.4,517.3,639.9,512.5,639.8,507.2z"/>
	</g>
</g>
</svg>
