<svg id="Layer_1" data-name="Layer 1" xmlns="http://www.w3.org/2000/svg" viewBox="0 0 1192.5 1167.55">
  <title>huella</title>
  <g id="Grupo_1372" data-name="Grupo 1372" style="opacity: 0.8299999833106995">
    <path id="Trazado_323" data-name="Trazado 323" d="M84.9,526.86A439.42,439.42,0,0,1,218.39,409.52c277-155.13,582.93,20.65,626.5,322.4A452.05,452.05,0,0,1,816.75,973c-33.37,78-96.63,147-169.51,171s-152.56-4.31-180.35-73.82a263.53,263.53,0,0,1-18-95.29c.39-33.1,1.2-67.14-20.6-94.57A102.49,102.49,0,0,0,393,853,122.48,122.48,0,0,0,266,860.12c-32.21,21.69-67.39,46.93-108.26,43a124.77,124.77,0,0,1-72.56-35.88C-20.22,768.49,5.74,632,84.9,526.86Z" style="fill: #efefef"/>
    <g id="Grupo_151" data-name="Grupo 151">
      <g id="Grupo_150" data-name="Grupo 150">
        <path id="Trazado_324" data-name="Trazado 324" d="M587.9,16.85C463.15-1.73,358,138.11,443.82,243.73A146.44,146.44,0,0,0,600,289a146.45,146.45,0,0,0,97.21-130.37C699.27,95.47,652.76,26.51,587.9,16.85Z" style="fill: #efefef"/>
        <path id="Trazado_325" data-name="Trazado 325" d="M917.17,198.13C792.41,179.55,687.29,319.39,773.1,425a142.65,142.65,0,0,0,253.29-85.08C1028.62,276.75,982.09,207.78,917.17,198.13Z" style="fill: #efefef"/>
      </g>
      <path id="Trazado_326" data-name="Trazado 326" d="M1072.68,561.75C975.45,533.27,886,634.86,917.25,729.9a140.48,140.48,0,0,0,180.76,82C1221.45,759.42,1190.4,596.3,1072.68,561.75Z" style="fill: #efefef"/>
      <path id="Trazado_327" data-name="Trazado 327" d="M208.21,85.93C111,57.45,21.48,159,52.79,254.08A140.51,140.51,0,0,0,233.55,336C357,283.63,325.9,120.51,208.21,85.93Z" style="fill: #efefef"/>
    </g>
  </g>
</svg>
