<svg id="Layer_1" data-name="Layer 1" xmlns="http://www.w3.org/2000/svg" viewBox="0 0 434 282">
  <title>icon_5</title>
  <path id="Path_4294" data-name="Path 4294" d="M214.83,92.87s-21-.74-39.9,5.45-27.69,20.4-33.19,31.3-7.84,26.43-5.5,32.87,9.75,19.82,14.92,23.86,7.26,8.26,7.59,10.4,3.84,4.46,7.84,2.23,10.09-11.31,12.09-18.83c-.08.09.67,11,3.17,14.45s7.43,6,13.43,7.1c-.17.33,18.76,8.26,35.52,0,0-.08,14.93.42,15.93-17.92,0-.16,2.84-12.71,2.84-12.71s.83,17.83,11.67,26.26,9.59-3.22,10.93-5,15.92-15.44,20.1-26.34-1.09-30.55-4.5-37.82S272.59,103.19,255.66,98,214.83,92.87,214.83,92.87Z" style="fill: #ffc205;stroke: #ffc205"/>
  <g id="Group_1560" data-name="Group 1560">
    <path id="Path_4294-2" data-name="Path 4294-2" d="M289.48,149c-1.86-29.57-15.63-45.25-26.85-53.2a60.93,60.93,0,0,0-22.92-10l-.31-.06h-.06l-.84-.13-.14,0h0a16.87,16.87,0,0,0-2.24-.16l-21.53-1.73a82.15,82.15,0,0,0-13.31,0l-21.53,1.73a16.32,16.32,0,0,0-2.42.18v0a59.2,59.2,0,0,0-24.28,10.26c-11.22,8-25,23.63-26.85,53.19,0,.6-.82,14.95,15.89,31.46a36.69,36.69,0,0,1,4.48,5.32,14.63,14.63,0,0,1,2.72,5.74,4.75,4.75,0,0,0,3.55,4.2,7.9,7.9,0,0,0,2,.27c3.08,0,6.52-1.59,8-3.45.16-.2.37-.43.62-.71a31.77,31.77,0,0,0,7-12.17l0,.45a17.84,17.84,0,0,0,17.53,17.7l9.78,2.78a31.76,31.76,0,0,0,18.14-.21l8.31-2.56a17.87,17.87,0,0,0,16.92-13.26h.06c0-.06,0-.27.08-.59a18.13,18.13,0,0,0,.45-3.82l.69-4.42a35.21,35.21,0,0,0,9.35,15.81c.41.42.76.78.94,1,1.48,1.85,4.92,3.44,8,3.44a7.13,7.13,0,0,0,2-.27,4.75,4.75,0,0,0,3.55-4.2,14.63,14.63,0,0,1,2.72-5.74,36.09,36.09,0,0,1,4.48-5.31C290.31,163.92,289.52,149.57,289.48,149ZM179.83,89.38l21.77-1.74a78.69,78.69,0,0,1,12.66,0l21.62,1.73H236a13.76,13.76,0,0,1,1.81.12s.41.06,1.09.19A13.83,13.83,0,0,1,249.84,103L245.3,132l-9.81-1.42-5-10.09-5,10.09-8.38,1.22c2.2-9.17,4.2-20.68-.67-26.94a11.53,11.53,0,0,0-8.3-4.28v-.1l-1,0-1,0v.1a11.49,11.49,0,0,0-8.3,4.28c-4.85,6.23-2.89,17.65-.71,26.8l-7.39-1.08-5-10.08-5,10.08-10.62,1.54-3.22-29a13.81,13.81,0,0,1,13.8-13.69ZM231.93,162c-10.33-6.89-18.49-12.33-17.2-20.08.23-1.43.76-3.49,1.36-5.88l.46-1.8,5.91,5.77-1.9,11.08,9.95-5.23,10,5.23L238.57,140l6.46-6.3-5.79,36.88a20.26,20.26,0,0,0-7.31-8.59Zm3.2-18.25-4.62-2.43-4.62,2.43.88-5.15L223,135l5.17-.75,2.31-4.69,2.31,4.69L238,135l-3.74,3.64ZM198.31,136c.6,2.39,1.13,4.45,1.36,5.88,1.35,8-7.42,14.37-17.1,20a22.45,22.45,0,0,0-9,9.43l-4.29-38.64,7.47,7.29-1.9,11.08,10-5.23,10,5.23L192.9,140l5.15-5c.09.36.18.71.26,1.06Zm-8.85,7.71-4.62-2.43-4.62,2.43.88-5.15L177.36,135l5.17-.75,2.31-4.69,2.31,4.69,5.17.75-3.74,3.64Zm-29,45.41c-.3.34-.55.62-.74.86a7.26,7.26,0,0,1-5.8,1.83.78.78,0,0,1-.67-.79c-.24-2.08-1.38-4.63-3.41-7.57a40,40,0,0,0-5-5.9c-15.3-15.11-14.71-28.21-14.7-28.35,1.41-22.39,9.83-39.23,25-50.06a58.07,58.07,0,0,1,9.58-5.52,17.63,17.63,0,0,0-2.78,9.54v.11l6.11,55.05h-.08C170.24,178.1,163.16,186.13,160.5,189.15ZM224,193.78h-.3l-8.88,2.74a27.8,27.8,0,0,1-15.86.18l-10.31-2.92h-.28a13.82,13.82,0,0,1-13.27-10c-.11-1.41-.62-12.43,9.52-18.34,10.91-6.37,20.77-13.7,19-24.15-.26-1.58-.8-3.72-1.43-6.2-2.09-8.24-5.58-22-1.11-27.77,1.33-1.71,3.34-2.63,6.11-2.8,2.77.17,4.78,1.08,6.11,2.8,4.47,5.74,1,19.53-1.11,27.77-.63,2.48-1.17,4.61-1.44,6.2-1.72,10.32,7.86,16.7,18.94,24.09,8.2,5.47,7.91,15.34,7.68,18A13.82,13.82,0,0,1,224,193.77Zm46.78-16.2a40,40,0,0,0-5,5.9c-2,2.94-3.17,5.49-3.4,7.57a.79.79,0,0,1-.68.79,7.26,7.26,0,0,1-5.8-1.83c-.3-.37-.69-.77-1.19-1.29-3.45-3.55-11.53-11.86-9.42-30.86h0l8.53-54.36,0-.31a17.7,17.7,0,0,0-2.71-9.43,58.88,58.88,0,0,1,9.17,5.3c15.28,10.83,23.75,27.71,25.16,50.18,0,.13.6,13.22-14.7,28.34Z" style="fill: #4b4b4b"/>
    <path id="Path_4295" data-name="Path 4295" d="M221.21,170.19H208.76a3.78,3.78,0,0,0,.22-.33l6-10.32a2.66,2.66,0,0,0-1-3.63,2.73,2.73,0,0,0-1.33-.35H200.72a2.66,2.66,0,0,0-2.66,2.65,2.58,2.58,0,0,0,.36,1.33l6,10.32a2.37,2.37,0,0,0,.22.33H193a5.44,5.44,0,0,0-5.28,6.76,19.58,19.58,0,0,0,38.21-1,4.82,4.82,0,0,0-1-4A4.71,4.71,0,0,0,221.21,170.19Zm-22.68,15.25c1.22-1,3.64-2.21,8.15-2.21s7.08,1.09,8.48,2a15.53,15.53,0,0,1-16.63.21ZM222,175.14a15.42,15.42,0,0,1-3.68,7.41c-1.83-1.49-5.36-3.33-11.6-3.33s-9.55,2-11.3,3.68a15.58,15.58,0,0,1-3.8-6.92,1.42,1.42,0,0,1,.26-1.23,1.4,1.4,0,0,1,1.13-.55h28.24a.73.73,0,0,1,.58.27.82.82,0,0,1,.17.67Z" style="fill: #4b4b4b"/>
  </g>
  <rect width="434" height="282" style="fill: none"/>
</svg>
