<?xml version="1.0" encoding="utf-8"?>
<!-- Generator: Adobe Illustrator 23.0.0, SVG Export Plug-In . SVG Version: 6.00 Build 0)  -->
<svg version="1.1" id="Layer_1" xmlns="http://www.w3.org/2000/svg" xmlns:xlink="http://www.w3.org/1999/xlink" x="0px" y="0px"
	 viewBox="0 0 820.6 861.3" style="enable-background:new 0 0 820.6 861.3;" xml:space="preserve">
<style type="text/css">
	.st0{fill:none;stroke:#4B4B4B;stroke-width:0.5;stroke-miterlimit:10;}
	.st1{fill:#FFC205;}
	.st2{fill:#FFEEA4;}
	.st3{fill:#4B4B4B;}
	.st4{fill:#257F63;}
	.st5{fill:#FFF8D9;}
	.st6{fill:#FEE55C;}
	.st7{fill:none;stroke:#FFC205;stroke-width:2;stroke-miterlimit:10;}
	.st8{fill:none;stroke:#FFC205;stroke-width:0.5;stroke-miterlimit:10;}
	.st9{fill:#191919;}
	.st10{clip-path:url(#SVGID_2_);}
	.st11{fill:#FFFFFF;stroke:#4B4B4B;stroke-width:3;}
	.st12{fill:none;stroke:#9E9E9E;stroke-width:3;stroke-miterlimit:10;}
	.st13{fill:none;stroke:#9E9E9E;stroke-width:3;}
	.st14{fill:#FFFFFF;stroke:#9E9E9E;stroke-width:3;}
	.st15{fill:#EFEFEF;}
	.st16{fill:#FFFFFF;}
	.st17{fill:none;stroke:#191919;stroke-width:3;stroke-miterlimit:10;}
</style>
<title>pet</title>
<g id="Group_1405">
	<path id="Path_3692" class="st0" d="M591.4,481.2c14.8-38.8,19.4-62.8,9.1-105.1"/>
	<path id="Path_3693" class="st0" d="M574.3,397.9c9.1,10.3,21.7,18.3,32,25.1l0,0c9.1-9.1,16-20.6,27.4-28.5"/>
	<path id="Path_3694" class="st1" d="M601.7,371h-1.2c-2.8,0-5.1,2.3-5.1,5.1c0,2.8,2.3,5.1,5.1,5.1h1.2c2.8,0,5.2-2.2,5.2-5.1
		c0-2.8-2.2-5.2-5.1-5.2H601.7z"/>
	<path id="Path_3695" class="st1" d="M572,392.7c-2.8,0-5.1,2.3-5.1,5.1v1.1c0,2.8,2.3,5.1,5.1,5.1s5.1-2.3,5.1-5.1v-1.1
		C577.1,395,574.8,392.8,572,392.7z"/>
	<path id="Path_3696" class="st1" d="M634.8,388.2c-6.6,0-6.6,10.3,0,10.3S641.4,388.2,634.8,388.2z"/>
	<path id="Path_3697" class="st2" d="M696.5,449.3c-2.3-24,30.8-41.1,52.5-36.5c28.6,5.7,3.4,28.6-13.7,34.3
		c-12.6,3.4-27.4,3.4-40,3.4"/>
	<path id="Path_3698" class="st2" d="M719.3,481.2c3.4-2.3,10.3-9.1,17.1-11.4c8-3.4,49.1-12.6,56-9.1
		c25.1,13.7-14.8,35.4-28.6,36.5c-14.8,1.1-34.3,1.1-44.5-11.4"/>
	<path id="Path_3699" class="st0" d="M584.5,580.6c2.3-35.4,30.8-86.8,64-101.6c42.3-20.6,88,29.7,125.6-2.3"/>
	<path id="Path_3700" class="st0" d="M686.5,475c-1.1-30.8,36.3-39.5,58-47.5"/>
	<path id="Path_3701" class="st0" d="M197.3,553.2c-11.8-29.6-26.6-59.1-32.5-90.6c-3.9-22.7-11.8-41.4-24.6-59.1
		c-14.8-20.7-32.5-33.5-48.3-51.2"/>
	<path id="Path_3702" class="st0" d="M81,375.8c13.8-1,31.1,7.9,44.8,10.8c1-13.8-3.5-36.5-6.4-50.3"/>
	<path id="Path_3703" class="st0" d="M83,403.4c20.7-1,51.5,9,69.2,19.9c5.9-18.7,4.7-40.6,6.7-60.3"/>
	<path id="Path_3704" class="st0" d="M120.4,438.9c13.8,9.9,30.5,20.8,45.3,27.7c3.9-14.8,13.9-30.6,15.8-45.4"/>
	<path id="Path_3705" class="st1" d="M86.4,339.4h-0.8c-4.2,0-7.6,3.4-7.6,7.6s3.4,7.6,7.6,7.6l0,0h0.8c4.2,0,7.6-3.4,7.6-7.6
		S90.6,339.4,86.4,339.4z"/>
	<path id="Path_3706" class="st1" d="M120.7,327.2c-10.4,0-10.4,16.2,0,16.2S131.1,327.2,120.7,327.2z"/>
	<path id="Path_3707" class="st1" d="M77.1,369c-9.8,0-9.8,15.2,0,15.2S86.9,369,77.1,369z"/>
	<path id="Path_3708" class="st1" d="M156.9,359c-8.3,0-8.3,12.9,0,12.9S165.2,359,156.9,359z"/>
	<path id="Path_3709" class="st1" d="M85,394.6c-8.8,0-8.8,13.6,0,13.6S93.7,394.6,85,394.6z"/>
	<path id="Path_3710" class="st1" d="M122.4,431c-9.6,0-9.6,14.8,0,14.8S132,431,122.4,431z"/>
	<path id="Path_3711" class="st1" d="M180.3,413.9c-9.8,0-9.8,15.1,0,15.1S190.1,413.9,180.3,413.9z"/>
	<path id="Path_3712" class="st3" d="M468,589.2c-6.9-24.4-10.3-65.9,1.1-87.9c6.9-14.6,22.9-29.3,40-29.3
		c16,1.2,22.8,14.6,33.1,25.6c11.4-28.1,34.3-67.1,68.5-58.6c38.8,9.8,25.1,58.6,26.3,89.1c18.3-19.5,65.1-15.9,67.4,17.1
		c2.3,25.6-24,45.2-41.1,57.4c10.3,0,24,0,30.8,11c9.1,13.4-1.1,28.1-13.7,34.2c-24,9.8-64-1.2-87.9-7.3
		c-27.4-7.3-57.1-9.8-85.7-12.2c-29.7-2.5-34.3-2.5-41.1-35.4"/>
	<path id="Path_3713" class="st4" d="M484,523.8c-5.5,0-5.5,8.6,0,8.6S489.5,523.8,484,523.8z"/>
	<path id="Path_3714" class="st4" d="M497.7,494.1c-5.5,0-5.5,8.6,0,8.6S503.3,494.1,497.7,494.1z"/>
	<path id="Path_3715" class="st4" d="M514.9,531.8c-5.5,0-5.5,8.6,0,8.6C520.4,540.4,520.4,531.8,514.9,531.8z"/>
	<path id="Path_3716" class="st5" d="M551.4,511.2c-5.5,0-5.5,8.6,0,8.6S556.9,511.2,551.4,511.2z"/>
	<path id="Path_3717" class="st5" d="M569.7,478.1c-5.5,0-5.5,8.6,0,8.6S575.2,478.1,569.7,478.1z"/>
	<path id="Path_3718" class="st5" d="M584.5,518.1c-5.5,0-5.5,8.6,0,8.6S590.1,518.1,584.5,518.1z"/>
	<path id="Path_3719" class="st5" d="M609.7,487.2c-5.5,0-5.5,8.6,0,8.6S615.2,487.2,609.7,487.2z"/>
	<path id="Path_3720" class="st5" d="M591.4,455.3c-5.5,0-5.5,8.6,0,8.6S596.9,455.3,591.4,455.3z"/>
	<path id="Path_3721" class="st5" d="M621.1,535.2c-5.5,0-5.5,8.6,0,8.6S626.6,535.2,621.1,535.2z"/>
	<path id="Path_3722" class="st5" d="M569.7,551.2c-5.5,0-5.5,8.6,0,8.6S575.2,551.2,569.7,551.2z"/>
	<path id="Path_3723" class="st4" d="M525.1,566c-5.5,0-5.5,8.6,0,8.6S530.7,566,525.1,566z"/>
	<path id="Path_3724" class="st4" d="M489.7,590c-5.5,0-5.5,8.6,0,8.6S495.3,590,489.7,590z"/>
	<path id="Path_3725" class="st4" d="M536.6,612.9h-2.3c-2.4,0-4.3,1.9-4.3,4.3s1.9,4.3,4.3,4.3c0,0,0,0,0,0h2.3
		c2.4,0,4.3-1.9,4.3-4.3S538.9,612.9,536.6,612.9C536.6,612.9,536.6,612.9,536.6,612.9z"/>
	<path id="Path_3726" class="st4" d="M561.7,583.2c-5.5,0-5.5,8.6,0,8.6S567.2,583.2,561.7,583.2z"/>
	<path id="Path_3727" class="st4" d="M600.5,614c-5.5,0-5.5,8.6,0,8.6S606,614,600.5,614z"/>
	<path id="Path_3728" class="st5" d="M601.7,572.9c-5.5,0-5.5,8.6,0,8.6S607.2,572.9,601.7,572.9z"/>
	<path id="Path_3729" class="st5" d="M638.2,586.6c-5.5,0-5.5,8.6,0,8.6S643.7,586.6,638.2,586.6z"/>
	<path id="Path_3730" class="st5" d="M642.8,552.3c-5.5,0-5.5,8.6,0,8.6S648.3,552.3,642.8,552.3z"/>
	<path id="Path_3731" class="st5" d="M678.2,563.8c-5.5,0-5.5,8.6,0,8.6S683.7,563.8,678.2,563.8z"/>
	<path id="Path_3732" class="st5" d="M679.3,531.8c-5.5,0-5.5,8.6,0,8.6S684.9,531.8,679.3,531.8z"/>
	<path id="Path_3733" class="st5" d="M667.9,627.7c-5.5,0-5.5,8.6,0,8.6S673.4,627.7,667.9,627.7z"/>
	<path id="Path_3734" class="st5" d="M634.8,620.9c-5.5,0-5.5,8.6,0,8.6S640.3,620.9,634.8,620.9z"/>
	<path id="Path_3735" class="st6" d="M494.3,644.6c3.4-33.1,19.4-78.8,40-105.1c14.8-17.1,38.8-30.8,25.1,1.1
		c-8,19.4-24,36.5-29.7,56c24-18.3,66.2-72,83.4-60.5c8,13.7-45.7,54.8-58.3,69.7c21.7-9.1,75.7-31.7,83.4-17.1
		c10.3,19.4-25.1,35.4-38.8,40c-30.8,9.1-69.7,21.7-101.6,19.4"/>
	<path id="Path_3736" class="st7" d="M589.1,557.8c-26.3,29.7-70.8,64-93.7,85.7"/>
	<path id="Path_3737" class="st7" d="M541.1,550.9c-13.7,28.6-35.4,61.7-46.8,92.5"/>
	<path id="Path_3738" class="st7" d="M496.6,642.3c37.7-2.3,86.8-22.8,121.1-38.8"/>
	<path id="Path_3739" class="st5" d="M204.2,680c-48-9.1-116.5-34.3-155.3-64c-27.4-20.6-48-48,0-48c25.1,0,54.8,18.3,75.4,29.7
		c-9.1-16-84.5-111.9-48-130.2c22.8-11.4,77.7,34.3,102.8,111.9c6.9-34.3,11.4-48,18.3-107.4c7-60.9,64-36.5,59.4,18.3
		C252.1,540.6,238.4,641.1,204.2,680"/>
	<path id="Path_3740" class="st8" d="M206.5,676.5c-12.6-26.3-27.4-49.1-43.4-74.2c-12.6-19.4-22.8-38.8-36.6-58.3
		c-10.3-14.8-26.3-29.7-30.8-46.8"/>
	<path id="Path_3741" class="st8" d="M206.5,674.3c5.7-27.4,6.9-57.1,10.3-85.7c3.4-36.5,10.2-74.2,10.2-111.9"/>
	<path id="Path_3742" class="st8" d="M205.3,677.7c-20.6-10.3-42.3-27.4-62.8-38.8c-32-18.3-69.7-29.7-98.2-53.7"/>
	<path id="Path_3743" class="st8" d="M70.6,611.5c3.4-6.9,5.7-12.6,10.3-19.5"/>
	<path id="Path_3744" class="st8" d="M98,629.7c4.6-5.7,6.9-13.7,10.3-20.6"/>
	<path id="Path_3745" class="st8" d="M136.8,642.3c2.3-5.6,5.8-10.7,10.3-14.8"/>
	<path id="Path_3746" class="st8" d="M150.5,601.2c6-3.4,11.7-7.2,17.1-11.4"/>
	<path id="Path_3747" class="st8" d="M130,563.5c6.9-3.4,13.7-8,19.4-11.4"/>
	<path id="Path_3748" class="st8" d="M106,530.4c5.7-4.6,11.4-9.1,18.3-12.6"/>
	<path id="Path_3749" class="st8" d="M203.1,595.5c6.9,1.1,12.6,2.3,19.4,2.3"/>
	<path id="Path_3750" class="st8" d="M206.5,550.9c8.6,2.3,17.4,3.5,26.3,3.4"/>
	<path id="Path_3751" class="st8" d="M215.6,506.4c6.9,1.1,14.8,1.1,22.8,1.1"/>
	<path id="Path_3752" class="st1" d="M246.5,656c-38.8-4.6-118.8-6.8-153,16c-73.1,48,95.9,36.5,93.7,68.5
		c-2.3,22.8-73.1,18.3-68.5,50.3c2.3,16,41.1,27.4,54.8,32c45.7,13.7,102.8,13.7,150.8,16C379,841,436,841,490.9,836.5
		c29.7-2.3,130.2-11.4,139.3-48c6.8-27.4-54.8-36.5-48-64c4.6-22.8,54.8-18.3,70.8-27.4c93.7-43.4-36.5-70.8-77.7-73.1
		c-32-2.3-68.5,4.6-100.5-2.3"/>
	<path id="Path_3753" class="st9" d="M244.5,692.5c-39.6-7.6-94.8-88.5-88.3-97.5c4.9-0.8,18.3,13.7,27.4,19.8
		c-16.8-28.9-37.3-80.5-35-94.4c3.4-6.1,16.8,19.8,25.9,28.9c-4.6-28.9,17.5-107,32-102c-0.8,8.2-24.4,86.8-15.2,124.9
		c1.5-4.6,9.9-27,12.2-20.8c-4,41.7-6.1,96.9,39.6,119.7"/>
	<g id="Group_1404">
		<g>
			<defs>
				<path id="SVGID_1_" d="M281.1,444.7c-83.4,101.7-108.5,293.5,60.5,322.1c18.3,2.3,49.1,5.7,56-17.1c17.1,10.3,74.2,0,50.3-26.3
					c13.7,6.8,61.7,20.6,66.3-3.4c2.3-11.4-14.9-18.3-18.3-29.7s0-25.1,2.3-36.5c13.7-50.3,23.8-84.3,17.1-143.9
					c-2.3-20.6-12.6-59.4-26.3-69.7"/>
			</defs>
			<clipPath id="SVGID_2_">
				<use xlink:href="#SVGID_1_"  style="overflow:visible;"/>
			</clipPath>
			<g class="st10">
				<g id="Group_1403">
					<path id="Path_3754" class="st11" d="M281.1,444.7c-9.5,11.7-18.1,24.1-25.6,37.1c-61,105.1-64.1,259.6,86.1,285
						c18.3,2.3,49.1,5.7,56-17.1c17.1,10.3,74.2,0,50.3-26.3c13.7,6.8,61.7,20.6,66.3-3.4c2.3-11.4-14.9-18.3-18.3-29.7
						s0-25.1,2.3-36.5c13.7-50.3,23.8-84.3,17.1-143.9c-2.3-20.6-12.6-59.4-26.3-69.7"/>
					<path id="Path_3755" class="st12" d="M270.8,659.4c17.9-19.4,75.1-76.5,102-50.3c17.9,17.1,2.2,50.3-4.5,69.7
						c-3.4,10.3-14.6,28.5-14.6,38.8c0,17.1,6.7,6.8,21.3,8s32.4,17.8,20,35"/>
					<path id="Path_3756" class="st12" d="M397.2,560.4c3.7,25.2,8.6,50,11.3,75.3s4.8,51,8.6,76.2c15.2-5.3,26.8,3.4,37.3,21.3"/>
					<path id="Path_3757" class="st12" d="M472.5,563.2c3.4,51.7-11,102-25.4,154.5c0,4.6,1,9.5,7.2,11.4"/>
				</g>
			</g>
		</g>
		<path id="Path_3848" class="st13" d="M281.1,444.7c-9.5,11.7-18.1,24.1-25.6,37.1c-61,105.1-64.1,259.6,86.1,285
			c18.3,2.3,49.1,5.7,56-17.1c17.1,10.3,74.2,0,50.3-26.3c13.7,6.8,61.7,20.6,66.3-3.4c2.3-11.4-14.9-18.3-18.3-29.7
			s0-25.1,2.3-36.5c13.7-50.3,23.8-84.3,17.1-143.9c-2.3-20.6-12.6-59.4-26.3-69.7"/>
	</g>
	<path id="Path_3779" class="st3" d="M398.7,521c40.3,0.1,77.5-8.9,111.8-28.1c-4.5-20.1-11.2-45-21.5-52.7l-207.4,6.6
		c-8.2,10.1-15.7,20.8-22.4,32C293.7,513.4,352.1,520.9,398.7,521z"/>
	<path id="Path_3780" class="st14" d="M386.2,260.8c-4-4-17.1-18.9-14.9-25.1c2.3-7.4,13.7,5.7,18.3,8.6c0-5.1-0.6-20,8-20
		c6.3,0,5.7,13.1,6.3,17.7c6.3-4.6,22.3-15.4,17.7,1.7c-2.3,7.4-12.6,17.7-18.8,21.1"/>
	<path id="Path_3781" class="st14" d="M355.9,267.1c-6.9-10.3-12-18.9-25.7-22.3c-18.3-4.6-40,2.3-52.5,16.6
		c-10.3,11.4-17.1,25.7-26.8,37.7c-9.7,11.4-22.8,17.7-34.3,26.8c-16.6,13.1-8,27.4,6.9,38.3c17.7,12.6,38.8,8.6,55.4-4
		c25.1-19.4,31.4-57.1,56.5-76.5c7.4-5.7,15.4-10.3,21.7-16.6"/>
	<path id="Path_3782" class="st15" d="M354.9,265.6c-32.3,7.9-44.8,47.5-69.1,67.9c-23.4,19.7-58.4,24.4-71.3-3.4
		c-9.9,11.8-2.2,23.3,11,33c17.7,12.6,36.8,9.6,53.3-2.9c25.1-19.4,31.4-57.1,56.5-76.5c7.4-5.7,15.4-10.3,21.7-16.6h-1.2
		L354.9,265.6z"/>
	<path id="Path_3783" class="st14" d="M442.8,267.1c6.9-10.3,12-18.9,25.7-22.3c18.3-4.6,40,2.3,52.5,16.6
		c10.3,11.4,17.1,25.7,26.8,37.7c9.7,11.4,22.8,17.7,34.3,26.8c16.6,13.1,8,27.4-6.8,38.3c-17.7,12.6-38.8,8.6-55.4-4
		c-25.1-19.4-31.4-57.1-56.5-76.5c-7.4-5.7-15.4-10.3-21.7-16.6"/>
	<path id="Path_3784" class="st15" d="M509.3,320c-12.4-15.5-20.8-31.1-39-40.7c-8.3-4.5-17.2-7.9-26.4-10.2
		c5.9,5.3,13,9.5,19.6,14.6c25.1,19.4,31.4,57.1,56.5,76.5c16.6,12.6,36.9,14.9,54.7,2.3c10.5-7.7,16.6-16,14.2-25.5
		C560.3,350.5,529.7,345.7,509.3,320z"/>
	<path id="Path_3785" class="st14" d="M412.4,256.2c-59.4-11.4-97.1,21.7-122.2,59.4c-22.8,36.5-44.5,110.8-9.1,145
		c14.9,13.7,51.4,25.1,70.8,29.7c22.8,5.7,50.3,3.4,74.2,2.3c25.1-1.1,51.4-3.4,73.1-14.9c25.1-12.6,30.8-40,33.1-66.3
		C538.1,339.6,489,266.6,412.4,256.2"/>
	<path id="Path_3786" class="st9" d="M363.9,324.8c-12.6-22.3-42.3-10.9-46.8,4c-2.9,7.4,0,17.1-4.6,24.5c-4.6,6.9-14.9,8-16,17.7
		c-4.6,34.8,42.8,19.4,59.4-1.1C367.4,355.6,370.2,340.2,363.9,324.8"/>
	<path id="Path_3787" class="st1" d="M467.8,414.2c-26.8-36.9-58.7-46-73.7-46.3c-26.8-0.6-47.6,14.4-63.9,34.7
		c-14.4,18-28.8,43.7-24.4,67.6c0.4,1.1,0.4,2.2,0,3.3c15.9,6.9,35.9,12.7,47.8,15.5c22.8,5.7,49.2,3,73.1,1.9
		c23.1-1,45.9-3.3,66.5-12.4C490.4,454.6,482.1,433.9,467.8,414.2z"/>
	<path id="Path_3788" class="st16" d="M353.4,345.4c-2.5-4.9-9.1-7.1-13.5-3.2c-3,2.7-4,6.7-4.1,10.7c-0.8,3.7-0.8,7.5,1,10.9
		c3.2,5.9,11.8,4.4,15.1-0.4S356.2,350.8,353.4,345.4z"/>
	<path id="Path_3789" class="st9" d="M448.8,345.4c-2.5-4.9-9.1-7.1-13.5-3.2c-3,2.7-4,6.7-4.1,10.7c-0.8,3.7-0.8,7.5,1,10.9
		c3.2,5.9,11.8,4.4,15.1-0.4S451.5,350.8,448.8,345.4z"/>
	<path id="Path_3790" class="st9" d="M391.9,402.4c-1.7,5.7-6.3,11.4-13.1,12.6c0,8.6-1.1,30.3,10.9,31.4c11.4,1.1,12-16.6,12.6-28
		c-5.1-2.9-8.6-10.3-9.1-16.6"/>
	<path id="Path_3791" class="st17" d="M394.7,375.6c-2.3,12,1.1,25.1-8,34.8c-10.9,11.4-22.8,2.3-24-10.9"/>
	<path id="Path_3792" class="st17" d="M395.9,380.7c-3.4,7.4-4,26.3,1.1,32.5c11.4,13.7,35.4-4.6,25.1-19.4"/>
	<path id="Path_3793" class="st3" d="M410.2,359.6c-9.5-0.1-20.7-2-29.6,1.8c-9.9,4.2,8.2,16.9,11.1,19.7c0.2,0.2,0.5,0.4,0.8,0.5
		c0.8,1.3,2.5,1.8,3.8,1.1c0.2-0.1,0.4-0.3,0.6-0.5c5.8-5.7,13-11.3,16.2-19C413.6,361.5,411.8,359.6,410.2,359.6z"/>
	<path id="Path_3794" class="st9" d="M406.1,368.3c-8.5,4.1-17.2,4.1-26.2,1.8c3.5,4.6,10,9.4,11.7,11c0.2,0.2,0.5,0.4,0.8,0.5
		c0.8,1.3,2.5,1.8,3.8,1.1c0.2-0.1,0.4-0.3,0.6-0.5c5.8-5.7,13-11.3,16.2-19c0-0.1,0.1-0.2,0.1-0.3
		C411.1,365.1,408.7,367,406.1,368.3z"/>
	<path id="Path_3827" class="st3" d="M177.1,707c-5.7-3.4-10.8-7.8-15.1-12.8c-2.2-3.4-7.8-11.2-1.1-12.3
		c3.9-0.6,10.1,7.8,13.4,10.1c0-5-3.4-20.2,5-20.7c7.8-0.6,5.6,14.5,5.6,19.6c5.6-4.5,11.1-13.7,14-7.3c2.8,6.2-8.4,19.6-12.9,23.5"
		/>
	<path id="Path_3828" class="st3" d="M291.3,814.4c-5.7-3.4-10.8-7.8-15.1-12.9c-2.2-3.4-7.8-11.2-1.1-12.3
		c3.9-0.6,10.1,7.8,13.4,10.1c0-5-3.4-20.2,5-20.7c7.8-0.6,5.6,14.5,5.6,19.6c5.6-4.5,11.1-13.7,14-7.3c2.8,6.2-8.4,19.6-12.9,23.5"
		/>
	<path id="Path_3829" class="st3" d="M504.9,785.8c-5.7-3.4-10.8-7.7-15.1-12.8c-2.2-3.4-7.8-11.2-1.1-12.3
		c3.9-0.6,10.1,7.8,13.4,10.1c0-5-3.4-20.2,5-20.7c7.8-0.6,5.6,14.5,5.6,19.6c5.6-4.5,11.1-13.7,14-7.3c2.8,6.2-8.4,19.6-12.9,23.5"
		/>
	<path id="Path_3830" class="st3" d="M583.5,684.8c-5.7-3.4-10.8-7.8-15.1-12.9c-2.2-3.4-7.8-11.2-1.1-12.3
		c3.9-0.6,10.1,7.8,13.4,10.1c0-5-3.4-20.1,5-20.7c7.8-0.6,5.6,14.6,5.6,19.6c5.6-4.5,11.1-13.7,14-7.3c2.8,6.2-8.4,19.6-12.9,23.5"
		/>
	<path id="Path_3831" class="st0" d="M127.7,682.3l14.9,14.8"/>
	<path id="Path_3832" class="st0" d="M220.2,715.4l-13.7,13.7"/>
	<path id="Path_3833" class="st0" d="M197.3,769.1l8,8"/>
	<path id="Path_3834" class="st0" d="M256.7,753.1l-11.4,11.4"/>
	<path id="Path_3835" class="st0" d="M231.6,805.6l12.6,12.6"/>
	<path id="Path_3836" class="st0" d="M358.4,786.2l-10.3,10.3"/>
	<path id="Path_3837" class="st0" d="M406.4,818.2h13.7"/>
	<path id="Path_3838" class="st0" d="M442.9,765.6v18.3"/>
	<path id="Path_3839" class="st0" d="M474.9,807.9l9.1,9.1"/>
	<path id="Path_3840" class="st0" d="M568.5,781.6l-9.1,9.1"/>
	<path id="Path_3841" class="st0" d="M542.3,739.4l11.4,11.4"/>
	<path id="Path_3842" class="st0" d="M525.1,686.8H540"/>
	<path id="Path_3843" class="st0" d="M541.1,642.3l-6.8,6.8"/>
	<path id="Path_3844" class="st0" d="M623.4,676.5l6.8,6.8"/>
	<path id="Path_3845" class="st0" d="M606.2,643.4h18.3"/>
	<path id="Path_3846" class="st0" d="M662.2,665.1l-9.1,9.1"/>
	<path id="Path_3847" class="st1" d="M336.7,220.8c-4.6-53.7-77.7-12.6-100.5-5.7c-73.1,18.3-162.5-26.5-142.8-109.7
		c16-67.4,159.9-125.6,211.3-45.7c20.6,30.8,5.7,48-2.3,77.7c-10.3,41.1,29.7,29.7,40,57.1C344.7,200.3,342.4,218.6,336.7,220.8"/>
</g>
<g>
	<path d="M170.4,77.5c0,0.6-2.3,62-2.3,70.2h-10.9c0-3.5,0.4-15.5,0.8-28.7h-9.4v28.7h-10.9V119h-4v-10.9h4V79.4h10.9v28.7h9.8
		c0.5-15.5,1.1-29.8,1.1-31L170.4,77.5z"/>
	<path d="M213.9,113.1c-1.2,19.9-9.3,32.4-21.5,33.5c-0.5,0-1.1,0.1-1.6,0.1c-3.8,0-7.2-1.3-9.9-3.7c-5.4-4.8-8.2-13.7-8.7-28.1
		c-0.8-23,6-37.7,17.7-38.3c6.4-0.3,11.9,1.7,16,5.8C213.6,90.1,214.5,103.4,213.9,113.1z M198.2,90.1c-1.7-1.8-4-2.6-6.9-2.6
		c-0.3,0-0.5,0-0.8,0c-3.3,0.2-8,8.9-7.4,27.1c0.5,14.3,3.3,18.9,5,20.3c0.6,0.6,1.5,1.1,3.3,0.9c6.3-0.6,10.8-9.5,11.6-23.4
		C203.7,102,201.9,93.8,198.2,90.1z"/>
	<path d="M258.6,135.4l-1.3,10.8c-3-0.3-20.3,1.8-34.6,4l-6.3,1l0.2-74l10.9,0l-0.2,61.3C237.5,137.1,253.9,134.9,258.6,135.4z
		 M273.8,151.1h-10.9c0-6.1-0.7-14.4-1.7-23.1c-2.7-0.1-5.5-0.3-7.9-0.5c-1.4-0.1-4,0-7,0.4c-0.1,1.8-0.2,3.5-0.2,5.2h-10.9
		c0-1.2,0-2.4,0.1-3.7c-0.6,0.1-1.2,0.2-1.7,0.3l-1.8-10.7c0.8-0.1,2.4-0.4,4.5-0.7c0.8-6.1,1.9-12.7,3.4-18.9
		c4.7-20.1,9.1-24,12.8-25.2c2-0.6,4.3-0.3,6.1,1.1c2,1.4,6,4.4,10.9,34.5c0.4,2.5,0.8,5.1,1.2,7.7c1.8,0,2.9,0,2.9,0l0,10.9
		c-0.1,0-0.7,0-1.5,0C273.1,137.4,273.8,145.7,273.8,151.1z M259.7,117.1c-1.7-11.2-3.8-21.8-5.6-28.1c-2.4,6.2-5,17.1-6.6,27.9
		c2.7-0.2,5.1-0.3,6.8-0.2C255.9,116.9,257.8,117,259.7,117.1z"/>
</g>
</svg>
